%FSLAX45Y45*%
G04 Gerber Fmt 4.5, Leading zero omitted, Abs format (unit mm)*
G04 Created by KiCad (PCBNEW (5.0.0)) date 10/10/18 12:12:27*
%MOMM*%
%LPD*%
G01*
G04 APERTURE LIST*
%ADD10C,0.200000*%
%ADD11C,0.300000*%
G04 APERTURE END LIST*
D10*
X15073000Y-4913000D02*
X15153000Y-4993000D01*
X15153000Y-4913000D02*
X15073000Y-4993000D01*
X15073000Y-6437000D02*
X15153000Y-6517000D01*
X15153000Y-6437000D02*
X15073000Y-6517000D01*
X15327000Y-4913000D02*
X15407000Y-4993000D01*
X15407000Y-4913000D02*
X15327000Y-4993000D01*
X15327000Y-6437000D02*
X15407000Y-6517000D01*
X15407000Y-6437000D02*
X15327000Y-6517000D01*
X15581000Y-4913000D02*
X15661000Y-4993000D01*
X15661000Y-4913000D02*
X15581000Y-4993000D01*
X15581000Y-6437000D02*
X15661000Y-6517000D01*
X15661000Y-6437000D02*
X15581000Y-6517000D01*
X15835000Y-4913000D02*
X15915000Y-4993000D01*
X15915000Y-4913000D02*
X15835000Y-4993000D01*
X15835000Y-6437000D02*
X15915000Y-6517000D01*
X15915000Y-6437000D02*
X15835000Y-6517000D01*
X16089000Y-4913000D02*
X16169000Y-4993000D01*
X16169000Y-4913000D02*
X16089000Y-4993000D01*
X16089000Y-6437000D02*
X16169000Y-6517000D01*
X16169000Y-6437000D02*
X16089000Y-6517000D01*
X16343000Y-4913000D02*
X16423000Y-4993000D01*
X16423000Y-4913000D02*
X16343000Y-4993000D01*
X16343000Y-6437000D02*
X16423000Y-6517000D01*
X16423000Y-6437000D02*
X16343000Y-6517000D01*
X16597000Y-4913000D02*
X16677000Y-4993000D01*
X16677000Y-4913000D02*
X16597000Y-4993000D01*
X16597000Y-6437000D02*
X16677000Y-6517000D01*
X16677000Y-6437000D02*
X16597000Y-6517000D01*
X16851000Y-4913000D02*
X16931000Y-4993000D01*
X16931000Y-4913000D02*
X16851000Y-4993000D01*
X16851000Y-6437000D02*
X16931000Y-6517000D01*
X16931000Y-6437000D02*
X16851000Y-6517000D01*
X17105000Y-4913000D02*
X17185000Y-4993000D01*
X17185000Y-4913000D02*
X17105000Y-4993000D01*
X17105000Y-6437000D02*
X17185000Y-6517000D01*
X17185000Y-6437000D02*
X17105000Y-6517000D01*
X17359000Y-4913000D02*
X17439000Y-4993000D01*
X17439000Y-4913000D02*
X17359000Y-4993000D01*
X17359000Y-6437000D02*
X17439000Y-6517000D01*
X17439000Y-6437000D02*
X17359000Y-6517000D01*
X17613000Y-4913000D02*
X17693000Y-4993000D01*
X17693000Y-4913000D02*
X17613000Y-4993000D01*
X17613000Y-6437000D02*
X17693000Y-6517000D01*
X17693000Y-6437000D02*
X17613000Y-6517000D01*
X17867000Y-4913000D02*
X17947000Y-4993000D01*
X17947000Y-4913000D02*
X17867000Y-4993000D01*
X17867000Y-6437000D02*
X17947000Y-6517000D01*
X17947000Y-6437000D02*
X17867000Y-6517000D01*
X18121000Y-4913000D02*
X18201000Y-4993000D01*
X18201000Y-4913000D02*
X18121000Y-4993000D01*
X18121000Y-6437000D02*
X18201000Y-6517000D01*
X18201000Y-6437000D02*
X18121000Y-6517000D01*
X18375000Y-4913000D02*
X18455000Y-4993000D01*
X18455000Y-4913000D02*
X18375000Y-4993000D01*
X18375000Y-6437000D02*
X18455000Y-6517000D01*
X18455000Y-6437000D02*
X18375000Y-6517000D01*
X18629000Y-4913000D02*
X18709000Y-4993000D01*
X18709000Y-4913000D02*
X18629000Y-4993000D01*
X18629000Y-6437000D02*
X18709000Y-6517000D01*
X18709000Y-6437000D02*
X18629000Y-6517000D01*
X15073000Y-3770000D02*
X15153000Y-3850000D01*
X15153000Y-3770000D02*
X15073000Y-3850000D01*
X15073000Y-4532000D02*
X15153000Y-4612000D01*
X15153000Y-4532000D02*
X15073000Y-4612000D01*
X15581000Y-4532000D02*
X15661000Y-4612000D01*
X15661000Y-4532000D02*
X15581000Y-4612000D01*
X16343000Y-4532000D02*
X16423000Y-4612000D01*
X16423000Y-4532000D02*
X16343000Y-4612000D01*
X13549000Y-4659000D02*
X13629000Y-4739000D01*
X13629000Y-4659000D02*
X13549000Y-4739000D01*
X14311000Y-4659000D02*
X14391000Y-4739000D01*
X14391000Y-4659000D02*
X14311000Y-4739000D01*
X13930000Y-6310000D02*
X14010000Y-6390000D01*
X14010000Y-6310000D02*
X13930000Y-6390000D01*
X13930000Y-7072000D02*
X14010000Y-7152000D01*
X14010000Y-7072000D02*
X13930000Y-7152000D01*
X13930000Y-3778000D02*
X14010000Y-3858000D01*
X14010000Y-3778000D02*
X13930000Y-3858000D01*
X13930000Y-4278000D02*
X14010000Y-4358000D01*
X14010000Y-4278000D02*
X13930000Y-4358000D01*
X13168000Y-6310000D02*
X13248000Y-6390000D01*
X13248000Y-6310000D02*
X13168000Y-6390000D01*
X13168000Y-7072000D02*
X13248000Y-7152000D01*
X13248000Y-7072000D02*
X13168000Y-7152000D01*
X18502000Y-4532000D02*
X18582000Y-4612000D01*
X18582000Y-4532000D02*
X18502000Y-4612000D01*
X19264000Y-4532000D02*
X19344000Y-4612000D01*
X19344000Y-4532000D02*
X19264000Y-4612000D01*
X14692000Y-3770000D02*
X14772000Y-3850000D01*
X14772000Y-3770000D02*
X14692000Y-3850000D01*
X14692000Y-4532000D02*
X14772000Y-4612000D01*
X14772000Y-4532000D02*
X14692000Y-4612000D01*
X12914000Y-5167000D02*
X12994000Y-5247000D01*
X12994000Y-5167000D02*
X12914000Y-5247000D01*
X12914000Y-5929000D02*
X12994000Y-6009000D01*
X12994000Y-5929000D02*
X12914000Y-6009000D01*
X13168000Y-5167000D02*
X13248000Y-5247000D01*
X13248000Y-5167000D02*
X13168000Y-5247000D01*
X13168000Y-5929000D02*
X13248000Y-6009000D01*
X13248000Y-5929000D02*
X13168000Y-6009000D01*
X13422000Y-5167000D02*
X13502000Y-5247000D01*
X13502000Y-5167000D02*
X13422000Y-5247000D01*
X13422000Y-5929000D02*
X13502000Y-6009000D01*
X13502000Y-5929000D02*
X13422000Y-6009000D01*
X13676000Y-5167000D02*
X13756000Y-5247000D01*
X13756000Y-5167000D02*
X13676000Y-5247000D01*
X13676000Y-5929000D02*
X13756000Y-6009000D01*
X13756000Y-5929000D02*
X13676000Y-6009000D01*
X13930000Y-5167000D02*
X14010000Y-5247000D01*
X14010000Y-5167000D02*
X13930000Y-5247000D01*
X13930000Y-5929000D02*
X14010000Y-6009000D01*
X14010000Y-5929000D02*
X13930000Y-6009000D01*
X14184000Y-5167000D02*
X14264000Y-5247000D01*
X14264000Y-5167000D02*
X14184000Y-5247000D01*
X14184000Y-5929000D02*
X14264000Y-6009000D01*
X14264000Y-5929000D02*
X14184000Y-6009000D01*
X14438000Y-5167000D02*
X14518000Y-5247000D01*
X14518000Y-5167000D02*
X14438000Y-5247000D01*
X14438000Y-5929000D02*
X14518000Y-6009000D01*
X14518000Y-5929000D02*
X14438000Y-6009000D01*
X12660000Y-3770000D02*
X12740000Y-3850000D01*
X12740000Y-3770000D02*
X12660000Y-3850000D01*
X12660000Y-4270000D02*
X12740000Y-4350000D01*
X12740000Y-4270000D02*
X12660000Y-4350000D01*
X12406000Y-4659000D02*
X12486000Y-4739000D01*
X12486000Y-4659000D02*
X12406000Y-4739000D01*
X13168000Y-4659000D02*
X13248000Y-4739000D01*
X13248000Y-4659000D02*
X13168000Y-4739000D01*
X12406000Y-5802000D02*
X12486000Y-5882000D01*
X12486000Y-5802000D02*
X12406000Y-5882000D01*
X12406000Y-6564000D02*
X12486000Y-6644000D01*
X12486000Y-6564000D02*
X12406000Y-6644000D01*
X10247000Y-4659000D02*
X10327000Y-4739000D01*
X10327000Y-4659000D02*
X10247000Y-4739000D01*
X10247000Y-6437000D02*
X10327000Y-6517000D01*
X10327000Y-6437000D02*
X10247000Y-6517000D01*
X10501000Y-4659000D02*
X10581000Y-4739000D01*
X10581000Y-4659000D02*
X10501000Y-4739000D01*
X10501000Y-6437000D02*
X10581000Y-6517000D01*
X10581000Y-6437000D02*
X10501000Y-6517000D01*
X10755000Y-4659000D02*
X10835000Y-4739000D01*
X10835000Y-4659000D02*
X10755000Y-4739000D01*
X10755000Y-6437000D02*
X10835000Y-6517000D01*
X10835000Y-6437000D02*
X10755000Y-6517000D01*
X11009000Y-4659000D02*
X11089000Y-4739000D01*
X11089000Y-4659000D02*
X11009000Y-4739000D01*
X11009000Y-6437000D02*
X11089000Y-6517000D01*
X11089000Y-6437000D02*
X11009000Y-6517000D01*
X11263000Y-4659000D02*
X11343000Y-4739000D01*
X11343000Y-4659000D02*
X11263000Y-4739000D01*
X11263000Y-6437000D02*
X11343000Y-6517000D01*
X11343000Y-6437000D02*
X11263000Y-6517000D01*
X11517000Y-4659000D02*
X11597000Y-4739000D01*
X11597000Y-4659000D02*
X11517000Y-4739000D01*
X11517000Y-6437000D02*
X11597000Y-6517000D01*
X11597000Y-6437000D02*
X11517000Y-6517000D01*
X11771000Y-4659000D02*
X11851000Y-4739000D01*
X11851000Y-4659000D02*
X11771000Y-4739000D01*
X11771000Y-6437000D02*
X11851000Y-6517000D01*
X11851000Y-6437000D02*
X11771000Y-6517000D01*
X12025000Y-4659000D02*
X12105000Y-4739000D01*
X12105000Y-4659000D02*
X12025000Y-4739000D01*
X12025000Y-6437000D02*
X12105000Y-6517000D01*
X12105000Y-6437000D02*
X12025000Y-6517000D01*
X17068000Y-7239000D02*
G75*
G03X17068000Y-7239000I-50000J0D01*
G01*
X17322000Y-7239000D02*
G75*
G03X17322000Y-7239000I-50000J0D01*
G01*
X17576000Y-7239000D02*
G75*
G03X17576000Y-7239000I-50000J0D01*
G01*
X17830000Y-7239000D02*
G75*
G03X17830000Y-7239000I-50000J0D01*
G01*
X18084000Y-7239000D02*
G75*
G03X18084000Y-7239000I-50000J0D01*
G01*
X18338000Y-7239000D02*
G75*
G03X18338000Y-7239000I-50000J0D01*
G01*
X18592000Y-7239000D02*
G75*
G03X18592000Y-7239000I-50000J0D01*
G01*
X18846000Y-7239000D02*
G75*
G03X18846000Y-7239000I-50000J0D01*
G01*
X11480000Y-7366000D02*
G75*
G03X11480000Y-7366000I-50000J0D01*
G01*
X11734000Y-7366000D02*
G75*
G03X11734000Y-7366000I-50000J0D01*
G01*
X17195000Y-4191000D02*
G75*
G03X17195000Y-4191000I-50000J0D01*
G01*
X17195000Y-4445000D02*
G75*
G03X17195000Y-4445000I-50000J0D01*
G01*
X11988000Y-3937000D02*
G75*
G03X11988000Y-3937000I-50000J0D01*
G01*
X11988000Y-4191000D02*
G75*
G03X11988000Y-4191000I-50000J0D01*
G01*
X17703000Y-4191000D02*
G75*
G03X17703000Y-4191000I-50000J0D01*
G01*
X17703000Y-4445000D02*
G75*
G03X17703000Y-4445000I-50000J0D01*
G01*
X18211000Y-4191000D02*
G75*
G03X18211000Y-4191000I-50000J0D01*
G01*
X18211000Y-4445000D02*
G75*
G03X18211000Y-4445000I-50000J0D01*
G01*
X14351000Y-6422000D02*
X14351000Y-6532000D01*
X14296000Y-6477000D02*
X14406000Y-6477000D01*
X14351000Y-6676000D02*
X14351000Y-6786000D01*
X14296000Y-6731000D02*
X14406000Y-6731000D01*
X14351000Y-6930000D02*
X14351000Y-7040000D01*
X14296000Y-6985000D02*
X14406000Y-6985000D01*
X11811000Y-6930000D02*
X11811000Y-7040000D01*
X11756000Y-6985000D02*
X11866000Y-6985000D01*
X12827000Y-6930000D02*
X12827000Y-7040000D01*
X12772000Y-6985000D02*
X12882000Y-6985000D01*
X10527138Y-3923138D02*
X10527138Y-3696862D01*
X10300862Y-3696862D01*
X10300862Y-3923138D01*
X10527138Y-3923138D01*
X10527138Y-7479138D02*
X10527138Y-7252862D01*
X10300862Y-7252862D01*
X10300862Y-7479138D01*
X10527138Y-7479138D01*
X16496138Y-7479138D02*
X16496138Y-7252862D01*
X16269862Y-7252862D01*
X16269862Y-7479138D01*
X16496138Y-7479138D01*
X19163138Y-3923138D02*
X19163138Y-3696862D01*
X18936862Y-3696862D01*
X18936862Y-3923138D01*
X19163138Y-3923138D01*
D11*
X286429Y-465714D02*
X286429Y-165714D01*
X357857Y-165714D01*
X400714Y-180000D01*
X429286Y-208571D01*
X443571Y-237143D01*
X457857Y-294286D01*
X457857Y-337143D01*
X443571Y-394286D01*
X429286Y-422857D01*
X400714Y-451428D01*
X357857Y-465714D01*
X286429Y-465714D01*
X586429Y-465714D02*
X586429Y-265714D01*
X586429Y-322857D02*
X600714Y-294286D01*
X615000Y-280000D01*
X643571Y-265714D01*
X672143Y-265714D01*
X772143Y-465714D02*
X772143Y-265714D01*
X772143Y-165714D02*
X757857Y-180000D01*
X772143Y-194286D01*
X786428Y-180000D01*
X772143Y-165714D01*
X772143Y-194286D01*
X957857Y-465714D02*
X929286Y-451428D01*
X915000Y-422857D01*
X915000Y-165714D01*
X1115000Y-465714D02*
X1086429Y-451428D01*
X1072143Y-422857D01*
X1072143Y-165714D01*
X1457857Y-465714D02*
X1457857Y-165714D01*
X1557857Y-380000D01*
X1657857Y-165714D01*
X1657857Y-465714D01*
X1929286Y-465714D02*
X1929286Y-308571D01*
X1915000Y-280000D01*
X1886428Y-265714D01*
X1829286Y-265714D01*
X1800714Y-280000D01*
X1929286Y-451428D02*
X1900714Y-465714D01*
X1829286Y-465714D01*
X1800714Y-451428D01*
X1786428Y-422857D01*
X1786428Y-394286D01*
X1800714Y-365714D01*
X1829286Y-351428D01*
X1900714Y-351428D01*
X1929286Y-337143D01*
X2072143Y-265714D02*
X2072143Y-565714D01*
X2072143Y-280000D02*
X2100714Y-265714D01*
X2157857Y-265714D01*
X2186429Y-280000D01*
X2200714Y-294286D01*
X2215000Y-322857D01*
X2215000Y-408571D01*
X2200714Y-437143D01*
X2186429Y-451428D01*
X2157857Y-465714D01*
X2100714Y-465714D01*
X2072143Y-451428D01*
X2343571Y-437143D02*
X2357857Y-451428D01*
X2343571Y-465714D01*
X2329286Y-451428D01*
X2343571Y-437143D01*
X2343571Y-465714D01*
X2343571Y-280000D02*
X2357857Y-294286D01*
X2343571Y-308571D01*
X2329286Y-294286D01*
X2343571Y-280000D01*
X2343571Y-308571D01*
X-80000Y-920000D02*
X0Y-1000000D01*
X0Y-920000D02*
X-80000Y-1000000D01*
X343571Y-795714D02*
X372143Y-795714D01*
X400714Y-810000D01*
X415000Y-824286D01*
X429286Y-852857D01*
X443571Y-910000D01*
X443571Y-981428D01*
X429286Y-1038571D01*
X415000Y-1067143D01*
X400714Y-1081429D01*
X372143Y-1095714D01*
X343571Y-1095714D01*
X315000Y-1081429D01*
X300714Y-1067143D01*
X286429Y-1038571D01*
X272143Y-981428D01*
X272143Y-910000D01*
X286429Y-852857D01*
X300714Y-824286D01*
X315000Y-810000D01*
X343571Y-795714D01*
X572143Y-1067143D02*
X586429Y-1081429D01*
X572143Y-1095714D01*
X557857Y-1081429D01*
X572143Y-1067143D01*
X572143Y-1095714D01*
X757857Y-924286D02*
X729286Y-910000D01*
X715000Y-895714D01*
X700714Y-867143D01*
X700714Y-852857D01*
X715000Y-824286D01*
X729286Y-810000D01*
X757857Y-795714D01*
X815000Y-795714D01*
X843571Y-810000D01*
X857857Y-824286D01*
X872143Y-852857D01*
X872143Y-867143D01*
X857857Y-895714D01*
X843571Y-910000D01*
X815000Y-924286D01*
X757857Y-924286D01*
X729286Y-938571D01*
X715000Y-952857D01*
X700714Y-981428D01*
X700714Y-1038571D01*
X715000Y-1067143D01*
X729286Y-1081429D01*
X757857Y-1095714D01*
X815000Y-1095714D01*
X843571Y-1081429D01*
X857857Y-1067143D01*
X872143Y-1038571D01*
X872143Y-981428D01*
X857857Y-952857D01*
X843571Y-938571D01*
X815000Y-924286D01*
X1057857Y-795714D02*
X1086429Y-795714D01*
X1115000Y-810000D01*
X1129286Y-824286D01*
X1143571Y-852857D01*
X1157857Y-910000D01*
X1157857Y-981428D01*
X1143571Y-1038571D01*
X1129286Y-1067143D01*
X1115000Y-1081429D01*
X1086429Y-1095714D01*
X1057857Y-1095714D01*
X1029286Y-1081429D01*
X1015000Y-1067143D01*
X1000714Y-1038571D01*
X986428Y-981428D01*
X986428Y-910000D01*
X1000714Y-852857D01*
X1015000Y-824286D01*
X1029286Y-810000D01*
X1057857Y-795714D01*
X1286429Y-1095714D02*
X1286429Y-895714D01*
X1286429Y-924286D02*
X1300714Y-910000D01*
X1329286Y-895714D01*
X1372143Y-895714D01*
X1400714Y-910000D01*
X1415000Y-938571D01*
X1415000Y-1095714D01*
X1415000Y-938571D02*
X1429286Y-910000D01*
X1457857Y-895714D01*
X1500714Y-895714D01*
X1529286Y-910000D01*
X1543571Y-938571D01*
X1543571Y-1095714D01*
X1686428Y-1095714D02*
X1686428Y-895714D01*
X1686428Y-924286D02*
X1700714Y-910000D01*
X1729286Y-895714D01*
X1772143Y-895714D01*
X1800714Y-910000D01*
X1815000Y-938571D01*
X1815000Y-1095714D01*
X1815000Y-938571D02*
X1829286Y-910000D01*
X1857857Y-895714D01*
X1900714Y-895714D01*
X1929286Y-910000D01*
X1943571Y-938571D01*
X1943571Y-1095714D01*
X2529286Y-781428D02*
X2272143Y-1167143D01*
X2915000Y-795714D02*
X2943571Y-795714D01*
X2972143Y-810000D01*
X2986428Y-824286D01*
X3000714Y-852857D01*
X3015000Y-910000D01*
X3015000Y-981428D01*
X3000714Y-1038571D01*
X2986428Y-1067143D01*
X2972143Y-1081429D01*
X2943571Y-1095714D01*
X2915000Y-1095714D01*
X2886428Y-1081429D01*
X2872143Y-1067143D01*
X2857857Y-1038571D01*
X2843571Y-981428D01*
X2843571Y-910000D01*
X2857857Y-852857D01*
X2872143Y-824286D01*
X2886428Y-810000D01*
X2915000Y-795714D01*
X3143571Y-1067143D02*
X3157857Y-1081429D01*
X3143571Y-1095714D01*
X3129286Y-1081429D01*
X3143571Y-1067143D01*
X3143571Y-1095714D01*
X3343571Y-795714D02*
X3372143Y-795714D01*
X3400714Y-810000D01*
X3415000Y-824286D01*
X3429286Y-852857D01*
X3443571Y-910000D01*
X3443571Y-981428D01*
X3429286Y-1038571D01*
X3415000Y-1067143D01*
X3400714Y-1081429D01*
X3372143Y-1095714D01*
X3343571Y-1095714D01*
X3315000Y-1081429D01*
X3300714Y-1067143D01*
X3286428Y-1038571D01*
X3272143Y-981428D01*
X3272143Y-910000D01*
X3286428Y-852857D01*
X3300714Y-824286D01*
X3315000Y-810000D01*
X3343571Y-795714D01*
X3543571Y-795714D02*
X3729286Y-795714D01*
X3629286Y-910000D01*
X3672143Y-910000D01*
X3700714Y-924286D01*
X3715000Y-938571D01*
X3729286Y-967143D01*
X3729286Y-1038571D01*
X3715000Y-1067143D01*
X3700714Y-1081429D01*
X3672143Y-1095714D01*
X3586428Y-1095714D01*
X3557857Y-1081429D01*
X3543571Y-1067143D01*
X4015000Y-1095714D02*
X3843571Y-1095714D01*
X3929286Y-1095714D02*
X3929286Y-795714D01*
X3900714Y-838571D01*
X3872143Y-867143D01*
X3843571Y-881428D01*
X4129286Y-795714D02*
X4129286Y-852857D01*
X4243571Y-795714D02*
X4243571Y-852857D01*
X4686429Y-1210000D02*
X4672143Y-1195714D01*
X4643571Y-1152857D01*
X4629286Y-1124286D01*
X4615000Y-1081429D01*
X4600714Y-1010000D01*
X4600714Y-952857D01*
X4615000Y-881428D01*
X4629286Y-838571D01*
X4643571Y-810000D01*
X4672143Y-767143D01*
X4686429Y-752857D01*
X4843571Y-924286D02*
X4815000Y-910000D01*
X4800714Y-895714D01*
X4786429Y-867143D01*
X4786429Y-852857D01*
X4800714Y-824286D01*
X4815000Y-810000D01*
X4843571Y-795714D01*
X4900714Y-795714D01*
X4929286Y-810000D01*
X4943571Y-824286D01*
X4957857Y-852857D01*
X4957857Y-867143D01*
X4943571Y-895714D01*
X4929286Y-910000D01*
X4900714Y-924286D01*
X4843571Y-924286D01*
X4815000Y-938571D01*
X4800714Y-952857D01*
X4786429Y-981428D01*
X4786429Y-1038571D01*
X4800714Y-1067143D01*
X4815000Y-1081429D01*
X4843571Y-1095714D01*
X4900714Y-1095714D01*
X4929286Y-1081429D01*
X4943571Y-1067143D01*
X4957857Y-1038571D01*
X4957857Y-981428D01*
X4943571Y-952857D01*
X4929286Y-938571D01*
X4900714Y-924286D01*
X5072143Y-824286D02*
X5086429Y-810000D01*
X5115000Y-795714D01*
X5186429Y-795714D01*
X5215000Y-810000D01*
X5229286Y-824286D01*
X5243571Y-852857D01*
X5243571Y-881428D01*
X5229286Y-924286D01*
X5057857Y-1095714D01*
X5243571Y-1095714D01*
X5600714Y-1095714D02*
X5600714Y-795714D01*
X5729286Y-1095714D02*
X5729286Y-938571D01*
X5715000Y-910000D01*
X5686428Y-895714D01*
X5643571Y-895714D01*
X5615000Y-910000D01*
X5600714Y-924286D01*
X5915000Y-1095714D02*
X5886428Y-1081429D01*
X5872143Y-1067143D01*
X5857857Y-1038571D01*
X5857857Y-952857D01*
X5872143Y-924286D01*
X5886428Y-910000D01*
X5915000Y-895714D01*
X5957857Y-895714D01*
X5986428Y-910000D01*
X6000714Y-924286D01*
X6015000Y-952857D01*
X6015000Y-1038571D01*
X6000714Y-1067143D01*
X5986428Y-1081429D01*
X5957857Y-1095714D01*
X5915000Y-1095714D01*
X6186428Y-1095714D02*
X6157857Y-1081429D01*
X6143571Y-1052857D01*
X6143571Y-795714D01*
X6415000Y-1081429D02*
X6386428Y-1095714D01*
X6329286Y-1095714D01*
X6300714Y-1081429D01*
X6286428Y-1052857D01*
X6286428Y-938571D01*
X6300714Y-910000D01*
X6329286Y-895714D01*
X6386428Y-895714D01*
X6415000Y-910000D01*
X6429286Y-938571D01*
X6429286Y-967143D01*
X6286428Y-995714D01*
X6543571Y-1081429D02*
X6572143Y-1095714D01*
X6629286Y-1095714D01*
X6657857Y-1081429D01*
X6672143Y-1052857D01*
X6672143Y-1038571D01*
X6657857Y-1010000D01*
X6629286Y-995714D01*
X6586428Y-995714D01*
X6557857Y-981428D01*
X6543571Y-952857D01*
X6543571Y-938571D01*
X6557857Y-910000D01*
X6586428Y-895714D01*
X6629286Y-895714D01*
X6657857Y-910000D01*
X6772143Y-1210000D02*
X6786428Y-1195714D01*
X6815000Y-1152857D01*
X6829286Y-1124286D01*
X6843571Y-1081429D01*
X6857857Y-1010000D01*
X6857857Y-952857D01*
X6843571Y-881428D01*
X6829286Y-838571D01*
X6815000Y-810000D01*
X6786428Y-767143D01*
X6772143Y-752857D01*
X0Y-1356000D02*
G75*
G03X0Y-1356000I-50000J0D01*
G01*
X443571Y-1491714D02*
X272143Y-1491714D01*
X357857Y-1491714D02*
X357857Y-1191714D01*
X329286Y-1234571D01*
X300714Y-1263143D01*
X272143Y-1277429D01*
X572143Y-1463143D02*
X586429Y-1477428D01*
X572143Y-1491714D01*
X557857Y-1477428D01*
X572143Y-1463143D01*
X572143Y-1491714D01*
X772143Y-1191714D02*
X800714Y-1191714D01*
X829286Y-1206000D01*
X843571Y-1220286D01*
X857857Y-1248857D01*
X872143Y-1306000D01*
X872143Y-1377429D01*
X857857Y-1434571D01*
X843571Y-1463143D01*
X829286Y-1477428D01*
X800714Y-1491714D01*
X772143Y-1491714D01*
X743571Y-1477428D01*
X729286Y-1463143D01*
X715000Y-1434571D01*
X700714Y-1377429D01*
X700714Y-1306000D01*
X715000Y-1248857D01*
X729286Y-1220286D01*
X743571Y-1206000D01*
X772143Y-1191714D01*
X1057857Y-1191714D02*
X1086429Y-1191714D01*
X1115000Y-1206000D01*
X1129286Y-1220286D01*
X1143571Y-1248857D01*
X1157857Y-1306000D01*
X1157857Y-1377429D01*
X1143571Y-1434571D01*
X1129286Y-1463143D01*
X1115000Y-1477428D01*
X1086429Y-1491714D01*
X1057857Y-1491714D01*
X1029286Y-1477428D01*
X1015000Y-1463143D01*
X1000714Y-1434571D01*
X986428Y-1377429D01*
X986428Y-1306000D01*
X1000714Y-1248857D01*
X1015000Y-1220286D01*
X1029286Y-1206000D01*
X1057857Y-1191714D01*
X1286429Y-1491714D02*
X1286429Y-1291714D01*
X1286429Y-1320286D02*
X1300714Y-1306000D01*
X1329286Y-1291714D01*
X1372143Y-1291714D01*
X1400714Y-1306000D01*
X1415000Y-1334571D01*
X1415000Y-1491714D01*
X1415000Y-1334571D02*
X1429286Y-1306000D01*
X1457857Y-1291714D01*
X1500714Y-1291714D01*
X1529286Y-1306000D01*
X1543571Y-1334571D01*
X1543571Y-1491714D01*
X1686428Y-1491714D02*
X1686428Y-1291714D01*
X1686428Y-1320286D02*
X1700714Y-1306000D01*
X1729286Y-1291714D01*
X1772143Y-1291714D01*
X1800714Y-1306000D01*
X1815000Y-1334571D01*
X1815000Y-1491714D01*
X1815000Y-1334571D02*
X1829286Y-1306000D01*
X1857857Y-1291714D01*
X1900714Y-1291714D01*
X1929286Y-1306000D01*
X1943571Y-1334571D01*
X1943571Y-1491714D01*
X2529286Y-1177429D02*
X2272143Y-1563143D01*
X2915000Y-1191714D02*
X2943571Y-1191714D01*
X2972143Y-1206000D01*
X2986428Y-1220286D01*
X3000714Y-1248857D01*
X3015000Y-1306000D01*
X3015000Y-1377429D01*
X3000714Y-1434571D01*
X2986428Y-1463143D01*
X2972143Y-1477428D01*
X2943571Y-1491714D01*
X2915000Y-1491714D01*
X2886428Y-1477428D01*
X2872143Y-1463143D01*
X2857857Y-1434571D01*
X2843571Y-1377429D01*
X2843571Y-1306000D01*
X2857857Y-1248857D01*
X2872143Y-1220286D01*
X2886428Y-1206000D01*
X2915000Y-1191714D01*
X3143571Y-1463143D02*
X3157857Y-1477428D01*
X3143571Y-1491714D01*
X3129286Y-1477428D01*
X3143571Y-1463143D01*
X3143571Y-1491714D01*
X3343571Y-1191714D02*
X3372143Y-1191714D01*
X3400714Y-1206000D01*
X3415000Y-1220286D01*
X3429286Y-1248857D01*
X3443571Y-1306000D01*
X3443571Y-1377429D01*
X3429286Y-1434571D01*
X3415000Y-1463143D01*
X3400714Y-1477428D01*
X3372143Y-1491714D01*
X3343571Y-1491714D01*
X3315000Y-1477428D01*
X3300714Y-1463143D01*
X3286428Y-1434571D01*
X3272143Y-1377429D01*
X3272143Y-1306000D01*
X3286428Y-1248857D01*
X3300714Y-1220286D01*
X3315000Y-1206000D01*
X3343571Y-1191714D01*
X3543571Y-1191714D02*
X3729286Y-1191714D01*
X3629286Y-1306000D01*
X3672143Y-1306000D01*
X3700714Y-1320286D01*
X3715000Y-1334571D01*
X3729286Y-1363143D01*
X3729286Y-1434571D01*
X3715000Y-1463143D01*
X3700714Y-1477428D01*
X3672143Y-1491714D01*
X3586428Y-1491714D01*
X3557857Y-1477428D01*
X3543571Y-1463143D01*
X3872143Y-1491714D02*
X3929286Y-1491714D01*
X3957857Y-1477428D01*
X3972143Y-1463143D01*
X4000714Y-1420286D01*
X4015000Y-1363143D01*
X4015000Y-1248857D01*
X4000714Y-1220286D01*
X3986428Y-1206000D01*
X3957857Y-1191714D01*
X3900714Y-1191714D01*
X3872143Y-1206000D01*
X3857857Y-1220286D01*
X3843571Y-1248857D01*
X3843571Y-1320286D01*
X3857857Y-1348857D01*
X3872143Y-1363143D01*
X3900714Y-1377429D01*
X3957857Y-1377429D01*
X3986428Y-1363143D01*
X4000714Y-1348857D01*
X4015000Y-1320286D01*
X4129286Y-1191714D02*
X4129286Y-1248857D01*
X4243571Y-1191714D02*
X4243571Y-1248857D01*
X4686429Y-1606000D02*
X4672143Y-1591714D01*
X4643571Y-1548857D01*
X4629286Y-1520286D01*
X4615000Y-1477428D01*
X4600714Y-1406000D01*
X4600714Y-1348857D01*
X4615000Y-1277429D01*
X4629286Y-1234571D01*
X4643571Y-1206000D01*
X4672143Y-1163143D01*
X4686429Y-1148857D01*
X4957857Y-1491714D02*
X4786429Y-1491714D01*
X4872143Y-1491714D02*
X4872143Y-1191714D01*
X4843571Y-1234571D01*
X4815000Y-1263143D01*
X4786429Y-1277429D01*
X5129286Y-1320286D02*
X5100714Y-1306000D01*
X5086429Y-1291714D01*
X5072143Y-1263143D01*
X5072143Y-1248857D01*
X5086429Y-1220286D01*
X5100714Y-1206000D01*
X5129286Y-1191714D01*
X5186429Y-1191714D01*
X5215000Y-1206000D01*
X5229286Y-1220286D01*
X5243571Y-1248857D01*
X5243571Y-1263143D01*
X5229286Y-1291714D01*
X5215000Y-1306000D01*
X5186429Y-1320286D01*
X5129286Y-1320286D01*
X5100714Y-1334571D01*
X5086429Y-1348857D01*
X5072143Y-1377429D01*
X5072143Y-1434571D01*
X5086429Y-1463143D01*
X5100714Y-1477428D01*
X5129286Y-1491714D01*
X5186429Y-1491714D01*
X5215000Y-1477428D01*
X5229286Y-1463143D01*
X5243571Y-1434571D01*
X5243571Y-1377429D01*
X5229286Y-1348857D01*
X5215000Y-1334571D01*
X5186429Y-1320286D01*
X5600714Y-1491714D02*
X5600714Y-1191714D01*
X5729286Y-1491714D02*
X5729286Y-1334571D01*
X5715000Y-1306000D01*
X5686428Y-1291714D01*
X5643571Y-1291714D01*
X5615000Y-1306000D01*
X5600714Y-1320286D01*
X5915000Y-1491714D02*
X5886428Y-1477428D01*
X5872143Y-1463143D01*
X5857857Y-1434571D01*
X5857857Y-1348857D01*
X5872143Y-1320286D01*
X5886428Y-1306000D01*
X5915000Y-1291714D01*
X5957857Y-1291714D01*
X5986428Y-1306000D01*
X6000714Y-1320286D01*
X6015000Y-1348857D01*
X6015000Y-1434571D01*
X6000714Y-1463143D01*
X5986428Y-1477428D01*
X5957857Y-1491714D01*
X5915000Y-1491714D01*
X6186428Y-1491714D02*
X6157857Y-1477428D01*
X6143571Y-1448857D01*
X6143571Y-1191714D01*
X6415000Y-1477428D02*
X6386428Y-1491714D01*
X6329286Y-1491714D01*
X6300714Y-1477428D01*
X6286428Y-1448857D01*
X6286428Y-1334571D01*
X6300714Y-1306000D01*
X6329286Y-1291714D01*
X6386428Y-1291714D01*
X6415000Y-1306000D01*
X6429286Y-1334571D01*
X6429286Y-1363143D01*
X6286428Y-1391714D01*
X6543571Y-1477428D02*
X6572143Y-1491714D01*
X6629286Y-1491714D01*
X6657857Y-1477428D01*
X6672143Y-1448857D01*
X6672143Y-1434571D01*
X6657857Y-1406000D01*
X6629286Y-1391714D01*
X6586428Y-1391714D01*
X6557857Y-1377429D01*
X6543571Y-1348857D01*
X6543571Y-1334571D01*
X6557857Y-1306000D01*
X6586428Y-1291714D01*
X6629286Y-1291714D01*
X6657857Y-1306000D01*
X6772143Y-1606000D02*
X6786428Y-1591714D01*
X6815000Y-1548857D01*
X6829286Y-1520286D01*
X6843571Y-1477428D01*
X6857857Y-1406000D01*
X6857857Y-1348857D01*
X6843571Y-1277429D01*
X6829286Y-1234571D01*
X6815000Y-1206000D01*
X6786428Y-1163143D01*
X6772143Y-1148857D01*
X-55000Y-1697000D02*
X-55000Y-1807000D01*
X-110000Y-1752000D02*
X0Y-1752000D01*
X443571Y-1887714D02*
X272143Y-1887714D01*
X357857Y-1887714D02*
X357857Y-1587714D01*
X329286Y-1630571D01*
X300714Y-1659143D01*
X272143Y-1673428D01*
X572143Y-1859143D02*
X586429Y-1873428D01*
X572143Y-1887714D01*
X557857Y-1873428D01*
X572143Y-1859143D01*
X572143Y-1887714D01*
X872143Y-1887714D02*
X700714Y-1887714D01*
X786428Y-1887714D02*
X786428Y-1587714D01*
X757857Y-1630571D01*
X729286Y-1659143D01*
X700714Y-1673428D01*
X1057857Y-1587714D02*
X1086429Y-1587714D01*
X1115000Y-1602000D01*
X1129286Y-1616286D01*
X1143571Y-1644857D01*
X1157857Y-1702000D01*
X1157857Y-1773428D01*
X1143571Y-1830571D01*
X1129286Y-1859143D01*
X1115000Y-1873428D01*
X1086429Y-1887714D01*
X1057857Y-1887714D01*
X1029286Y-1873428D01*
X1015000Y-1859143D01*
X1000714Y-1830571D01*
X986428Y-1773428D01*
X986428Y-1702000D01*
X1000714Y-1644857D01*
X1015000Y-1616286D01*
X1029286Y-1602000D01*
X1057857Y-1587714D01*
X1286429Y-1887714D02*
X1286429Y-1687714D01*
X1286429Y-1716286D02*
X1300714Y-1702000D01*
X1329286Y-1687714D01*
X1372143Y-1687714D01*
X1400714Y-1702000D01*
X1415000Y-1730571D01*
X1415000Y-1887714D01*
X1415000Y-1730571D02*
X1429286Y-1702000D01*
X1457857Y-1687714D01*
X1500714Y-1687714D01*
X1529286Y-1702000D01*
X1543571Y-1730571D01*
X1543571Y-1887714D01*
X1686428Y-1887714D02*
X1686428Y-1687714D01*
X1686428Y-1716286D02*
X1700714Y-1702000D01*
X1729286Y-1687714D01*
X1772143Y-1687714D01*
X1800714Y-1702000D01*
X1815000Y-1730571D01*
X1815000Y-1887714D01*
X1815000Y-1730571D02*
X1829286Y-1702000D01*
X1857857Y-1687714D01*
X1900714Y-1687714D01*
X1929286Y-1702000D01*
X1943571Y-1730571D01*
X1943571Y-1887714D01*
X2529286Y-1573428D02*
X2272143Y-1959143D01*
X2915000Y-1587714D02*
X2943571Y-1587714D01*
X2972143Y-1602000D01*
X2986428Y-1616286D01*
X3000714Y-1644857D01*
X3015000Y-1702000D01*
X3015000Y-1773428D01*
X3000714Y-1830571D01*
X2986428Y-1859143D01*
X2972143Y-1873428D01*
X2943571Y-1887714D01*
X2915000Y-1887714D01*
X2886428Y-1873428D01*
X2872143Y-1859143D01*
X2857857Y-1830571D01*
X2843571Y-1773428D01*
X2843571Y-1702000D01*
X2857857Y-1644857D01*
X2872143Y-1616286D01*
X2886428Y-1602000D01*
X2915000Y-1587714D01*
X3143571Y-1859143D02*
X3157857Y-1873428D01*
X3143571Y-1887714D01*
X3129286Y-1873428D01*
X3143571Y-1859143D01*
X3143571Y-1887714D01*
X3343571Y-1587714D02*
X3372143Y-1587714D01*
X3400714Y-1602000D01*
X3415000Y-1616286D01*
X3429286Y-1644857D01*
X3443571Y-1702000D01*
X3443571Y-1773428D01*
X3429286Y-1830571D01*
X3415000Y-1859143D01*
X3400714Y-1873428D01*
X3372143Y-1887714D01*
X3343571Y-1887714D01*
X3315000Y-1873428D01*
X3300714Y-1859143D01*
X3286428Y-1830571D01*
X3272143Y-1773428D01*
X3272143Y-1702000D01*
X3286428Y-1644857D01*
X3300714Y-1616286D01*
X3315000Y-1602000D01*
X3343571Y-1587714D01*
X3700714Y-1687714D02*
X3700714Y-1887714D01*
X3629286Y-1573428D02*
X3557857Y-1787714D01*
X3743571Y-1787714D01*
X3829286Y-1587714D02*
X4015000Y-1587714D01*
X3915000Y-1702000D01*
X3957857Y-1702000D01*
X3986428Y-1716286D01*
X4000714Y-1730571D01*
X4015000Y-1759143D01*
X4015000Y-1830571D01*
X4000714Y-1859143D01*
X3986428Y-1873428D01*
X3957857Y-1887714D01*
X3872143Y-1887714D01*
X3843571Y-1873428D01*
X3829286Y-1859143D01*
X4129286Y-1587714D02*
X4129286Y-1644857D01*
X4243571Y-1587714D02*
X4243571Y-1644857D01*
X4686429Y-2002000D02*
X4672143Y-1987714D01*
X4643571Y-1944857D01*
X4629286Y-1916286D01*
X4615000Y-1873428D01*
X4600714Y-1802000D01*
X4600714Y-1744857D01*
X4615000Y-1673428D01*
X4629286Y-1630571D01*
X4643571Y-1602000D01*
X4672143Y-1559143D01*
X4686429Y-1544857D01*
X4943571Y-1587714D02*
X4800714Y-1587714D01*
X4786429Y-1730571D01*
X4800714Y-1716286D01*
X4829286Y-1702000D01*
X4900714Y-1702000D01*
X4929286Y-1716286D01*
X4943571Y-1730571D01*
X4957857Y-1759143D01*
X4957857Y-1830571D01*
X4943571Y-1859143D01*
X4929286Y-1873428D01*
X4900714Y-1887714D01*
X4829286Y-1887714D01*
X4800714Y-1873428D01*
X4786429Y-1859143D01*
X5315000Y-1887714D02*
X5315000Y-1587714D01*
X5443571Y-1887714D02*
X5443571Y-1730571D01*
X5429286Y-1702000D01*
X5400714Y-1687714D01*
X5357857Y-1687714D01*
X5329286Y-1702000D01*
X5315000Y-1716286D01*
X5629286Y-1887714D02*
X5600714Y-1873428D01*
X5586429Y-1859143D01*
X5572143Y-1830571D01*
X5572143Y-1744857D01*
X5586429Y-1716286D01*
X5600714Y-1702000D01*
X5629286Y-1687714D01*
X5672143Y-1687714D01*
X5700714Y-1702000D01*
X5715000Y-1716286D01*
X5729286Y-1744857D01*
X5729286Y-1830571D01*
X5715000Y-1859143D01*
X5700714Y-1873428D01*
X5672143Y-1887714D01*
X5629286Y-1887714D01*
X5900714Y-1887714D02*
X5872143Y-1873428D01*
X5857857Y-1844857D01*
X5857857Y-1587714D01*
X6129286Y-1873428D02*
X6100714Y-1887714D01*
X6043571Y-1887714D01*
X6015000Y-1873428D01*
X6000714Y-1844857D01*
X6000714Y-1730571D01*
X6015000Y-1702000D01*
X6043571Y-1687714D01*
X6100714Y-1687714D01*
X6129286Y-1702000D01*
X6143571Y-1730571D01*
X6143571Y-1759143D01*
X6000714Y-1787714D01*
X6257857Y-1873428D02*
X6286428Y-1887714D01*
X6343571Y-1887714D01*
X6372143Y-1873428D01*
X6386428Y-1844857D01*
X6386428Y-1830571D01*
X6372143Y-1802000D01*
X6343571Y-1787714D01*
X6300714Y-1787714D01*
X6272143Y-1773428D01*
X6257857Y-1744857D01*
X6257857Y-1730571D01*
X6272143Y-1702000D01*
X6300714Y-1687714D01*
X6343571Y-1687714D01*
X6372143Y-1702000D01*
X6486428Y-2002000D02*
X6500714Y-1987714D01*
X6529286Y-1944857D01*
X6543571Y-1916286D01*
X6557857Y-1873428D01*
X6572143Y-1802000D01*
X6572143Y-1744857D01*
X6557857Y-1673428D01*
X6543571Y-1630571D01*
X6529286Y-1602000D01*
X6500714Y-1559143D01*
X6486428Y-1544857D01*
X-46862Y-2261138D02*
X-46862Y-2034862D01*
X-273138Y-2034862D01*
X-273138Y-2261138D01*
X-46862Y-2261138D01*
X257857Y-1983714D02*
X443571Y-1983714D01*
X343571Y-2098000D01*
X386428Y-2098000D01*
X415000Y-2112286D01*
X429286Y-2126571D01*
X443571Y-2155143D01*
X443571Y-2226571D01*
X429286Y-2255143D01*
X415000Y-2269429D01*
X386428Y-2283714D01*
X300714Y-2283714D01*
X272143Y-2269429D01*
X257857Y-2255143D01*
X572143Y-2255143D02*
X586429Y-2269429D01*
X572143Y-2283714D01*
X557857Y-2269429D01*
X572143Y-2255143D01*
X572143Y-2283714D01*
X700714Y-2012286D02*
X715000Y-1998000D01*
X743571Y-1983714D01*
X815000Y-1983714D01*
X843571Y-1998000D01*
X857857Y-2012286D01*
X872143Y-2040857D01*
X872143Y-2069428D01*
X857857Y-2112286D01*
X686429Y-2283714D01*
X872143Y-2283714D01*
X1057857Y-1983714D02*
X1086429Y-1983714D01*
X1115000Y-1998000D01*
X1129286Y-2012286D01*
X1143571Y-2040857D01*
X1157857Y-2098000D01*
X1157857Y-2169429D01*
X1143571Y-2226571D01*
X1129286Y-2255143D01*
X1115000Y-2269429D01*
X1086429Y-2283714D01*
X1057857Y-2283714D01*
X1029286Y-2269429D01*
X1015000Y-2255143D01*
X1000714Y-2226571D01*
X986428Y-2169429D01*
X986428Y-2098000D01*
X1000714Y-2040857D01*
X1015000Y-2012286D01*
X1029286Y-1998000D01*
X1057857Y-1983714D01*
X1286429Y-2283714D02*
X1286429Y-2083714D01*
X1286429Y-2112286D02*
X1300714Y-2098000D01*
X1329286Y-2083714D01*
X1372143Y-2083714D01*
X1400714Y-2098000D01*
X1415000Y-2126571D01*
X1415000Y-2283714D01*
X1415000Y-2126571D02*
X1429286Y-2098000D01*
X1457857Y-2083714D01*
X1500714Y-2083714D01*
X1529286Y-2098000D01*
X1543571Y-2126571D01*
X1543571Y-2283714D01*
X1686428Y-2283714D02*
X1686428Y-2083714D01*
X1686428Y-2112286D02*
X1700714Y-2098000D01*
X1729286Y-2083714D01*
X1772143Y-2083714D01*
X1800714Y-2098000D01*
X1815000Y-2126571D01*
X1815000Y-2283714D01*
X1815000Y-2126571D02*
X1829286Y-2098000D01*
X1857857Y-2083714D01*
X1900714Y-2083714D01*
X1929286Y-2098000D01*
X1943571Y-2126571D01*
X1943571Y-2283714D01*
X2529286Y-1969428D02*
X2272143Y-2355143D01*
X2915000Y-1983714D02*
X2943571Y-1983714D01*
X2972143Y-1998000D01*
X2986428Y-2012286D01*
X3000714Y-2040857D01*
X3015000Y-2098000D01*
X3015000Y-2169429D01*
X3000714Y-2226571D01*
X2986428Y-2255143D01*
X2972143Y-2269429D01*
X2943571Y-2283714D01*
X2915000Y-2283714D01*
X2886428Y-2269429D01*
X2872143Y-2255143D01*
X2857857Y-2226571D01*
X2843571Y-2169429D01*
X2843571Y-2098000D01*
X2857857Y-2040857D01*
X2872143Y-2012286D01*
X2886428Y-1998000D01*
X2915000Y-1983714D01*
X3143571Y-2255143D02*
X3157857Y-2269429D01*
X3143571Y-2283714D01*
X3129286Y-2269429D01*
X3143571Y-2255143D01*
X3143571Y-2283714D01*
X3443571Y-2283714D02*
X3272143Y-2283714D01*
X3357857Y-2283714D02*
X3357857Y-1983714D01*
X3329286Y-2026571D01*
X3300714Y-2055143D01*
X3272143Y-2069428D01*
X3557857Y-2012286D02*
X3572143Y-1998000D01*
X3600714Y-1983714D01*
X3672143Y-1983714D01*
X3700714Y-1998000D01*
X3715000Y-2012286D01*
X3729286Y-2040857D01*
X3729286Y-2069428D01*
X3715000Y-2112286D01*
X3543571Y-2283714D01*
X3729286Y-2283714D01*
X3986428Y-1983714D02*
X3929286Y-1983714D01*
X3900714Y-1998000D01*
X3886428Y-2012286D01*
X3857857Y-2055143D01*
X3843571Y-2112286D01*
X3843571Y-2226571D01*
X3857857Y-2255143D01*
X3872143Y-2269429D01*
X3900714Y-2283714D01*
X3957857Y-2283714D01*
X3986428Y-2269429D01*
X4000714Y-2255143D01*
X4015000Y-2226571D01*
X4015000Y-2155143D01*
X4000714Y-2126571D01*
X3986428Y-2112286D01*
X3957857Y-2098000D01*
X3900714Y-2098000D01*
X3872143Y-2112286D01*
X3857857Y-2126571D01*
X3843571Y-2155143D01*
X4129286Y-1983714D02*
X4129286Y-2040857D01*
X4243571Y-1983714D02*
X4243571Y-2040857D01*
X4686429Y-2398000D02*
X4672143Y-2383714D01*
X4643571Y-2340857D01*
X4629286Y-2312286D01*
X4615000Y-2269429D01*
X4600714Y-2198000D01*
X4600714Y-2140857D01*
X4615000Y-2069428D01*
X4629286Y-2026571D01*
X4643571Y-1998000D01*
X4672143Y-1955143D01*
X4686429Y-1940857D01*
X4929286Y-2083714D02*
X4929286Y-2283714D01*
X4857857Y-1969428D02*
X4786429Y-2183714D01*
X4972143Y-2183714D01*
X5315000Y-2283714D02*
X5315000Y-1983714D01*
X5443571Y-2283714D02*
X5443571Y-2126571D01*
X5429286Y-2098000D01*
X5400714Y-2083714D01*
X5357857Y-2083714D01*
X5329286Y-2098000D01*
X5315000Y-2112286D01*
X5629286Y-2283714D02*
X5600714Y-2269429D01*
X5586429Y-2255143D01*
X5572143Y-2226571D01*
X5572143Y-2140857D01*
X5586429Y-2112286D01*
X5600714Y-2098000D01*
X5629286Y-2083714D01*
X5672143Y-2083714D01*
X5700714Y-2098000D01*
X5715000Y-2112286D01*
X5729286Y-2140857D01*
X5729286Y-2226571D01*
X5715000Y-2255143D01*
X5700714Y-2269429D01*
X5672143Y-2283714D01*
X5629286Y-2283714D01*
X5900714Y-2283714D02*
X5872143Y-2269429D01*
X5857857Y-2240857D01*
X5857857Y-1983714D01*
X6129286Y-2269429D02*
X6100714Y-2283714D01*
X6043571Y-2283714D01*
X6015000Y-2269429D01*
X6000714Y-2240857D01*
X6000714Y-2126571D01*
X6015000Y-2098000D01*
X6043571Y-2083714D01*
X6100714Y-2083714D01*
X6129286Y-2098000D01*
X6143571Y-2126571D01*
X6143571Y-2155143D01*
X6000714Y-2183714D01*
X6257857Y-2269429D02*
X6286428Y-2283714D01*
X6343571Y-2283714D01*
X6372143Y-2269429D01*
X6386428Y-2240857D01*
X6386428Y-2226571D01*
X6372143Y-2198000D01*
X6343571Y-2183714D01*
X6300714Y-2183714D01*
X6272143Y-2169429D01*
X6257857Y-2140857D01*
X6257857Y-2126571D01*
X6272143Y-2098000D01*
X6300714Y-2083714D01*
X6343571Y-2083714D01*
X6372143Y-2098000D01*
X6486428Y-2398000D02*
X6500714Y-2383714D01*
X6529286Y-2340857D01*
X6543571Y-2312286D01*
X6557857Y-2269429D01*
X6572143Y-2198000D01*
X6572143Y-2140857D01*
X6557857Y-2069428D01*
X6543571Y-2026571D01*
X6529286Y-1998000D01*
X6500714Y-1955143D01*
X6486428Y-1940857D01*
M02*
