G04 #@! TF.GenerationSoftware,KiCad,Pcbnew,(5.0.0)*
G04 #@! TF.CreationDate,2018-10-10T12:07:14+02:00*
G04 #@! TF.ProjectId,CubieKidBoard_V1,43756269654B6964426F6172645F5631,0.1*
G04 #@! TF.SameCoordinates,Original*
G04 #@! TF.FileFunction,Copper,L2,Bot,Signal*
G04 #@! TF.FilePolarity,Positive*
%FSLAX46Y46*%
G04 Gerber Fmt 4.6, Leading zero omitted, Abs format (unit mm)*
G04 Created by KiCad (PCBNEW (5.0.0)) date 10/10/18 12:07:14*
%MOMM*%
%LPD*%
G01*
G04 APERTURE LIST*
%ADD10C,0.100000*%
%ADD11C,0.150000*%
%ADD12C,0.300000*%
%ADD13C,0.400000*%
G04 #@! TA.AperFunction,NonConductor*
%ADD14C,0.300000*%
G04 #@! TD*
G04 #@! TA.AperFunction,ComponentPad*
%ADD15O,3.000000X1.700000*%
G04 #@! TD*
G04 #@! TA.AperFunction,ComponentPad*
%ADD16R,3.000000X1.700000*%
G04 #@! TD*
G04 #@! TA.AperFunction,ComponentPad*
%ADD17R,1.700000X3.000000*%
G04 #@! TD*
G04 #@! TA.AperFunction,ComponentPad*
%ADD18O,1.700000X3.000000*%
G04 #@! TD*
G04 #@! TA.AperFunction,ComponentPad*
%ADD19R,3.000000X1.905000*%
G04 #@! TD*
G04 #@! TA.AperFunction,ComponentPad*
%ADD20O,3.000000X1.905000*%
G04 #@! TD*
G04 #@! TA.AperFunction,ComponentPad*
%ADD21R,1.600000X3.000000*%
G04 #@! TD*
G04 #@! TA.AperFunction,ComponentPad*
%ADD22O,1.600000X3.000000*%
G04 #@! TD*
G04 #@! TA.AperFunction,ComponentPad*
%ADD23C,5.600000*%
G04 #@! TD*
G04 #@! TA.AperFunction,ComponentPad*
%ADD24C,1.600000*%
G04 #@! TD*
G04 #@! TA.AperFunction,ComponentPad*
%ADD25R,1.600000X1.600000*%
G04 #@! TD*
G04 #@! TA.AperFunction,ComponentPad*
%ADD26O,1.600000X1.600000*%
G04 #@! TD*
G04 #@! TA.AperFunction,ComponentPad*
%ADD27O,1.200000X3.000000*%
G04 #@! TD*
G04 #@! TA.AperFunction,ComponentPad*
%ADD28R,2.200000X2.200000*%
G04 #@! TD*
G04 #@! TA.AperFunction,ComponentPad*
%ADD29O,2.200000X2.200000*%
G04 #@! TD*
G04 #@! TA.AperFunction,ComponentPad*
%ADD30O,1.700000X1.700000*%
G04 #@! TD*
G04 #@! TA.AperFunction,ComponentPad*
%ADD31R,1.700000X1.700000*%
G04 #@! TD*
G04 #@! TA.AperFunction,Conductor*
%ADD32C,0.600000*%
G04 #@! TD*
G04 #@! TA.AperFunction,Conductor*
%ADD33C,0.250000*%
G04 #@! TD*
G04 #@! TA.AperFunction,Conductor*
%ADD34C,1.000000*%
G04 #@! TD*
G04 #@! TA.AperFunction,Conductor*
%ADD35C,0.254000*%
G04 #@! TD*
G04 APERTURE END LIST*
D10*
D11*
X177002200Y-166007200D02*
X177002200Y-198007200D01*
X285002200Y-198007200D01*
X285002200Y-166007200D01*
X177002200Y-166007200D01*
D10*
D11*
X10000000Y-10000000D02*
X10000000Y-200007200D01*
X287002200Y-200007200D01*
X287002200Y-10000000D01*
X10000000Y-10000000D01*
D10*
D11*
X12000000Y-12000000D02*
X12000000Y-198007200D01*
X285002200Y-198007200D01*
X285002200Y-12000000D01*
X12000000Y-12000000D01*
D10*
D11*
X60000000Y-12000000D02*
X60000000Y-10000000D01*
D10*
D11*
X110000000Y-12000000D02*
X110000000Y-10000000D01*
D10*
D11*
X160000000Y-12000000D02*
X160000000Y-10000000D01*
D10*
D11*
X210000000Y-12000000D02*
X210000000Y-10000000D01*
D10*
D11*
X260000000Y-12000000D02*
X260000000Y-10000000D01*
D10*
D11*
X36065476Y-11588095D02*
X35322619Y-11588095D01*
X35694047Y-11588095D02*
X35694047Y-10288095D01*
X35570238Y-10473809D01*
X35446428Y-10597619D01*
X35322619Y-10659523D01*
D10*
D11*
X85322619Y-10411904D02*
X85384523Y-10350000D01*
X85508333Y-10288095D01*
X85817857Y-10288095D01*
X85941666Y-10350000D01*
X86003571Y-10411904D01*
X86065476Y-10535714D01*
X86065476Y-10659523D01*
X86003571Y-10845238D01*
X85260714Y-11588095D01*
X86065476Y-11588095D01*
D10*
D11*
X135260714Y-10288095D02*
X136065476Y-10288095D01*
X135632142Y-10783333D01*
X135817857Y-10783333D01*
X135941666Y-10845238D01*
X136003571Y-10907142D01*
X136065476Y-11030952D01*
X136065476Y-11340476D01*
X136003571Y-11464285D01*
X135941666Y-11526190D01*
X135817857Y-11588095D01*
X135446428Y-11588095D01*
X135322619Y-11526190D01*
X135260714Y-11464285D01*
D10*
D11*
X185941666Y-10721428D02*
X185941666Y-11588095D01*
X185632142Y-10226190D02*
X185322619Y-11154761D01*
X186127380Y-11154761D01*
D10*
D11*
X236003571Y-10288095D02*
X235384523Y-10288095D01*
X235322619Y-10907142D01*
X235384523Y-10845238D01*
X235508333Y-10783333D01*
X235817857Y-10783333D01*
X235941666Y-10845238D01*
X236003571Y-10907142D01*
X236065476Y-11030952D01*
X236065476Y-11340476D01*
X236003571Y-11464285D01*
X235941666Y-11526190D01*
X235817857Y-11588095D01*
X235508333Y-11588095D01*
X235384523Y-11526190D01*
X235322619Y-11464285D01*
D10*
D11*
X285941666Y-10288095D02*
X285694047Y-10288095D01*
X285570238Y-10350000D01*
X285508333Y-10411904D01*
X285384523Y-10597619D01*
X285322619Y-10845238D01*
X285322619Y-11340476D01*
X285384523Y-11464285D01*
X285446428Y-11526190D01*
X285570238Y-11588095D01*
X285817857Y-11588095D01*
X285941666Y-11526190D01*
X286003571Y-11464285D01*
X286065476Y-11340476D01*
X286065476Y-11030952D01*
X286003571Y-10907142D01*
X285941666Y-10845238D01*
X285817857Y-10783333D01*
X285570238Y-10783333D01*
X285446428Y-10845238D01*
X285384523Y-10907142D01*
X285322619Y-11030952D01*
D10*
D11*
X60000000Y-198007200D02*
X60000000Y-200007200D01*
D10*
D11*
X110000000Y-198007200D02*
X110000000Y-200007200D01*
D10*
D11*
X160000000Y-198007200D02*
X160000000Y-200007200D01*
D10*
D11*
X210000000Y-198007200D02*
X210000000Y-200007200D01*
D10*
D11*
X260000000Y-198007200D02*
X260000000Y-200007200D01*
D10*
D11*
X36065476Y-199595295D02*
X35322619Y-199595295D01*
X35694047Y-199595295D02*
X35694047Y-198295295D01*
X35570238Y-198481009D01*
X35446428Y-198604819D01*
X35322619Y-198666723D01*
D10*
D11*
X85322619Y-198419104D02*
X85384523Y-198357200D01*
X85508333Y-198295295D01*
X85817857Y-198295295D01*
X85941666Y-198357200D01*
X86003571Y-198419104D01*
X86065476Y-198542914D01*
X86065476Y-198666723D01*
X86003571Y-198852438D01*
X85260714Y-199595295D01*
X86065476Y-199595295D01*
D10*
D11*
X135260714Y-198295295D02*
X136065476Y-198295295D01*
X135632142Y-198790533D01*
X135817857Y-198790533D01*
X135941666Y-198852438D01*
X136003571Y-198914342D01*
X136065476Y-199038152D01*
X136065476Y-199347676D01*
X136003571Y-199471485D01*
X135941666Y-199533390D01*
X135817857Y-199595295D01*
X135446428Y-199595295D01*
X135322619Y-199533390D01*
X135260714Y-199471485D01*
D10*
D11*
X185941666Y-198728628D02*
X185941666Y-199595295D01*
X185632142Y-198233390D02*
X185322619Y-199161961D01*
X186127380Y-199161961D01*
D10*
D11*
X236003571Y-198295295D02*
X235384523Y-198295295D01*
X235322619Y-198914342D01*
X235384523Y-198852438D01*
X235508333Y-198790533D01*
X235817857Y-198790533D01*
X235941666Y-198852438D01*
X236003571Y-198914342D01*
X236065476Y-199038152D01*
X236065476Y-199347676D01*
X236003571Y-199471485D01*
X235941666Y-199533390D01*
X235817857Y-199595295D01*
X235508333Y-199595295D01*
X235384523Y-199533390D01*
X235322619Y-199471485D01*
D10*
D11*
X285941666Y-198295295D02*
X285694047Y-198295295D01*
X285570238Y-198357200D01*
X285508333Y-198419104D01*
X285384523Y-198604819D01*
X285322619Y-198852438D01*
X285322619Y-199347676D01*
X285384523Y-199471485D01*
X285446428Y-199533390D01*
X285570238Y-199595295D01*
X285817857Y-199595295D01*
X285941666Y-199533390D01*
X286003571Y-199471485D01*
X286065476Y-199347676D01*
X286065476Y-199038152D01*
X286003571Y-198914342D01*
X285941666Y-198852438D01*
X285817857Y-198790533D01*
X285570238Y-198790533D01*
X285446428Y-198852438D01*
X285384523Y-198914342D01*
X285322619Y-199038152D01*
D10*
D11*
X10000000Y-60000000D02*
X12000000Y-60000000D01*
D10*
D11*
X10000000Y-110000000D02*
X12000000Y-110000000D01*
D10*
D11*
X10000000Y-160000000D02*
X12000000Y-160000000D01*
D10*
D11*
X10690476Y-35216666D02*
X11309523Y-35216666D01*
X10566666Y-35588095D02*
X11000000Y-34288095D01*
X11433333Y-35588095D01*
D10*
D11*
X11092857Y-84907142D02*
X11278571Y-84969047D01*
X11340476Y-85030952D01*
X11402380Y-85154761D01*
X11402380Y-85340476D01*
X11340476Y-85464285D01*
X11278571Y-85526190D01*
X11154761Y-85588095D01*
X10659523Y-85588095D01*
X10659523Y-84288095D01*
X11092857Y-84288095D01*
X11216666Y-84350000D01*
X11278571Y-84411904D01*
X11340476Y-84535714D01*
X11340476Y-84659523D01*
X11278571Y-84783333D01*
X11216666Y-84845238D01*
X11092857Y-84907142D01*
X10659523Y-84907142D01*
D10*
D11*
X11402380Y-135464285D02*
X11340476Y-135526190D01*
X11154761Y-135588095D01*
X11030952Y-135588095D01*
X10845238Y-135526190D01*
X10721428Y-135402380D01*
X10659523Y-135278571D01*
X10597619Y-135030952D01*
X10597619Y-134845238D01*
X10659523Y-134597619D01*
X10721428Y-134473809D01*
X10845238Y-134350000D01*
X11030952Y-134288095D01*
X11154761Y-134288095D01*
X11340476Y-134350000D01*
X11402380Y-134411904D01*
D10*
D11*
X10659523Y-185588095D02*
X10659523Y-184288095D01*
X10969047Y-184288095D01*
X11154761Y-184350000D01*
X11278571Y-184473809D01*
X11340476Y-184597619D01*
X11402380Y-184845238D01*
X11402380Y-185030952D01*
X11340476Y-185278571D01*
X11278571Y-185402380D01*
X11154761Y-185526190D01*
X10969047Y-185588095D01*
X10659523Y-185588095D01*
D10*
D11*
X287002200Y-60000000D02*
X285002200Y-60000000D01*
D10*
D11*
X287002200Y-110000000D02*
X285002200Y-110000000D01*
D10*
D11*
X287002200Y-160000000D02*
X285002200Y-160000000D01*
D10*
D11*
X285692676Y-35216666D02*
X286311723Y-35216666D01*
X285568866Y-35588095D02*
X286002200Y-34288095D01*
X286435533Y-35588095D01*
D10*
D11*
X286095057Y-84907142D02*
X286280771Y-84969047D01*
X286342676Y-85030952D01*
X286404580Y-85154761D01*
X286404580Y-85340476D01*
X286342676Y-85464285D01*
X286280771Y-85526190D01*
X286156961Y-85588095D01*
X285661723Y-85588095D01*
X285661723Y-84288095D01*
X286095057Y-84288095D01*
X286218866Y-84350000D01*
X286280771Y-84411904D01*
X286342676Y-84535714D01*
X286342676Y-84659523D01*
X286280771Y-84783333D01*
X286218866Y-84845238D01*
X286095057Y-84907142D01*
X285661723Y-84907142D01*
D10*
D11*
X286404580Y-135464285D02*
X286342676Y-135526190D01*
X286156961Y-135588095D01*
X286033152Y-135588095D01*
X285847438Y-135526190D01*
X285723628Y-135402380D01*
X285661723Y-135278571D01*
X285599819Y-135030952D01*
X285599819Y-134845238D01*
X285661723Y-134597619D01*
X285723628Y-134473809D01*
X285847438Y-134350000D01*
X286033152Y-134288095D01*
X286156961Y-134288095D01*
X286342676Y-134350000D01*
X286404580Y-134411904D01*
D10*
D11*
X285661723Y-185588095D02*
X285661723Y-184288095D01*
X285971247Y-184288095D01*
X286156961Y-184350000D01*
X286280771Y-184473809D01*
X286342676Y-184597619D01*
X286404580Y-184845238D01*
X286404580Y-185030952D01*
X286342676Y-185278571D01*
X286280771Y-185402380D01*
X286156961Y-185526190D01*
X285971247Y-185588095D01*
X285661723Y-185588095D01*
D10*
D11*
X200434342Y-193785771D02*
X200434342Y-192285771D01*
X200791485Y-192285771D01*
X201005771Y-192357200D01*
X201148628Y-192500057D01*
X201220057Y-192642914D01*
X201291485Y-192928628D01*
X201291485Y-193142914D01*
X201220057Y-193428628D01*
X201148628Y-193571485D01*
X201005771Y-193714342D01*
X200791485Y-193785771D01*
X200434342Y-193785771D01*
X202577200Y-193785771D02*
X202577200Y-193000057D01*
X202505771Y-192857200D01*
X202362914Y-192785771D01*
X202077200Y-192785771D01*
X201934342Y-192857200D01*
X202577200Y-193714342D02*
X202434342Y-193785771D01*
X202077200Y-193785771D01*
X201934342Y-193714342D01*
X201862914Y-193571485D01*
X201862914Y-193428628D01*
X201934342Y-193285771D01*
X202077200Y-193214342D01*
X202434342Y-193214342D01*
X202577200Y-193142914D01*
X203077200Y-192785771D02*
X203648628Y-192785771D01*
X203291485Y-192285771D02*
X203291485Y-193571485D01*
X203362914Y-193714342D01*
X203505771Y-193785771D01*
X203648628Y-193785771D01*
X204720057Y-193714342D02*
X204577200Y-193785771D01*
X204291485Y-193785771D01*
X204148628Y-193714342D01*
X204077200Y-193571485D01*
X204077200Y-193000057D01*
X204148628Y-192857200D01*
X204291485Y-192785771D01*
X204577200Y-192785771D01*
X204720057Y-192857200D01*
X204791485Y-193000057D01*
X204791485Y-193142914D01*
X204077200Y-193285771D01*
X205434342Y-193642914D02*
X205505771Y-193714342D01*
X205434342Y-193785771D01*
X205362914Y-193714342D01*
X205434342Y-193642914D01*
X205434342Y-193785771D01*
X205434342Y-192857200D02*
X205505771Y-192928628D01*
X205434342Y-193000057D01*
X205362914Y-192928628D01*
X205434342Y-192857200D01*
X205434342Y-193000057D01*
X207220057Y-192428628D02*
X207291485Y-192357200D01*
X207434342Y-192285771D01*
X207791485Y-192285771D01*
X207934342Y-192357200D01*
X208005771Y-192428628D01*
X208077200Y-192571485D01*
X208077200Y-192714342D01*
X208005771Y-192928628D01*
X207148628Y-193785771D01*
X208077200Y-193785771D01*
X209005771Y-192285771D02*
X209148628Y-192285771D01*
X209291485Y-192357200D01*
X209362914Y-192428628D01*
X209434342Y-192571485D01*
X209505771Y-192857200D01*
X209505771Y-193214342D01*
X209434342Y-193500057D01*
X209362914Y-193642914D01*
X209291485Y-193714342D01*
X209148628Y-193785771D01*
X209005771Y-193785771D01*
X208862914Y-193714342D01*
X208791485Y-193642914D01*
X208720057Y-193500057D01*
X208648628Y-193214342D01*
X208648628Y-192857200D01*
X208720057Y-192571485D01*
X208791485Y-192428628D01*
X208862914Y-192357200D01*
X209005771Y-192285771D01*
X210934342Y-193785771D02*
X210077200Y-193785771D01*
X210505771Y-193785771D02*
X210505771Y-192285771D01*
X210362914Y-192500057D01*
X210220057Y-192642914D01*
X210077200Y-192714342D01*
X211791485Y-192928628D02*
X211648628Y-192857200D01*
X211577200Y-192785771D01*
X211505771Y-192642914D01*
X211505771Y-192571485D01*
X211577200Y-192428628D01*
X211648628Y-192357200D01*
X211791485Y-192285771D01*
X212077200Y-192285771D01*
X212220057Y-192357200D01*
X212291485Y-192428628D01*
X212362914Y-192571485D01*
X212362914Y-192642914D01*
X212291485Y-192785771D01*
X212220057Y-192857200D01*
X212077200Y-192928628D01*
X211791485Y-192928628D01*
X211648628Y-193000057D01*
X211577200Y-193071485D01*
X211505771Y-193214342D01*
X211505771Y-193500057D01*
X211577200Y-193642914D01*
X211648628Y-193714342D01*
X211791485Y-193785771D01*
X212077200Y-193785771D01*
X212220057Y-193714342D01*
X212291485Y-193642914D01*
X212362914Y-193500057D01*
X212362914Y-193214342D01*
X212291485Y-193071485D01*
X212220057Y-193000057D01*
X212077200Y-192928628D01*
X213005771Y-193214342D02*
X214148628Y-193214342D01*
X215148628Y-192285771D02*
X215291485Y-192285771D01*
X215434342Y-192357200D01*
X215505771Y-192428628D01*
X215577200Y-192571485D01*
X215648628Y-192857200D01*
X215648628Y-193214342D01*
X215577200Y-193500057D01*
X215505771Y-193642914D01*
X215434342Y-193714342D01*
X215291485Y-193785771D01*
X215148628Y-193785771D01*
X215005771Y-193714342D01*
X214934342Y-193642914D01*
X214862914Y-193500057D01*
X214791485Y-193214342D01*
X214791485Y-192857200D01*
X214862914Y-192571485D01*
X214934342Y-192428628D01*
X215005771Y-192357200D01*
X215148628Y-192285771D01*
X216362914Y-193785771D02*
X216648628Y-193785771D01*
X216791485Y-193714342D01*
X216862914Y-193642914D01*
X217005771Y-193428628D01*
X217077200Y-193142914D01*
X217077200Y-192571485D01*
X217005771Y-192428628D01*
X216934342Y-192357200D01*
X216791485Y-192285771D01*
X216505771Y-192285771D01*
X216362914Y-192357200D01*
X216291485Y-192428628D01*
X216220057Y-192571485D01*
X216220057Y-192928628D01*
X216291485Y-193071485D01*
X216362914Y-193142914D01*
X216505771Y-193214342D01*
X216791485Y-193214342D01*
X216934342Y-193142914D01*
X217005771Y-193071485D01*
X217077200Y-192928628D01*
X217720057Y-193214342D02*
X218862914Y-193214342D01*
X219505771Y-192428628D02*
X219577200Y-192357200D01*
X219720057Y-192285771D01*
X220077200Y-192285771D01*
X220220057Y-192357200D01*
X220291485Y-192428628D01*
X220362914Y-192571485D01*
X220362914Y-192714342D01*
X220291485Y-192928628D01*
X219434342Y-193785771D01*
X220362914Y-193785771D01*
X220934342Y-192428628D02*
X221005771Y-192357200D01*
X221148628Y-192285771D01*
X221505771Y-192285771D01*
X221648628Y-192357200D01*
X221720057Y-192428628D01*
X221791485Y-192571485D01*
X221791485Y-192714342D01*
X221720057Y-192928628D01*
X220862914Y-193785771D01*
X221791485Y-193785771D01*
D10*
D11*
X177002200Y-194507200D02*
X285002200Y-194507200D01*
D10*
D11*
X178434342Y-196585771D02*
X178434342Y-195085771D01*
X179291485Y-196585771D02*
X178648628Y-195728628D01*
X179291485Y-195085771D02*
X178434342Y-195942914D01*
X179934342Y-196585771D02*
X179934342Y-195585771D01*
X179934342Y-195085771D02*
X179862914Y-195157200D01*
X179934342Y-195228628D01*
X180005771Y-195157200D01*
X179934342Y-195085771D01*
X179934342Y-195228628D01*
X181505771Y-196442914D02*
X181434342Y-196514342D01*
X181220057Y-196585771D01*
X181077200Y-196585771D01*
X180862914Y-196514342D01*
X180720057Y-196371485D01*
X180648628Y-196228628D01*
X180577200Y-195942914D01*
X180577200Y-195728628D01*
X180648628Y-195442914D01*
X180720057Y-195300057D01*
X180862914Y-195157200D01*
X181077200Y-195085771D01*
X181220057Y-195085771D01*
X181434342Y-195157200D01*
X181505771Y-195228628D01*
X182791485Y-196585771D02*
X182791485Y-195800057D01*
X182720057Y-195657200D01*
X182577200Y-195585771D01*
X182291485Y-195585771D01*
X182148628Y-195657200D01*
X182791485Y-196514342D02*
X182648628Y-196585771D01*
X182291485Y-196585771D01*
X182148628Y-196514342D01*
X182077200Y-196371485D01*
X182077200Y-196228628D01*
X182148628Y-196085771D01*
X182291485Y-196014342D01*
X182648628Y-196014342D01*
X182791485Y-195942914D01*
X184148628Y-196585771D02*
X184148628Y-195085771D01*
X184148628Y-196514342D02*
X184005771Y-196585771D01*
X183720057Y-196585771D01*
X183577200Y-196514342D01*
X183505771Y-196442914D01*
X183434342Y-196300057D01*
X183434342Y-195871485D01*
X183505771Y-195728628D01*
X183577200Y-195657200D01*
X183720057Y-195585771D01*
X184005771Y-195585771D01*
X184148628Y-195657200D01*
X186005771Y-195800057D02*
X186505771Y-195800057D01*
X186720057Y-196585771D02*
X186005771Y-196585771D01*
X186005771Y-195085771D01*
X186720057Y-195085771D01*
X187362914Y-196442914D02*
X187434342Y-196514342D01*
X187362914Y-196585771D01*
X187291485Y-196514342D01*
X187362914Y-196442914D01*
X187362914Y-196585771D01*
X188077200Y-196585771D02*
X188077200Y-195085771D01*
X188434342Y-195085771D01*
X188648628Y-195157200D01*
X188791485Y-195300057D01*
X188862914Y-195442914D01*
X188934342Y-195728628D01*
X188934342Y-195942914D01*
X188862914Y-196228628D01*
X188791485Y-196371485D01*
X188648628Y-196514342D01*
X188434342Y-196585771D01*
X188077200Y-196585771D01*
X189577200Y-196442914D02*
X189648628Y-196514342D01*
X189577200Y-196585771D01*
X189505771Y-196514342D01*
X189577200Y-196442914D01*
X189577200Y-196585771D01*
X190220057Y-196157200D02*
X190934342Y-196157200D01*
X190077200Y-196585771D02*
X190577200Y-195085771D01*
X191077200Y-196585771D01*
X191577200Y-196442914D02*
X191648628Y-196514342D01*
X191577200Y-196585771D01*
X191505771Y-196514342D01*
X191577200Y-196442914D01*
X191577200Y-196585771D01*
X194577200Y-196585771D02*
X194577200Y-195085771D01*
X194720057Y-196014342D02*
X195148628Y-196585771D01*
X195148628Y-195585771D02*
X194577200Y-196157200D01*
X195791485Y-196585771D02*
X195791485Y-195585771D01*
X195791485Y-195085771D02*
X195720057Y-195157200D01*
X195791485Y-195228628D01*
X195862914Y-195157200D01*
X195791485Y-195085771D01*
X195791485Y-195228628D01*
X197148628Y-196514342D02*
X197005771Y-196585771D01*
X196720057Y-196585771D01*
X196577200Y-196514342D01*
X196505771Y-196442914D01*
X196434342Y-196300057D01*
X196434342Y-195871485D01*
X196505771Y-195728628D01*
X196577200Y-195657200D01*
X196720057Y-195585771D01*
X197005771Y-195585771D01*
X197148628Y-195657200D01*
X198434342Y-196585771D02*
X198434342Y-195800057D01*
X198362914Y-195657200D01*
X198220057Y-195585771D01*
X197934342Y-195585771D01*
X197791485Y-195657200D01*
X198434342Y-196514342D02*
X198291485Y-196585771D01*
X197934342Y-196585771D01*
X197791485Y-196514342D01*
X197720057Y-196371485D01*
X197720057Y-196228628D01*
X197791485Y-196085771D01*
X197934342Y-196014342D01*
X198291485Y-196014342D01*
X198434342Y-195942914D01*
X199791485Y-196585771D02*
X199791485Y-195085771D01*
X199791485Y-196514342D02*
X199648628Y-196585771D01*
X199362914Y-196585771D01*
X199220057Y-196514342D01*
X199148628Y-196442914D01*
X199077200Y-196300057D01*
X199077200Y-195871485D01*
X199148628Y-195728628D01*
X199220057Y-195657200D01*
X199362914Y-195585771D01*
X199648628Y-195585771D01*
X199791485Y-195657200D01*
X202077200Y-197157200D02*
X202005771Y-197085771D01*
X201862914Y-196871485D01*
X201791485Y-196728628D01*
X201720057Y-196514342D01*
X201648628Y-196157200D01*
X201648628Y-195871485D01*
X201720057Y-195514342D01*
X201791485Y-195300057D01*
X201862914Y-195157200D01*
X202005771Y-194942914D01*
X202077200Y-194871485D01*
X203362914Y-195085771D02*
X202648628Y-195085771D01*
X202577200Y-195800057D01*
X202648628Y-195728628D01*
X202791485Y-195657200D01*
X203148628Y-195657200D01*
X203291485Y-195728628D01*
X203362914Y-195800057D01*
X203434342Y-195942914D01*
X203434342Y-196300057D01*
X203362914Y-196442914D01*
X203291485Y-196514342D01*
X203148628Y-196585771D01*
X202791485Y-196585771D01*
X202648628Y-196514342D01*
X202577200Y-196442914D01*
X204077200Y-196442914D02*
X204148628Y-196514342D01*
X204077200Y-196585771D01*
X204005771Y-196514342D01*
X204077200Y-196442914D01*
X204077200Y-196585771D01*
X205077200Y-195085771D02*
X205220057Y-195085771D01*
X205362914Y-195157200D01*
X205434342Y-195228628D01*
X205505771Y-195371485D01*
X205577200Y-195657200D01*
X205577200Y-196014342D01*
X205505771Y-196300057D01*
X205434342Y-196442914D01*
X205362914Y-196514342D01*
X205220057Y-196585771D01*
X205077200Y-196585771D01*
X204934342Y-196514342D01*
X204862914Y-196442914D01*
X204791485Y-196300057D01*
X204720057Y-196014342D01*
X204720057Y-195657200D01*
X204791485Y-195371485D01*
X204862914Y-195228628D01*
X204934342Y-195157200D01*
X205077200Y-195085771D01*
X206220057Y-196442914D02*
X206291485Y-196514342D01*
X206220057Y-196585771D01*
X206148628Y-196514342D01*
X206220057Y-196442914D01*
X206220057Y-196585771D01*
X207220057Y-195085771D02*
X207362914Y-195085771D01*
X207505771Y-195157200D01*
X207577200Y-195228628D01*
X207648628Y-195371485D01*
X207720057Y-195657200D01*
X207720057Y-196014342D01*
X207648628Y-196300057D01*
X207577200Y-196442914D01*
X207505771Y-196514342D01*
X207362914Y-196585771D01*
X207220057Y-196585771D01*
X207077200Y-196514342D01*
X207005771Y-196442914D01*
X206934342Y-196300057D01*
X206862914Y-196014342D01*
X206862914Y-195657200D01*
X206934342Y-195371485D01*
X207005771Y-195228628D01*
X207077200Y-195157200D01*
X207220057Y-195085771D01*
X208220057Y-197157200D02*
X208291485Y-197085771D01*
X208434342Y-196871485D01*
X208505771Y-196728628D01*
X208577200Y-196514342D01*
X208648628Y-196157200D01*
X208648628Y-195871485D01*
X208577200Y-195514342D01*
X208505771Y-195300057D01*
X208434342Y-195157200D01*
X208291485Y-194942914D01*
X208220057Y-194871485D01*
D10*
D11*
X177002200Y-191507200D02*
X285002200Y-191507200D01*
D10*
D12*
X264411485Y-193785771D02*
X263911485Y-193071485D01*
X263554342Y-193785771D02*
X263554342Y-192285771D01*
X264125771Y-192285771D01*
X264268628Y-192357200D01*
X264340057Y-192428628D01*
X264411485Y-192571485D01*
X264411485Y-192785771D01*
X264340057Y-192928628D01*
X264268628Y-193000057D01*
X264125771Y-193071485D01*
X263554342Y-193071485D01*
X265625771Y-193714342D02*
X265482914Y-193785771D01*
X265197200Y-193785771D01*
X265054342Y-193714342D01*
X264982914Y-193571485D01*
X264982914Y-193000057D01*
X265054342Y-192857200D01*
X265197200Y-192785771D01*
X265482914Y-192785771D01*
X265625771Y-192857200D01*
X265697200Y-193000057D01*
X265697200Y-193142914D01*
X264982914Y-193285771D01*
X266197200Y-192785771D02*
X266554342Y-193785771D01*
X266911485Y-192785771D01*
X267482914Y-193642914D02*
X267554342Y-193714342D01*
X267482914Y-193785771D01*
X267411485Y-193714342D01*
X267482914Y-193642914D01*
X267482914Y-193785771D01*
X267482914Y-192857200D02*
X267554342Y-192928628D01*
X267482914Y-193000057D01*
X267411485Y-192928628D01*
X267482914Y-192857200D01*
X267482914Y-193000057D01*
X269625771Y-192285771D02*
X269768628Y-192285771D01*
X269911485Y-192357200D01*
X269982914Y-192428628D01*
X270054342Y-192571485D01*
X270125771Y-192857200D01*
X270125771Y-193214342D01*
X270054342Y-193500057D01*
X269982914Y-193642914D01*
X269911485Y-193714342D01*
X269768628Y-193785771D01*
X269625771Y-193785771D01*
X269482914Y-193714342D01*
X269411485Y-193642914D01*
X269340057Y-193500057D01*
X269268628Y-193214342D01*
X269268628Y-192857200D01*
X269340057Y-192571485D01*
X269411485Y-192428628D01*
X269482914Y-192357200D01*
X269625771Y-192285771D01*
X270768628Y-193642914D02*
X270840057Y-193714342D01*
X270768628Y-193785771D01*
X270697200Y-193714342D01*
X270768628Y-193642914D01*
X270768628Y-193785771D01*
X272268628Y-193785771D02*
X271411485Y-193785771D01*
X271840057Y-193785771D02*
X271840057Y-192285771D01*
X271697200Y-192500057D01*
X271554342Y-192642914D01*
X271411485Y-192714342D01*
D10*
D11*
X178362914Y-193714342D02*
X178577200Y-193785771D01*
X178934342Y-193785771D01*
X179077200Y-193714342D01*
X179148628Y-193642914D01*
X179220057Y-193500057D01*
X179220057Y-193357200D01*
X179148628Y-193214342D01*
X179077200Y-193142914D01*
X178934342Y-193071485D01*
X178648628Y-193000057D01*
X178505771Y-192928628D01*
X178434342Y-192857200D01*
X178362914Y-192714342D01*
X178362914Y-192571485D01*
X178434342Y-192428628D01*
X178505771Y-192357200D01*
X178648628Y-192285771D01*
X179005771Y-192285771D01*
X179220057Y-192357200D01*
X179862914Y-193785771D02*
X179862914Y-192785771D01*
X179862914Y-192285771D02*
X179791485Y-192357200D01*
X179862914Y-192428628D01*
X179934342Y-192357200D01*
X179862914Y-192285771D01*
X179862914Y-192428628D01*
X180434342Y-192785771D02*
X181220057Y-192785771D01*
X180434342Y-193785771D01*
X181220057Y-193785771D01*
X182362914Y-193714342D02*
X182220057Y-193785771D01*
X181934342Y-193785771D01*
X181791485Y-193714342D01*
X181720057Y-193571485D01*
X181720057Y-193000057D01*
X181791485Y-192857200D01*
X181934342Y-192785771D01*
X182220057Y-192785771D01*
X182362914Y-192857200D01*
X182434342Y-193000057D01*
X182434342Y-193142914D01*
X181720057Y-193285771D01*
X183077200Y-193642914D02*
X183148628Y-193714342D01*
X183077200Y-193785771D01*
X183005771Y-193714342D01*
X183077200Y-193642914D01*
X183077200Y-193785771D01*
X183077200Y-192857200D02*
X183148628Y-192928628D01*
X183077200Y-193000057D01*
X183005771Y-192928628D01*
X183077200Y-192857200D01*
X183077200Y-193000057D01*
X184862914Y-193357200D02*
X185577200Y-193357200D01*
X184720057Y-193785771D02*
X185220057Y-192285771D01*
X185720057Y-193785771D01*
X186862914Y-192785771D02*
X186862914Y-193785771D01*
X186505771Y-192214342D02*
X186148628Y-193285771D01*
X187077200Y-193285771D01*
D10*
D11*
X263434342Y-196585771D02*
X263434342Y-195085771D01*
X264791485Y-196585771D02*
X264791485Y-195085771D01*
X264791485Y-196514342D02*
X264648628Y-196585771D01*
X264362914Y-196585771D01*
X264220057Y-196514342D01*
X264148628Y-196442914D01*
X264077200Y-196300057D01*
X264077200Y-195871485D01*
X264148628Y-195728628D01*
X264220057Y-195657200D01*
X264362914Y-195585771D01*
X264648628Y-195585771D01*
X264791485Y-195657200D01*
X265505771Y-196442914D02*
X265577200Y-196514342D01*
X265505771Y-196585771D01*
X265434342Y-196514342D01*
X265505771Y-196442914D01*
X265505771Y-196585771D01*
X265505771Y-195657200D02*
X265577200Y-195728628D01*
X265505771Y-195800057D01*
X265434342Y-195728628D01*
X265505771Y-195657200D01*
X265505771Y-195800057D01*
X268148628Y-196585771D02*
X267291485Y-196585771D01*
X267720057Y-196585771D02*
X267720057Y-195085771D01*
X267577200Y-195300057D01*
X267434342Y-195442914D01*
X267291485Y-195514342D01*
X269862914Y-195014342D02*
X268577200Y-196942914D01*
X271148628Y-196585771D02*
X270291485Y-196585771D01*
X270720057Y-196585771D02*
X270720057Y-195085771D01*
X270577200Y-195300057D01*
X270434342Y-195442914D01*
X270291485Y-195514342D01*
D10*
D11*
X177002200Y-187507200D02*
X285002200Y-187507200D01*
D10*
D13*
X178714580Y-188211961D02*
X179857438Y-188211961D01*
X179036009Y-190211961D02*
X179286009Y-188211961D01*
X180274104Y-190211961D02*
X180440771Y-188878628D01*
X180524104Y-188211961D02*
X180416961Y-188307200D01*
X180500295Y-188402438D01*
X180607438Y-188307200D01*
X180524104Y-188211961D01*
X180500295Y-188402438D01*
X181107438Y-188878628D02*
X181869342Y-188878628D01*
X181476485Y-188211961D02*
X181262200Y-189926247D01*
X181333628Y-190116723D01*
X181512200Y-190211961D01*
X181702676Y-190211961D01*
X182655057Y-190211961D02*
X182476485Y-190116723D01*
X182405057Y-189926247D01*
X182619342Y-188211961D01*
X184190771Y-190116723D02*
X183988390Y-190211961D01*
X183607438Y-190211961D01*
X183428866Y-190116723D01*
X183357438Y-189926247D01*
X183452676Y-189164342D01*
X183571723Y-188973866D01*
X183774104Y-188878628D01*
X184155057Y-188878628D01*
X184333628Y-188973866D01*
X184405057Y-189164342D01*
X184381247Y-189354819D01*
X183405057Y-189545295D01*
X185155057Y-190021485D02*
X185238390Y-190116723D01*
X185131247Y-190211961D01*
X185047914Y-190116723D01*
X185155057Y-190021485D01*
X185131247Y-190211961D01*
X185286009Y-188973866D02*
X185369342Y-189069104D01*
X185262200Y-189164342D01*
X185178866Y-189069104D01*
X185286009Y-188973866D01*
X185262200Y-189164342D01*
X188774104Y-190021485D02*
X188666961Y-190116723D01*
X188369342Y-190211961D01*
X188178866Y-190211961D01*
X187905057Y-190116723D01*
X187738390Y-189926247D01*
X187666961Y-189735771D01*
X187619342Y-189354819D01*
X187655057Y-189069104D01*
X187797914Y-188688152D01*
X187916961Y-188497676D01*
X188131247Y-188307200D01*
X188428866Y-188211961D01*
X188619342Y-188211961D01*
X188893152Y-188307200D01*
X188976485Y-188402438D01*
X190631247Y-188878628D02*
X190464580Y-190211961D01*
X189774104Y-188878628D02*
X189643152Y-189926247D01*
X189714580Y-190116723D01*
X189893152Y-190211961D01*
X190178866Y-190211961D01*
X190381247Y-190116723D01*
X190488390Y-190021485D01*
X191416961Y-190211961D02*
X191666961Y-188211961D01*
X191571723Y-188973866D02*
X191774104Y-188878628D01*
X192155057Y-188878628D01*
X192333628Y-188973866D01*
X192416961Y-189069104D01*
X192488390Y-189259580D01*
X192416961Y-189831009D01*
X192297914Y-190021485D01*
X192190771Y-190116723D01*
X191988390Y-190211961D01*
X191607438Y-190211961D01*
X191428866Y-190116723D01*
X193226485Y-190211961D02*
X193393152Y-188878628D01*
X193476485Y-188211961D02*
X193369342Y-188307200D01*
X193452676Y-188402438D01*
X193559819Y-188307200D01*
X193476485Y-188211961D01*
X193452676Y-188402438D01*
X194952676Y-190116723D02*
X194750295Y-190211961D01*
X194369342Y-190211961D01*
X194190771Y-190116723D01*
X194119342Y-189926247D01*
X194214580Y-189164342D01*
X194333628Y-188973866D01*
X194536009Y-188878628D01*
X194916961Y-188878628D01*
X195095533Y-188973866D01*
X195166961Y-189164342D01*
X195143152Y-189354819D01*
X194166961Y-189545295D01*
X195893152Y-190211961D02*
X196143152Y-188211961D01*
X197036009Y-190211961D02*
X196321723Y-189069104D01*
X197286009Y-188211961D02*
X196000295Y-189354819D01*
X197893152Y-190211961D02*
X198059819Y-188878628D01*
X198143152Y-188211961D02*
X198036009Y-188307200D01*
X198119342Y-188402438D01*
X198226485Y-188307200D01*
X198143152Y-188211961D01*
X198119342Y-188402438D01*
X199702676Y-190211961D02*
X199952676Y-188211961D01*
X199714580Y-190116723D02*
X199512200Y-190211961D01*
X199131247Y-190211961D01*
X198952676Y-190116723D01*
X198869342Y-190021485D01*
X198797914Y-189831009D01*
X198869342Y-189259580D01*
X198988390Y-189069104D01*
X199095533Y-188973866D01*
X199297914Y-188878628D01*
X199678866Y-188878628D01*
X199857438Y-188973866D01*
D10*
D11*
X178934342Y-185600057D02*
X178434342Y-185600057D01*
X178434342Y-186385771D02*
X178434342Y-184885771D01*
X179148628Y-184885771D01*
X179720057Y-186385771D02*
X179720057Y-185385771D01*
X179720057Y-184885771D02*
X179648628Y-184957200D01*
X179720057Y-185028628D01*
X179791485Y-184957200D01*
X179720057Y-184885771D01*
X179720057Y-185028628D01*
X180648628Y-186385771D02*
X180505771Y-186314342D01*
X180434342Y-186171485D01*
X180434342Y-184885771D01*
X181791485Y-186314342D02*
X181648628Y-186385771D01*
X181362914Y-186385771D01*
X181220057Y-186314342D01*
X181148628Y-186171485D01*
X181148628Y-185600057D01*
X181220057Y-185457200D01*
X181362914Y-185385771D01*
X181648628Y-185385771D01*
X181791485Y-185457200D01*
X181862914Y-185600057D01*
X181862914Y-185742914D01*
X181148628Y-185885771D01*
X182505771Y-186242914D02*
X182577200Y-186314342D01*
X182505771Y-186385771D01*
X182434342Y-186314342D01*
X182505771Y-186242914D01*
X182505771Y-186385771D01*
X182505771Y-185457200D02*
X182577200Y-185528628D01*
X182505771Y-185600057D01*
X182434342Y-185528628D01*
X182505771Y-185457200D01*
X182505771Y-185600057D01*
X185220057Y-186242914D02*
X185148628Y-186314342D01*
X184934342Y-186385771D01*
X184791485Y-186385771D01*
X184577200Y-186314342D01*
X184434342Y-186171485D01*
X184362914Y-186028628D01*
X184291485Y-185742914D01*
X184291485Y-185528628D01*
X184362914Y-185242914D01*
X184434342Y-185100057D01*
X184577200Y-184957200D01*
X184791485Y-184885771D01*
X184934342Y-184885771D01*
X185148628Y-184957200D01*
X185220057Y-185028628D01*
X186505771Y-185385771D02*
X186505771Y-186385771D01*
X185862914Y-185385771D02*
X185862914Y-186171485D01*
X185934342Y-186314342D01*
X186077200Y-186385771D01*
X186291485Y-186385771D01*
X186434342Y-186314342D01*
X186505771Y-186242914D01*
X187220057Y-186385771D02*
X187220057Y-184885771D01*
X187220057Y-185457200D02*
X187362914Y-185385771D01*
X187648628Y-185385771D01*
X187791485Y-185457200D01*
X187862914Y-185528628D01*
X187934342Y-185671485D01*
X187934342Y-186100057D01*
X187862914Y-186242914D01*
X187791485Y-186314342D01*
X187648628Y-186385771D01*
X187362914Y-186385771D01*
X187220057Y-186314342D01*
X188577200Y-186385771D02*
X188577200Y-185385771D01*
X188577200Y-184885771D02*
X188505771Y-184957200D01*
X188577200Y-185028628D01*
X188648628Y-184957200D01*
X188577200Y-184885771D01*
X188577200Y-185028628D01*
X189862914Y-186314342D02*
X189720057Y-186385771D01*
X189434342Y-186385771D01*
X189291485Y-186314342D01*
X189220057Y-186171485D01*
X189220057Y-185600057D01*
X189291485Y-185457200D01*
X189434342Y-185385771D01*
X189720057Y-185385771D01*
X189862914Y-185457200D01*
X189934342Y-185600057D01*
X189934342Y-185742914D01*
X189220057Y-185885771D01*
X190577200Y-186385771D02*
X190577200Y-184885771D01*
X191434342Y-186385771D02*
X190791485Y-185528628D01*
X191434342Y-184885771D02*
X190577200Y-185742914D01*
X192077200Y-186385771D02*
X192077200Y-185385771D01*
X192077200Y-184885771D02*
X192005771Y-184957200D01*
X192077200Y-185028628D01*
X192148628Y-184957200D01*
X192077200Y-184885771D01*
X192077200Y-185028628D01*
X193434342Y-186385771D02*
X193434342Y-184885771D01*
X193434342Y-186314342D02*
X193291485Y-186385771D01*
X193005771Y-186385771D01*
X192862914Y-186314342D01*
X192791485Y-186242914D01*
X192720057Y-186100057D01*
X192720057Y-185671485D01*
X192791485Y-185528628D01*
X192862914Y-185457200D01*
X193005771Y-185385771D01*
X193291485Y-185385771D01*
X193434342Y-185457200D01*
X194648628Y-185600057D02*
X194862914Y-185671485D01*
X194934342Y-185742914D01*
X195005771Y-185885771D01*
X195005771Y-186100057D01*
X194934342Y-186242914D01*
X194862914Y-186314342D01*
X194720057Y-186385771D01*
X194148628Y-186385771D01*
X194148628Y-184885771D01*
X194648628Y-184885771D01*
X194791485Y-184957200D01*
X194862914Y-185028628D01*
X194934342Y-185171485D01*
X194934342Y-185314342D01*
X194862914Y-185457200D01*
X194791485Y-185528628D01*
X194648628Y-185600057D01*
X194148628Y-185600057D01*
X195862914Y-186385771D02*
X195720057Y-186314342D01*
X195648628Y-186242914D01*
X195577200Y-186100057D01*
X195577200Y-185671485D01*
X195648628Y-185528628D01*
X195720057Y-185457200D01*
X195862914Y-185385771D01*
X196077200Y-185385771D01*
X196220057Y-185457200D01*
X196291485Y-185528628D01*
X196362914Y-185671485D01*
X196362914Y-186100057D01*
X196291485Y-186242914D01*
X196220057Y-186314342D01*
X196077200Y-186385771D01*
X195862914Y-186385771D01*
X197648628Y-186385771D02*
X197648628Y-185600057D01*
X197577200Y-185457200D01*
X197434342Y-185385771D01*
X197148628Y-185385771D01*
X197005771Y-185457200D01*
X197648628Y-186314342D02*
X197505771Y-186385771D01*
X197148628Y-186385771D01*
X197005771Y-186314342D01*
X196934342Y-186171485D01*
X196934342Y-186028628D01*
X197005771Y-185885771D01*
X197148628Y-185814342D01*
X197505771Y-185814342D01*
X197648628Y-185742914D01*
X198362914Y-186385771D02*
X198362914Y-185385771D01*
X198362914Y-185671485D02*
X198434342Y-185528628D01*
X198505771Y-185457200D01*
X198648628Y-185385771D01*
X198791485Y-185385771D01*
X199934342Y-186385771D02*
X199934342Y-184885771D01*
X199934342Y-186314342D02*
X199791485Y-186385771D01*
X199505771Y-186385771D01*
X199362914Y-186314342D01*
X199291485Y-186242914D01*
X199220057Y-186100057D01*
X199220057Y-185671485D01*
X199291485Y-185528628D01*
X199362914Y-185457200D01*
X199505771Y-185385771D01*
X199791485Y-185385771D01*
X199934342Y-185457200D01*
X200291485Y-186528628D02*
X201434342Y-186528628D01*
X201577200Y-184885771D02*
X202077200Y-186385771D01*
X202577200Y-184885771D01*
X203862914Y-186385771D02*
X203005771Y-186385771D01*
X203434342Y-186385771D02*
X203434342Y-184885771D01*
X203291485Y-185100057D01*
X203148628Y-185242914D01*
X203005771Y-185314342D01*
X204505771Y-186242914D02*
X204577200Y-186314342D01*
X204505771Y-186385771D01*
X204434342Y-186314342D01*
X204505771Y-186242914D01*
X204505771Y-186385771D01*
X205220057Y-186385771D02*
X205220057Y-184885771D01*
X205362914Y-185814342D02*
X205791485Y-186385771D01*
X205791485Y-185385771D02*
X205220057Y-185957200D01*
X206434342Y-186385771D02*
X206434342Y-185385771D01*
X206434342Y-184885771D02*
X206362914Y-184957200D01*
X206434342Y-185028628D01*
X206505771Y-184957200D01*
X206434342Y-184885771D01*
X206434342Y-185028628D01*
X207791485Y-186314342D02*
X207648628Y-186385771D01*
X207362914Y-186385771D01*
X207220057Y-186314342D01*
X207148628Y-186242914D01*
X207077200Y-186100057D01*
X207077200Y-185671485D01*
X207148628Y-185528628D01*
X207220057Y-185457200D01*
X207362914Y-185385771D01*
X207648628Y-185385771D01*
X207791485Y-185457200D01*
X209077200Y-186385771D02*
X209077200Y-185600057D01*
X209005771Y-185457200D01*
X208862914Y-185385771D01*
X208577200Y-185385771D01*
X208434342Y-185457200D01*
X209077200Y-186314342D02*
X208934342Y-186385771D01*
X208577200Y-186385771D01*
X208434342Y-186314342D01*
X208362914Y-186171485D01*
X208362914Y-186028628D01*
X208434342Y-185885771D01*
X208577200Y-185814342D01*
X208934342Y-185814342D01*
X209077200Y-185742914D01*
X210434342Y-186385771D02*
X210434342Y-184885771D01*
X210434342Y-186314342D02*
X210291485Y-186385771D01*
X210005771Y-186385771D01*
X209862914Y-186314342D01*
X209791485Y-186242914D01*
X209720057Y-186100057D01*
X209720057Y-185671485D01*
X209791485Y-185528628D01*
X209862914Y-185457200D01*
X210005771Y-185385771D01*
X210291485Y-185385771D01*
X210434342Y-185457200D01*
X210791485Y-186528628D02*
X211934342Y-186528628D01*
X212291485Y-185385771D02*
X212291485Y-186885771D01*
X212291485Y-185457200D02*
X212434342Y-185385771D01*
X212720057Y-185385771D01*
X212862914Y-185457200D01*
X212934342Y-185528628D01*
X213005771Y-185671485D01*
X213005771Y-186100057D01*
X212934342Y-186242914D01*
X212862914Y-186314342D01*
X212720057Y-186385771D01*
X212434342Y-186385771D01*
X212291485Y-186314342D01*
X214291485Y-186314342D02*
X214148628Y-186385771D01*
X213862914Y-186385771D01*
X213720057Y-186314342D01*
X213648628Y-186242914D01*
X213577200Y-186100057D01*
X213577200Y-185671485D01*
X213648628Y-185528628D01*
X213720057Y-185457200D01*
X213862914Y-185385771D01*
X214148628Y-185385771D01*
X214291485Y-185457200D01*
X214934342Y-186385771D02*
X214934342Y-184885771D01*
X214934342Y-185457200D02*
X215077200Y-185385771D01*
X215362914Y-185385771D01*
X215505771Y-185457200D01*
X215577200Y-185528628D01*
X215648628Y-185671485D01*
X215648628Y-186100057D01*
X215577200Y-186242914D01*
X215505771Y-186314342D01*
X215362914Y-186385771D01*
X215077200Y-186385771D01*
X214934342Y-186314342D01*
D10*
D11*
X177002200Y-181507200D02*
X285002200Y-181507200D01*
D10*
D11*
X178362914Y-183614342D02*
X178577200Y-183685771D01*
X178934342Y-183685771D01*
X179077200Y-183614342D01*
X179148628Y-183542914D01*
X179220057Y-183400057D01*
X179220057Y-183257200D01*
X179148628Y-183114342D01*
X179077200Y-183042914D01*
X178934342Y-182971485D01*
X178648628Y-182900057D01*
X178505771Y-182828628D01*
X178434342Y-182757200D01*
X178362914Y-182614342D01*
X178362914Y-182471485D01*
X178434342Y-182328628D01*
X178505771Y-182257200D01*
X178648628Y-182185771D01*
X179005771Y-182185771D01*
X179220057Y-182257200D01*
X179862914Y-183685771D02*
X179862914Y-182185771D01*
X180505771Y-183685771D02*
X180505771Y-182900057D01*
X180434342Y-182757200D01*
X180291485Y-182685771D01*
X180077200Y-182685771D01*
X179934342Y-182757200D01*
X179862914Y-182828628D01*
X181791485Y-183614342D02*
X181648628Y-183685771D01*
X181362914Y-183685771D01*
X181220057Y-183614342D01*
X181148628Y-183471485D01*
X181148628Y-182900057D01*
X181220057Y-182757200D01*
X181362914Y-182685771D01*
X181648628Y-182685771D01*
X181791485Y-182757200D01*
X181862914Y-182900057D01*
X181862914Y-183042914D01*
X181148628Y-183185771D01*
X183077200Y-183614342D02*
X182934342Y-183685771D01*
X182648628Y-183685771D01*
X182505771Y-183614342D01*
X182434342Y-183471485D01*
X182434342Y-182900057D01*
X182505771Y-182757200D01*
X182648628Y-182685771D01*
X182934342Y-182685771D01*
X183077200Y-182757200D01*
X183148628Y-182900057D01*
X183148628Y-183042914D01*
X182434342Y-183185771D01*
X183577200Y-182685771D02*
X184148628Y-182685771D01*
X183791485Y-182185771D02*
X183791485Y-183471485D01*
X183862914Y-183614342D01*
X184005771Y-183685771D01*
X184148628Y-183685771D01*
X184648628Y-183542914D02*
X184720057Y-183614342D01*
X184648628Y-183685771D01*
X184577200Y-183614342D01*
X184648628Y-183542914D01*
X184648628Y-183685771D01*
X184648628Y-182757200D02*
X184720057Y-182828628D01*
X184648628Y-182900057D01*
X184577200Y-182828628D01*
X184648628Y-182757200D01*
X184648628Y-182900057D01*
D10*
D12*
X178554342Y-180685771D02*
X178554342Y-179185771D01*
X178911485Y-179185771D01*
X179125771Y-179257200D01*
X179268628Y-179400057D01*
X179340057Y-179542914D01*
X179411485Y-179828628D01*
X179411485Y-180042914D01*
X179340057Y-180328628D01*
X179268628Y-180471485D01*
X179125771Y-180614342D01*
X178911485Y-180685771D01*
X178554342Y-180685771D01*
X180554342Y-179900057D02*
X180768628Y-179971485D01*
X180840057Y-180042914D01*
X180911485Y-180185771D01*
X180911485Y-180400057D01*
X180840057Y-180542914D01*
X180768628Y-180614342D01*
X180625771Y-180685771D01*
X180054342Y-180685771D01*
X180054342Y-179185771D01*
X180554342Y-179185771D01*
X180697200Y-179257200D01*
X180768628Y-179328628D01*
X180840057Y-179471485D01*
X180840057Y-179614342D01*
X180768628Y-179757200D01*
X180697200Y-179828628D01*
X180554342Y-179900057D01*
X180054342Y-179900057D01*
X181411485Y-179185771D02*
X182340057Y-179185771D01*
X181840057Y-179757200D01*
X182054342Y-179757200D01*
X182197200Y-179828628D01*
X182268628Y-179900057D01*
X182340057Y-180042914D01*
X182340057Y-180400057D01*
X182268628Y-180542914D01*
X182197200Y-180614342D01*
X182054342Y-180685771D01*
X181625771Y-180685771D01*
X181482914Y-180614342D01*
X181411485Y-180542914D01*
X183411485Y-179185771D02*
X183411485Y-180257200D01*
X183340057Y-180471485D01*
X183197200Y-180614342D01*
X182982914Y-180685771D01*
X182840057Y-180685771D01*
X184125771Y-180685771D02*
X184125771Y-179185771D01*
X184125771Y-179900057D02*
X184982914Y-179900057D01*
X184982914Y-180685771D02*
X184982914Y-179185771D01*
X186197200Y-179900057D02*
X185697200Y-179900057D01*
X185697200Y-180685771D02*
X185697200Y-179185771D01*
X186411485Y-179185771D01*
D10*
D11*
X197002200Y-191507200D02*
X197002200Y-194507200D01*
D10*
D11*
X261002200Y-191507200D02*
X261002200Y-198007200D01*
D14*
X180040952Y-54747857D02*
X180160000Y-54866904D01*
X180517142Y-54985952D01*
X180755238Y-54985952D01*
X181112380Y-54866904D01*
X181350476Y-54628809D01*
X181469523Y-54390714D01*
X181588571Y-53914523D01*
X181588571Y-53557380D01*
X181469523Y-53081190D01*
X181350476Y-52843095D01*
X181112380Y-52605000D01*
X180755238Y-52485952D01*
X180517142Y-52485952D01*
X180160000Y-52605000D01*
X180040952Y-52724047D01*
X177898095Y-53319285D02*
X177898095Y-54985952D01*
X178969523Y-53319285D02*
X178969523Y-54628809D01*
X178850476Y-54866904D01*
X178612380Y-54985952D01*
X178255238Y-54985952D01*
X178017142Y-54866904D01*
X177898095Y-54747857D01*
X176707619Y-54985952D02*
X176707619Y-52485952D01*
X176707619Y-53438333D02*
X176469523Y-53319285D01*
X175993333Y-53319285D01*
X175755238Y-53438333D01*
X175636190Y-53557380D01*
X175517142Y-53795476D01*
X175517142Y-54509761D01*
X175636190Y-54747857D01*
X175755238Y-54866904D01*
X175993333Y-54985952D01*
X176469523Y-54985952D01*
X176707619Y-54866904D01*
X174445714Y-54985952D02*
X174445714Y-53319285D01*
X174445714Y-52485952D02*
X174564761Y-52605000D01*
X174445714Y-52724047D01*
X174326666Y-52605000D01*
X174445714Y-52485952D01*
X174445714Y-52724047D01*
X172302857Y-54866904D02*
X172540952Y-54985952D01*
X173017142Y-54985952D01*
X173255238Y-54866904D01*
X173374285Y-54628809D01*
X173374285Y-53676428D01*
X173255238Y-53438333D01*
X173017142Y-53319285D01*
X172540952Y-53319285D01*
X172302857Y-53438333D01*
X172183809Y-53676428D01*
X172183809Y-53914523D01*
X173374285Y-54152619D01*
X171112380Y-54985952D02*
X171112380Y-52485952D01*
X169683809Y-54985952D02*
X170755238Y-53557380D01*
X169683809Y-52485952D02*
X171112380Y-53914523D01*
X168612380Y-54985952D02*
X168612380Y-53319285D01*
X168612380Y-52485952D02*
X168731428Y-52605000D01*
X168612380Y-52724047D01*
X168493333Y-52605000D01*
X168612380Y-52485952D01*
X168612380Y-52724047D01*
X166350476Y-54985952D02*
X166350476Y-52485952D01*
X166350476Y-54866904D02*
X166588571Y-54985952D01*
X167064761Y-54985952D01*
X167302857Y-54866904D01*
X167421904Y-54747857D01*
X167540952Y-54509761D01*
X167540952Y-53795476D01*
X167421904Y-53557380D01*
X167302857Y-53438333D01*
X167064761Y-53319285D01*
X166588571Y-53319285D01*
X166350476Y-53438333D01*
X163612380Y-52485952D02*
X162779047Y-54985952D01*
X161945714Y-52485952D01*
X159802857Y-54985952D02*
X161231428Y-54985952D01*
X160517142Y-54985952D02*
X160517142Y-52485952D01*
X160755238Y-52843095D01*
X160993333Y-53081190D01*
X161231428Y-53200238D01*
X158731428Y-54747857D02*
X158612380Y-54866904D01*
X158731428Y-54985952D01*
X158850476Y-54866904D01*
X158731428Y-54747857D01*
X158731428Y-54985952D01*
X157660000Y-52724047D02*
X157540952Y-52605000D01*
X157302857Y-52485952D01*
X156707619Y-52485952D01*
X156469523Y-52605000D01*
X156350476Y-52724047D01*
X156231428Y-52962142D01*
X156231428Y-53200238D01*
X156350476Y-53557380D01*
X157779047Y-54985952D01*
X156231428Y-54985952D01*
X184207619Y-56774047D02*
X184088571Y-56655000D01*
X183850476Y-56535952D01*
X183255238Y-56535952D01*
X183017142Y-56655000D01*
X182898095Y-56774047D01*
X182779047Y-57012142D01*
X182779047Y-57250238D01*
X182898095Y-57607380D01*
X184326666Y-59035952D01*
X182779047Y-59035952D01*
X181231428Y-56535952D02*
X180993333Y-56535952D01*
X180755238Y-56655000D01*
X180636190Y-56774047D01*
X180517142Y-57012142D01*
X180398095Y-57488333D01*
X180398095Y-58083571D01*
X180517142Y-58559761D01*
X180636190Y-58797857D01*
X180755238Y-58916904D01*
X180993333Y-59035952D01*
X181231428Y-59035952D01*
X181469523Y-58916904D01*
X181588571Y-58797857D01*
X181707619Y-58559761D01*
X181826666Y-58083571D01*
X181826666Y-57488333D01*
X181707619Y-57012142D01*
X181588571Y-56774047D01*
X181469523Y-56655000D01*
X181231428Y-56535952D01*
X178017142Y-59035952D02*
X179445714Y-59035952D01*
X178731428Y-59035952D02*
X178731428Y-56535952D01*
X178969523Y-56893095D01*
X179207619Y-57131190D01*
X179445714Y-57250238D01*
X176588571Y-57607380D02*
X176826666Y-57488333D01*
X176945714Y-57369285D01*
X177064761Y-57131190D01*
X177064761Y-57012142D01*
X176945714Y-56774047D01*
X176826666Y-56655000D01*
X176588571Y-56535952D01*
X176112380Y-56535952D01*
X175874285Y-56655000D01*
X175755238Y-56774047D01*
X175636190Y-57012142D01*
X175636190Y-57131190D01*
X175755238Y-57369285D01*
X175874285Y-57488333D01*
X176112380Y-57607380D01*
X176588571Y-57607380D01*
X176826666Y-57726428D01*
X176945714Y-57845476D01*
X177064761Y-58083571D01*
X177064761Y-58559761D01*
X176945714Y-58797857D01*
X176826666Y-58916904D01*
X176588571Y-59035952D01*
X176112380Y-59035952D01*
X175874285Y-58916904D01*
X175755238Y-58797857D01*
X175636190Y-58559761D01*
X175636190Y-58083571D01*
X175755238Y-57845476D01*
X175874285Y-57726428D01*
X176112380Y-57607380D01*
X172660000Y-59035952D02*
X172660000Y-56535952D01*
X172660000Y-57488333D02*
X172421904Y-57369285D01*
X171945714Y-57369285D01*
X171707619Y-57488333D01*
X171588571Y-57607380D01*
X171469523Y-57845476D01*
X171469523Y-58559761D01*
X171588571Y-58797857D01*
X171707619Y-58916904D01*
X171945714Y-59035952D01*
X172421904Y-59035952D01*
X172660000Y-58916904D01*
X170636190Y-57369285D02*
X170040952Y-59035952D01*
X169445714Y-57369285D02*
X170040952Y-59035952D01*
X170279047Y-59631190D01*
X170398095Y-59750238D01*
X170636190Y-59869285D01*
X166588571Y-59035952D02*
X166588571Y-56535952D01*
X165993333Y-56535952D01*
X165636190Y-56655000D01*
X165398095Y-56893095D01*
X165279047Y-57131190D01*
X165160000Y-57607380D01*
X165160000Y-57964523D01*
X165279047Y-58440714D01*
X165398095Y-58678809D01*
X165636190Y-58916904D01*
X165993333Y-59035952D01*
X166588571Y-59035952D01*
X163255238Y-57726428D02*
X162898095Y-57845476D01*
X162779047Y-57964523D01*
X162660000Y-58202619D01*
X162660000Y-58559761D01*
X162779047Y-58797857D01*
X162898095Y-58916904D01*
X163136190Y-59035952D01*
X164088571Y-59035952D01*
X164088571Y-56535952D01*
X163255238Y-56535952D01*
X163017142Y-56655000D01*
X162898095Y-56774047D01*
X162779047Y-57012142D01*
X162779047Y-57250238D01*
X162898095Y-57488333D01*
X163017142Y-57607380D01*
X163255238Y-57726428D01*
X164088571Y-57726428D01*
X161826666Y-56535952D02*
X160279047Y-56535952D01*
X161112380Y-57488333D01*
X160755238Y-57488333D01*
X160517142Y-57607380D01*
X160398095Y-57726428D01*
X160279047Y-57964523D01*
X160279047Y-58559761D01*
X160398095Y-58797857D01*
X160517142Y-58916904D01*
X160755238Y-59035952D01*
X161469523Y-59035952D01*
X161707619Y-58916904D01*
X161826666Y-58797857D01*
X158493333Y-56535952D02*
X158493333Y-58321666D01*
X158612380Y-58678809D01*
X158850476Y-58916904D01*
X159207619Y-59035952D01*
X159445714Y-59035952D01*
X157302857Y-59035952D02*
X157302857Y-56535952D01*
X157302857Y-57726428D02*
X155874285Y-57726428D01*
X155874285Y-59035952D02*
X155874285Y-56535952D01*
X153850476Y-57726428D02*
X154683809Y-57726428D01*
X154683809Y-59035952D02*
X154683809Y-56535952D01*
X153493333Y-56535952D01*
D15*
G04 #@! TO.P,SW A0,2*
G04 #@! TO.N,VSS*
X181610000Y-41910000D03*
D16*
G04 #@! TO.P,SW A0,1*
G04 #@! TO.N,Net-(A1-Pad19)*
X181610000Y-44450000D03*
G04 #@! TD*
G04 #@! TO.P,SW A1,1*
G04 #@! TO.N,Net-(A1-Pad20)*
X176530000Y-44450000D03*
D15*
G04 #@! TO.P,SW A1,2*
G04 #@! TO.N,VSS*
X176530000Y-41910000D03*
G04 #@! TD*
D16*
G04 #@! TO.P,SW A2,1*
G04 #@! TO.N,Net-(A1-Pad21)*
X171450000Y-44450000D03*
D15*
G04 #@! TO.P,SW A2,2*
G04 #@! TO.N,VSS*
X171450000Y-41910000D03*
G04 #@! TD*
D17*
G04 #@! TO.P,Power,1*
G04 #@! TO.N,Net-(D1-Pad2)*
X116840000Y-73660000D03*
D18*
G04 #@! TO.P,Power,2*
G04 #@! TO.N,VSS*
X114300000Y-73660000D03*
G04 #@! TD*
D19*
G04 #@! TO.P,Q1,1*
G04 #@! TO.N,Net-(Q1-Pad1)*
X143510000Y-64770000D03*
D20*
G04 #@! TO.P,Q1,2*
G04 #@! TO.N,Net-(A1-Pad27)*
X143510000Y-67310000D03*
G04 #@! TO.P,Q1,3*
G04 #@! TO.N,+5V*
X143510000Y-69850000D03*
G04 #@! TD*
D18*
G04 #@! TO.P,RC522,8*
G04 #@! TO.N,Net-(A1-Pad13)*
X170180000Y-72390000D03*
G04 #@! TO.P,RC522,7*
G04 #@! TO.N,Net-(J1-Pad7)*
X172720000Y-72390000D03*
G04 #@! TO.P,RC522,6*
G04 #@! TO.N,Net-(A1-Pad14)*
X175260000Y-72390000D03*
G04 #@! TO.P,RC522,5*
G04 #@! TO.N,Net-(A1-Pad15)*
X177800000Y-72390000D03*
G04 #@! TO.P,RC522,4*
G04 #@! TO.N,N/C*
X180340000Y-72390000D03*
G04 #@! TO.P,RC522,3*
G04 #@! TO.N,VSS*
X182880000Y-72390000D03*
G04 #@! TO.P,RC522,2*
G04 #@! TO.N,Net-(A1-Pad12)*
X185420000Y-72390000D03*
D17*
G04 #@! TO.P,RC522,1*
G04 #@! TO.N,Net-(A1-Pad17)*
X187960000Y-72390000D03*
G04 #@! TD*
D21*
G04 #@! TO.P,U1,1*
G04 #@! TO.N,Net-(R1-Pad2)*
X129540000Y-59690000D03*
D22*
G04 #@! TO.P,U1,8*
G04 #@! TO.N,N/C*
X144780000Y-52070000D03*
G04 #@! TO.P,U1,2*
G04 #@! TO.N,Net-(Q1-Pad1)*
X132080000Y-59690000D03*
G04 #@! TO.P,U1,9*
G04 #@! TO.N,N/C*
X142240000Y-52070000D03*
G04 #@! TO.P,U1,3*
G04 #@! TO.N,Net-(U1-Pad3)*
X134620000Y-59690000D03*
G04 #@! TO.P,U1,10*
G04 #@! TO.N,N/C*
X139700000Y-52070000D03*
G04 #@! TO.P,U1,4*
G04 #@! TO.N,Net-(Q1-Pad1)*
X137160000Y-59690000D03*
G04 #@! TO.P,U1,11*
G04 #@! TO.N,N/C*
X137160000Y-52070000D03*
G04 #@! TO.P,U1,5*
G04 #@! TO.N,Net-(U1-Pad3)*
X139700000Y-59690000D03*
G04 #@! TO.P,U1,12*
G04 #@! TO.N,N/C*
X134620000Y-52070000D03*
G04 #@! TO.P,U1,6*
G04 #@! TO.N,Net-(A1-Pad10)*
X142240000Y-59690000D03*
G04 #@! TO.P,U1,13*
G04 #@! TO.N,N/C*
X132080000Y-52070000D03*
G04 #@! TO.P,U1,7*
G04 #@! TO.N,VSS*
X144780000Y-59690000D03*
G04 #@! TO.P,U1,14*
G04 #@! TO.N,Net-(R3-Pad2)*
X129540000Y-52070000D03*
G04 #@! TD*
G04 #@! TO.P,Arduino Nano,16*
G04 #@! TO.N,Net-(A1-Pad16)*
X186690000Y-49530000D03*
G04 #@! TO.P,Arduino Nano,15*
G04 #@! TO.N,Net-(A1-Pad15)*
X186690000Y-64770000D03*
G04 #@! TO.P,Arduino Nano,30*
G04 #@! TO.N,N/C*
X151130000Y-49530000D03*
G04 #@! TO.P,Arduino Nano,14*
G04 #@! TO.N,Net-(A1-Pad14)*
X184150000Y-64770000D03*
G04 #@! TO.P,Arduino Nano,29*
G04 #@! TO.N,N/C*
X153670000Y-49530000D03*
G04 #@! TO.P,Arduino Nano,13*
G04 #@! TO.N,Net-(A1-Pad13)*
X181610000Y-64770000D03*
G04 #@! TO.P,Arduino Nano,28*
G04 #@! TO.N,N/C*
X156210000Y-49530000D03*
G04 #@! TO.P,Arduino Nano,12*
G04 #@! TO.N,Net-(A1-Pad12)*
X179070000Y-64770000D03*
G04 #@! TO.P,Arduino Nano,27*
G04 #@! TO.N,Net-(A1-Pad27)*
X158750000Y-49530000D03*
G04 #@! TO.P,Arduino Nano,11*
G04 #@! TO.N,N/C*
X176530000Y-64770000D03*
G04 #@! TO.P,Arduino Nano,26*
X161290000Y-49530000D03*
G04 #@! TO.P,Arduino Nano,10*
G04 #@! TO.N,Net-(A1-Pad10)*
X173990000Y-64770000D03*
G04 #@! TO.P,Arduino Nano,25*
G04 #@! TO.N,N/C*
X163830000Y-49530000D03*
G04 #@! TO.P,Arduino Nano,9*
X171450000Y-64770000D03*
G04 #@! TO.P,Arduino Nano,24*
X166370000Y-49530000D03*
G04 #@! TO.P,Arduino Nano,8*
X168910000Y-64770000D03*
G04 #@! TO.P,Arduino Nano,23*
X168910000Y-49530000D03*
G04 #@! TO.P,Arduino Nano,7*
G04 #@! TO.N,Net-(A1-Pad7)*
X166370000Y-64770000D03*
G04 #@! TO.P,Arduino Nano,22*
G04 #@! TO.N,N/C*
X171450000Y-49530000D03*
G04 #@! TO.P,Arduino Nano,6*
G04 #@! TO.N,Net-(A1-Pad6)*
X163830000Y-64770000D03*
G04 #@! TO.P,Arduino Nano,21*
G04 #@! TO.N,Net-(A1-Pad21)*
X173990000Y-49530000D03*
G04 #@! TO.P,Arduino Nano,5*
G04 #@! TO.N,Net-(A1-Pad5)*
X161290000Y-64770000D03*
G04 #@! TO.P,Arduino Nano,20*
G04 #@! TO.N,Net-(A1-Pad20)*
X176530000Y-49530000D03*
G04 #@! TO.P,Arduino Nano,4*
G04 #@! TO.N,VSS*
X158750000Y-64770000D03*
G04 #@! TO.P,Arduino Nano,19*
G04 #@! TO.N,Net-(A1-Pad19)*
X179070000Y-49530000D03*
G04 #@! TO.P,Arduino Nano,3*
G04 #@! TO.N,N/C*
X156210000Y-64770000D03*
G04 #@! TO.P,Arduino Nano,18*
X181610000Y-49530000D03*
G04 #@! TO.P,Arduino Nano,2*
X153670000Y-64770000D03*
G04 #@! TO.P,Arduino Nano,17*
G04 #@! TO.N,Net-(A1-Pad17)*
X184150000Y-49530000D03*
D21*
G04 #@! TO.P,Arduino Nano,1*
G04 #@! TO.N,N/C*
X151130000Y-64770000D03*
G04 #@! TD*
D23*
G04 #@! TO.P,,*
G04 #@! TO.N,*
X163830000Y-73660000D03*
G04 #@! TD*
G04 #@! TO.P,,*
G04 #@! TO.N,*
X104140000Y-73660000D03*
G04 #@! TD*
G04 #@! TO.P,,*
G04 #@! TO.N,*
X104140000Y-38100000D03*
G04 #@! TD*
D24*
G04 #@! TO.P,C1,1*
G04 #@! TO.N,Net-(A1-Pad27)*
X139700000Y-43180000D03*
G04 #@! TO.P,C1,2*
G04 #@! TO.N,VSS*
X139700000Y-38180000D03*
G04 #@! TD*
D25*
G04 #@! TO.P,D4,1*
G04 #@! TO.N,Net-(A1-Pad21)*
X163830000Y-45720000D03*
D26*
G04 #@! TO.P,D4,2*
G04 #@! TO.N,Net-(D2-Pad2)*
X156210000Y-45720000D03*
G04 #@! TD*
D27*
G04 #@! TO.P,DFPlayerMini,16*
G04 #@! TO.N,Net-(A1-Pad7)*
X120650000Y-64770000D03*
G04 #@! TO.P,DFPlayerMini,1*
G04 #@! TO.N,Net-(A1-Pad27)*
X120650000Y-46990000D03*
G04 #@! TO.P,DFPlayerMini,15*
G04 #@! TO.N,N/C*
X118110000Y-64770000D03*
G04 #@! TO.P,DFPlayerMini,2*
G04 #@! TO.N,Net-(J2-Pad2)*
X118110000Y-46990000D03*
G04 #@! TO.P,DFPlayerMini,14*
G04 #@! TO.N,N/C*
X115570000Y-64770000D03*
G04 #@! TO.P,DFPlayerMini,3*
G04 #@! TO.N,Net-(A1-Pad5)*
X115570000Y-46990000D03*
G04 #@! TO.P,DFPlayerMini,13*
G04 #@! TO.N,N/C*
X113030000Y-64770000D03*
G04 #@! TO.P,DFPlayerMini,4*
X113030000Y-46990000D03*
G04 #@! TO.P,DFPlayerMini,12*
X110490000Y-64770000D03*
G04 #@! TO.P,DFPlayerMini,5*
X110490000Y-46990000D03*
G04 #@! TO.P,DFPlayerMini,11*
X107950000Y-64770000D03*
G04 #@! TO.P,DFPlayerMini,6*
G04 #@! TO.N,Net-(J2-Pad6)*
X107950000Y-46990000D03*
G04 #@! TO.P,DFPlayerMini,10*
G04 #@! TO.N,VSS*
X105410000Y-64770000D03*
G04 #@! TO.P,DFPlayerMini,7*
X105410000Y-46990000D03*
G04 #@! TO.P,DFPlayerMini,9*
G04 #@! TO.N,N/C*
X102870000Y-64770000D03*
G04 #@! TO.P,DFPlayerMini,8*
G04 #@! TO.N,Net-(J2-Pad8)*
X102870000Y-46990000D03*
G04 #@! TD*
D26*
G04 #@! TO.P,D3,2*
G04 #@! TO.N,Net-(D2-Pad2)*
X151130000Y-45720000D03*
D25*
G04 #@! TO.P,D3,1*
G04 #@! TO.N,Net-(A1-Pad20)*
X151130000Y-38100000D03*
G04 #@! TD*
D24*
G04 #@! TO.P,C2,2*
G04 #@! TO.N,Net-(A1-Pad10)*
X127000000Y-43100000D03*
G04 #@! TO.P,C2,1*
G04 #@! TO.N,Net-(A1-Pad27)*
X127000000Y-38100000D03*
G04 #@! TD*
D28*
G04 #@! TO.P,D1,1*
G04 #@! TO.N,+5V*
X128270000Y-69850000D03*
D29*
G04 #@! TO.P,D1,2*
G04 #@! TO.N,Net-(D1-Pad2)*
X118110000Y-69850000D03*
G04 #@! TD*
D25*
G04 #@! TO.P,D2,1*
G04 #@! TO.N,Net-(A1-Pad19)*
X147320000Y-38100000D03*
D26*
G04 #@! TO.P,D2,2*
G04 #@! TO.N,Net-(D2-Pad2)*
X147320000Y-45720000D03*
G04 #@! TD*
D30*
G04 #@! TO.P,LS1,2*
G04 #@! TO.N,Net-(J2-Pad6)*
X119380000Y-41910000D03*
D31*
G04 #@! TO.P,LS1,1*
G04 #@! TO.N,Net-(J2-Pad8)*
X119380000Y-39370000D03*
G04 #@! TD*
D26*
G04 #@! TO.P,R1,2*
G04 #@! TO.N,Net-(R1-Pad2)*
X132080000Y-63500000D03*
D24*
G04 #@! TO.P,R1,1*
G04 #@! TO.N,+5V*
X132080000Y-71120000D03*
G04 #@! TD*
G04 #@! TO.P,R2,1*
G04 #@! TO.N,+5V*
X139700000Y-71120000D03*
D26*
G04 #@! TO.P,R2,2*
G04 #@! TO.N,Net-(Q1-Pad1)*
X139700000Y-63500000D03*
G04 #@! TD*
D24*
G04 #@! TO.P,R3,1*
G04 #@! TO.N,Net-(A1-Pad27)*
X124460000Y-46990000D03*
D26*
G04 #@! TO.P,R3,2*
G04 #@! TO.N,Net-(R3-Pad2)*
X132080000Y-46990000D03*
G04 #@! TD*
G04 #@! TO.P,R4,2*
G04 #@! TO.N,Net-(D2-Pad2)*
X143510000Y-46990000D03*
D24*
G04 #@! TO.P,R4,1*
G04 #@! TO.N,Net-(Q1-Pad1)*
X135890000Y-46990000D03*
G04 #@! TD*
G04 #@! TO.P,R5,1*
G04 #@! TO.N,Net-(J2-Pad2)*
X124460000Y-58420000D03*
D26*
G04 #@! TO.P,R5,2*
G04 #@! TO.N,Net-(A1-Pad6)*
X124460000Y-66040000D03*
G04 #@! TD*
D24*
G04 #@! TO.P,R6,1*
G04 #@! TO.N,Net-(A1-Pad16)*
X185420000Y-45720000D03*
D26*
G04 #@! TO.P,R6,2*
G04 #@! TO.N,Net-(J1-Pad7)*
X193040000Y-45720000D03*
G04 #@! TD*
D23*
G04 #@! TO.P,,*
G04 #@! TO.N,*
X190500000Y-38100000D03*
G04 #@! TD*
D32*
G04 #@! TO.N,Net-(A1-Pad17)*
X184150000Y-49530000D02*
X184150000Y-50800000D01*
X184150000Y-50800000D02*
X186690000Y-53340000D01*
X186690000Y-53340000D02*
X189230000Y-53340000D01*
X189230000Y-53340000D02*
X190500000Y-54610000D01*
X190500000Y-54610000D02*
X190500000Y-71300000D01*
X190500000Y-71300000D02*
X189410000Y-72390000D01*
X189410000Y-72390000D02*
X187960000Y-72390000D01*
D33*
G04 #@! TO.N,Net-(A1-Pad19)*
X181610000Y-44450000D02*
X180340000Y-44450000D01*
D32*
X147320000Y-38100000D02*
X147320000Y-36700000D01*
X147320000Y-36700000D02*
X148460000Y-35560000D01*
X148460000Y-35560000D02*
X175260000Y-35560000D01*
X175260000Y-35560000D02*
X179070000Y-39370000D01*
X179070000Y-39370000D02*
X179070000Y-43360000D01*
X179070000Y-43360000D02*
X180160000Y-44450000D01*
X180160000Y-44450000D02*
X181610000Y-44450000D01*
X179070000Y-45540000D02*
X180160000Y-44450000D01*
X179070000Y-49530000D02*
X179070000Y-45540000D01*
G04 #@! TO.N,Net-(A1-Pad20)*
X151130000Y-38100000D02*
X172720000Y-38100000D01*
X172720000Y-38100000D02*
X173990000Y-39370000D01*
X173990000Y-39370000D02*
X173990000Y-43180000D01*
X173990000Y-43180000D02*
X175260000Y-44450000D01*
X175260000Y-44450000D02*
X176530000Y-44450000D01*
X176530000Y-44450000D02*
X176530000Y-49530000D01*
G04 #@! TO.N,Net-(A1-Pad5)*
X115570000Y-55245000D02*
X115570000Y-46990000D01*
X116205000Y-55880000D02*
X115570000Y-55245000D01*
X123190000Y-62230000D02*
X116205000Y-55880000D01*
X126365000Y-65405000D02*
X123190000Y-62230000D01*
X126365000Y-67310000D02*
X126365000Y-65405000D01*
X161290000Y-65470000D02*
X153100000Y-73660000D01*
X161290000Y-64770000D02*
X161290000Y-65470000D01*
X153100000Y-73660000D02*
X125730000Y-73660000D01*
X125730000Y-73660000D02*
X124460000Y-72390000D01*
X124460000Y-72390000D02*
X124460000Y-68580000D01*
X124460000Y-68580000D02*
X126365000Y-67310000D01*
D33*
G04 #@! TO.N,Net-(A1-Pad21)*
X173990000Y-49530000D02*
X173990000Y-48260000D01*
D32*
X170180000Y-45720000D02*
X171450000Y-44450000D01*
X163830000Y-45720000D02*
X170180000Y-45720000D01*
X173990000Y-46990000D02*
X173990000Y-49530000D01*
X171450000Y-44450000D02*
X173990000Y-46990000D01*
G04 #@! TO.N,Net-(A1-Pad6)*
X123660001Y-66839999D02*
X124460000Y-66040000D01*
X163830000Y-65470000D02*
X154370000Y-74930000D01*
X163830000Y-64770000D02*
X163830000Y-65470000D01*
X154370000Y-74930000D02*
X123825000Y-74930000D01*
X123825000Y-74930000D02*
X123190000Y-74295000D01*
X123190000Y-74295000D02*
X123190000Y-67310000D01*
X123190000Y-67310000D02*
X123660001Y-66839999D01*
G04 #@! TO.N,Net-(A1-Pad7)*
X120650000Y-64770000D02*
X120650000Y-65670000D01*
X120650000Y-66870000D02*
X120650000Y-64770000D01*
X120650000Y-67310000D02*
X120650000Y-66870000D01*
X121285000Y-67945000D02*
X120650000Y-67310000D01*
X166370000Y-66040000D02*
X165100000Y-67310000D01*
X166370000Y-64770000D02*
X166370000Y-66040000D01*
X165100000Y-67310000D02*
X163830000Y-67310000D01*
X163830000Y-67310000D02*
X154940000Y-76200000D01*
X121285000Y-74930000D02*
X121285000Y-67945000D01*
X154940000Y-76200000D02*
X122555000Y-76200000D01*
X122555000Y-76200000D02*
X121285000Y-74930000D01*
G04 #@! TO.N,Net-(A1-Pad10)*
X142240000Y-57890000D02*
X144250000Y-55880000D01*
X142240000Y-59690000D02*
X142240000Y-57890000D01*
X144250000Y-55880000D02*
X148590000Y-55880000D01*
X148590000Y-50800000D02*
X148590000Y-55880000D01*
X127000000Y-41910000D02*
X128270000Y-40640000D01*
X127000000Y-43100000D02*
X127000000Y-41910000D01*
X128270000Y-40640000D02*
X133350000Y-40640000D01*
X133350000Y-40640000D02*
X142240000Y-49530000D01*
X142240000Y-49530000D02*
X147320000Y-49530000D01*
X147320000Y-49530000D02*
X148590000Y-50800000D01*
X148590000Y-58420000D02*
X148590000Y-55880000D01*
X151130000Y-60960000D02*
X148590000Y-58420000D01*
X173990000Y-64770000D02*
X172720000Y-60960000D01*
X172720000Y-60960000D02*
X151130000Y-60960000D01*
G04 #@! TO.N,Net-(A1-Pad27)*
X120650000Y-46090000D02*
X120650000Y-46990000D01*
D34*
X120650000Y-46990000D02*
X124460000Y-46990000D01*
X124460000Y-40640000D02*
X127000000Y-38100000D01*
X124460000Y-46990000D02*
X124460000Y-40640000D01*
X140970000Y-41910000D02*
X139700000Y-43180000D01*
X157480000Y-41910000D02*
X140970000Y-41910000D01*
X158750000Y-49530000D02*
X158750000Y-43180000D01*
X158750000Y-43180000D02*
X157480000Y-41910000D01*
X134620000Y-38100000D02*
X127000000Y-38100000D01*
X139700000Y-43180000D02*
X134620000Y-38100000D01*
X120650000Y-50800000D02*
X120650000Y-46990000D01*
X127635000Y-57150000D02*
X120650000Y-50800000D01*
X127635000Y-62230000D02*
X127635000Y-57150000D01*
X143510000Y-67310000D02*
X132080000Y-67310000D01*
X132080000Y-67310000D02*
X127635000Y-62230000D01*
D32*
G04 #@! TO.N,Net-(A1-Pad12)*
X185420000Y-71120000D02*
X185420000Y-72390000D01*
X186690000Y-69850000D02*
X185420000Y-71120000D01*
X180340000Y-62230000D02*
X187960000Y-62230000D01*
X179070000Y-64770000D02*
X180340000Y-62230000D01*
X187960000Y-62230000D02*
X189230000Y-63500000D01*
X189230000Y-63500000D02*
X189230000Y-68580000D01*
X189230000Y-68580000D02*
X187960000Y-69850000D01*
X187960000Y-69850000D02*
X186690000Y-69850000D01*
G04 #@! TO.N,Net-(A1-Pad13)*
X180340000Y-67310000D02*
X173990000Y-67310000D01*
X181610000Y-64770000D02*
X181610000Y-66040000D01*
X181610000Y-66040000D02*
X180340000Y-67310000D01*
X173990000Y-67310000D02*
X170180000Y-71120000D01*
X170180000Y-71120000D02*
X170180000Y-72390000D01*
G04 #@! TO.N,Net-(A1-Pad14)*
X182880000Y-68580000D02*
X177800000Y-68580000D01*
X184150000Y-64770000D02*
X184150000Y-67310000D01*
X184150000Y-67310000D02*
X182880000Y-68580000D01*
X177800000Y-68580000D02*
X175260000Y-71120000D01*
X175260000Y-71120000D02*
X175260000Y-72390000D01*
G04 #@! TO.N,Net-(A1-Pad15)*
X186690000Y-64770000D02*
X186690000Y-67310000D01*
X186690000Y-67310000D02*
X184150000Y-69850000D01*
X184150000Y-69850000D02*
X179070000Y-69850000D01*
X177800000Y-71120000D02*
X177800000Y-72390000D01*
X179070000Y-69850000D02*
X177800000Y-71120000D01*
G04 #@! TO.N,Net-(A1-Pad16)*
X185420000Y-45720000D02*
X186690000Y-46990000D01*
X186690000Y-46990000D02*
X186690000Y-49530000D01*
D34*
G04 #@! TO.N,+5V*
X130810000Y-69850000D02*
X132080000Y-71120000D01*
X128270000Y-69850000D02*
X130810000Y-69850000D01*
X132080000Y-71120000D02*
X139700000Y-71120000D01*
X142240000Y-71120000D02*
X143510000Y-69850000D01*
X139700000Y-71120000D02*
X142240000Y-71120000D01*
G04 #@! TO.N,Net-(D1-Pad2)*
X118110000Y-72390000D02*
X116840000Y-73660000D01*
X118110000Y-69850000D02*
X118110000Y-72390000D01*
D32*
G04 #@! TO.N,Net-(D2-Pad2)*
X151130000Y-45720000D02*
X147320000Y-45720000D01*
X151130000Y-45720000D02*
X156210000Y-45720000D01*
X144780000Y-45720000D02*
X143510000Y-46990000D01*
X147320000Y-45720000D02*
X144780000Y-45720000D01*
G04 #@! TO.N,Net-(J2-Pad2)*
X123190000Y-58420000D02*
X124460000Y-58420000D01*
X118110000Y-46990000D02*
X118110000Y-53340000D01*
X118110000Y-53340000D02*
X123190000Y-58420000D01*
G04 #@! TO.N,Net-(J2-Pad6)*
X107950000Y-45720000D02*
X107950000Y-46990000D01*
X119380000Y-41910000D02*
X111760000Y-41910000D01*
X111760000Y-41910000D02*
X107950000Y-45720000D01*
G04 #@! TO.N,Net-(J2-Pad8)*
X102870000Y-44450000D02*
X102870000Y-46990000D01*
X104140000Y-43180000D02*
X102870000Y-44450000D01*
X106680000Y-43180000D02*
X104140000Y-43180000D01*
X119380000Y-39370000D02*
X110490000Y-39370000D01*
X110490000Y-39370000D02*
X106680000Y-43180000D01*
G04 #@! TO.N,Net-(R1-Pad2)*
X129540000Y-62230000D02*
X129540000Y-59690000D01*
X130810000Y-63500000D02*
X129540000Y-62230000D01*
X132080000Y-63500000D02*
X130810000Y-63500000D01*
D33*
G04 #@! TO.N,Net-(U1-Pad3)*
X139700000Y-59690000D02*
X139700000Y-60090000D01*
D32*
X134620000Y-60090000D02*
X134620000Y-59690000D01*
X134620000Y-57890000D02*
X134620000Y-59690000D01*
X135360000Y-57150000D02*
X134620000Y-57890000D01*
X138960000Y-57150000D02*
X135360000Y-57150000D01*
X139700000Y-57890000D02*
X138960000Y-57150000D01*
X139700000Y-59690000D02*
X139700000Y-57890000D01*
G04 #@! TO.N,Net-(J1-Pad7)*
X172720000Y-73660000D02*
X172720000Y-72390000D01*
X175260000Y-76200000D02*
X172720000Y-73660000D01*
X190500000Y-76200000D02*
X175260000Y-76200000D01*
X193040000Y-45720000D02*
X193040000Y-73660000D01*
X193040000Y-73660000D02*
X190500000Y-76200000D01*
G04 #@! TO.N,Net-(Q1-Pad1)*
X140970000Y-64770000D02*
X139700000Y-63500000D01*
X143510000Y-64770000D02*
X140970000Y-64770000D01*
X137160000Y-60960000D02*
X139700000Y-63500000D01*
X137160000Y-59690000D02*
X137160000Y-60960000D01*
X132080000Y-60090000D02*
X134220000Y-62230000D01*
X132080000Y-59690000D02*
X132080000Y-60090000D01*
X135890000Y-62230000D02*
X137160000Y-60960000D01*
X134220000Y-62230000D02*
X135890000Y-62230000D01*
X132080000Y-58420000D02*
X132080000Y-59690000D01*
X127000000Y-53340000D02*
X132080000Y-58420000D01*
X127000000Y-46990000D02*
X127000000Y-53340000D01*
X129540000Y-44450000D02*
X127000000Y-46990000D01*
X135890000Y-46990000D02*
X133350000Y-44450000D01*
X133350000Y-44450000D02*
X129540000Y-44450000D01*
G04 #@! TO.N,Net-(R3-Pad2)*
X129540000Y-49530000D02*
X132080000Y-46990000D01*
X129540000Y-52070000D02*
X129540000Y-49530000D01*
G04 #@! TD*
D35*
G04 #@! TO.N,VSS*
G36*
X195453000Y-78613000D02*
X99187000Y-78613000D01*
X99187000Y-72976736D01*
X100705000Y-72976736D01*
X100705000Y-74343264D01*
X101227947Y-75605771D01*
X102194229Y-76572053D01*
X103456736Y-77095000D01*
X104823264Y-77095000D01*
X106085771Y-76572053D01*
X107052053Y-75605771D01*
X107575000Y-74343264D01*
X107575000Y-73787000D01*
X112815000Y-73787000D01*
X112815000Y-74437000D01*
X112976640Y-74995618D01*
X113339749Y-75449856D01*
X113849048Y-75730562D01*
X113943110Y-75751476D01*
X114173000Y-75630155D01*
X114173000Y-73787000D01*
X112815000Y-73787000D01*
X107575000Y-73787000D01*
X107575000Y-72976736D01*
X107536174Y-72883000D01*
X112815000Y-72883000D01*
X112815000Y-73533000D01*
X114173000Y-73533000D01*
X114173000Y-71689845D01*
X114427000Y-71689845D01*
X114427000Y-73533000D01*
X114447000Y-73533000D01*
X114447000Y-73787000D01*
X114427000Y-73787000D01*
X114427000Y-75630155D01*
X114656890Y-75751476D01*
X114750952Y-75730562D01*
X115260251Y-75449856D01*
X115372327Y-75309652D01*
X115391843Y-75407765D01*
X115532191Y-75617809D01*
X115742235Y-75758157D01*
X115990000Y-75807440D01*
X117690000Y-75807440D01*
X117937765Y-75758157D01*
X118147809Y-75617809D01*
X118288157Y-75407765D01*
X118337440Y-75160000D01*
X118337440Y-73767692D01*
X118833521Y-73271611D01*
X118928289Y-73208289D01*
X119179146Y-72832855D01*
X119194668Y-72754819D01*
X119267235Y-72390001D01*
X119245000Y-72278218D01*
X119245000Y-71178284D01*
X119360865Y-71100865D01*
X119744334Y-70526963D01*
X119878990Y-69850000D01*
X119744334Y-69173037D01*
X119360865Y-68599135D01*
X118786963Y-68215666D01*
X118280880Y-68115000D01*
X117939120Y-68115000D01*
X117433037Y-68215666D01*
X116859135Y-68599135D01*
X116475666Y-69173037D01*
X116341010Y-69850000D01*
X116475666Y-70526963D01*
X116859135Y-71100865D01*
X116975001Y-71178284D01*
X116975001Y-71512560D01*
X115990000Y-71512560D01*
X115742235Y-71561843D01*
X115532191Y-71702191D01*
X115391843Y-71912235D01*
X115372327Y-72010348D01*
X115260251Y-71870144D01*
X114750952Y-71589438D01*
X114656890Y-71568524D01*
X114427000Y-71689845D01*
X114173000Y-71689845D01*
X113943110Y-71568524D01*
X113849048Y-71589438D01*
X113339749Y-71870144D01*
X112976640Y-72324382D01*
X112815000Y-72883000D01*
X107536174Y-72883000D01*
X107052053Y-71714229D01*
X106085771Y-70747947D01*
X104823264Y-70225000D01*
X103456736Y-70225000D01*
X102194229Y-70747947D01*
X101227947Y-71714229D01*
X100705000Y-72976736D01*
X99187000Y-72976736D01*
X99187000Y-65791635D01*
X101635000Y-65791635D01*
X101706656Y-66151872D01*
X101979615Y-66560385D01*
X102388127Y-66833344D01*
X102870000Y-66929195D01*
X103351872Y-66833344D01*
X103760385Y-66560385D01*
X104033344Y-66151873D01*
X104105000Y-65791636D01*
X104105000Y-64897000D01*
X104175000Y-64897000D01*
X104175000Y-65797000D01*
X104317610Y-66259947D01*
X104626526Y-66633080D01*
X105054719Y-66859592D01*
X105092391Y-66863462D01*
X105283000Y-66738731D01*
X105283000Y-64897000D01*
X105537000Y-64897000D01*
X105537000Y-66738731D01*
X105727609Y-66863462D01*
X105765281Y-66859592D01*
X106193474Y-66633080D01*
X106502390Y-66259947D01*
X106645000Y-65797000D01*
X106645000Y-65791635D01*
X106715000Y-65791635D01*
X106786656Y-66151872D01*
X107059615Y-66560385D01*
X107468127Y-66833344D01*
X107950000Y-66929195D01*
X108431872Y-66833344D01*
X108840385Y-66560385D01*
X109113344Y-66151873D01*
X109185000Y-65791636D01*
X109185000Y-65791635D01*
X109255000Y-65791635D01*
X109326656Y-66151872D01*
X109599615Y-66560385D01*
X110008127Y-66833344D01*
X110490000Y-66929195D01*
X110971872Y-66833344D01*
X111380385Y-66560385D01*
X111653344Y-66151873D01*
X111725000Y-65791636D01*
X111725000Y-65791635D01*
X111795000Y-65791635D01*
X111866656Y-66151872D01*
X112139615Y-66560385D01*
X112548127Y-66833344D01*
X113030000Y-66929195D01*
X113511872Y-66833344D01*
X113920385Y-66560385D01*
X114193344Y-66151873D01*
X114265000Y-65791636D01*
X114265000Y-65791635D01*
X114335000Y-65791635D01*
X114406656Y-66151872D01*
X114679615Y-66560385D01*
X115088127Y-66833344D01*
X115570000Y-66929195D01*
X116051872Y-66833344D01*
X116460385Y-66560385D01*
X116733344Y-66151873D01*
X116805000Y-65791636D01*
X116805000Y-65791635D01*
X116875000Y-65791635D01*
X116946656Y-66151872D01*
X117219615Y-66560385D01*
X117628127Y-66833344D01*
X118110000Y-66929195D01*
X118591872Y-66833344D01*
X119000385Y-66560385D01*
X119273344Y-66151873D01*
X119345000Y-65791636D01*
X119345000Y-63748364D01*
X119273344Y-63388127D01*
X119000385Y-62979615D01*
X118591873Y-62706656D01*
X118110000Y-62610805D01*
X117628128Y-62706656D01*
X117219616Y-62979615D01*
X116946657Y-63388127D01*
X116875001Y-63748364D01*
X116875000Y-65791635D01*
X116805000Y-65791635D01*
X116805000Y-63748364D01*
X116733344Y-63388127D01*
X116460385Y-62979615D01*
X116051873Y-62706656D01*
X115570000Y-62610805D01*
X115088128Y-62706656D01*
X114679616Y-62979615D01*
X114406657Y-63388127D01*
X114335001Y-63748364D01*
X114335000Y-65791635D01*
X114265000Y-65791635D01*
X114265000Y-63748364D01*
X114193344Y-63388127D01*
X113920385Y-62979615D01*
X113511873Y-62706656D01*
X113030000Y-62610805D01*
X112548128Y-62706656D01*
X112139616Y-62979615D01*
X111866657Y-63388127D01*
X111795001Y-63748364D01*
X111795000Y-65791635D01*
X111725000Y-65791635D01*
X111725000Y-63748364D01*
X111653344Y-63388127D01*
X111380385Y-62979615D01*
X110971873Y-62706656D01*
X110490000Y-62610805D01*
X110008128Y-62706656D01*
X109599616Y-62979615D01*
X109326657Y-63388127D01*
X109255001Y-63748364D01*
X109255000Y-65791635D01*
X109185000Y-65791635D01*
X109185000Y-63748364D01*
X109113344Y-63388127D01*
X108840385Y-62979615D01*
X108431873Y-62706656D01*
X107950000Y-62610805D01*
X107468128Y-62706656D01*
X107059616Y-62979615D01*
X106786657Y-63388127D01*
X106715001Y-63748364D01*
X106715000Y-65791635D01*
X106645000Y-65791635D01*
X106645000Y-64897000D01*
X105537000Y-64897000D01*
X105283000Y-64897000D01*
X104175000Y-64897000D01*
X104105000Y-64897000D01*
X104105000Y-63748364D01*
X104103934Y-63743000D01*
X104175000Y-63743000D01*
X104175000Y-64643000D01*
X105283000Y-64643000D01*
X105283000Y-62801269D01*
X105537000Y-62801269D01*
X105537000Y-64643000D01*
X106645000Y-64643000D01*
X106645000Y-63743000D01*
X106502390Y-63280053D01*
X106193474Y-62906920D01*
X105765281Y-62680408D01*
X105727609Y-62676538D01*
X105537000Y-62801269D01*
X105283000Y-62801269D01*
X105092391Y-62676538D01*
X105054719Y-62680408D01*
X104626526Y-62906920D01*
X104317610Y-63280053D01*
X104175000Y-63743000D01*
X104103934Y-63743000D01*
X104033344Y-63388127D01*
X103760385Y-62979615D01*
X103351873Y-62706656D01*
X102870000Y-62610805D01*
X102388128Y-62706656D01*
X101979616Y-62979615D01*
X101706657Y-63388127D01*
X101635001Y-63748364D01*
X101635000Y-65791635D01*
X99187000Y-65791635D01*
X99187000Y-48011635D01*
X101635000Y-48011635D01*
X101706656Y-48371872D01*
X101979615Y-48780385D01*
X102388127Y-49053344D01*
X102870000Y-49149195D01*
X103351872Y-49053344D01*
X103760385Y-48780385D01*
X104033344Y-48371873D01*
X104105000Y-48011636D01*
X104105000Y-47117000D01*
X104175000Y-47117000D01*
X104175000Y-48017000D01*
X104317610Y-48479947D01*
X104626526Y-48853080D01*
X105054719Y-49079592D01*
X105092391Y-49083462D01*
X105283000Y-48958731D01*
X105283000Y-47117000D01*
X105537000Y-47117000D01*
X105537000Y-48958731D01*
X105727609Y-49083462D01*
X105765281Y-49079592D01*
X106193474Y-48853080D01*
X106502390Y-48479947D01*
X106645000Y-48017000D01*
X106645000Y-47117000D01*
X105537000Y-47117000D01*
X105283000Y-47117000D01*
X104175000Y-47117000D01*
X104105000Y-47117000D01*
X104105000Y-45968364D01*
X104103934Y-45963000D01*
X104175000Y-45963000D01*
X104175000Y-46863000D01*
X105283000Y-46863000D01*
X105283000Y-45021269D01*
X105537000Y-45021269D01*
X105537000Y-46863000D01*
X106645000Y-46863000D01*
X106645000Y-45963000D01*
X106502390Y-45500053D01*
X106193474Y-45126920D01*
X105765281Y-44900408D01*
X105727609Y-44896538D01*
X105537000Y-45021269D01*
X105283000Y-45021269D01*
X105092391Y-44896538D01*
X105054719Y-44900408D01*
X104626526Y-45126920D01*
X104317610Y-45500053D01*
X104175000Y-45963000D01*
X104103934Y-45963000D01*
X104033344Y-45608127D01*
X103805000Y-45266386D01*
X103805000Y-44837289D01*
X104527290Y-44115000D01*
X106587914Y-44115000D01*
X106680000Y-44133317D01*
X106772086Y-44115000D01*
X107044819Y-44060750D01*
X107354097Y-43854097D01*
X107406261Y-43776028D01*
X110877289Y-40305000D01*
X117899467Y-40305000D01*
X117931843Y-40467765D01*
X118072191Y-40677809D01*
X118282235Y-40818157D01*
X118327619Y-40827184D01*
X118309375Y-40839375D01*
X118218753Y-40975000D01*
X111852086Y-40975000D01*
X111760000Y-40956683D01*
X111667914Y-40975000D01*
X111395181Y-41029250D01*
X111085903Y-41235903D01*
X111033739Y-41313972D01*
X107353972Y-44993739D01*
X107275903Y-45045903D01*
X107264805Y-45062512D01*
X107059616Y-45199615D01*
X106786657Y-45608127D01*
X106715001Y-45968364D01*
X106715000Y-48011635D01*
X106786656Y-48371872D01*
X107059615Y-48780385D01*
X107468127Y-49053344D01*
X107950000Y-49149195D01*
X108431872Y-49053344D01*
X108840385Y-48780385D01*
X109113344Y-48371873D01*
X109185000Y-48011636D01*
X109185000Y-45968364D01*
X109158276Y-45834013D01*
X109312378Y-45679911D01*
X109255001Y-45968364D01*
X109255000Y-48011635D01*
X109326656Y-48371872D01*
X109599615Y-48780385D01*
X110008127Y-49053344D01*
X110490000Y-49149195D01*
X110971872Y-49053344D01*
X111380385Y-48780385D01*
X111653344Y-48371873D01*
X111725000Y-48011636D01*
X111725000Y-48011635D01*
X111795000Y-48011635D01*
X111866656Y-48371872D01*
X112139615Y-48780385D01*
X112548127Y-49053344D01*
X113030000Y-49149195D01*
X113511872Y-49053344D01*
X113920385Y-48780385D01*
X114193344Y-48371873D01*
X114265000Y-48011636D01*
X114265000Y-48011635D01*
X114335000Y-48011635D01*
X114406656Y-48371872D01*
X114635001Y-48713615D01*
X114635000Y-55152914D01*
X114616683Y-55245000D01*
X114670426Y-55515182D01*
X114689250Y-55609818D01*
X114895903Y-55919097D01*
X114973972Y-55971261D01*
X115494589Y-56491878D01*
X115507913Y-56509900D01*
X115559591Y-56556880D01*
X115608970Y-56606259D01*
X115627604Y-56618710D01*
X122544588Y-62906877D01*
X124255312Y-64617602D01*
X123900091Y-64688260D01*
X123425423Y-65005423D01*
X123108260Y-65480091D01*
X122996887Y-66040000D01*
X123020251Y-66157460D01*
X122593970Y-66583741D01*
X122515904Y-66635903D01*
X122463742Y-66713969D01*
X122463741Y-66713970D01*
X122309250Y-66945182D01*
X122236683Y-67310000D01*
X122255001Y-67402090D01*
X122255000Y-74202914D01*
X122236683Y-74295000D01*
X122290426Y-74565182D01*
X122302333Y-74625044D01*
X122220000Y-74542711D01*
X122220000Y-68037086D01*
X122238317Y-67945000D01*
X122217524Y-67840464D01*
X122165750Y-67580181D01*
X121959097Y-67270903D01*
X121881028Y-67218739D01*
X121585000Y-66922711D01*
X121585000Y-66493614D01*
X121813344Y-66151873D01*
X121885000Y-65791636D01*
X121885000Y-63748364D01*
X121813344Y-63388127D01*
X121540385Y-62979615D01*
X121131873Y-62706656D01*
X120650000Y-62610805D01*
X120168128Y-62706656D01*
X119759616Y-62979615D01*
X119486657Y-63388127D01*
X119415001Y-63748364D01*
X119415000Y-65791635D01*
X119486656Y-66151872D01*
X119715000Y-66493614D01*
X119715000Y-67217914D01*
X119696683Y-67310000D01*
X119759675Y-67626683D01*
X119769250Y-67674818D01*
X119975903Y-67984097D01*
X120053972Y-68036261D01*
X120350001Y-68332290D01*
X120350000Y-74837914D01*
X120331683Y-74930000D01*
X120350000Y-75022085D01*
X120404250Y-75294818D01*
X120610903Y-75604097D01*
X120688972Y-75656261D01*
X121828741Y-76796031D01*
X121880903Y-76874097D01*
X122190181Y-77080750D01*
X122462914Y-77135000D01*
X122462917Y-77135000D01*
X122554999Y-77153316D01*
X122647081Y-77135000D01*
X154847914Y-77135000D01*
X154940000Y-77153317D01*
X155032086Y-77135000D01*
X155304819Y-77080750D01*
X155614097Y-76874097D01*
X155666261Y-76796028D01*
X159485553Y-72976736D01*
X160395000Y-72976736D01*
X160395000Y-74343264D01*
X160917947Y-75605771D01*
X161884229Y-76572053D01*
X163146736Y-77095000D01*
X164513264Y-77095000D01*
X165775771Y-76572053D01*
X166742053Y-75605771D01*
X167265000Y-74343264D01*
X167265000Y-72976736D01*
X166742053Y-71714229D01*
X165775771Y-70747947D01*
X164513264Y-70225000D01*
X163146736Y-70225000D01*
X161884229Y-70747947D01*
X160917947Y-71714229D01*
X160395000Y-72976736D01*
X159485553Y-72976736D01*
X164217289Y-68245000D01*
X165007914Y-68245000D01*
X165100000Y-68263317D01*
X165192086Y-68245000D01*
X165464819Y-68190750D01*
X165774097Y-67984097D01*
X165826261Y-67906028D01*
X166905743Y-66826547D01*
X166929909Y-66821740D01*
X167404577Y-66504577D01*
X167640001Y-66152241D01*
X167875424Y-66504577D01*
X168350092Y-66821740D01*
X168910000Y-66933113D01*
X169469909Y-66821740D01*
X169944577Y-66504577D01*
X170180001Y-66152241D01*
X170415424Y-66504577D01*
X170890092Y-66821740D01*
X171450000Y-66933113D01*
X172009909Y-66821740D01*
X172484577Y-66504577D01*
X172720001Y-66152241D01*
X172955424Y-66504577D01*
X173265303Y-66711631D01*
X173263739Y-66713972D01*
X169645481Y-70332230D01*
X169600583Y-70341161D01*
X169109376Y-70669375D01*
X168781161Y-71160582D01*
X168695000Y-71593744D01*
X168695000Y-73186255D01*
X168781161Y-73619417D01*
X169109375Y-74110625D01*
X169600582Y-74438839D01*
X170180000Y-74554092D01*
X170759417Y-74438839D01*
X171250625Y-74110625D01*
X171450000Y-73812239D01*
X171649375Y-74110625D01*
X172140582Y-74438839D01*
X172185481Y-74447770D01*
X174533741Y-76796031D01*
X174585903Y-76874097D01*
X174895181Y-77080750D01*
X175167914Y-77135000D01*
X175167918Y-77135000D01*
X175259999Y-77153316D01*
X175352080Y-77135000D01*
X190407914Y-77135000D01*
X190500000Y-77153317D01*
X190592086Y-77135000D01*
X190864819Y-77080750D01*
X191174097Y-76874097D01*
X191226261Y-76796028D01*
X193636031Y-74386259D01*
X193714097Y-74334097D01*
X193920750Y-74024819D01*
X193975000Y-73752086D01*
X193975000Y-73752082D01*
X193993316Y-73660001D01*
X193975000Y-73567920D01*
X193975000Y-46821112D01*
X194074577Y-46754577D01*
X194391740Y-46279909D01*
X194503113Y-45720000D01*
X194391740Y-45160091D01*
X194074577Y-44685423D01*
X193599909Y-44368260D01*
X193181333Y-44285000D01*
X192898667Y-44285000D01*
X192480091Y-44368260D01*
X192005423Y-44685423D01*
X191688260Y-45160091D01*
X191576887Y-45720000D01*
X191688260Y-46279909D01*
X192005423Y-46754577D01*
X192105000Y-46821112D01*
X192105001Y-73272709D01*
X190112711Y-75265000D01*
X175647290Y-75265000D01*
X174856027Y-74473737D01*
X175260000Y-74554092D01*
X175839417Y-74438839D01*
X176330625Y-74110625D01*
X176530000Y-73812239D01*
X176729375Y-74110625D01*
X177220582Y-74438839D01*
X177800000Y-74554092D01*
X178379417Y-74438839D01*
X178870625Y-74110625D01*
X179070000Y-73812239D01*
X179269375Y-74110625D01*
X179760582Y-74438839D01*
X180340000Y-74554092D01*
X180919417Y-74438839D01*
X181410625Y-74110625D01*
X181617232Y-73801416D01*
X181919749Y-74179856D01*
X182429048Y-74460562D01*
X182523110Y-74481476D01*
X182753000Y-74360155D01*
X182753000Y-72517000D01*
X182733000Y-72517000D01*
X182733000Y-72263000D01*
X182753000Y-72263000D01*
X182753000Y-72243000D01*
X183007000Y-72243000D01*
X183007000Y-72263000D01*
X183027000Y-72263000D01*
X183027000Y-72517000D01*
X183007000Y-72517000D01*
X183007000Y-74360155D01*
X183236890Y-74481476D01*
X183330952Y-74460562D01*
X183840251Y-74179856D01*
X184142769Y-73801416D01*
X184349375Y-74110625D01*
X184840582Y-74438839D01*
X185420000Y-74554092D01*
X185999417Y-74438839D01*
X186490625Y-74110625D01*
X186502816Y-74092381D01*
X186511843Y-74137765D01*
X186652191Y-74347809D01*
X186862235Y-74488157D01*
X187110000Y-74537440D01*
X188810000Y-74537440D01*
X189057765Y-74488157D01*
X189267809Y-74347809D01*
X189408157Y-74137765D01*
X189457440Y-73890000D01*
X189457440Y-73333881D01*
X189502086Y-73325000D01*
X189774819Y-73270750D01*
X190084097Y-73064097D01*
X190136261Y-72986028D01*
X191096031Y-72026259D01*
X191174097Y-71974097D01*
X191380750Y-71664819D01*
X191435000Y-71392086D01*
X191453317Y-71300000D01*
X191435000Y-71207914D01*
X191435000Y-54702081D01*
X191453316Y-54609999D01*
X191435000Y-54517915D01*
X191435000Y-54517914D01*
X191380750Y-54245181D01*
X191174097Y-53935903D01*
X191096031Y-53883741D01*
X189956261Y-52743972D01*
X189904097Y-52665903D01*
X189594819Y-52459250D01*
X189322086Y-52405000D01*
X189230000Y-52386683D01*
X189137914Y-52405000D01*
X187077290Y-52405000D01*
X186284804Y-51612514D01*
X186690000Y-51693113D01*
X187249909Y-51581740D01*
X187724577Y-51264577D01*
X188041740Y-50789909D01*
X188125000Y-50371333D01*
X188125000Y-48688667D01*
X188041740Y-48270091D01*
X187724576Y-47795423D01*
X187625000Y-47728888D01*
X187625000Y-47082081D01*
X187643316Y-46989999D01*
X187625000Y-46897915D01*
X187625000Y-46897914D01*
X187570750Y-46625181D01*
X187364097Y-46315903D01*
X187286031Y-46263741D01*
X186855000Y-45832710D01*
X186855000Y-45434561D01*
X186636534Y-44907138D01*
X186232862Y-44503466D01*
X185705439Y-44285000D01*
X185134561Y-44285000D01*
X184607138Y-44503466D01*
X184203466Y-44907138D01*
X183985000Y-45434561D01*
X183985000Y-46005439D01*
X184203466Y-46532862D01*
X184607138Y-46936534D01*
X185134561Y-47155000D01*
X185532710Y-47155000D01*
X185755000Y-47377290D01*
X185755000Y-47728888D01*
X185655423Y-47795424D01*
X185420000Y-48147759D01*
X185184576Y-47795423D01*
X184709908Y-47478260D01*
X184150000Y-47366887D01*
X183590091Y-47478260D01*
X183115423Y-47795424D01*
X182880000Y-48147759D01*
X182644576Y-47795423D01*
X182169908Y-47478260D01*
X181610000Y-47366887D01*
X181050091Y-47478260D01*
X180575423Y-47795424D01*
X180340000Y-48147759D01*
X180104576Y-47795423D01*
X180005000Y-47728888D01*
X180005000Y-45927289D01*
X180005613Y-45926676D01*
X180110000Y-45947440D01*
X183110000Y-45947440D01*
X183357765Y-45898157D01*
X183567809Y-45757809D01*
X183708157Y-45547765D01*
X183757440Y-45300000D01*
X183757440Y-43600000D01*
X183708157Y-43352235D01*
X183567809Y-43142191D01*
X183357765Y-43001843D01*
X183259652Y-42982327D01*
X183399856Y-42870251D01*
X183680562Y-42360952D01*
X183701476Y-42266890D01*
X183580155Y-42037000D01*
X181737000Y-42037000D01*
X181737000Y-42057000D01*
X181483000Y-42057000D01*
X181483000Y-42037000D01*
X181463000Y-42037000D01*
X181463000Y-41783000D01*
X181483000Y-41783000D01*
X181483000Y-40425000D01*
X181737000Y-40425000D01*
X181737000Y-41783000D01*
X183580155Y-41783000D01*
X183701476Y-41553110D01*
X183680562Y-41459048D01*
X183399856Y-40949749D01*
X182945618Y-40586640D01*
X182387000Y-40425000D01*
X181737000Y-40425000D01*
X181483000Y-40425000D01*
X180833000Y-40425000D01*
X180274382Y-40586640D01*
X180005000Y-40801979D01*
X180005000Y-39462086D01*
X180023317Y-39370000D01*
X179950750Y-39005181D01*
X179934426Y-38980750D01*
X179744097Y-38695903D01*
X179666028Y-38643739D01*
X178439025Y-37416736D01*
X187065000Y-37416736D01*
X187065000Y-38783264D01*
X187587947Y-40045771D01*
X188554229Y-41012053D01*
X189816736Y-41535000D01*
X191183264Y-41535000D01*
X192445771Y-41012053D01*
X193412053Y-40045771D01*
X193935000Y-38783264D01*
X193935000Y-37416736D01*
X193412053Y-36154229D01*
X192445771Y-35187947D01*
X191183264Y-34665000D01*
X189816736Y-34665000D01*
X188554229Y-35187947D01*
X187587947Y-36154229D01*
X187065000Y-37416736D01*
X178439025Y-37416736D01*
X175986261Y-34963972D01*
X175934097Y-34885903D01*
X175624819Y-34679250D01*
X175352086Y-34625000D01*
X175260000Y-34606683D01*
X175167914Y-34625000D01*
X148552080Y-34625000D01*
X148459999Y-34606684D01*
X148367918Y-34625000D01*
X148367914Y-34625000D01*
X148095181Y-34679250D01*
X147785903Y-34885903D01*
X147733741Y-34963969D01*
X146723970Y-35973741D01*
X146645904Y-36025903D01*
X146593742Y-36103969D01*
X146593741Y-36103970D01*
X146439250Y-36335182D01*
X146370192Y-36682358D01*
X146272235Y-36701843D01*
X146062191Y-36842191D01*
X145921843Y-37052235D01*
X145872560Y-37300000D01*
X145872560Y-38900000D01*
X145921843Y-39147765D01*
X146062191Y-39357809D01*
X146272235Y-39498157D01*
X146520000Y-39547440D01*
X148120000Y-39547440D01*
X148367765Y-39498157D01*
X148577809Y-39357809D01*
X148718157Y-39147765D01*
X148767440Y-38900000D01*
X148767440Y-37300000D01*
X148718157Y-37052235D01*
X148577809Y-36842191D01*
X148531225Y-36811064D01*
X148847290Y-36495000D01*
X174872711Y-36495000D01*
X178135000Y-39757289D01*
X178135000Y-40801979D01*
X177865618Y-40586640D01*
X177307000Y-40425000D01*
X176657000Y-40425000D01*
X176657000Y-41783000D01*
X176677000Y-41783000D01*
X176677000Y-42037000D01*
X176657000Y-42037000D01*
X176657000Y-42057000D01*
X176403000Y-42057000D01*
X176403000Y-42037000D01*
X176383000Y-42037000D01*
X176383000Y-41783000D01*
X176403000Y-41783000D01*
X176403000Y-40425000D01*
X175753000Y-40425000D01*
X175194382Y-40586640D01*
X174925000Y-40801979D01*
X174925000Y-39462081D01*
X174943316Y-39369999D01*
X174925000Y-39277915D01*
X174925000Y-39277914D01*
X174870750Y-39005181D01*
X174664097Y-38695903D01*
X174586031Y-38643741D01*
X173446261Y-37503972D01*
X173394097Y-37425903D01*
X173084819Y-37219250D01*
X172812086Y-37165000D01*
X172720000Y-37146683D01*
X172627914Y-37165000D01*
X152550587Y-37165000D01*
X152528157Y-37052235D01*
X152387809Y-36842191D01*
X152177765Y-36701843D01*
X151930000Y-36652560D01*
X150330000Y-36652560D01*
X150082235Y-36701843D01*
X149872191Y-36842191D01*
X149731843Y-37052235D01*
X149682560Y-37300000D01*
X149682560Y-38900000D01*
X149731843Y-39147765D01*
X149872191Y-39357809D01*
X150082235Y-39498157D01*
X150330000Y-39547440D01*
X151930000Y-39547440D01*
X152177765Y-39498157D01*
X152387809Y-39357809D01*
X152528157Y-39147765D01*
X152550587Y-39035000D01*
X172332711Y-39035000D01*
X173055000Y-39757290D01*
X173055000Y-40801979D01*
X172785618Y-40586640D01*
X172227000Y-40425000D01*
X171577000Y-40425000D01*
X171577000Y-41783000D01*
X171597000Y-41783000D01*
X171597000Y-42037000D01*
X171577000Y-42037000D01*
X171577000Y-42057000D01*
X171323000Y-42057000D01*
X171323000Y-42037000D01*
X169479845Y-42037000D01*
X169358524Y-42266890D01*
X169379438Y-42360952D01*
X169660144Y-42870251D01*
X169800348Y-42982327D01*
X169702235Y-43001843D01*
X169492191Y-43142191D01*
X169351843Y-43352235D01*
X169302560Y-43600000D01*
X169302560Y-44785000D01*
X165250587Y-44785000D01*
X165228157Y-44672235D01*
X165087809Y-44462191D01*
X164877765Y-44321843D01*
X164630000Y-44272560D01*
X163030000Y-44272560D01*
X162782235Y-44321843D01*
X162572191Y-44462191D01*
X162431843Y-44672235D01*
X162382560Y-44920000D01*
X162382560Y-46520000D01*
X162431843Y-46767765D01*
X162572191Y-46977809D01*
X162782235Y-47118157D01*
X163030000Y-47167440D01*
X164630000Y-47167440D01*
X164877765Y-47118157D01*
X165087809Y-46977809D01*
X165228157Y-46767765D01*
X165250587Y-46655000D01*
X170087914Y-46655000D01*
X170180000Y-46673317D01*
X170272086Y-46655000D01*
X170544819Y-46600750D01*
X170854097Y-46394097D01*
X170906261Y-46316028D01*
X171274849Y-45947440D01*
X171625151Y-45947440D01*
X173055000Y-47377290D01*
X173055000Y-47728888D01*
X172955423Y-47795424D01*
X172720000Y-48147759D01*
X172484576Y-47795423D01*
X172009908Y-47478260D01*
X171450000Y-47366887D01*
X170890091Y-47478260D01*
X170415423Y-47795424D01*
X170180000Y-48147759D01*
X169944576Y-47795423D01*
X169469908Y-47478260D01*
X168910000Y-47366887D01*
X168350091Y-47478260D01*
X167875423Y-47795424D01*
X167640000Y-48147759D01*
X167404576Y-47795423D01*
X166929908Y-47478260D01*
X166370000Y-47366887D01*
X165810091Y-47478260D01*
X165335423Y-47795424D01*
X165100000Y-48147759D01*
X164864576Y-47795423D01*
X164389908Y-47478260D01*
X163830000Y-47366887D01*
X163270091Y-47478260D01*
X162795423Y-47795424D01*
X162560000Y-48147759D01*
X162324576Y-47795423D01*
X161849908Y-47478260D01*
X161290000Y-47366887D01*
X160730091Y-47478260D01*
X160255423Y-47795424D01*
X160020000Y-48147759D01*
X159885000Y-47945718D01*
X159885000Y-43291782D01*
X159907235Y-43179999D01*
X159819146Y-42737145D01*
X159751736Y-42636259D01*
X159568289Y-42361711D01*
X159473521Y-42298389D01*
X158728242Y-41553110D01*
X169358524Y-41553110D01*
X169479845Y-41783000D01*
X171323000Y-41783000D01*
X171323000Y-40425000D01*
X170673000Y-40425000D01*
X170114382Y-40586640D01*
X169660144Y-40949749D01*
X169379438Y-41459048D01*
X169358524Y-41553110D01*
X158728242Y-41553110D01*
X158361613Y-41186482D01*
X158298289Y-41091711D01*
X157922855Y-40840854D01*
X157591783Y-40775000D01*
X157480000Y-40752765D01*
X157368217Y-40775000D01*
X141081782Y-40775000D01*
X140969999Y-40752765D01*
X140641251Y-40818157D01*
X140527145Y-40840854D01*
X140151711Y-41091711D01*
X140088389Y-41186479D01*
X139700000Y-41574868D01*
X137312877Y-39187745D01*
X138871861Y-39187745D01*
X138945995Y-39433864D01*
X139483223Y-39626965D01*
X140053454Y-39599778D01*
X140454005Y-39433864D01*
X140528139Y-39187745D01*
X139700000Y-38359605D01*
X138871861Y-39187745D01*
X137312877Y-39187745D01*
X136088355Y-37963223D01*
X138253035Y-37963223D01*
X138280222Y-38533454D01*
X138446136Y-38934005D01*
X138692255Y-39008139D01*
X139520395Y-38180000D01*
X139879605Y-38180000D01*
X140707745Y-39008139D01*
X140953864Y-38934005D01*
X141146965Y-38396777D01*
X141119778Y-37826546D01*
X140953864Y-37425995D01*
X140707745Y-37351861D01*
X139879605Y-38180000D01*
X139520395Y-38180000D01*
X138692255Y-37351861D01*
X138446136Y-37425995D01*
X138253035Y-37963223D01*
X136088355Y-37963223D01*
X135501613Y-37376482D01*
X135438289Y-37281711D01*
X135274477Y-37172255D01*
X138871861Y-37172255D01*
X139700000Y-38000395D01*
X140528139Y-37172255D01*
X140454005Y-36926136D01*
X139916777Y-36733035D01*
X139346546Y-36760222D01*
X138945995Y-36926136D01*
X138871861Y-37172255D01*
X135274477Y-37172255D01*
X135062855Y-37030854D01*
X134731783Y-36965000D01*
X134620000Y-36942765D01*
X134508217Y-36965000D01*
X127894396Y-36965000D01*
X127812862Y-36883466D01*
X127285439Y-36665000D01*
X126714561Y-36665000D01*
X126187138Y-36883466D01*
X125783466Y-37287138D01*
X125565000Y-37814561D01*
X125565000Y-37929868D01*
X123736480Y-39758389D01*
X123641712Y-39821711D01*
X123492000Y-40045771D01*
X123390854Y-40197146D01*
X123302765Y-40640000D01*
X123325001Y-40751788D01*
X123325000Y-45855000D01*
X121862450Y-45855000D01*
X121813344Y-45608127D01*
X121540385Y-45199615D01*
X121131873Y-44926656D01*
X120650000Y-44830805D01*
X120168128Y-44926656D01*
X119759616Y-45199615D01*
X119486657Y-45608127D01*
X119415001Y-45968364D01*
X119415000Y-48011635D01*
X119486656Y-48371872D01*
X119515001Y-48414293D01*
X119515000Y-50715426D01*
X119494075Y-50855044D01*
X119542078Y-51047913D01*
X119580854Y-51242854D01*
X119596380Y-51266090D01*
X119603129Y-51293207D01*
X119721280Y-51453016D01*
X119831711Y-51618289D01*
X119949102Y-51696727D01*
X126500001Y-57652090D01*
X126500000Y-62079932D01*
X126480328Y-62153022D01*
X126500000Y-62303748D01*
X126500000Y-62341782D01*
X126514437Y-62414360D01*
X126538764Y-62600755D01*
X126558240Y-62634576D01*
X126565854Y-62672854D01*
X126670290Y-62829154D01*
X126707216Y-62893277D01*
X126732260Y-62921898D01*
X126816711Y-63048289D01*
X126879648Y-63090342D01*
X131177261Y-68001900D01*
X131261711Y-68128289D01*
X131418006Y-68232722D01*
X131567007Y-68347320D01*
X131604695Y-68357464D01*
X131637145Y-68379146D01*
X131821505Y-68415817D01*
X132003022Y-68464672D01*
X132153748Y-68445000D01*
X141811614Y-68445000D01*
X141817977Y-68454523D01*
X142005767Y-68580000D01*
X141817977Y-68705477D01*
X141467109Y-69230589D01*
X141343900Y-69850000D01*
X141370753Y-69985000D01*
X140594396Y-69985000D01*
X140512862Y-69903466D01*
X139985439Y-69685000D01*
X139414561Y-69685000D01*
X138887138Y-69903466D01*
X138805604Y-69985000D01*
X132974396Y-69985000D01*
X132892862Y-69903466D01*
X132365439Y-69685000D01*
X132250132Y-69685000D01*
X131691613Y-69126482D01*
X131628289Y-69031711D01*
X131252855Y-68780854D01*
X130921783Y-68715000D01*
X130810000Y-68692765D01*
X130698217Y-68715000D01*
X130010478Y-68715000D01*
X129968157Y-68502235D01*
X129827809Y-68292191D01*
X129617765Y-68151843D01*
X129370000Y-68102560D01*
X127170000Y-68102560D01*
X126922235Y-68151843D01*
X126712191Y-68292191D01*
X126571843Y-68502235D01*
X126522560Y-68750000D01*
X126522560Y-70950000D01*
X126571843Y-71197765D01*
X126712191Y-71407809D01*
X126922235Y-71548157D01*
X127170000Y-71597440D01*
X129370000Y-71597440D01*
X129617765Y-71548157D01*
X129827809Y-71407809D01*
X129968157Y-71197765D01*
X130010478Y-70985000D01*
X130339869Y-70985000D01*
X130645000Y-71290132D01*
X130645000Y-71405439D01*
X130863466Y-71932862D01*
X131267138Y-72336534D01*
X131794561Y-72555000D01*
X132365439Y-72555000D01*
X132892862Y-72336534D01*
X132974396Y-72255000D01*
X138805604Y-72255000D01*
X138887138Y-72336534D01*
X139414561Y-72555000D01*
X139985439Y-72555000D01*
X140512862Y-72336534D01*
X140594396Y-72255000D01*
X142128217Y-72255000D01*
X142240000Y-72277235D01*
X142351783Y-72255000D01*
X142682855Y-72189146D01*
X143058289Y-71938289D01*
X143121613Y-71843518D01*
X143527631Y-71437500D01*
X144213850Y-71437500D01*
X144676911Y-71345391D01*
X145202023Y-70994523D01*
X145552891Y-70469411D01*
X145676100Y-69850000D01*
X145552891Y-69230589D01*
X145202023Y-68705477D01*
X145014233Y-68580000D01*
X145202023Y-68454523D01*
X145552891Y-67929411D01*
X145676100Y-67310000D01*
X145552891Y-66690589D01*
X145290912Y-66298509D01*
X145467809Y-66180309D01*
X145608157Y-65970265D01*
X145657440Y-65722500D01*
X145657440Y-63817500D01*
X145608157Y-63569735D01*
X145467809Y-63359691D01*
X145257765Y-63219343D01*
X145010000Y-63170060D01*
X142010000Y-63170060D01*
X141762235Y-63219343D01*
X141552191Y-63359691D01*
X141411843Y-63569735D01*
X141362560Y-63817500D01*
X141362560Y-63835000D01*
X141357290Y-63835000D01*
X141139749Y-63617459D01*
X141163113Y-63500000D01*
X141051740Y-62940091D01*
X140734577Y-62465423D01*
X140259909Y-62148260D01*
X139841333Y-62065000D01*
X139587290Y-62065000D01*
X139294804Y-61772514D01*
X139700000Y-61853113D01*
X140259909Y-61741740D01*
X140734577Y-61424577D01*
X140970001Y-61072241D01*
X141205424Y-61424577D01*
X141680092Y-61741740D01*
X142240000Y-61853113D01*
X142799909Y-61741740D01*
X143274577Y-61424577D01*
X143512499Y-61068501D01*
X143855104Y-61494500D01*
X144348181Y-61764367D01*
X144430961Y-61781904D01*
X144653000Y-61659915D01*
X144653000Y-59817000D01*
X144907000Y-59817000D01*
X144907000Y-61659915D01*
X145129039Y-61781904D01*
X145211819Y-61764367D01*
X145704896Y-61494500D01*
X146057166Y-61056483D01*
X146215000Y-60517000D01*
X146215000Y-59817000D01*
X144907000Y-59817000D01*
X144653000Y-59817000D01*
X144633000Y-59817000D01*
X144633000Y-59563000D01*
X144653000Y-59563000D01*
X144653000Y-57720085D01*
X144907000Y-57720085D01*
X144907000Y-59563000D01*
X146215000Y-59563000D01*
X146215000Y-58863000D01*
X146057166Y-58323517D01*
X145704896Y-57885500D01*
X145211819Y-57615633D01*
X145129039Y-57598096D01*
X144907000Y-57720085D01*
X144653000Y-57720085D01*
X144430961Y-57598096D01*
X144348181Y-57615633D01*
X143855104Y-57885500D01*
X143512499Y-58311499D01*
X143363613Y-58088676D01*
X144637290Y-56815000D01*
X147655001Y-56815000D01*
X147655000Y-58327914D01*
X147636683Y-58420000D01*
X147699675Y-58736683D01*
X147709250Y-58784818D01*
X147915903Y-59094097D01*
X147993972Y-59146261D01*
X150403740Y-61556030D01*
X150455903Y-61634097D01*
X150765181Y-61840750D01*
X151037914Y-61895000D01*
X151037918Y-61895000D01*
X151129999Y-61913316D01*
X151222080Y-61895000D01*
X172046090Y-61895000D01*
X172409513Y-62985267D01*
X172009908Y-62718260D01*
X171450000Y-62606887D01*
X170890091Y-62718260D01*
X170415423Y-63035424D01*
X170180000Y-63387759D01*
X169944576Y-63035423D01*
X169469908Y-62718260D01*
X168910000Y-62606887D01*
X168350091Y-62718260D01*
X167875423Y-63035424D01*
X167640000Y-63387759D01*
X167404576Y-63035423D01*
X166929908Y-62718260D01*
X166370000Y-62606887D01*
X165810091Y-62718260D01*
X165335423Y-63035424D01*
X165100000Y-63387759D01*
X164864576Y-63035423D01*
X164389908Y-62718260D01*
X163830000Y-62606887D01*
X163270091Y-62718260D01*
X162795423Y-63035424D01*
X162560000Y-63387759D01*
X162324576Y-63035423D01*
X161849908Y-62718260D01*
X161290000Y-62606887D01*
X160730091Y-62718260D01*
X160255423Y-63035424D01*
X160017501Y-63391499D01*
X159674896Y-62965500D01*
X159181819Y-62695633D01*
X159099039Y-62678096D01*
X158877000Y-62800085D01*
X158877000Y-64643000D01*
X158897000Y-64643000D01*
X158897000Y-64897000D01*
X158877000Y-64897000D01*
X158877000Y-64917000D01*
X158623000Y-64917000D01*
X158623000Y-64897000D01*
X158603000Y-64897000D01*
X158603000Y-64643000D01*
X158623000Y-64643000D01*
X158623000Y-62800085D01*
X158400961Y-62678096D01*
X158318181Y-62695633D01*
X157825104Y-62965500D01*
X157482499Y-63391499D01*
X157244576Y-63035423D01*
X156769908Y-62718260D01*
X156210000Y-62606887D01*
X155650091Y-62718260D01*
X155175423Y-63035424D01*
X154940000Y-63387759D01*
X154704576Y-63035423D01*
X154229908Y-62718260D01*
X153670000Y-62606887D01*
X153110091Y-62718260D01*
X152635423Y-63035424D01*
X152554785Y-63156107D01*
X152528157Y-63022235D01*
X152387809Y-62812191D01*
X152177765Y-62671843D01*
X151930000Y-62622560D01*
X150330000Y-62622560D01*
X150082235Y-62671843D01*
X149872191Y-62812191D01*
X149731843Y-63022235D01*
X149682560Y-63270000D01*
X149682560Y-66270000D01*
X149731843Y-66517765D01*
X149872191Y-66727809D01*
X150082235Y-66868157D01*
X150330000Y-66917440D01*
X151930000Y-66917440D01*
X152177765Y-66868157D01*
X152387809Y-66727809D01*
X152528157Y-66517765D01*
X152554786Y-66383893D01*
X152635424Y-66504577D01*
X153110092Y-66821740D01*
X153670000Y-66933113D01*
X154229909Y-66821740D01*
X154704577Y-66504577D01*
X154940001Y-66152241D01*
X155175424Y-66504577D01*
X155650092Y-66821740D01*
X156210000Y-66933113D01*
X156769909Y-66821740D01*
X157244577Y-66504577D01*
X157482499Y-66148501D01*
X157825104Y-66574500D01*
X158318181Y-66844367D01*
X158400961Y-66861904D01*
X158622998Y-66739916D01*
X158622998Y-66814712D01*
X152712711Y-72725000D01*
X126117290Y-72725000D01*
X125395000Y-72002711D01*
X125395000Y-69080396D01*
X126729321Y-68190849D01*
X126729818Y-68190750D01*
X126883685Y-68087940D01*
X126960264Y-68036887D01*
X126960615Y-68036537D01*
X127039097Y-67984097D01*
X127090988Y-67906437D01*
X127157099Y-67840464D01*
X127193310Y-67753301D01*
X127245750Y-67674819D01*
X127263972Y-67583212D01*
X127299804Y-67496961D01*
X127299903Y-67402575D01*
X127300000Y-67402086D01*
X127300000Y-67309544D01*
X127300193Y-67124996D01*
X127300000Y-67124529D01*
X127300000Y-65497085D01*
X127318317Y-65404999D01*
X127245750Y-65040181D01*
X127091259Y-64808969D01*
X127039097Y-64730903D01*
X126961031Y-64678741D01*
X123900411Y-61618122D01*
X123887087Y-61600100D01*
X123835409Y-61553120D01*
X123786030Y-61503741D01*
X123767397Y-61491291D01*
X116850422Y-55203133D01*
X116505000Y-54857711D01*
X116505000Y-48713614D01*
X116733344Y-48371873D01*
X116805000Y-48011636D01*
X116805000Y-48011635D01*
X116875000Y-48011635D01*
X116946656Y-48371872D01*
X117175000Y-48713614D01*
X117175001Y-53247910D01*
X117156683Y-53340000D01*
X117229250Y-53704818D01*
X117229251Y-53704819D01*
X117435904Y-54014097D01*
X117513970Y-54066259D01*
X122463740Y-59016030D01*
X122515903Y-59094097D01*
X122593969Y-59146259D01*
X122825181Y-59300750D01*
X123190000Y-59373317D01*
X123282086Y-59355000D01*
X123365604Y-59355000D01*
X123647138Y-59636534D01*
X124174561Y-59855000D01*
X124745439Y-59855000D01*
X125272862Y-59636534D01*
X125676534Y-59232862D01*
X125895000Y-58705439D01*
X125895000Y-58134561D01*
X125676534Y-57607138D01*
X125272862Y-57203466D01*
X124745439Y-56985000D01*
X124174561Y-56985000D01*
X123647138Y-57203466D01*
X123471447Y-57379157D01*
X119045000Y-52952711D01*
X119045000Y-48713614D01*
X119273344Y-48371873D01*
X119345000Y-48011636D01*
X119345000Y-45968364D01*
X119273344Y-45608127D01*
X119000385Y-45199615D01*
X118591873Y-44926656D01*
X118110000Y-44830805D01*
X117628128Y-44926656D01*
X117219616Y-45199615D01*
X116946657Y-45608127D01*
X116875001Y-45968364D01*
X116875000Y-48011635D01*
X116805000Y-48011635D01*
X116805000Y-45968364D01*
X116733344Y-45608127D01*
X116460385Y-45199615D01*
X116051873Y-44926656D01*
X115570000Y-44830805D01*
X115088128Y-44926656D01*
X114679616Y-45199615D01*
X114406657Y-45608127D01*
X114335001Y-45968364D01*
X114335000Y-48011635D01*
X114265000Y-48011635D01*
X114265000Y-45968364D01*
X114193344Y-45608127D01*
X113920385Y-45199615D01*
X113511873Y-44926656D01*
X113030000Y-44830805D01*
X112548128Y-44926656D01*
X112139616Y-45199615D01*
X111866657Y-45608127D01*
X111795001Y-45968364D01*
X111795000Y-48011635D01*
X111725000Y-48011635D01*
X111725000Y-45968364D01*
X111653344Y-45608127D01*
X111380385Y-45199615D01*
X110971873Y-44926656D01*
X110490000Y-44830805D01*
X110079912Y-44912377D01*
X112147289Y-42845000D01*
X118218753Y-42845000D01*
X118309375Y-42980625D01*
X118800582Y-43308839D01*
X119233744Y-43395000D01*
X119526256Y-43395000D01*
X119959418Y-43308839D01*
X120450625Y-42980625D01*
X120778839Y-42489418D01*
X120894092Y-41910000D01*
X120778839Y-41330582D01*
X120450625Y-40839375D01*
X120432381Y-40827184D01*
X120477765Y-40818157D01*
X120687809Y-40677809D01*
X120828157Y-40467765D01*
X120877440Y-40220000D01*
X120877440Y-38520000D01*
X120828157Y-38272235D01*
X120687809Y-38062191D01*
X120477765Y-37921843D01*
X120230000Y-37872560D01*
X118530000Y-37872560D01*
X118282235Y-37921843D01*
X118072191Y-38062191D01*
X117931843Y-38272235D01*
X117899467Y-38435000D01*
X110582086Y-38435000D01*
X110490000Y-38416683D01*
X110397914Y-38435000D01*
X110125181Y-38489250D01*
X109815903Y-38695903D01*
X109763739Y-38773972D01*
X106292711Y-42245000D01*
X104232081Y-42245000D01*
X104139999Y-42226684D01*
X104047917Y-42245000D01*
X104047914Y-42245000D01*
X103775181Y-42299250D01*
X103465903Y-42505903D01*
X103413741Y-42583969D01*
X102273972Y-43723739D01*
X102195903Y-43775903D01*
X102005575Y-44060750D01*
X101989250Y-44085182D01*
X101916683Y-44450000D01*
X101935000Y-44542086D01*
X101935000Y-45266387D01*
X101706657Y-45608127D01*
X101635001Y-45968364D01*
X101635000Y-48011635D01*
X99187000Y-48011635D01*
X99187000Y-37416736D01*
X100705000Y-37416736D01*
X100705000Y-38783264D01*
X101227947Y-40045771D01*
X102194229Y-41012053D01*
X103456736Y-41535000D01*
X104823264Y-41535000D01*
X106085771Y-41012053D01*
X107052053Y-40045771D01*
X107575000Y-38783264D01*
X107575000Y-37416736D01*
X107052053Y-36154229D01*
X106085771Y-35187947D01*
X104823264Y-34665000D01*
X103456736Y-34665000D01*
X102194229Y-35187947D01*
X101227947Y-36154229D01*
X100705000Y-37416736D01*
X99187000Y-37416736D01*
X99187000Y-33147000D01*
X195453000Y-33147000D01*
X195453000Y-78613000D01*
X195453000Y-78613000D01*
G37*
X195453000Y-78613000D02*
X99187000Y-78613000D01*
X99187000Y-72976736D01*
X100705000Y-72976736D01*
X100705000Y-74343264D01*
X101227947Y-75605771D01*
X102194229Y-76572053D01*
X103456736Y-77095000D01*
X104823264Y-77095000D01*
X106085771Y-76572053D01*
X107052053Y-75605771D01*
X107575000Y-74343264D01*
X107575000Y-73787000D01*
X112815000Y-73787000D01*
X112815000Y-74437000D01*
X112976640Y-74995618D01*
X113339749Y-75449856D01*
X113849048Y-75730562D01*
X113943110Y-75751476D01*
X114173000Y-75630155D01*
X114173000Y-73787000D01*
X112815000Y-73787000D01*
X107575000Y-73787000D01*
X107575000Y-72976736D01*
X107536174Y-72883000D01*
X112815000Y-72883000D01*
X112815000Y-73533000D01*
X114173000Y-73533000D01*
X114173000Y-71689845D01*
X114427000Y-71689845D01*
X114427000Y-73533000D01*
X114447000Y-73533000D01*
X114447000Y-73787000D01*
X114427000Y-73787000D01*
X114427000Y-75630155D01*
X114656890Y-75751476D01*
X114750952Y-75730562D01*
X115260251Y-75449856D01*
X115372327Y-75309652D01*
X115391843Y-75407765D01*
X115532191Y-75617809D01*
X115742235Y-75758157D01*
X115990000Y-75807440D01*
X117690000Y-75807440D01*
X117937765Y-75758157D01*
X118147809Y-75617809D01*
X118288157Y-75407765D01*
X118337440Y-75160000D01*
X118337440Y-73767692D01*
X118833521Y-73271611D01*
X118928289Y-73208289D01*
X119179146Y-72832855D01*
X119194668Y-72754819D01*
X119267235Y-72390001D01*
X119245000Y-72278218D01*
X119245000Y-71178284D01*
X119360865Y-71100865D01*
X119744334Y-70526963D01*
X119878990Y-69850000D01*
X119744334Y-69173037D01*
X119360865Y-68599135D01*
X118786963Y-68215666D01*
X118280880Y-68115000D01*
X117939120Y-68115000D01*
X117433037Y-68215666D01*
X116859135Y-68599135D01*
X116475666Y-69173037D01*
X116341010Y-69850000D01*
X116475666Y-70526963D01*
X116859135Y-71100865D01*
X116975001Y-71178284D01*
X116975001Y-71512560D01*
X115990000Y-71512560D01*
X115742235Y-71561843D01*
X115532191Y-71702191D01*
X115391843Y-71912235D01*
X115372327Y-72010348D01*
X115260251Y-71870144D01*
X114750952Y-71589438D01*
X114656890Y-71568524D01*
X114427000Y-71689845D01*
X114173000Y-71689845D01*
X113943110Y-71568524D01*
X113849048Y-71589438D01*
X113339749Y-71870144D01*
X112976640Y-72324382D01*
X112815000Y-72883000D01*
X107536174Y-72883000D01*
X107052053Y-71714229D01*
X106085771Y-70747947D01*
X104823264Y-70225000D01*
X103456736Y-70225000D01*
X102194229Y-70747947D01*
X101227947Y-71714229D01*
X100705000Y-72976736D01*
X99187000Y-72976736D01*
X99187000Y-65791635D01*
X101635000Y-65791635D01*
X101706656Y-66151872D01*
X101979615Y-66560385D01*
X102388127Y-66833344D01*
X102870000Y-66929195D01*
X103351872Y-66833344D01*
X103760385Y-66560385D01*
X104033344Y-66151873D01*
X104105000Y-65791636D01*
X104105000Y-64897000D01*
X104175000Y-64897000D01*
X104175000Y-65797000D01*
X104317610Y-66259947D01*
X104626526Y-66633080D01*
X105054719Y-66859592D01*
X105092391Y-66863462D01*
X105283000Y-66738731D01*
X105283000Y-64897000D01*
X105537000Y-64897000D01*
X105537000Y-66738731D01*
X105727609Y-66863462D01*
X105765281Y-66859592D01*
X106193474Y-66633080D01*
X106502390Y-66259947D01*
X106645000Y-65797000D01*
X106645000Y-65791635D01*
X106715000Y-65791635D01*
X106786656Y-66151872D01*
X107059615Y-66560385D01*
X107468127Y-66833344D01*
X107950000Y-66929195D01*
X108431872Y-66833344D01*
X108840385Y-66560385D01*
X109113344Y-66151873D01*
X109185000Y-65791636D01*
X109185000Y-65791635D01*
X109255000Y-65791635D01*
X109326656Y-66151872D01*
X109599615Y-66560385D01*
X110008127Y-66833344D01*
X110490000Y-66929195D01*
X110971872Y-66833344D01*
X111380385Y-66560385D01*
X111653344Y-66151873D01*
X111725000Y-65791636D01*
X111725000Y-65791635D01*
X111795000Y-65791635D01*
X111866656Y-66151872D01*
X112139615Y-66560385D01*
X112548127Y-66833344D01*
X113030000Y-66929195D01*
X113511872Y-66833344D01*
X113920385Y-66560385D01*
X114193344Y-66151873D01*
X114265000Y-65791636D01*
X114265000Y-65791635D01*
X114335000Y-65791635D01*
X114406656Y-66151872D01*
X114679615Y-66560385D01*
X115088127Y-66833344D01*
X115570000Y-66929195D01*
X116051872Y-66833344D01*
X116460385Y-66560385D01*
X116733344Y-66151873D01*
X116805000Y-65791636D01*
X116805000Y-65791635D01*
X116875000Y-65791635D01*
X116946656Y-66151872D01*
X117219615Y-66560385D01*
X117628127Y-66833344D01*
X118110000Y-66929195D01*
X118591872Y-66833344D01*
X119000385Y-66560385D01*
X119273344Y-66151873D01*
X119345000Y-65791636D01*
X119345000Y-63748364D01*
X119273344Y-63388127D01*
X119000385Y-62979615D01*
X118591873Y-62706656D01*
X118110000Y-62610805D01*
X117628128Y-62706656D01*
X117219616Y-62979615D01*
X116946657Y-63388127D01*
X116875001Y-63748364D01*
X116875000Y-65791635D01*
X116805000Y-65791635D01*
X116805000Y-63748364D01*
X116733344Y-63388127D01*
X116460385Y-62979615D01*
X116051873Y-62706656D01*
X115570000Y-62610805D01*
X115088128Y-62706656D01*
X114679616Y-62979615D01*
X114406657Y-63388127D01*
X114335001Y-63748364D01*
X114335000Y-65791635D01*
X114265000Y-65791635D01*
X114265000Y-63748364D01*
X114193344Y-63388127D01*
X113920385Y-62979615D01*
X113511873Y-62706656D01*
X113030000Y-62610805D01*
X112548128Y-62706656D01*
X112139616Y-62979615D01*
X111866657Y-63388127D01*
X111795001Y-63748364D01*
X111795000Y-65791635D01*
X111725000Y-65791635D01*
X111725000Y-63748364D01*
X111653344Y-63388127D01*
X111380385Y-62979615D01*
X110971873Y-62706656D01*
X110490000Y-62610805D01*
X110008128Y-62706656D01*
X109599616Y-62979615D01*
X109326657Y-63388127D01*
X109255001Y-63748364D01*
X109255000Y-65791635D01*
X109185000Y-65791635D01*
X109185000Y-63748364D01*
X109113344Y-63388127D01*
X108840385Y-62979615D01*
X108431873Y-62706656D01*
X107950000Y-62610805D01*
X107468128Y-62706656D01*
X107059616Y-62979615D01*
X106786657Y-63388127D01*
X106715001Y-63748364D01*
X106715000Y-65791635D01*
X106645000Y-65791635D01*
X106645000Y-64897000D01*
X105537000Y-64897000D01*
X105283000Y-64897000D01*
X104175000Y-64897000D01*
X104105000Y-64897000D01*
X104105000Y-63748364D01*
X104103934Y-63743000D01*
X104175000Y-63743000D01*
X104175000Y-64643000D01*
X105283000Y-64643000D01*
X105283000Y-62801269D01*
X105537000Y-62801269D01*
X105537000Y-64643000D01*
X106645000Y-64643000D01*
X106645000Y-63743000D01*
X106502390Y-63280053D01*
X106193474Y-62906920D01*
X105765281Y-62680408D01*
X105727609Y-62676538D01*
X105537000Y-62801269D01*
X105283000Y-62801269D01*
X105092391Y-62676538D01*
X105054719Y-62680408D01*
X104626526Y-62906920D01*
X104317610Y-63280053D01*
X104175000Y-63743000D01*
X104103934Y-63743000D01*
X104033344Y-63388127D01*
X103760385Y-62979615D01*
X103351873Y-62706656D01*
X102870000Y-62610805D01*
X102388128Y-62706656D01*
X101979616Y-62979615D01*
X101706657Y-63388127D01*
X101635001Y-63748364D01*
X101635000Y-65791635D01*
X99187000Y-65791635D01*
X99187000Y-48011635D01*
X101635000Y-48011635D01*
X101706656Y-48371872D01*
X101979615Y-48780385D01*
X102388127Y-49053344D01*
X102870000Y-49149195D01*
X103351872Y-49053344D01*
X103760385Y-48780385D01*
X104033344Y-48371873D01*
X104105000Y-48011636D01*
X104105000Y-47117000D01*
X104175000Y-47117000D01*
X104175000Y-48017000D01*
X104317610Y-48479947D01*
X104626526Y-48853080D01*
X105054719Y-49079592D01*
X105092391Y-49083462D01*
X105283000Y-48958731D01*
X105283000Y-47117000D01*
X105537000Y-47117000D01*
X105537000Y-48958731D01*
X105727609Y-49083462D01*
X105765281Y-49079592D01*
X106193474Y-48853080D01*
X106502390Y-48479947D01*
X106645000Y-48017000D01*
X106645000Y-47117000D01*
X105537000Y-47117000D01*
X105283000Y-47117000D01*
X104175000Y-47117000D01*
X104105000Y-47117000D01*
X104105000Y-45968364D01*
X104103934Y-45963000D01*
X104175000Y-45963000D01*
X104175000Y-46863000D01*
X105283000Y-46863000D01*
X105283000Y-45021269D01*
X105537000Y-45021269D01*
X105537000Y-46863000D01*
X106645000Y-46863000D01*
X106645000Y-45963000D01*
X106502390Y-45500053D01*
X106193474Y-45126920D01*
X105765281Y-44900408D01*
X105727609Y-44896538D01*
X105537000Y-45021269D01*
X105283000Y-45021269D01*
X105092391Y-44896538D01*
X105054719Y-44900408D01*
X104626526Y-45126920D01*
X104317610Y-45500053D01*
X104175000Y-45963000D01*
X104103934Y-45963000D01*
X104033344Y-45608127D01*
X103805000Y-45266386D01*
X103805000Y-44837289D01*
X104527290Y-44115000D01*
X106587914Y-44115000D01*
X106680000Y-44133317D01*
X106772086Y-44115000D01*
X107044819Y-44060750D01*
X107354097Y-43854097D01*
X107406261Y-43776028D01*
X110877289Y-40305000D01*
X117899467Y-40305000D01*
X117931843Y-40467765D01*
X118072191Y-40677809D01*
X118282235Y-40818157D01*
X118327619Y-40827184D01*
X118309375Y-40839375D01*
X118218753Y-40975000D01*
X111852086Y-40975000D01*
X111760000Y-40956683D01*
X111667914Y-40975000D01*
X111395181Y-41029250D01*
X111085903Y-41235903D01*
X111033739Y-41313972D01*
X107353972Y-44993739D01*
X107275903Y-45045903D01*
X107264805Y-45062512D01*
X107059616Y-45199615D01*
X106786657Y-45608127D01*
X106715001Y-45968364D01*
X106715000Y-48011635D01*
X106786656Y-48371872D01*
X107059615Y-48780385D01*
X107468127Y-49053344D01*
X107950000Y-49149195D01*
X108431872Y-49053344D01*
X108840385Y-48780385D01*
X109113344Y-48371873D01*
X109185000Y-48011636D01*
X109185000Y-45968364D01*
X109158276Y-45834013D01*
X109312378Y-45679911D01*
X109255001Y-45968364D01*
X109255000Y-48011635D01*
X109326656Y-48371872D01*
X109599615Y-48780385D01*
X110008127Y-49053344D01*
X110490000Y-49149195D01*
X110971872Y-49053344D01*
X111380385Y-48780385D01*
X111653344Y-48371873D01*
X111725000Y-48011636D01*
X111725000Y-48011635D01*
X111795000Y-48011635D01*
X111866656Y-48371872D01*
X112139615Y-48780385D01*
X112548127Y-49053344D01*
X113030000Y-49149195D01*
X113511872Y-49053344D01*
X113920385Y-48780385D01*
X114193344Y-48371873D01*
X114265000Y-48011636D01*
X114265000Y-48011635D01*
X114335000Y-48011635D01*
X114406656Y-48371872D01*
X114635001Y-48713615D01*
X114635000Y-55152914D01*
X114616683Y-55245000D01*
X114670426Y-55515182D01*
X114689250Y-55609818D01*
X114895903Y-55919097D01*
X114973972Y-55971261D01*
X115494589Y-56491878D01*
X115507913Y-56509900D01*
X115559591Y-56556880D01*
X115608970Y-56606259D01*
X115627604Y-56618710D01*
X122544588Y-62906877D01*
X124255312Y-64617602D01*
X123900091Y-64688260D01*
X123425423Y-65005423D01*
X123108260Y-65480091D01*
X122996887Y-66040000D01*
X123020251Y-66157460D01*
X122593970Y-66583741D01*
X122515904Y-66635903D01*
X122463742Y-66713969D01*
X122463741Y-66713970D01*
X122309250Y-66945182D01*
X122236683Y-67310000D01*
X122255001Y-67402090D01*
X122255000Y-74202914D01*
X122236683Y-74295000D01*
X122290426Y-74565182D01*
X122302333Y-74625044D01*
X122220000Y-74542711D01*
X122220000Y-68037086D01*
X122238317Y-67945000D01*
X122217524Y-67840464D01*
X122165750Y-67580181D01*
X121959097Y-67270903D01*
X121881028Y-67218739D01*
X121585000Y-66922711D01*
X121585000Y-66493614D01*
X121813344Y-66151873D01*
X121885000Y-65791636D01*
X121885000Y-63748364D01*
X121813344Y-63388127D01*
X121540385Y-62979615D01*
X121131873Y-62706656D01*
X120650000Y-62610805D01*
X120168128Y-62706656D01*
X119759616Y-62979615D01*
X119486657Y-63388127D01*
X119415001Y-63748364D01*
X119415000Y-65791635D01*
X119486656Y-66151872D01*
X119715000Y-66493614D01*
X119715000Y-67217914D01*
X119696683Y-67310000D01*
X119759675Y-67626683D01*
X119769250Y-67674818D01*
X119975903Y-67984097D01*
X120053972Y-68036261D01*
X120350001Y-68332290D01*
X120350000Y-74837914D01*
X120331683Y-74930000D01*
X120350000Y-75022085D01*
X120404250Y-75294818D01*
X120610903Y-75604097D01*
X120688972Y-75656261D01*
X121828741Y-76796031D01*
X121880903Y-76874097D01*
X122190181Y-77080750D01*
X122462914Y-77135000D01*
X122462917Y-77135000D01*
X122554999Y-77153316D01*
X122647081Y-77135000D01*
X154847914Y-77135000D01*
X154940000Y-77153317D01*
X155032086Y-77135000D01*
X155304819Y-77080750D01*
X155614097Y-76874097D01*
X155666261Y-76796028D01*
X159485553Y-72976736D01*
X160395000Y-72976736D01*
X160395000Y-74343264D01*
X160917947Y-75605771D01*
X161884229Y-76572053D01*
X163146736Y-77095000D01*
X164513264Y-77095000D01*
X165775771Y-76572053D01*
X166742053Y-75605771D01*
X167265000Y-74343264D01*
X167265000Y-72976736D01*
X166742053Y-71714229D01*
X165775771Y-70747947D01*
X164513264Y-70225000D01*
X163146736Y-70225000D01*
X161884229Y-70747947D01*
X160917947Y-71714229D01*
X160395000Y-72976736D01*
X159485553Y-72976736D01*
X164217289Y-68245000D01*
X165007914Y-68245000D01*
X165100000Y-68263317D01*
X165192086Y-68245000D01*
X165464819Y-68190750D01*
X165774097Y-67984097D01*
X165826261Y-67906028D01*
X166905743Y-66826547D01*
X166929909Y-66821740D01*
X167404577Y-66504577D01*
X167640001Y-66152241D01*
X167875424Y-66504577D01*
X168350092Y-66821740D01*
X168910000Y-66933113D01*
X169469909Y-66821740D01*
X169944577Y-66504577D01*
X170180001Y-66152241D01*
X170415424Y-66504577D01*
X170890092Y-66821740D01*
X171450000Y-66933113D01*
X172009909Y-66821740D01*
X172484577Y-66504577D01*
X172720001Y-66152241D01*
X172955424Y-66504577D01*
X173265303Y-66711631D01*
X173263739Y-66713972D01*
X169645481Y-70332230D01*
X169600583Y-70341161D01*
X169109376Y-70669375D01*
X168781161Y-71160582D01*
X168695000Y-71593744D01*
X168695000Y-73186255D01*
X168781161Y-73619417D01*
X169109375Y-74110625D01*
X169600582Y-74438839D01*
X170180000Y-74554092D01*
X170759417Y-74438839D01*
X171250625Y-74110625D01*
X171450000Y-73812239D01*
X171649375Y-74110625D01*
X172140582Y-74438839D01*
X172185481Y-74447770D01*
X174533741Y-76796031D01*
X174585903Y-76874097D01*
X174895181Y-77080750D01*
X175167914Y-77135000D01*
X175167918Y-77135000D01*
X175259999Y-77153316D01*
X175352080Y-77135000D01*
X190407914Y-77135000D01*
X190500000Y-77153317D01*
X190592086Y-77135000D01*
X190864819Y-77080750D01*
X191174097Y-76874097D01*
X191226261Y-76796028D01*
X193636031Y-74386259D01*
X193714097Y-74334097D01*
X193920750Y-74024819D01*
X193975000Y-73752086D01*
X193975000Y-73752082D01*
X193993316Y-73660001D01*
X193975000Y-73567920D01*
X193975000Y-46821112D01*
X194074577Y-46754577D01*
X194391740Y-46279909D01*
X194503113Y-45720000D01*
X194391740Y-45160091D01*
X194074577Y-44685423D01*
X193599909Y-44368260D01*
X193181333Y-44285000D01*
X192898667Y-44285000D01*
X192480091Y-44368260D01*
X192005423Y-44685423D01*
X191688260Y-45160091D01*
X191576887Y-45720000D01*
X191688260Y-46279909D01*
X192005423Y-46754577D01*
X192105000Y-46821112D01*
X192105001Y-73272709D01*
X190112711Y-75265000D01*
X175647290Y-75265000D01*
X174856027Y-74473737D01*
X175260000Y-74554092D01*
X175839417Y-74438839D01*
X176330625Y-74110625D01*
X176530000Y-73812239D01*
X176729375Y-74110625D01*
X177220582Y-74438839D01*
X177800000Y-74554092D01*
X178379417Y-74438839D01*
X178870625Y-74110625D01*
X179070000Y-73812239D01*
X179269375Y-74110625D01*
X179760582Y-74438839D01*
X180340000Y-74554092D01*
X180919417Y-74438839D01*
X181410625Y-74110625D01*
X181617232Y-73801416D01*
X181919749Y-74179856D01*
X182429048Y-74460562D01*
X182523110Y-74481476D01*
X182753000Y-74360155D01*
X182753000Y-72517000D01*
X182733000Y-72517000D01*
X182733000Y-72263000D01*
X182753000Y-72263000D01*
X182753000Y-72243000D01*
X183007000Y-72243000D01*
X183007000Y-72263000D01*
X183027000Y-72263000D01*
X183027000Y-72517000D01*
X183007000Y-72517000D01*
X183007000Y-74360155D01*
X183236890Y-74481476D01*
X183330952Y-74460562D01*
X183840251Y-74179856D01*
X184142769Y-73801416D01*
X184349375Y-74110625D01*
X184840582Y-74438839D01*
X185420000Y-74554092D01*
X185999417Y-74438839D01*
X186490625Y-74110625D01*
X186502816Y-74092381D01*
X186511843Y-74137765D01*
X186652191Y-74347809D01*
X186862235Y-74488157D01*
X187110000Y-74537440D01*
X188810000Y-74537440D01*
X189057765Y-74488157D01*
X189267809Y-74347809D01*
X189408157Y-74137765D01*
X189457440Y-73890000D01*
X189457440Y-73333881D01*
X189502086Y-73325000D01*
X189774819Y-73270750D01*
X190084097Y-73064097D01*
X190136261Y-72986028D01*
X191096031Y-72026259D01*
X191174097Y-71974097D01*
X191380750Y-71664819D01*
X191435000Y-71392086D01*
X191453317Y-71300000D01*
X191435000Y-71207914D01*
X191435000Y-54702081D01*
X191453316Y-54609999D01*
X191435000Y-54517915D01*
X191435000Y-54517914D01*
X191380750Y-54245181D01*
X191174097Y-53935903D01*
X191096031Y-53883741D01*
X189956261Y-52743972D01*
X189904097Y-52665903D01*
X189594819Y-52459250D01*
X189322086Y-52405000D01*
X189230000Y-52386683D01*
X189137914Y-52405000D01*
X187077290Y-52405000D01*
X186284804Y-51612514D01*
X186690000Y-51693113D01*
X187249909Y-51581740D01*
X187724577Y-51264577D01*
X188041740Y-50789909D01*
X188125000Y-50371333D01*
X188125000Y-48688667D01*
X188041740Y-48270091D01*
X187724576Y-47795423D01*
X187625000Y-47728888D01*
X187625000Y-47082081D01*
X187643316Y-46989999D01*
X187625000Y-46897915D01*
X187625000Y-46897914D01*
X187570750Y-46625181D01*
X187364097Y-46315903D01*
X187286031Y-46263741D01*
X186855000Y-45832710D01*
X186855000Y-45434561D01*
X186636534Y-44907138D01*
X186232862Y-44503466D01*
X185705439Y-44285000D01*
X185134561Y-44285000D01*
X184607138Y-44503466D01*
X184203466Y-44907138D01*
X183985000Y-45434561D01*
X183985000Y-46005439D01*
X184203466Y-46532862D01*
X184607138Y-46936534D01*
X185134561Y-47155000D01*
X185532710Y-47155000D01*
X185755000Y-47377290D01*
X185755000Y-47728888D01*
X185655423Y-47795424D01*
X185420000Y-48147759D01*
X185184576Y-47795423D01*
X184709908Y-47478260D01*
X184150000Y-47366887D01*
X183590091Y-47478260D01*
X183115423Y-47795424D01*
X182880000Y-48147759D01*
X182644576Y-47795423D01*
X182169908Y-47478260D01*
X181610000Y-47366887D01*
X181050091Y-47478260D01*
X180575423Y-47795424D01*
X180340000Y-48147759D01*
X180104576Y-47795423D01*
X180005000Y-47728888D01*
X180005000Y-45927289D01*
X180005613Y-45926676D01*
X180110000Y-45947440D01*
X183110000Y-45947440D01*
X183357765Y-45898157D01*
X183567809Y-45757809D01*
X183708157Y-45547765D01*
X183757440Y-45300000D01*
X183757440Y-43600000D01*
X183708157Y-43352235D01*
X183567809Y-43142191D01*
X183357765Y-43001843D01*
X183259652Y-42982327D01*
X183399856Y-42870251D01*
X183680562Y-42360952D01*
X183701476Y-42266890D01*
X183580155Y-42037000D01*
X181737000Y-42037000D01*
X181737000Y-42057000D01*
X181483000Y-42057000D01*
X181483000Y-42037000D01*
X181463000Y-42037000D01*
X181463000Y-41783000D01*
X181483000Y-41783000D01*
X181483000Y-40425000D01*
X181737000Y-40425000D01*
X181737000Y-41783000D01*
X183580155Y-41783000D01*
X183701476Y-41553110D01*
X183680562Y-41459048D01*
X183399856Y-40949749D01*
X182945618Y-40586640D01*
X182387000Y-40425000D01*
X181737000Y-40425000D01*
X181483000Y-40425000D01*
X180833000Y-40425000D01*
X180274382Y-40586640D01*
X180005000Y-40801979D01*
X180005000Y-39462086D01*
X180023317Y-39370000D01*
X179950750Y-39005181D01*
X179934426Y-38980750D01*
X179744097Y-38695903D01*
X179666028Y-38643739D01*
X178439025Y-37416736D01*
X187065000Y-37416736D01*
X187065000Y-38783264D01*
X187587947Y-40045771D01*
X188554229Y-41012053D01*
X189816736Y-41535000D01*
X191183264Y-41535000D01*
X192445771Y-41012053D01*
X193412053Y-40045771D01*
X193935000Y-38783264D01*
X193935000Y-37416736D01*
X193412053Y-36154229D01*
X192445771Y-35187947D01*
X191183264Y-34665000D01*
X189816736Y-34665000D01*
X188554229Y-35187947D01*
X187587947Y-36154229D01*
X187065000Y-37416736D01*
X178439025Y-37416736D01*
X175986261Y-34963972D01*
X175934097Y-34885903D01*
X175624819Y-34679250D01*
X175352086Y-34625000D01*
X175260000Y-34606683D01*
X175167914Y-34625000D01*
X148552080Y-34625000D01*
X148459999Y-34606684D01*
X148367918Y-34625000D01*
X148367914Y-34625000D01*
X148095181Y-34679250D01*
X147785903Y-34885903D01*
X147733741Y-34963969D01*
X146723970Y-35973741D01*
X146645904Y-36025903D01*
X146593742Y-36103969D01*
X146593741Y-36103970D01*
X146439250Y-36335182D01*
X146370192Y-36682358D01*
X146272235Y-36701843D01*
X146062191Y-36842191D01*
X145921843Y-37052235D01*
X145872560Y-37300000D01*
X145872560Y-38900000D01*
X145921843Y-39147765D01*
X146062191Y-39357809D01*
X146272235Y-39498157D01*
X146520000Y-39547440D01*
X148120000Y-39547440D01*
X148367765Y-39498157D01*
X148577809Y-39357809D01*
X148718157Y-39147765D01*
X148767440Y-38900000D01*
X148767440Y-37300000D01*
X148718157Y-37052235D01*
X148577809Y-36842191D01*
X148531225Y-36811064D01*
X148847290Y-36495000D01*
X174872711Y-36495000D01*
X178135000Y-39757289D01*
X178135000Y-40801979D01*
X177865618Y-40586640D01*
X177307000Y-40425000D01*
X176657000Y-40425000D01*
X176657000Y-41783000D01*
X176677000Y-41783000D01*
X176677000Y-42037000D01*
X176657000Y-42037000D01*
X176657000Y-42057000D01*
X176403000Y-42057000D01*
X176403000Y-42037000D01*
X176383000Y-42037000D01*
X176383000Y-41783000D01*
X176403000Y-41783000D01*
X176403000Y-40425000D01*
X175753000Y-40425000D01*
X175194382Y-40586640D01*
X174925000Y-40801979D01*
X174925000Y-39462081D01*
X174943316Y-39369999D01*
X174925000Y-39277915D01*
X174925000Y-39277914D01*
X174870750Y-39005181D01*
X174664097Y-38695903D01*
X174586031Y-38643741D01*
X173446261Y-37503972D01*
X173394097Y-37425903D01*
X173084819Y-37219250D01*
X172812086Y-37165000D01*
X172720000Y-37146683D01*
X172627914Y-37165000D01*
X152550587Y-37165000D01*
X152528157Y-37052235D01*
X152387809Y-36842191D01*
X152177765Y-36701843D01*
X151930000Y-36652560D01*
X150330000Y-36652560D01*
X150082235Y-36701843D01*
X149872191Y-36842191D01*
X149731843Y-37052235D01*
X149682560Y-37300000D01*
X149682560Y-38900000D01*
X149731843Y-39147765D01*
X149872191Y-39357809D01*
X150082235Y-39498157D01*
X150330000Y-39547440D01*
X151930000Y-39547440D01*
X152177765Y-39498157D01*
X152387809Y-39357809D01*
X152528157Y-39147765D01*
X152550587Y-39035000D01*
X172332711Y-39035000D01*
X173055000Y-39757290D01*
X173055000Y-40801979D01*
X172785618Y-40586640D01*
X172227000Y-40425000D01*
X171577000Y-40425000D01*
X171577000Y-41783000D01*
X171597000Y-41783000D01*
X171597000Y-42037000D01*
X171577000Y-42037000D01*
X171577000Y-42057000D01*
X171323000Y-42057000D01*
X171323000Y-42037000D01*
X169479845Y-42037000D01*
X169358524Y-42266890D01*
X169379438Y-42360952D01*
X169660144Y-42870251D01*
X169800348Y-42982327D01*
X169702235Y-43001843D01*
X169492191Y-43142191D01*
X169351843Y-43352235D01*
X169302560Y-43600000D01*
X169302560Y-44785000D01*
X165250587Y-44785000D01*
X165228157Y-44672235D01*
X165087809Y-44462191D01*
X164877765Y-44321843D01*
X164630000Y-44272560D01*
X163030000Y-44272560D01*
X162782235Y-44321843D01*
X162572191Y-44462191D01*
X162431843Y-44672235D01*
X162382560Y-44920000D01*
X162382560Y-46520000D01*
X162431843Y-46767765D01*
X162572191Y-46977809D01*
X162782235Y-47118157D01*
X163030000Y-47167440D01*
X164630000Y-47167440D01*
X164877765Y-47118157D01*
X165087809Y-46977809D01*
X165228157Y-46767765D01*
X165250587Y-46655000D01*
X170087914Y-46655000D01*
X170180000Y-46673317D01*
X170272086Y-46655000D01*
X170544819Y-46600750D01*
X170854097Y-46394097D01*
X170906261Y-46316028D01*
X171274849Y-45947440D01*
X171625151Y-45947440D01*
X173055000Y-47377290D01*
X173055000Y-47728888D01*
X172955423Y-47795424D01*
X172720000Y-48147759D01*
X172484576Y-47795423D01*
X172009908Y-47478260D01*
X171450000Y-47366887D01*
X170890091Y-47478260D01*
X170415423Y-47795424D01*
X170180000Y-48147759D01*
X169944576Y-47795423D01*
X169469908Y-47478260D01*
X168910000Y-47366887D01*
X168350091Y-47478260D01*
X167875423Y-47795424D01*
X167640000Y-48147759D01*
X167404576Y-47795423D01*
X166929908Y-47478260D01*
X166370000Y-47366887D01*
X165810091Y-47478260D01*
X165335423Y-47795424D01*
X165100000Y-48147759D01*
X164864576Y-47795423D01*
X164389908Y-47478260D01*
X163830000Y-47366887D01*
X163270091Y-47478260D01*
X162795423Y-47795424D01*
X162560000Y-48147759D01*
X162324576Y-47795423D01*
X161849908Y-47478260D01*
X161290000Y-47366887D01*
X160730091Y-47478260D01*
X160255423Y-47795424D01*
X160020000Y-48147759D01*
X159885000Y-47945718D01*
X159885000Y-43291782D01*
X159907235Y-43179999D01*
X159819146Y-42737145D01*
X159751736Y-42636259D01*
X159568289Y-42361711D01*
X159473521Y-42298389D01*
X158728242Y-41553110D01*
X169358524Y-41553110D01*
X169479845Y-41783000D01*
X171323000Y-41783000D01*
X171323000Y-40425000D01*
X170673000Y-40425000D01*
X170114382Y-40586640D01*
X169660144Y-40949749D01*
X169379438Y-41459048D01*
X169358524Y-41553110D01*
X158728242Y-41553110D01*
X158361613Y-41186482D01*
X158298289Y-41091711D01*
X157922855Y-40840854D01*
X157591783Y-40775000D01*
X157480000Y-40752765D01*
X157368217Y-40775000D01*
X141081782Y-40775000D01*
X140969999Y-40752765D01*
X140641251Y-40818157D01*
X140527145Y-40840854D01*
X140151711Y-41091711D01*
X140088389Y-41186479D01*
X139700000Y-41574868D01*
X137312877Y-39187745D01*
X138871861Y-39187745D01*
X138945995Y-39433864D01*
X139483223Y-39626965D01*
X140053454Y-39599778D01*
X140454005Y-39433864D01*
X140528139Y-39187745D01*
X139700000Y-38359605D01*
X138871861Y-39187745D01*
X137312877Y-39187745D01*
X136088355Y-37963223D01*
X138253035Y-37963223D01*
X138280222Y-38533454D01*
X138446136Y-38934005D01*
X138692255Y-39008139D01*
X139520395Y-38180000D01*
X139879605Y-38180000D01*
X140707745Y-39008139D01*
X140953864Y-38934005D01*
X141146965Y-38396777D01*
X141119778Y-37826546D01*
X140953864Y-37425995D01*
X140707745Y-37351861D01*
X139879605Y-38180000D01*
X139520395Y-38180000D01*
X138692255Y-37351861D01*
X138446136Y-37425995D01*
X138253035Y-37963223D01*
X136088355Y-37963223D01*
X135501613Y-37376482D01*
X135438289Y-37281711D01*
X135274477Y-37172255D01*
X138871861Y-37172255D01*
X139700000Y-38000395D01*
X140528139Y-37172255D01*
X140454005Y-36926136D01*
X139916777Y-36733035D01*
X139346546Y-36760222D01*
X138945995Y-36926136D01*
X138871861Y-37172255D01*
X135274477Y-37172255D01*
X135062855Y-37030854D01*
X134731783Y-36965000D01*
X134620000Y-36942765D01*
X134508217Y-36965000D01*
X127894396Y-36965000D01*
X127812862Y-36883466D01*
X127285439Y-36665000D01*
X126714561Y-36665000D01*
X126187138Y-36883466D01*
X125783466Y-37287138D01*
X125565000Y-37814561D01*
X125565000Y-37929868D01*
X123736480Y-39758389D01*
X123641712Y-39821711D01*
X123492000Y-40045771D01*
X123390854Y-40197146D01*
X123302765Y-40640000D01*
X123325001Y-40751788D01*
X123325000Y-45855000D01*
X121862450Y-45855000D01*
X121813344Y-45608127D01*
X121540385Y-45199615D01*
X121131873Y-44926656D01*
X120650000Y-44830805D01*
X120168128Y-44926656D01*
X119759616Y-45199615D01*
X119486657Y-45608127D01*
X119415001Y-45968364D01*
X119415000Y-48011635D01*
X119486656Y-48371872D01*
X119515001Y-48414293D01*
X119515000Y-50715426D01*
X119494075Y-50855044D01*
X119542078Y-51047913D01*
X119580854Y-51242854D01*
X119596380Y-51266090D01*
X119603129Y-51293207D01*
X119721280Y-51453016D01*
X119831711Y-51618289D01*
X119949102Y-51696727D01*
X126500001Y-57652090D01*
X126500000Y-62079932D01*
X126480328Y-62153022D01*
X126500000Y-62303748D01*
X126500000Y-62341782D01*
X126514437Y-62414360D01*
X126538764Y-62600755D01*
X126558240Y-62634576D01*
X126565854Y-62672854D01*
X126670290Y-62829154D01*
X126707216Y-62893277D01*
X126732260Y-62921898D01*
X126816711Y-63048289D01*
X126879648Y-63090342D01*
X131177261Y-68001900D01*
X131261711Y-68128289D01*
X131418006Y-68232722D01*
X131567007Y-68347320D01*
X131604695Y-68357464D01*
X131637145Y-68379146D01*
X131821505Y-68415817D01*
X132003022Y-68464672D01*
X132153748Y-68445000D01*
X141811614Y-68445000D01*
X141817977Y-68454523D01*
X142005767Y-68580000D01*
X141817977Y-68705477D01*
X141467109Y-69230589D01*
X141343900Y-69850000D01*
X141370753Y-69985000D01*
X140594396Y-69985000D01*
X140512862Y-69903466D01*
X139985439Y-69685000D01*
X139414561Y-69685000D01*
X138887138Y-69903466D01*
X138805604Y-69985000D01*
X132974396Y-69985000D01*
X132892862Y-69903466D01*
X132365439Y-69685000D01*
X132250132Y-69685000D01*
X131691613Y-69126482D01*
X131628289Y-69031711D01*
X131252855Y-68780854D01*
X130921783Y-68715000D01*
X130810000Y-68692765D01*
X130698217Y-68715000D01*
X130010478Y-68715000D01*
X129968157Y-68502235D01*
X129827809Y-68292191D01*
X129617765Y-68151843D01*
X129370000Y-68102560D01*
X127170000Y-68102560D01*
X126922235Y-68151843D01*
X126712191Y-68292191D01*
X126571843Y-68502235D01*
X126522560Y-68750000D01*
X126522560Y-70950000D01*
X126571843Y-71197765D01*
X126712191Y-71407809D01*
X126922235Y-71548157D01*
X127170000Y-71597440D01*
X129370000Y-71597440D01*
X129617765Y-71548157D01*
X129827809Y-71407809D01*
X129968157Y-71197765D01*
X130010478Y-70985000D01*
X130339869Y-70985000D01*
X130645000Y-71290132D01*
X130645000Y-71405439D01*
X130863466Y-71932862D01*
X131267138Y-72336534D01*
X131794561Y-72555000D01*
X132365439Y-72555000D01*
X132892862Y-72336534D01*
X132974396Y-72255000D01*
X138805604Y-72255000D01*
X138887138Y-72336534D01*
X139414561Y-72555000D01*
X139985439Y-72555000D01*
X140512862Y-72336534D01*
X140594396Y-72255000D01*
X142128217Y-72255000D01*
X142240000Y-72277235D01*
X142351783Y-72255000D01*
X142682855Y-72189146D01*
X143058289Y-71938289D01*
X143121613Y-71843518D01*
X143527631Y-71437500D01*
X144213850Y-71437500D01*
X144676911Y-71345391D01*
X145202023Y-70994523D01*
X145552891Y-70469411D01*
X145676100Y-69850000D01*
X145552891Y-69230589D01*
X145202023Y-68705477D01*
X145014233Y-68580000D01*
X145202023Y-68454523D01*
X145552891Y-67929411D01*
X145676100Y-67310000D01*
X145552891Y-66690589D01*
X145290912Y-66298509D01*
X145467809Y-66180309D01*
X145608157Y-65970265D01*
X145657440Y-65722500D01*
X145657440Y-63817500D01*
X145608157Y-63569735D01*
X145467809Y-63359691D01*
X145257765Y-63219343D01*
X145010000Y-63170060D01*
X142010000Y-63170060D01*
X141762235Y-63219343D01*
X141552191Y-63359691D01*
X141411843Y-63569735D01*
X141362560Y-63817500D01*
X141362560Y-63835000D01*
X141357290Y-63835000D01*
X141139749Y-63617459D01*
X141163113Y-63500000D01*
X141051740Y-62940091D01*
X140734577Y-62465423D01*
X140259909Y-62148260D01*
X139841333Y-62065000D01*
X139587290Y-62065000D01*
X139294804Y-61772514D01*
X139700000Y-61853113D01*
X140259909Y-61741740D01*
X140734577Y-61424577D01*
X140970001Y-61072241D01*
X141205424Y-61424577D01*
X141680092Y-61741740D01*
X142240000Y-61853113D01*
X142799909Y-61741740D01*
X143274577Y-61424577D01*
X143512499Y-61068501D01*
X143855104Y-61494500D01*
X144348181Y-61764367D01*
X144430961Y-61781904D01*
X144653000Y-61659915D01*
X144653000Y-59817000D01*
X144907000Y-59817000D01*
X144907000Y-61659915D01*
X145129039Y-61781904D01*
X145211819Y-61764367D01*
X145704896Y-61494500D01*
X146057166Y-61056483D01*
X146215000Y-60517000D01*
X146215000Y-59817000D01*
X144907000Y-59817000D01*
X144653000Y-59817000D01*
X144633000Y-59817000D01*
X144633000Y-59563000D01*
X144653000Y-59563000D01*
X144653000Y-57720085D01*
X144907000Y-57720085D01*
X144907000Y-59563000D01*
X146215000Y-59563000D01*
X146215000Y-58863000D01*
X146057166Y-58323517D01*
X145704896Y-57885500D01*
X145211819Y-57615633D01*
X145129039Y-57598096D01*
X144907000Y-57720085D01*
X144653000Y-57720085D01*
X144430961Y-57598096D01*
X144348181Y-57615633D01*
X143855104Y-57885500D01*
X143512499Y-58311499D01*
X143363613Y-58088676D01*
X144637290Y-56815000D01*
X147655001Y-56815000D01*
X147655000Y-58327914D01*
X147636683Y-58420000D01*
X147699675Y-58736683D01*
X147709250Y-58784818D01*
X147915903Y-59094097D01*
X147993972Y-59146261D01*
X150403740Y-61556030D01*
X150455903Y-61634097D01*
X150765181Y-61840750D01*
X151037914Y-61895000D01*
X151037918Y-61895000D01*
X151129999Y-61913316D01*
X151222080Y-61895000D01*
X172046090Y-61895000D01*
X172409513Y-62985267D01*
X172009908Y-62718260D01*
X171450000Y-62606887D01*
X170890091Y-62718260D01*
X170415423Y-63035424D01*
X170180000Y-63387759D01*
X169944576Y-63035423D01*
X169469908Y-62718260D01*
X168910000Y-62606887D01*
X168350091Y-62718260D01*
X167875423Y-63035424D01*
X167640000Y-63387759D01*
X167404576Y-63035423D01*
X166929908Y-62718260D01*
X166370000Y-62606887D01*
X165810091Y-62718260D01*
X165335423Y-63035424D01*
X165100000Y-63387759D01*
X164864576Y-63035423D01*
X164389908Y-62718260D01*
X163830000Y-62606887D01*
X163270091Y-62718260D01*
X162795423Y-63035424D01*
X162560000Y-63387759D01*
X162324576Y-63035423D01*
X161849908Y-62718260D01*
X161290000Y-62606887D01*
X160730091Y-62718260D01*
X160255423Y-63035424D01*
X160017501Y-63391499D01*
X159674896Y-62965500D01*
X159181819Y-62695633D01*
X159099039Y-62678096D01*
X158877000Y-62800085D01*
X158877000Y-64643000D01*
X158897000Y-64643000D01*
X158897000Y-64897000D01*
X158877000Y-64897000D01*
X158877000Y-64917000D01*
X158623000Y-64917000D01*
X158623000Y-64897000D01*
X158603000Y-64897000D01*
X158603000Y-64643000D01*
X158623000Y-64643000D01*
X158623000Y-62800085D01*
X158400961Y-62678096D01*
X158318181Y-62695633D01*
X157825104Y-62965500D01*
X157482499Y-63391499D01*
X157244576Y-63035423D01*
X156769908Y-62718260D01*
X156210000Y-62606887D01*
X155650091Y-62718260D01*
X155175423Y-63035424D01*
X154940000Y-63387759D01*
X154704576Y-63035423D01*
X154229908Y-62718260D01*
X153670000Y-62606887D01*
X153110091Y-62718260D01*
X152635423Y-63035424D01*
X152554785Y-63156107D01*
X152528157Y-63022235D01*
X152387809Y-62812191D01*
X152177765Y-62671843D01*
X151930000Y-62622560D01*
X150330000Y-62622560D01*
X150082235Y-62671843D01*
X149872191Y-62812191D01*
X149731843Y-63022235D01*
X149682560Y-63270000D01*
X149682560Y-66270000D01*
X149731843Y-66517765D01*
X149872191Y-66727809D01*
X150082235Y-66868157D01*
X150330000Y-66917440D01*
X151930000Y-66917440D01*
X152177765Y-66868157D01*
X152387809Y-66727809D01*
X152528157Y-66517765D01*
X152554786Y-66383893D01*
X152635424Y-66504577D01*
X153110092Y-66821740D01*
X153670000Y-66933113D01*
X154229909Y-66821740D01*
X154704577Y-66504577D01*
X154940001Y-66152241D01*
X155175424Y-66504577D01*
X155650092Y-66821740D01*
X156210000Y-66933113D01*
X156769909Y-66821740D01*
X157244577Y-66504577D01*
X157482499Y-66148501D01*
X157825104Y-66574500D01*
X158318181Y-66844367D01*
X158400961Y-66861904D01*
X158622998Y-66739916D01*
X158622998Y-66814712D01*
X152712711Y-72725000D01*
X126117290Y-72725000D01*
X125395000Y-72002711D01*
X125395000Y-69080396D01*
X126729321Y-68190849D01*
X126729818Y-68190750D01*
X126883685Y-68087940D01*
X126960264Y-68036887D01*
X126960615Y-68036537D01*
X127039097Y-67984097D01*
X127090988Y-67906437D01*
X127157099Y-67840464D01*
X127193310Y-67753301D01*
X127245750Y-67674819D01*
X127263972Y-67583212D01*
X127299804Y-67496961D01*
X127299903Y-67402575D01*
X127300000Y-67402086D01*
X127300000Y-67309544D01*
X127300193Y-67124996D01*
X127300000Y-67124529D01*
X127300000Y-65497085D01*
X127318317Y-65404999D01*
X127245750Y-65040181D01*
X127091259Y-64808969D01*
X127039097Y-64730903D01*
X126961031Y-64678741D01*
X123900411Y-61618122D01*
X123887087Y-61600100D01*
X123835409Y-61553120D01*
X123786030Y-61503741D01*
X123767397Y-61491291D01*
X116850422Y-55203133D01*
X116505000Y-54857711D01*
X116505000Y-48713614D01*
X116733344Y-48371873D01*
X116805000Y-48011636D01*
X116805000Y-48011635D01*
X116875000Y-48011635D01*
X116946656Y-48371872D01*
X117175000Y-48713614D01*
X117175001Y-53247910D01*
X117156683Y-53340000D01*
X117229250Y-53704818D01*
X117229251Y-53704819D01*
X117435904Y-54014097D01*
X117513970Y-54066259D01*
X122463740Y-59016030D01*
X122515903Y-59094097D01*
X122593969Y-59146259D01*
X122825181Y-59300750D01*
X123190000Y-59373317D01*
X123282086Y-59355000D01*
X123365604Y-59355000D01*
X123647138Y-59636534D01*
X124174561Y-59855000D01*
X124745439Y-59855000D01*
X125272862Y-59636534D01*
X125676534Y-59232862D01*
X125895000Y-58705439D01*
X125895000Y-58134561D01*
X125676534Y-57607138D01*
X125272862Y-57203466D01*
X124745439Y-56985000D01*
X124174561Y-56985000D01*
X123647138Y-57203466D01*
X123471447Y-57379157D01*
X119045000Y-52952711D01*
X119045000Y-48713614D01*
X119273344Y-48371873D01*
X119345000Y-48011636D01*
X119345000Y-45968364D01*
X119273344Y-45608127D01*
X119000385Y-45199615D01*
X118591873Y-44926656D01*
X118110000Y-44830805D01*
X117628128Y-44926656D01*
X117219616Y-45199615D01*
X116946657Y-45608127D01*
X116875001Y-45968364D01*
X116875000Y-48011635D01*
X116805000Y-48011635D01*
X116805000Y-45968364D01*
X116733344Y-45608127D01*
X116460385Y-45199615D01*
X116051873Y-44926656D01*
X115570000Y-44830805D01*
X115088128Y-44926656D01*
X114679616Y-45199615D01*
X114406657Y-45608127D01*
X114335001Y-45968364D01*
X114335000Y-48011635D01*
X114265000Y-48011635D01*
X114265000Y-45968364D01*
X114193344Y-45608127D01*
X113920385Y-45199615D01*
X113511873Y-44926656D01*
X113030000Y-44830805D01*
X112548128Y-44926656D01*
X112139616Y-45199615D01*
X111866657Y-45608127D01*
X111795001Y-45968364D01*
X111795000Y-48011635D01*
X111725000Y-48011635D01*
X111725000Y-45968364D01*
X111653344Y-45608127D01*
X111380385Y-45199615D01*
X110971873Y-44926656D01*
X110490000Y-44830805D01*
X110079912Y-44912377D01*
X112147289Y-42845000D01*
X118218753Y-42845000D01*
X118309375Y-42980625D01*
X118800582Y-43308839D01*
X119233744Y-43395000D01*
X119526256Y-43395000D01*
X119959418Y-43308839D01*
X120450625Y-42980625D01*
X120778839Y-42489418D01*
X120894092Y-41910000D01*
X120778839Y-41330582D01*
X120450625Y-40839375D01*
X120432381Y-40827184D01*
X120477765Y-40818157D01*
X120687809Y-40677809D01*
X120828157Y-40467765D01*
X120877440Y-40220000D01*
X120877440Y-38520000D01*
X120828157Y-38272235D01*
X120687809Y-38062191D01*
X120477765Y-37921843D01*
X120230000Y-37872560D01*
X118530000Y-37872560D01*
X118282235Y-37921843D01*
X118072191Y-38062191D01*
X117931843Y-38272235D01*
X117899467Y-38435000D01*
X110582086Y-38435000D01*
X110490000Y-38416683D01*
X110397914Y-38435000D01*
X110125181Y-38489250D01*
X109815903Y-38695903D01*
X109763739Y-38773972D01*
X106292711Y-42245000D01*
X104232081Y-42245000D01*
X104139999Y-42226684D01*
X104047917Y-42245000D01*
X104047914Y-42245000D01*
X103775181Y-42299250D01*
X103465903Y-42505903D01*
X103413741Y-42583969D01*
X102273972Y-43723739D01*
X102195903Y-43775903D01*
X102005575Y-44060750D01*
X101989250Y-44085182D01*
X101916683Y-44450000D01*
X101935000Y-44542086D01*
X101935000Y-45266387D01*
X101706657Y-45608127D01*
X101635001Y-45968364D01*
X101635000Y-48011635D01*
X99187000Y-48011635D01*
X99187000Y-37416736D01*
X100705000Y-37416736D01*
X100705000Y-38783264D01*
X101227947Y-40045771D01*
X102194229Y-41012053D01*
X103456736Y-41535000D01*
X104823264Y-41535000D01*
X106085771Y-41012053D01*
X107052053Y-40045771D01*
X107575000Y-38783264D01*
X107575000Y-37416736D01*
X107052053Y-36154229D01*
X106085771Y-35187947D01*
X104823264Y-34665000D01*
X103456736Y-34665000D01*
X102194229Y-35187947D01*
X101227947Y-36154229D01*
X100705000Y-37416736D01*
X99187000Y-37416736D01*
X99187000Y-33147000D01*
X195453000Y-33147000D01*
X195453000Y-78613000D01*
G04 #@! TD*
M02*
