G04 #@! TF.GenerationSoftware,KiCad,Pcbnew,(5.0.0)*
G04 #@! TF.CreationDate,2018-11-07T20:52:13+01:00*
G04 #@! TF.ProjectId,CubieKidBoard_V1,43756269654B6964426F6172645F5631,0.1*
G04 #@! TF.SameCoordinates,Original*
G04 #@! TF.FileFunction,Soldermask,Bot*
G04 #@! TF.FilePolarity,Negative*
%FSLAX46Y46*%
G04 Gerber Fmt 4.6, Leading zero omitted, Abs format (unit mm)*
G04 Created by KiCad (PCBNEW (5.0.0)) date 11/07/18 20:52:13*
%MOMM*%
%LPD*%
G01*
G04 APERTURE LIST*
%ADD10R,2.000000X3.400000*%
%ADD11O,2.000000X3.400000*%
%ADD12C,2.000000*%
%ADD13R,2.000000X2.000000*%
%ADD14O,2.000000X2.000000*%
%ADD15R,3.400000X2.305000*%
%ADD16O,3.400000X2.305000*%
%ADD17R,2.600000X2.600000*%
%ADD18O,2.600000X2.600000*%
%ADD19O,2.300000X2.300000*%
%ADD20R,2.300000X2.300000*%
%ADD21O,2.200000X2.200000*%
%ADD22C,2.200000*%
%ADD23R,2.100000X3.400000*%
%ADD24O,2.100000X3.400000*%
%ADD25O,2.000000X4.400000*%
%ADD26C,4.400000*%
G04 APERTURE END LIST*
D10*
G04 #@! TO.C,A1*
X151130000Y-64516000D03*
D11*
X184150000Y-49276000D03*
X153670000Y-64516000D03*
X181610000Y-49276000D03*
X156210000Y-64516000D03*
X179070000Y-49276000D03*
X158750000Y-64516000D03*
X176530000Y-49276000D03*
X161290000Y-64516000D03*
X173990000Y-49276000D03*
X163830000Y-64516000D03*
X171450000Y-49276000D03*
X166370000Y-64516000D03*
X168910000Y-49276000D03*
X168910000Y-64516000D03*
X166370000Y-49276000D03*
X171450000Y-64516000D03*
X163830000Y-49276000D03*
X173990000Y-64516000D03*
X161290000Y-49276000D03*
X176530000Y-64516000D03*
X158750000Y-49276000D03*
X179070000Y-64516000D03*
X156210000Y-49276000D03*
X181610000Y-64516000D03*
X153670000Y-49276000D03*
X184150000Y-64516000D03*
X151130000Y-49276000D03*
X186690000Y-64516000D03*
X186690000Y-49276000D03*
G04 #@! TD*
D12*
G04 #@! TO.C,C2*
X127000000Y-43100000D03*
X127000000Y-38100000D03*
G04 #@! TD*
D13*
G04 #@! TO.C,D7*
X171450000Y-38100000D03*
D14*
X171450000Y-45720000D03*
G04 #@! TD*
D15*
G04 #@! TO.C,Q1*
X143510000Y-64770000D03*
D16*
X143510000Y-67310000D03*
X143510000Y-69850000D03*
G04 #@! TD*
D10*
G04 #@! TO.C,U1*
X129540000Y-59690000D03*
D11*
X144780000Y-52070000D03*
X132080000Y-59690000D03*
X142240000Y-52070000D03*
X134620000Y-59690000D03*
X139700000Y-52070000D03*
X137160000Y-59690000D03*
X137160000Y-52070000D03*
X139700000Y-59690000D03*
X134620000Y-52070000D03*
X142240000Y-59690000D03*
X132080000Y-52070000D03*
X144780000Y-59690000D03*
X129540000Y-52070000D03*
G04 #@! TD*
D13*
G04 #@! TO.C,D4*
X168910000Y-38100000D03*
D14*
X168910000Y-45720000D03*
G04 #@! TD*
G04 #@! TO.C,D3*
X173990000Y-45720000D03*
D13*
X173990000Y-38100000D03*
G04 #@! TD*
D17*
G04 #@! TO.C,D1\002A\002A*
X127000000Y-71120000D03*
D18*
X116840000Y-71120000D03*
G04 #@! TD*
D13*
G04 #@! TO.C,D2*
X179070000Y-38100000D03*
D14*
X179070000Y-45720000D03*
G04 #@! TD*
D19*
G04 #@! TO.C,LS1*
X119380000Y-41910000D03*
D20*
X119380000Y-39370000D03*
G04 #@! TD*
D21*
G04 #@! TO.C,R1*
X139827000Y-67945000D03*
X132207000Y-67945000D03*
G04 #@! TD*
G04 #@! TO.C,R2*
X155956000Y-67818000D03*
X148336000Y-67818000D03*
G04 #@! TD*
G04 #@! TO.C,R3\002A*
X132334000Y-38735000D03*
X132334000Y-46355000D03*
G04 #@! TD*
G04 #@! TO.C,R4*
X135890000Y-38735000D03*
D22*
X135890000Y-46355000D03*
G04 #@! TD*
D21*
G04 #@! TO.C,R5*
X124460000Y-60198000D03*
X124460000Y-67818000D03*
G04 #@! TD*
G04 #@! TO.C,R6\002A\002A\002A*
X185420000Y-45720000D03*
X193040000Y-45720000D03*
G04 #@! TD*
D13*
G04 #@! TO.C,D5*
X181610000Y-38100000D03*
D14*
X181610000Y-45720000D03*
G04 #@! TD*
G04 #@! TO.C,D6*
X176530000Y-45720000D03*
D13*
X176530000Y-38100000D03*
G04 #@! TD*
D23*
G04 #@! TO.C,J1*
X187960000Y-72517000D03*
D24*
X185420000Y-72517000D03*
X182880000Y-72517000D03*
X180340000Y-72517000D03*
X177800000Y-72517000D03*
X175260000Y-72517000D03*
X172720000Y-72517000D03*
X170180000Y-72517000D03*
G04 #@! TD*
D25*
G04 #@! TO.C,J2*
X120650000Y-65024000D03*
X120650000Y-47244000D03*
X118110000Y-65024000D03*
X118110000Y-47244000D03*
X115570000Y-65024000D03*
X115570000Y-47244000D03*
X113030000Y-65024000D03*
X113030000Y-47244000D03*
X110490000Y-65024000D03*
X110490000Y-47244000D03*
X107950000Y-65024000D03*
X107950000Y-47244000D03*
X105410000Y-65024000D03*
X105410000Y-47244000D03*
X102870000Y-65024000D03*
X102870000Y-47244000D03*
G04 #@! TD*
D21*
G04 #@! TO.C,R7*
X130429000Y-64262000D03*
X138049000Y-64262000D03*
G04 #@! TD*
G04 #@! TO.C,R8*
X124460000Y-45720000D03*
X124460000Y-53340000D03*
G04 #@! TD*
D20*
G04 #@! TO.C,*
X116840000Y-74803000D03*
D19*
X114300000Y-74803000D03*
G04 #@! TD*
D20*
G04 #@! TO.C,A0*
X158242000Y-43053000D03*
D19*
X155702000Y-43053000D03*
G04 #@! TD*
G04 #@! TO.C,A1*
X155702000Y-39497000D03*
D20*
X158242000Y-39497000D03*
G04 #@! TD*
D19*
G04 #@! TO.C,A2*
X155702000Y-35941000D03*
D20*
X158242000Y-35941000D03*
G04 #@! TD*
D26*
G04 #@! TO.C,*
X190500000Y-38100000D03*
G04 #@! TD*
G04 #@! TO.C,*
X163830000Y-73660000D03*
G04 #@! TD*
G04 #@! TO.C,*
X104140000Y-38100000D03*
G04 #@! TD*
G04 #@! TO.C,*
X104140000Y-73660000D03*
G04 #@! TD*
M02*
