%FSLAX34Y34*%
%MOMM*%
%LNSOLDERMASK_BOTTOM*%
G71*
G01*
%ADD10R, 1.800X3.200*%
%ADD11C, 1.800*%
%ADD12C, 2.200*%
%ADD13R, 3.200X2.105*%
%ADD14C, 2.105*%
%ADD15C, 2.400*%
%ADD16C, 2.100*%
%ADD17C, 2.000*%
%ADD18C, 2.400*%
%ADD19R, 1.900X3.200*%
%ADD20C, 1.900*%
%ADD21C, 4.600*%
%ADD22C, 0.800*%
%LPD*%
X519900Y-314160D02*
G54D10*
D03*
G54D11*
X850100Y-168760D02*
X850100Y-154760D01*
G54D11*
X545300Y-321160D02*
X545300Y-307160D01*
G54D11*
X824700Y-168760D02*
X824700Y-154760D01*
G54D11*
X570700Y-321160D02*
X570700Y-307160D01*
G54D11*
X799300Y-168760D02*
X799300Y-154760D01*
G54D11*
X596100Y-321160D02*
X596100Y-307160D01*
G54D11*
X773900Y-168760D02*
X773900Y-154760D01*
G54D11*
X621500Y-321160D02*
X621500Y-307160D01*
G54D11*
X748500Y-168760D02*
X748500Y-154760D01*
G54D11*
X646900Y-321160D02*
X646900Y-307160D01*
G54D11*
X723100Y-168760D02*
X723100Y-154760D01*
G54D11*
X672300Y-321160D02*
X672300Y-307160D01*
G54D11*
X697700Y-168760D02*
X697700Y-154760D01*
G54D11*
X697700Y-321160D02*
X697700Y-307160D01*
G54D11*
X672300Y-168760D02*
X672300Y-154760D01*
G54D11*
X723100Y-321160D02*
X723100Y-307160D01*
G54D11*
X646900Y-168760D02*
X646900Y-154760D01*
G54D11*
X748500Y-321160D02*
X748500Y-307160D01*
G54D11*
X621500Y-168760D02*
X621500Y-154760D01*
G54D11*
X773900Y-321160D02*
X773900Y-307160D01*
G54D11*
X596100Y-168760D02*
X596100Y-154760D01*
G54D11*
X799300Y-321160D02*
X799300Y-307160D01*
G54D11*
X570700Y-168760D02*
X570700Y-154760D01*
G54D11*
X824700Y-321160D02*
X824700Y-307160D01*
G54D11*
X545300Y-168760D02*
X545300Y-154760D01*
G54D11*
X850100Y-321160D02*
X850100Y-307160D01*
G54D11*
X519900Y-168760D02*
X519900Y-154760D01*
G54D11*
X875500Y-321160D02*
X875500Y-307160D01*
G54D11*
X875500Y-168760D02*
X875500Y-154760D01*
X278600Y-100000D02*
G54D12*
D03*
X278600Y-50000D02*
G54D12*
D03*
G36*
X712100Y-39000D02*
X734100Y-39000D01*
X734100Y-61000D01*
X712100Y-61000D01*
X712100Y-39000D01*
G37*
G54D11*
X723100Y-126200D02*
X723100Y-126200D01*
X443700Y-316700D02*
G54D13*
D03*
G54D14*
X438225Y-342100D02*
X449175Y-342100D01*
G54D14*
X438225Y-367500D02*
X449175Y-367500D01*
X304000Y-265900D02*
G54D10*
D03*
G54D11*
X456400Y-196700D02*
X456400Y-182700D01*
G54D11*
X329400Y-272900D02*
X329400Y-258900D01*
G54D11*
X431000Y-196700D02*
X431000Y-182700D01*
G54D11*
X354800Y-272900D02*
X354800Y-258900D01*
G54D11*
X405600Y-196700D02*
X405600Y-182700D01*
G54D11*
X380200Y-272900D02*
X380200Y-258900D01*
G54D11*
X380200Y-196700D02*
X380200Y-182700D01*
G54D11*
X405600Y-272900D02*
X405600Y-258900D01*
G54D11*
X354800Y-196700D02*
X354800Y-182700D01*
G54D11*
X431000Y-272900D02*
X431000Y-258900D01*
G54D11*
X329400Y-196700D02*
X329400Y-182700D01*
G54D11*
X456400Y-272900D02*
X456400Y-258900D01*
G54D11*
X304000Y-196700D02*
X304000Y-182700D01*
G36*
X686700Y-39000D02*
X708700Y-39000D01*
X708700Y-61000D01*
X686700Y-61000D01*
X686700Y-39000D01*
G37*
G54D11*
X697700Y-126200D02*
X697700Y-126200D01*
G54D11*
X748500Y-126200D02*
X748500Y-126200D01*
G36*
X737500Y-39000D02*
X759500Y-39000D01*
X759500Y-61000D01*
X737500Y-61000D01*
X737500Y-39000D01*
G37*
G36*
X264600Y-366200D02*
X292600Y-366200D01*
X292600Y-394200D01*
X264600Y-394200D01*
X264600Y-366200D01*
G37*
G54D15*
X177000Y-380200D02*
X177000Y-380200D01*
G36*
X788300Y-39000D02*
X810300Y-39000D01*
X810300Y-61000D01*
X788300Y-61000D01*
X788300Y-39000D01*
G37*
G54D11*
X799300Y-126200D02*
X799300Y-126200D01*
G54D16*
X202400Y-88100D02*
X202400Y-88100D01*
G36*
X189900Y-50200D02*
X214900Y-50200D01*
X214900Y-75200D01*
X189900Y-75200D01*
X189900Y-50200D01*
G37*
G54D17*
X406870Y-348450D02*
X406870Y-348450D01*
G54D17*
X330670Y-348450D02*
X330670Y-348450D01*
G54D17*
X568160Y-347180D02*
X568160Y-347180D01*
G54D17*
X491960Y-347180D02*
X491960Y-347180D01*
G54D17*
X331940Y-56350D02*
X331940Y-56350D01*
G54D17*
X331940Y-132550D02*
X331940Y-132550D01*
G54D17*
X367500Y-56350D02*
X367500Y-56350D01*
X367500Y-132550D02*
G54D18*
D03*
G54D17*
X253200Y-270980D02*
X253200Y-270980D01*
G54D17*
X253200Y-347180D02*
X253200Y-347180D01*
G54D17*
X862800Y-126200D02*
X862800Y-126200D01*
G54D17*
X939000Y-126200D02*
X939000Y-126200D01*
G36*
X813700Y-39000D02*
X835700Y-39000D01*
X835700Y-61000D01*
X813700Y-61000D01*
X813700Y-39000D01*
G37*
G54D11*
X824700Y-126200D02*
X824700Y-126200D01*
G54D11*
X773900Y-126200D02*
X773900Y-126200D01*
G36*
X762900Y-39000D02*
X784900Y-39000D01*
X784900Y-61000D01*
X762900Y-61000D01*
X762900Y-39000D01*
G37*
X888200Y-394170D02*
G54D19*
D03*
G54D20*
X862800Y-400670D02*
X862800Y-387670D01*
G54D20*
X837400Y-400670D02*
X837400Y-387670D01*
G54D20*
X812000Y-400670D02*
X812000Y-387670D01*
G54D20*
X786600Y-400670D02*
X786600Y-387670D01*
G54D20*
X761200Y-400670D02*
X761200Y-387670D01*
G54D20*
X735800Y-400670D02*
X735800Y-387670D01*
G54D20*
X710400Y-400670D02*
X710400Y-387670D01*
G54D11*
X215100Y-331240D02*
X215100Y-307240D01*
G54D11*
X215100Y-153440D02*
X215100Y-129440D01*
G54D11*
X189700Y-331240D02*
X189700Y-307240D01*
G54D11*
X189700Y-153440D02*
X189700Y-129440D01*
G54D11*
X164300Y-331240D02*
X164300Y-307240D01*
G54D11*
X164300Y-153440D02*
X164300Y-129440D01*
G54D11*
X138900Y-331240D02*
X138900Y-307240D01*
G54D11*
X138900Y-153440D02*
X138900Y-129440D01*
G54D11*
X113500Y-331240D02*
X113500Y-307240D01*
G54D11*
X113500Y-153440D02*
X113500Y-129440D01*
G54D11*
X88100Y-331240D02*
X88100Y-307240D01*
G54D11*
X88100Y-153440D02*
X88100Y-129440D01*
G54D11*
X62700Y-331240D02*
X62700Y-307240D01*
G54D11*
X62700Y-153440D02*
X62700Y-129440D01*
G54D11*
X37300Y-331240D02*
X37300Y-307240D01*
G54D11*
X37300Y-153440D02*
X37300Y-129440D01*
G54D17*
X312890Y-311620D02*
X312890Y-311620D01*
G54D17*
X389090Y-311620D02*
X389090Y-311620D01*
G54D17*
X253200Y-126200D02*
X253200Y-126200D01*
G54D17*
X253200Y-202400D02*
X253200Y-202400D01*
G36*
X164500Y-404530D02*
X189500Y-404530D01*
X189500Y-429530D01*
X164500Y-429530D01*
X164500Y-404530D01*
G37*
G54D16*
X151600Y-417030D02*
X151600Y-417030D01*
G36*
X578520Y-87030D02*
X603520Y-87030D01*
X603520Y-112030D01*
X578520Y-112030D01*
X578520Y-87030D01*
G37*
G54D16*
X565620Y-99530D02*
X565620Y-99530D01*
G54D16*
X565620Y-63970D02*
X565620Y-63970D01*
G36*
X578520Y-51470D02*
X603520Y-51470D01*
X603520Y-76470D01*
X578520Y-76470D01*
X578520Y-51470D01*
G37*
G54D16*
X565620Y-28410D02*
X565620Y-28410D01*
G36*
X578520Y-15910D02*
X603520Y-15910D01*
X603520Y-40910D01*
X578520Y-40910D01*
X578520Y-15910D01*
G37*
X913600Y-50000D02*
G54D21*
D03*
X646900Y-405600D02*
G54D21*
D03*
X50000Y-50000D02*
G54D21*
D03*
X50000Y-405600D02*
G54D21*
D03*
G54D22*
X773900Y-126200D02*
X773900Y-163030D01*
M02*
