G04 #@! TF.GenerationSoftware,KiCad,Pcbnew,(5.0.0)*
G04 #@! TF.CreationDate,2018-10-16T18:35:51+02:00*
G04 #@! TF.ProjectId,CubieKidBoard_V1,43756269654B6964426F6172645F5631,0.1*
G04 #@! TF.SameCoordinates,Original*
G04 #@! TF.FileFunction,Copper,L2,Bot,Signal*
G04 #@! TF.FilePolarity,Positive*
%FSLAX46Y46*%
G04 Gerber Fmt 4.6, Leading zero omitted, Abs format (unit mm)*
G04 Created by KiCad (PCBNEW (5.0.0)) date 10/16/18 18:35:51*
%MOMM*%
%LPD*%
G01*
G04 APERTURE LIST*
G04 #@! TA.AperFunction,NonConductor*
%ADD10C,0.300000*%
G04 #@! TD*
G04 #@! TA.AperFunction,ComponentPad*
%ADD11R,1.700000X1.700000*%
G04 #@! TD*
G04 #@! TA.AperFunction,ComponentPad*
%ADD12O,1.700000X1.700000*%
G04 #@! TD*
G04 #@! TA.AperFunction,ComponentPad*
%ADD13R,1.600000X1.600000*%
G04 #@! TD*
G04 #@! TA.AperFunction,ComponentPad*
%ADD14O,1.600000X1.600000*%
G04 #@! TD*
G04 #@! TA.AperFunction,ComponentPad*
%ADD15R,3.000000X1.905000*%
G04 #@! TD*
G04 #@! TA.AperFunction,ComponentPad*
%ADD16O,3.000000X1.905000*%
G04 #@! TD*
G04 #@! TA.AperFunction,ComponentPad*
%ADD17R,1.600000X3.000000*%
G04 #@! TD*
G04 #@! TA.AperFunction,ComponentPad*
%ADD18O,1.600000X3.000000*%
G04 #@! TD*
G04 #@! TA.AperFunction,ComponentPad*
%ADD19C,1.600000*%
G04 #@! TD*
G04 #@! TA.AperFunction,ComponentPad*
%ADD20R,2.200000X2.200000*%
G04 #@! TD*
G04 #@! TA.AperFunction,ComponentPad*
%ADD21O,2.200000X2.200000*%
G04 #@! TD*
G04 #@! TA.AperFunction,ComponentPad*
%ADD22O,3.000000X1.700000*%
G04 #@! TD*
G04 #@! TA.AperFunction,ComponentPad*
%ADD23R,3.000000X1.700000*%
G04 #@! TD*
G04 #@! TA.AperFunction,ComponentPad*
%ADD24O,1.800000X1.800000*%
G04 #@! TD*
G04 #@! TA.AperFunction,ComponentPad*
%ADD25C,1.800000*%
G04 #@! TD*
G04 #@! TA.AperFunction,ComponentPad*
%ADD26R,1.700000X3.000000*%
G04 #@! TD*
G04 #@! TA.AperFunction,ComponentPad*
%ADD27O,1.700000X3.000000*%
G04 #@! TD*
G04 #@! TA.AperFunction,ComponentPad*
%ADD28O,1.600000X4.000000*%
G04 #@! TD*
G04 #@! TA.AperFunction,ComponentPad*
%ADD29C,4.800000*%
G04 #@! TD*
G04 #@! TA.AperFunction,Conductor*
%ADD30C,0.600000*%
G04 #@! TD*
G04 #@! TA.AperFunction,Conductor*
%ADD31C,0.250000*%
G04 #@! TD*
G04 #@! TA.AperFunction,Conductor*
%ADD32C,1.000000*%
G04 #@! TD*
G04 #@! TA.AperFunction,Conductor*
%ADD33C,0.800000*%
G04 #@! TD*
G04 #@! TA.AperFunction,Conductor*
%ADD34C,0.254000*%
G04 #@! TD*
G04 APERTURE END LIST*
D10*
X172719523Y-52485952D02*
X171886190Y-54985952D01*
X171052857Y-52485952D01*
X168910000Y-54985952D02*
X170338571Y-54985952D01*
X169624285Y-54985952D02*
X169624285Y-52485952D01*
X169862380Y-52843095D01*
X170100476Y-53081190D01*
X170338571Y-53200238D01*
X167838571Y-54747857D02*
X167719523Y-54866904D01*
X167838571Y-54985952D01*
X167957619Y-54866904D01*
X167838571Y-54747857D01*
X167838571Y-54985952D01*
X166886190Y-52485952D02*
X165338571Y-52485952D01*
X166171904Y-53438333D01*
X165814761Y-53438333D01*
X165576666Y-53557380D01*
X165457619Y-53676428D01*
X165338571Y-53914523D01*
X165338571Y-54509761D01*
X165457619Y-54747857D01*
X165576666Y-54866904D01*
X165814761Y-54985952D01*
X166529047Y-54985952D01*
X166767142Y-54866904D01*
X166886190Y-54747857D01*
X184207619Y-56774047D02*
X184088571Y-56655000D01*
X183850476Y-56535952D01*
X183255238Y-56535952D01*
X183017142Y-56655000D01*
X182898095Y-56774047D01*
X182779047Y-57012142D01*
X182779047Y-57250238D01*
X182898095Y-57607380D01*
X184326666Y-59035952D01*
X182779047Y-59035952D01*
X181231428Y-56535952D02*
X180993333Y-56535952D01*
X180755238Y-56655000D01*
X180636190Y-56774047D01*
X180517142Y-57012142D01*
X180398095Y-57488333D01*
X180398095Y-58083571D01*
X180517142Y-58559761D01*
X180636190Y-58797857D01*
X180755238Y-58916904D01*
X180993333Y-59035952D01*
X181231428Y-59035952D01*
X181469523Y-58916904D01*
X181588571Y-58797857D01*
X181707619Y-58559761D01*
X181826666Y-58083571D01*
X181826666Y-57488333D01*
X181707619Y-57012142D01*
X181588571Y-56774047D01*
X181469523Y-56655000D01*
X181231428Y-56535952D01*
X178017142Y-59035952D02*
X179445714Y-59035952D01*
X178731428Y-59035952D02*
X178731428Y-56535952D01*
X178969523Y-56893095D01*
X179207619Y-57131190D01*
X179445714Y-57250238D01*
X176588571Y-57607380D02*
X176826666Y-57488333D01*
X176945714Y-57369285D01*
X177064761Y-57131190D01*
X177064761Y-57012142D01*
X176945714Y-56774047D01*
X176826666Y-56655000D01*
X176588571Y-56535952D01*
X176112380Y-56535952D01*
X175874285Y-56655000D01*
X175755238Y-56774047D01*
X175636190Y-57012142D01*
X175636190Y-57131190D01*
X175755238Y-57369285D01*
X175874285Y-57488333D01*
X176112380Y-57607380D01*
X176588571Y-57607380D01*
X176826666Y-57726428D01*
X176945714Y-57845476D01*
X177064761Y-58083571D01*
X177064761Y-58559761D01*
X176945714Y-58797857D01*
X176826666Y-58916904D01*
X176588571Y-59035952D01*
X176112380Y-59035952D01*
X175874285Y-58916904D01*
X175755238Y-58797857D01*
X175636190Y-58559761D01*
X175636190Y-58083571D01*
X175755238Y-57845476D01*
X175874285Y-57726428D01*
X176112380Y-57607380D01*
X172660000Y-59035952D02*
X172660000Y-56535952D01*
X172660000Y-57488333D02*
X172421904Y-57369285D01*
X171945714Y-57369285D01*
X171707619Y-57488333D01*
X171588571Y-57607380D01*
X171469523Y-57845476D01*
X171469523Y-58559761D01*
X171588571Y-58797857D01*
X171707619Y-58916904D01*
X171945714Y-59035952D01*
X172421904Y-59035952D01*
X172660000Y-58916904D01*
X170636190Y-57369285D02*
X170040952Y-59035952D01*
X169445714Y-57369285D02*
X170040952Y-59035952D01*
X170279047Y-59631190D01*
X170398095Y-59750238D01*
X170636190Y-59869285D01*
X166588571Y-59035952D02*
X166588571Y-56535952D01*
X165993333Y-56535952D01*
X165636190Y-56655000D01*
X165398095Y-56893095D01*
X165279047Y-57131190D01*
X165160000Y-57607380D01*
X165160000Y-57964523D01*
X165279047Y-58440714D01*
X165398095Y-58678809D01*
X165636190Y-58916904D01*
X165993333Y-59035952D01*
X166588571Y-59035952D01*
X163255238Y-57726428D02*
X162898095Y-57845476D01*
X162779047Y-57964523D01*
X162660000Y-58202619D01*
X162660000Y-58559761D01*
X162779047Y-58797857D01*
X162898095Y-58916904D01*
X163136190Y-59035952D01*
X164088571Y-59035952D01*
X164088571Y-56535952D01*
X163255238Y-56535952D01*
X163017142Y-56655000D01*
X162898095Y-56774047D01*
X162779047Y-57012142D01*
X162779047Y-57250238D01*
X162898095Y-57488333D01*
X163017142Y-57607380D01*
X163255238Y-57726428D01*
X164088571Y-57726428D01*
X161826666Y-56535952D02*
X160279047Y-56535952D01*
X161112380Y-57488333D01*
X160755238Y-57488333D01*
X160517142Y-57607380D01*
X160398095Y-57726428D01*
X160279047Y-57964523D01*
X160279047Y-58559761D01*
X160398095Y-58797857D01*
X160517142Y-58916904D01*
X160755238Y-59035952D01*
X161469523Y-59035952D01*
X161707619Y-58916904D01*
X161826666Y-58797857D01*
X158493333Y-56535952D02*
X158493333Y-58321666D01*
X158612380Y-58678809D01*
X158850476Y-58916904D01*
X159207619Y-59035952D01*
X159445714Y-59035952D01*
X157302857Y-59035952D02*
X157302857Y-56535952D01*
X157302857Y-57726428D02*
X155874285Y-57726428D01*
X155874285Y-59035952D02*
X155874285Y-56535952D01*
X153850476Y-57726428D02*
X154683809Y-57726428D01*
X154683809Y-59035952D02*
X154683809Y-56535952D01*
X153493333Y-56535952D01*
D11*
G04 #@! TO.P,SW1,1*
G04 #@! TO.N,Net-(D2-Pad1)*
X161290000Y-43180000D03*
D12*
G04 #@! TO.P,SW1,2*
G04 #@! TO.N,VSS*
X158750000Y-43180000D03*
G04 #@! TD*
D13*
G04 #@! TO.P,D7,1*
G04 #@! TO.N,Net-(D4-Pad1)*
X171450000Y-38100000D03*
D14*
G04 #@! TO.P,D7,2*
G04 #@! TO.N,Net-(A1-Pad21)*
X171450000Y-45720000D03*
G04 #@! TD*
D15*
G04 #@! TO.P,Q1,1*
G04 #@! TO.N,Net-(Q1-Pad1)*
X143510000Y-64770000D03*
D16*
G04 #@! TO.P,Q1,2*
G04 #@! TO.N,Net-(A1-Pad27)*
X143510000Y-67310000D03*
G04 #@! TO.P,Q1,3*
G04 #@! TO.N,+5V*
X143510000Y-69850000D03*
G04 #@! TD*
D17*
G04 #@! TO.P,U1,1*
G04 #@! TO.N,Net-(R1-Pad1)*
X129540000Y-59690000D03*
D18*
G04 #@! TO.P,U1,8*
G04 #@! TO.N,N/C*
X144780000Y-52070000D03*
G04 #@! TO.P,U1,2*
G04 #@! TO.N,Net-(Q1-Pad1)*
X132080000Y-59690000D03*
G04 #@! TO.P,U1,9*
G04 #@! TO.N,N/C*
X142240000Y-52070000D03*
G04 #@! TO.P,U1,3*
G04 #@! TO.N,Net-(U1-Pad3)*
X134620000Y-59690000D03*
G04 #@! TO.P,U1,10*
G04 #@! TO.N,N/C*
X139700000Y-52070000D03*
G04 #@! TO.P,U1,4*
G04 #@! TO.N,Net-(R7-Pad1)*
X137160000Y-59690000D03*
G04 #@! TO.P,U1,11*
G04 #@! TO.N,N/C*
X137160000Y-52070000D03*
G04 #@! TO.P,U1,5*
G04 #@! TO.N,Net-(U1-Pad3)*
X139700000Y-59690000D03*
G04 #@! TO.P,U1,12*
G04 #@! TO.N,N/C*
X134620000Y-52070000D03*
G04 #@! TO.P,U1,6*
G04 #@! TO.N,Net-(A1-Pad10)*
X142240000Y-59690000D03*
G04 #@! TO.P,U1,13*
G04 #@! TO.N,N/C*
X132080000Y-52070000D03*
G04 #@! TO.P,U1,7*
G04 #@! TO.N,VSS*
X144780000Y-59690000D03*
G04 #@! TO.P,U1,14*
G04 #@! TO.N,Net-(R3-Pad2)*
X129540000Y-52070000D03*
G04 #@! TD*
D13*
G04 #@! TO.P,D4,1*
G04 #@! TO.N,Net-(D4-Pad1)*
X168910000Y-38100000D03*
D14*
G04 #@! TO.P,D4,2*
G04 #@! TO.N,Net-(D2-Pad2)*
X168910000Y-45720000D03*
G04 #@! TD*
G04 #@! TO.P,D3,2*
G04 #@! TO.N,Net-(D2-Pad2)*
X173990000Y-45720000D03*
D13*
G04 #@! TO.P,D3,1*
G04 #@! TO.N,Net-(D3-Pad1)*
X173990000Y-38100000D03*
G04 #@! TD*
D19*
G04 #@! TO.P,C2,2*
G04 #@! TO.N,Net-(A1-Pad10)*
X127000000Y-43100000D03*
G04 #@! TO.P,C2,1*
G04 #@! TO.N,Net-(A1-Pad27)*
X127000000Y-38100000D03*
G04 #@! TD*
D20*
G04 #@! TO.P,D1,1*
G04 #@! TO.N,+5V*
X128270000Y-69850000D03*
D21*
G04 #@! TO.P,D1,2*
G04 #@! TO.N,Net-(Batt.1-Pad1)*
X118110000Y-69850000D03*
G04 #@! TD*
D13*
G04 #@! TO.P,D2,1*
G04 #@! TO.N,Net-(D2-Pad1)*
X179070000Y-38100000D03*
D14*
G04 #@! TO.P,D2,2*
G04 #@! TO.N,Net-(D2-Pad2)*
X179070000Y-45720000D03*
G04 #@! TD*
D22*
G04 #@! TO.P,LS1,2*
G04 #@! TO.N,Net-(J2-Pad6)*
X119380000Y-41910000D03*
D23*
G04 #@! TO.P,LS1,1*
G04 #@! TO.N,Net-(J2-Pad8)*
X119380000Y-39370000D03*
G04 #@! TD*
D24*
G04 #@! TO.P,R1,2*
G04 #@! TO.N,Net-(A1-Pad27)*
X140081000Y-67564000D03*
G04 #@! TO.P,R1,1*
G04 #@! TO.N,Net-(R1-Pad1)*
X132461000Y-67564000D03*
G04 #@! TD*
G04 #@! TO.P,R2,1*
G04 #@! TO.N,+5V*
X155956000Y-67818000D03*
G04 #@! TO.P,R2,2*
G04 #@! TO.N,Net-(Q1-Pad1)*
X148336000Y-67818000D03*
G04 #@! TD*
G04 #@! TO.P,R3,1*
G04 #@! TO.N,Net-(A1-Pad27)*
X132334000Y-38735000D03*
G04 #@! TO.P,R3,2*
G04 #@! TO.N,Net-(R3-Pad2)*
X132334000Y-46355000D03*
G04 #@! TD*
G04 #@! TO.P,R4,2*
G04 #@! TO.N,Net-(D2-Pad2)*
X135890000Y-38608000D03*
D25*
G04 #@! TO.P,R4,1*
G04 #@! TO.N,Net-(Q1-Pad1)*
X135890000Y-46228000D03*
G04 #@! TD*
D24*
G04 #@! TO.P,R5,1*
G04 #@! TO.N,Net-(J2-Pad2)*
X124460000Y-58420000D03*
G04 #@! TO.P,R5,2*
G04 #@! TO.N,Net-(A1-Pad6)*
X124460000Y-66040000D03*
G04 #@! TD*
G04 #@! TO.P,R6,1*
G04 #@! TO.N,Net-(A1-Pad16)*
X185420000Y-45720000D03*
G04 #@! TO.P,R6,2*
G04 #@! TO.N,Net-(J1-Pad7)*
X193040000Y-45720000D03*
G04 #@! TD*
D17*
G04 #@! TO.P,A1,1*
G04 #@! TO.N,Net-(A1-Pad1)*
X151130000Y-64643000D03*
D18*
G04 #@! TO.P,A1,17*
G04 #@! TO.N,Net-(A1-Pad17)*
X184150000Y-49403000D03*
G04 #@! TO.P,A1,2*
G04 #@! TO.N,Net-(A1-Pad2)*
X153670000Y-64643000D03*
G04 #@! TO.P,A1,18*
G04 #@! TO.N,Net-(A1-Pad18)*
X181610000Y-49403000D03*
G04 #@! TO.P,A1,3*
G04 #@! TO.N,Net-(A1-Pad3)*
X156210000Y-64643000D03*
G04 #@! TO.P,A1,19*
G04 #@! TO.N,Net-(A1-Pad19)*
X179070000Y-49403000D03*
G04 #@! TO.P,A1,4*
G04 #@! TO.N,VSS*
X158750000Y-64643000D03*
G04 #@! TO.P,A1,20*
G04 #@! TO.N,Net-(A1-Pad20)*
X176530000Y-49403000D03*
G04 #@! TO.P,A1,5*
G04 #@! TO.N,Net-(A1-Pad5)*
X161290000Y-64643000D03*
G04 #@! TO.P,A1,21*
G04 #@! TO.N,Net-(A1-Pad21)*
X173990000Y-49403000D03*
G04 #@! TO.P,A1,6*
G04 #@! TO.N,Net-(A1-Pad6)*
X163830000Y-64643000D03*
G04 #@! TO.P,A1,22*
G04 #@! TO.N,Net-(A1-Pad22)*
X171450000Y-49403000D03*
G04 #@! TO.P,A1,7*
G04 #@! TO.N,Net-(A1-Pad7)*
X166370000Y-64643000D03*
G04 #@! TO.P,A1,23*
G04 #@! TO.N,Net-(A1-Pad23)*
X168910000Y-49403000D03*
G04 #@! TO.P,A1,8*
G04 #@! TO.N,Net-(A1-Pad8)*
X168910000Y-64643000D03*
G04 #@! TO.P,A1,24*
G04 #@! TO.N,Net-(A1-Pad24)*
X166370000Y-49403000D03*
G04 #@! TO.P,A1,9*
G04 #@! TO.N,Net-(A1-Pad9)*
X171450000Y-64643000D03*
G04 #@! TO.P,A1,25*
G04 #@! TO.N,Net-(A1-Pad25)*
X163830000Y-49403000D03*
G04 #@! TO.P,A1,10*
G04 #@! TO.N,Net-(A1-Pad10)*
X173990000Y-64643000D03*
G04 #@! TO.P,A1,26*
G04 #@! TO.N,Net-(A1-Pad26)*
X161290000Y-49403000D03*
G04 #@! TO.P,A1,11*
G04 #@! TO.N,Net-(A1-Pad11)*
X176530000Y-64643000D03*
G04 #@! TO.P,A1,27*
G04 #@! TO.N,Net-(A1-Pad27)*
X158750000Y-49403000D03*
G04 #@! TO.P,A1,12*
G04 #@! TO.N,Net-(A1-Pad12)*
X179070000Y-64643000D03*
G04 #@! TO.P,A1,28*
G04 #@! TO.N,Net-(A1-Pad28)*
X156210000Y-49403000D03*
G04 #@! TO.P,A1,13*
G04 #@! TO.N,Net-(A1-Pad13)*
X181610000Y-64643000D03*
G04 #@! TO.P,A1,29*
G04 #@! TO.N,VSS*
X153670000Y-49403000D03*
G04 #@! TO.P,A1,14*
G04 #@! TO.N,Net-(A1-Pad14)*
X184150000Y-64643000D03*
G04 #@! TO.P,A1,30*
G04 #@! TO.N,Net-(A1-Pad30)*
X151130000Y-49403000D03*
G04 #@! TO.P,A1,15*
G04 #@! TO.N,Net-(A1-Pad15)*
X186690000Y-64643000D03*
G04 #@! TO.P,A1,16*
G04 #@! TO.N,Net-(A1-Pad16)*
X186690000Y-49403000D03*
G04 #@! TD*
D26*
G04 #@! TO.P,Batt.1,1*
G04 #@! TO.N,Net-(Batt.1-Pad1)*
X116840000Y-73660000D03*
D27*
G04 #@! TO.P,Batt.1,2*
G04 #@! TO.N,VSS*
X114300000Y-73660000D03*
G04 #@! TD*
D13*
G04 #@! TO.P,D5,1*
G04 #@! TO.N,Net-(D2-Pad1)*
X181610000Y-38100000D03*
D14*
G04 #@! TO.P,D5,2*
G04 #@! TO.N,Net-(A1-Pad19)*
X181610000Y-45720000D03*
G04 #@! TD*
G04 #@! TO.P,D6,2*
G04 #@! TO.N,Net-(A1-Pad20)*
X176530000Y-45720000D03*
D13*
G04 #@! TO.P,D6,1*
G04 #@! TO.N,Net-(D3-Pad1)*
X176530000Y-38100000D03*
G04 #@! TD*
D26*
G04 #@! TO.P,J1,1*
G04 #@! TO.N,Net-(A1-Pad17)*
X187960000Y-72517000D03*
D27*
G04 #@! TO.P,J1,2*
G04 #@! TO.N,Net-(A1-Pad12)*
X185420000Y-72517000D03*
G04 #@! TO.P,J1,3*
G04 #@! TO.N,VSS*
X182880000Y-72517000D03*
G04 #@! TO.P,J1,4*
G04 #@! TO.N,Net-(J1-Pad4)*
X180340000Y-72517000D03*
G04 #@! TO.P,J1,5*
G04 #@! TO.N,Net-(A1-Pad15)*
X177800000Y-72517000D03*
G04 #@! TO.P,J1,6*
G04 #@! TO.N,Net-(A1-Pad14)*
X175260000Y-72517000D03*
G04 #@! TO.P,J1,7*
G04 #@! TO.N,Net-(J1-Pad7)*
X172720000Y-72517000D03*
G04 #@! TO.P,J1,8*
G04 #@! TO.N,Net-(A1-Pad13)*
X170180000Y-72517000D03*
G04 #@! TD*
D28*
G04 #@! TO.P,J2,16*
G04 #@! TO.N,Net-(A1-Pad7)*
X120650000Y-65024000D03*
G04 #@! TO.P,J2,1*
G04 #@! TO.N,Net-(A1-Pad27)*
X120650000Y-47244000D03*
G04 #@! TO.P,J2,15*
G04 #@! TO.N,Net-(J2-Pad15)*
X118110000Y-65024000D03*
G04 #@! TO.P,J2,2*
G04 #@! TO.N,Net-(J2-Pad2)*
X118110000Y-47244000D03*
G04 #@! TO.P,J2,14*
G04 #@! TO.N,Net-(J2-Pad14)*
X115570000Y-65024000D03*
G04 #@! TO.P,J2,3*
G04 #@! TO.N,Net-(A1-Pad5)*
X115570000Y-47244000D03*
G04 #@! TO.P,J2,13*
G04 #@! TO.N,Net-(J2-Pad13)*
X113030000Y-65024000D03*
G04 #@! TO.P,J2,4*
G04 #@! TO.N,Net-(J2-Pad4)*
X113030000Y-47244000D03*
G04 #@! TO.P,J2,12*
G04 #@! TO.N,Net-(J2-Pad12)*
X110490000Y-65024000D03*
G04 #@! TO.P,J2,5*
G04 #@! TO.N,Net-(J2-Pad5)*
X110490000Y-47244000D03*
G04 #@! TO.P,J2,11*
G04 #@! TO.N,Net-(J2-Pad11)*
X107950000Y-65024000D03*
G04 #@! TO.P,J2,6*
G04 #@! TO.N,Net-(J2-Pad6)*
X107950000Y-47244000D03*
G04 #@! TO.P,J2,10*
G04 #@! TO.N,VSS*
X105410000Y-65024000D03*
G04 #@! TO.P,J2,7*
X105410000Y-47244000D03*
G04 #@! TO.P,J2,9*
G04 #@! TO.N,Net-(J2-Pad9)*
X102870000Y-65024000D03*
G04 #@! TO.P,J2,8*
G04 #@! TO.N,Net-(J2-Pad8)*
X102870000Y-47244000D03*
G04 #@! TD*
D24*
G04 #@! TO.P,R7,2*
G04 #@! TO.N,Net-(Q1-Pad1)*
X132080000Y-63500000D03*
G04 #@! TO.P,R7,1*
G04 #@! TO.N,Net-(R7-Pad1)*
X139700000Y-63500000D03*
G04 #@! TD*
G04 #@! TO.P,R8,1*
G04 #@! TO.N,Net-(A1-Pad10)*
X124460000Y-45720000D03*
G04 #@! TO.P,R8,2*
G04 #@! TO.N,Net-(A1-Pad27)*
X124460000Y-53340000D03*
G04 #@! TD*
D12*
G04 #@! TO.P,SW2,2*
G04 #@! TO.N,VSS*
X158750000Y-40640000D03*
D11*
G04 #@! TO.P,SW2,1*
G04 #@! TO.N,Net-(D3-Pad1)*
X161290000Y-40640000D03*
G04 #@! TD*
D12*
G04 #@! TO.P,SW3,2*
G04 #@! TO.N,VSS*
X158750000Y-38100000D03*
D11*
G04 #@! TO.P,SW3,1*
G04 #@! TO.N,Net-(D4-Pad1)*
X161290000Y-38100000D03*
G04 #@! TD*
D29*
G04 #@! TO.P,,*
G04 #@! TO.N,*
X190500000Y-37973000D03*
G04 #@! TD*
G04 #@! TO.P,,*
G04 #@! TO.N,*
X104140000Y-38100000D03*
G04 #@! TD*
G04 #@! TO.P,,*
G04 #@! TO.N,*
X104140000Y-73660000D03*
G04 #@! TD*
G04 #@! TO.P,,*
G04 #@! TO.N,*
X163830000Y-73660000D03*
G04 #@! TD*
D30*
G04 #@! TO.N,Net-(A1-Pad17)*
X184150000Y-49530000D02*
X184150000Y-50800000D01*
X184150000Y-50800000D02*
X186690000Y-53340000D01*
X186690000Y-53340000D02*
X189230000Y-53340000D01*
X189230000Y-53340000D02*
X190500000Y-54610000D01*
X190500000Y-54610000D02*
X190500000Y-71300000D01*
X190500000Y-71300000D02*
X189410000Y-72390000D01*
X189410000Y-72390000D02*
X187960000Y-72390000D01*
G04 #@! TO.N,Net-(A1-Pad19)*
X181610000Y-45720000D02*
X179070000Y-48260000D01*
X179070000Y-48260000D02*
X179070000Y-49403000D01*
D31*
G04 #@! TO.N,VSS*
X145830000Y-59690000D02*
X144780000Y-59690000D01*
X166878000Y-62484000D02*
X148624000Y-62484000D01*
X167640000Y-67056000D02*
X167640000Y-63246000D01*
X167640000Y-63246000D02*
X166878000Y-62484000D01*
X182880000Y-72517000D02*
X183729999Y-71667001D01*
X183729999Y-71667001D02*
X183856999Y-71667001D01*
X172720000Y-65913000D02*
X172720000Y-62484000D01*
X172720000Y-62484000D02*
X172212000Y-61976000D01*
X170180000Y-61976000D02*
X170180000Y-67056000D01*
X148624000Y-62484000D02*
X145830000Y-59690000D01*
X172212000Y-61976000D02*
X170180000Y-61976000D01*
X170180000Y-67056000D02*
X167640000Y-67056000D01*
D30*
G04 #@! TO.N,Net-(A1-Pad20)*
X176530000Y-45720000D02*
X176530000Y-49403000D01*
G04 #@! TO.N,Net-(A1-Pad5)*
X115570000Y-55245000D02*
X115570000Y-46990000D01*
X116205000Y-55880000D02*
X115570000Y-55245000D01*
X123190000Y-62230000D02*
X116205000Y-55880000D01*
X126365000Y-65405000D02*
X123190000Y-62230000D01*
X126365000Y-67310000D02*
X126365000Y-65405000D01*
X161290000Y-65470000D02*
X153100000Y-73660000D01*
X161290000Y-64770000D02*
X161290000Y-65470000D01*
X153100000Y-73660000D02*
X125730000Y-73660000D01*
X125730000Y-73660000D02*
X124460000Y-72390000D01*
X124460000Y-72390000D02*
X124460000Y-68580000D01*
X124460000Y-68580000D02*
X126365000Y-67310000D01*
G04 #@! TO.N,Net-(A1-Pad21)*
X171450000Y-46863000D02*
X173990000Y-49403000D01*
X171450000Y-45720000D02*
X171450000Y-46863000D01*
G04 #@! TO.N,Net-(A1-Pad6)*
X123660001Y-66839999D02*
X124460000Y-66040000D01*
X163830000Y-65470000D02*
X154370000Y-74930000D01*
X163830000Y-64770000D02*
X163830000Y-65470000D01*
X154370000Y-74930000D02*
X123825000Y-74930000D01*
X123825000Y-74930000D02*
X123190000Y-74295000D01*
X123190000Y-74295000D02*
X123190000Y-67310000D01*
X123190000Y-67310000D02*
X123660001Y-66839999D01*
G04 #@! TO.N,Net-(A1-Pad7)*
X120650000Y-64770000D02*
X120650000Y-65670000D01*
X120650000Y-66870000D02*
X120650000Y-64770000D01*
X120650000Y-67310000D02*
X120650000Y-66870000D01*
X121285000Y-67945000D02*
X120650000Y-67310000D01*
X166370000Y-66040000D02*
X165100000Y-67310000D01*
X166370000Y-64770000D02*
X166370000Y-66040000D01*
X165100000Y-67310000D02*
X163830000Y-67310000D01*
X163830000Y-67310000D02*
X154940000Y-76200000D01*
X121285000Y-74930000D02*
X121285000Y-67945000D01*
X154940000Y-76200000D02*
X122555000Y-76200000D01*
X122555000Y-76200000D02*
X121285000Y-74930000D01*
G04 #@! TO.N,Net-(A1-Pad10)*
X148590000Y-58420000D02*
X148590000Y-55880000D01*
X151130000Y-60960000D02*
X148590000Y-58420000D01*
X172720000Y-60960000D02*
X151130000Y-60960000D01*
X124460000Y-45640000D02*
X127000000Y-43100000D01*
X124460000Y-45720000D02*
X124460000Y-45640000D01*
X135810000Y-43100000D02*
X127000000Y-43100000D01*
X142240000Y-49530000D02*
X135810000Y-43100000D01*
X142240000Y-49530000D02*
X145288000Y-49530000D01*
X148590000Y-52832000D02*
X148590000Y-55880000D01*
X145288000Y-49530000D02*
X148590000Y-52832000D01*
X142240000Y-59690000D02*
X142240000Y-57890000D01*
X142240000Y-57890000D02*
X144250000Y-55880000D01*
X144250000Y-55880000D02*
X148590000Y-55880000D01*
X173990000Y-62230000D02*
X172720000Y-60960000D01*
X173990000Y-64643000D02*
X173990000Y-62230000D01*
G04 #@! TO.N,Net-(A1-Pad27)*
X120650000Y-46090000D02*
X120650000Y-46990000D01*
D32*
X124460000Y-40640000D02*
X127000000Y-38100000D01*
X120650000Y-46990000D02*
X124460000Y-42799000D01*
X124460000Y-42799000D02*
X124460000Y-40640000D01*
D33*
X131699000Y-38100000D02*
X132334000Y-38735000D01*
X127000000Y-38100000D02*
X131699000Y-38100000D01*
D32*
X120650000Y-49530000D02*
X124460000Y-53340000D01*
X120650000Y-47244000D02*
X120650000Y-49530000D01*
X140335000Y-67310000D02*
X140081000Y-67564000D01*
X143510000Y-67310000D02*
X140335000Y-67310000D01*
X126746000Y-55626000D02*
X124460000Y-53340000D01*
X140081000Y-67564000D02*
X137668000Y-69977000D01*
X127762000Y-65659000D02*
X127762000Y-62611000D01*
X137668000Y-69977000D02*
X132080000Y-69977000D01*
X127762000Y-62611000D02*
X126746000Y-61595000D01*
X132080000Y-69977000D02*
X127762000Y-65659000D01*
X126746000Y-61595000D02*
X126746000Y-55626000D01*
D33*
X149860000Y-52324000D02*
X157988000Y-52324000D01*
X144780000Y-46990000D02*
X149860000Y-52324000D01*
X157988000Y-52324000D02*
X158750000Y-50673000D01*
X132334000Y-38735000D02*
X132334000Y-40132000D01*
X133133999Y-41058999D02*
X133604000Y-41656000D01*
X158750000Y-50673000D02*
X158750000Y-49403000D01*
X132334000Y-40132000D02*
X133133999Y-41058999D01*
X133604000Y-41656000D02*
X136144000Y-41656000D01*
X136144000Y-41656000D02*
X141859000Y-46990000D01*
X141859000Y-46990000D02*
X144780000Y-46990000D01*
D30*
G04 #@! TO.N,Net-(A1-Pad12)*
X179070000Y-62103000D02*
X179070000Y-64643000D01*
X180340000Y-60833000D02*
X179070000Y-62103000D01*
X187452000Y-60833000D02*
X180340000Y-60833000D01*
X185420000Y-71755000D02*
X186944000Y-69850000D01*
X185420000Y-72517000D02*
X185420000Y-71755000D01*
X186944000Y-69850000D02*
X188722000Y-69850000D01*
X188722000Y-69850000D02*
X189103000Y-69469000D01*
X189103000Y-69469000D02*
X189103000Y-62484000D01*
X189103000Y-62484000D02*
X187452000Y-60833000D01*
G04 #@! TO.N,Net-(A1-Pad13)*
X170180000Y-70866000D02*
X170180000Y-72390000D01*
X174498000Y-67310000D02*
X170180000Y-70866000D01*
X180340000Y-67310000D02*
X174498000Y-67310000D01*
X181610000Y-64770000D02*
X181610000Y-66040000D01*
X181610000Y-66040000D02*
X180340000Y-67310000D01*
G04 #@! TO.N,Net-(A1-Pad14)*
X182880000Y-68580000D02*
X177800000Y-68580000D01*
X184150000Y-64770000D02*
X184150000Y-67310000D01*
X184150000Y-67310000D02*
X182880000Y-68580000D01*
X177800000Y-68580000D02*
X175260000Y-71120000D01*
X175260000Y-71120000D02*
X175260000Y-72390000D01*
G04 #@! TO.N,Net-(A1-Pad15)*
X186690000Y-64770000D02*
X186690000Y-67310000D01*
X186690000Y-67310000D02*
X184150000Y-69850000D01*
X184150000Y-69850000D02*
X179070000Y-69850000D01*
X177800000Y-71120000D02*
X177800000Y-72390000D01*
X179070000Y-69850000D02*
X177800000Y-71120000D01*
G04 #@! TO.N,Net-(A1-Pad16)*
X185420000Y-45720000D02*
X186690000Y-46990000D01*
X186690000Y-46990000D02*
X186690000Y-49530000D01*
G04 #@! TO.N,+5V*
X153924000Y-69850000D02*
X155956000Y-67818000D01*
X143510000Y-69850000D02*
X153924000Y-69850000D01*
D32*
X141010000Y-69850000D02*
X138978000Y-71882000D01*
X143510000Y-69850000D02*
X141010000Y-69850000D01*
X130302000Y-71882000D02*
X128270000Y-69850000D01*
X138978000Y-71882000D02*
X130302000Y-71882000D01*
D30*
G04 #@! TO.N,Net-(D2-Pad2)*
X179070000Y-44588630D02*
X178296370Y-43815000D01*
X179070000Y-45720000D02*
X179070000Y-44588630D01*
X168910000Y-44588630D02*
X168910000Y-43815000D01*
X168910000Y-45720000D02*
X168910000Y-44588630D01*
X173990000Y-45720000D02*
X173990000Y-43815000D01*
X178296370Y-43815000D02*
X173990000Y-43815000D01*
X173990000Y-43815000D02*
X168910000Y-43815000D01*
X140208000Y-38608000D02*
X135890000Y-38608000D01*
X147320000Y-45720000D02*
X140208000Y-38608000D01*
X163195000Y-45720000D02*
X147320000Y-45720000D01*
X168910000Y-43815000D02*
X165100000Y-43815000D01*
X165100000Y-43815000D02*
X163195000Y-45720000D01*
G04 #@! TO.N,Net-(J2-Pad2)*
X123190000Y-58420000D02*
X124460000Y-58420000D01*
X118110000Y-46990000D02*
X118110000Y-53340000D01*
X118110000Y-53340000D02*
X123190000Y-58420000D01*
G04 #@! TO.N,Net-(J2-Pad6)*
X107950000Y-45720000D02*
X107950000Y-46990000D01*
X119380000Y-41910000D02*
X111760000Y-41910000D01*
X111760000Y-41910000D02*
X107950000Y-45720000D01*
G04 #@! TO.N,Net-(J2-Pad8)*
X102870000Y-44450000D02*
X102870000Y-46990000D01*
X104140000Y-43180000D02*
X102870000Y-44450000D01*
X106680000Y-43180000D02*
X104140000Y-43180000D01*
X119380000Y-39370000D02*
X110490000Y-39370000D01*
X110490000Y-39370000D02*
X106680000Y-43180000D01*
D31*
G04 #@! TO.N,Net-(U1-Pad3)*
X139700000Y-59690000D02*
X139700000Y-60090000D01*
D30*
X134620000Y-60090000D02*
X134620000Y-59690000D01*
X134620000Y-57890000D02*
X134620000Y-59690000D01*
X135360000Y-57150000D02*
X134620000Y-57890000D01*
X138960000Y-57150000D02*
X135360000Y-57150000D01*
X139700000Y-57890000D02*
X138960000Y-57150000D01*
X139700000Y-59690000D02*
X139700000Y-57890000D01*
G04 #@! TO.N,Net-(J1-Pad7)*
X172720000Y-73660000D02*
X172720000Y-72390000D01*
X175260000Y-76200000D02*
X172720000Y-73660000D01*
X190500000Y-76200000D02*
X175260000Y-76200000D01*
X193040000Y-45720000D02*
X193040000Y-73660000D01*
X193040000Y-73660000D02*
X190500000Y-76200000D01*
G04 #@! TO.N,Net-(Q1-Pad1)*
X132080000Y-59690000D02*
X132080000Y-60090000D01*
X134112000Y-44450000D02*
X135890000Y-46228000D01*
X129540000Y-44450000D02*
X134112000Y-44450000D01*
X127000000Y-46990000D02*
X129540000Y-44450000D01*
X127000000Y-53340000D02*
X127000000Y-46990000D01*
X132080000Y-59690000D02*
X132080000Y-58420000D01*
X132080000Y-58420000D02*
X127000000Y-53340000D01*
X132080000Y-60390000D02*
X132080000Y-59690000D01*
X143510000Y-64770000D02*
X145796000Y-64770000D01*
X146419370Y-64770000D02*
X145796000Y-64770000D01*
X148336000Y-66686630D02*
X146419370Y-64770000D01*
X148336000Y-67818000D02*
X148336000Y-66686630D01*
X141410000Y-64770000D02*
X140648000Y-65532000D01*
X143510000Y-64770000D02*
X141410000Y-64770000D01*
X134112000Y-65532000D02*
X132080000Y-63500000D01*
X140648000Y-65532000D02*
X134112000Y-65532000D01*
X132080000Y-59690000D02*
X132080000Y-63500000D01*
G04 #@! TO.N,Net-(R3-Pad2)*
X129540000Y-49149000D02*
X132334000Y-46355000D01*
X129540000Y-52070000D02*
X129540000Y-49149000D01*
D32*
G04 #@! TO.N,Net-(Batt.1-Pad1)*
X116840000Y-71374000D02*
X116840000Y-73660000D01*
X118110000Y-69850000D02*
X116840000Y-71374000D01*
D30*
G04 #@! TO.N,Net-(D2-Pad1)*
X162740000Y-43180000D02*
X163502000Y-42418000D01*
X161290000Y-43180000D02*
X162740000Y-43180000D01*
X179070000Y-39500000D02*
X179070000Y-38100000D01*
X176152000Y-42418000D02*
X179070000Y-39500000D01*
X163502000Y-42418000D02*
X176152000Y-42418000D01*
X181610000Y-38100000D02*
X179070000Y-38100000D01*
G04 #@! TO.N,Net-(D3-Pad1)*
X176530000Y-38100000D02*
X173990000Y-38100000D01*
X162740000Y-40640000D02*
X161290000Y-40640000D01*
X172850000Y-40640000D02*
X162740000Y-40640000D01*
X173990000Y-39500000D02*
X172850000Y-40640000D01*
X173990000Y-38100000D02*
X173990000Y-39500000D01*
G04 #@! TO.N,Net-(D4-Pad1)*
X171450000Y-38100000D02*
X168910000Y-38100000D01*
X167510000Y-38100000D02*
X161290000Y-38100000D01*
X168910000Y-38100000D02*
X167510000Y-38100000D01*
G04 #@! TO.N,Net-(R1-Pad1)*
X129540000Y-64643000D02*
X132461000Y-67564000D01*
X129540000Y-59690000D02*
X129540000Y-64643000D01*
G04 #@! TO.N,Net-(R7-Pad1)*
X137160000Y-60960000D02*
X139700000Y-63500000D01*
X137160000Y-59690000D02*
X137160000Y-60960000D01*
G04 #@! TD*
D34*
G04 #@! TO.N,VSS*
G36*
X195453000Y-78613000D02*
X99187000Y-78613000D01*
X99187000Y-73056301D01*
X101105000Y-73056301D01*
X101105000Y-74263699D01*
X101567051Y-75379189D01*
X102420811Y-76232949D01*
X103536301Y-76695000D01*
X104743699Y-76695000D01*
X105859189Y-76232949D01*
X106712949Y-75379189D01*
X107175000Y-74263699D01*
X107175000Y-73787000D01*
X112815000Y-73787000D01*
X112815000Y-74437000D01*
X112976640Y-74995618D01*
X113339749Y-75449856D01*
X113849048Y-75730562D01*
X113943110Y-75751476D01*
X114173000Y-75630155D01*
X114173000Y-73787000D01*
X112815000Y-73787000D01*
X107175000Y-73787000D01*
X107175000Y-73056301D01*
X107103217Y-72883000D01*
X112815000Y-72883000D01*
X112815000Y-73533000D01*
X114173000Y-73533000D01*
X114173000Y-71689845D01*
X114427000Y-71689845D01*
X114427000Y-73533000D01*
X114447000Y-73533000D01*
X114447000Y-73787000D01*
X114427000Y-73787000D01*
X114427000Y-75630155D01*
X114656890Y-75751476D01*
X114750952Y-75730562D01*
X115260251Y-75449856D01*
X115372327Y-75309652D01*
X115391843Y-75407765D01*
X115532191Y-75617809D01*
X115742235Y-75758157D01*
X115990000Y-75807440D01*
X117690000Y-75807440D01*
X117937765Y-75758157D01*
X118147809Y-75617809D01*
X118288157Y-75407765D01*
X118337440Y-75160000D01*
X118337440Y-72160000D01*
X118288157Y-71912235D01*
X118147809Y-71702191D01*
X118081094Y-71657613D01*
X118141605Y-71585000D01*
X118280880Y-71585000D01*
X118786963Y-71484334D01*
X119360865Y-71100865D01*
X119744334Y-70526963D01*
X119878990Y-69850000D01*
X119744334Y-69173037D01*
X119360865Y-68599135D01*
X118786963Y-68215666D01*
X118280880Y-68115000D01*
X117939120Y-68115000D01*
X117433037Y-68215666D01*
X116859135Y-68599135D01*
X116475666Y-69173037D01*
X116341010Y-69850000D01*
X116397192Y-70132444D01*
X116073063Y-70521399D01*
X116021711Y-70555711D01*
X115929636Y-70693511D01*
X115896508Y-70733265D01*
X115867685Y-70786228D01*
X115770854Y-70931146D01*
X115760505Y-70983172D01*
X115735151Y-71029761D01*
X115716766Y-71203066D01*
X115705000Y-71262218D01*
X115705000Y-71313978D01*
X115687518Y-71478771D01*
X115705000Y-71538001D01*
X115705000Y-71586723D01*
X115532191Y-71702191D01*
X115391843Y-71912235D01*
X115372327Y-72010348D01*
X115260251Y-71870144D01*
X114750952Y-71589438D01*
X114656890Y-71568524D01*
X114427000Y-71689845D01*
X114173000Y-71689845D01*
X113943110Y-71568524D01*
X113849048Y-71589438D01*
X113339749Y-71870144D01*
X112976640Y-72324382D01*
X112815000Y-72883000D01*
X107103217Y-72883000D01*
X106712949Y-71940811D01*
X105859189Y-71087051D01*
X104743699Y-70625000D01*
X103536301Y-70625000D01*
X102420811Y-71087051D01*
X101567051Y-71940811D01*
X101105000Y-73056301D01*
X99187000Y-73056301D01*
X99187000Y-66365332D01*
X101435000Y-66365332D01*
X101518260Y-66783908D01*
X101835423Y-67258576D01*
X102310091Y-67575740D01*
X102870000Y-67687113D01*
X103429908Y-67575740D01*
X103904576Y-67258577D01*
X104142499Y-66902501D01*
X104485104Y-67328500D01*
X104978181Y-67598367D01*
X105060961Y-67615904D01*
X105283000Y-67493915D01*
X105283000Y-65151000D01*
X105263000Y-65151000D01*
X105263000Y-64897000D01*
X105283000Y-64897000D01*
X105283000Y-62554085D01*
X105060961Y-62432096D01*
X104978181Y-62449633D01*
X104485104Y-62719500D01*
X104142499Y-63145499D01*
X103904577Y-62789423D01*
X103429909Y-62472260D01*
X102870000Y-62360887D01*
X102310092Y-62472260D01*
X101835424Y-62789423D01*
X101518261Y-63264091D01*
X101435001Y-63682667D01*
X101435000Y-66365332D01*
X99187000Y-66365332D01*
X99187000Y-48585332D01*
X101435000Y-48585332D01*
X101518260Y-49003908D01*
X101835423Y-49478576D01*
X102310091Y-49795740D01*
X102870000Y-49907113D01*
X103429908Y-49795740D01*
X103904576Y-49478577D01*
X104142499Y-49122501D01*
X104485104Y-49548500D01*
X104978181Y-49818367D01*
X105060961Y-49835904D01*
X105283000Y-49713915D01*
X105283000Y-47371000D01*
X105263000Y-47371000D01*
X105263000Y-47117000D01*
X105283000Y-47117000D01*
X105283000Y-44774085D01*
X105060961Y-44652096D01*
X104978181Y-44669633D01*
X104485104Y-44939500D01*
X104142499Y-45365499D01*
X103904577Y-45009423D01*
X103805000Y-44942888D01*
X103805000Y-44837289D01*
X104527290Y-44115000D01*
X106587914Y-44115000D01*
X106680000Y-44133317D01*
X106772086Y-44115000D01*
X107044819Y-44060750D01*
X107354097Y-43854097D01*
X107406261Y-43776028D01*
X110877289Y-40305000D01*
X117249467Y-40305000D01*
X117281843Y-40467765D01*
X117422191Y-40677809D01*
X117632235Y-40818157D01*
X117677619Y-40827184D01*
X117659375Y-40839375D01*
X117568753Y-40975000D01*
X111852086Y-40975000D01*
X111760000Y-40956683D01*
X111667914Y-40975000D01*
X111395181Y-41029250D01*
X111085903Y-41235903D01*
X111033739Y-41313972D01*
X107721341Y-44626370D01*
X107390092Y-44692260D01*
X106915424Y-45009423D01*
X106677501Y-45365500D01*
X106334896Y-44939500D01*
X105841819Y-44669633D01*
X105759039Y-44652096D01*
X105537000Y-44774085D01*
X105537000Y-47117000D01*
X105557000Y-47117000D01*
X105557000Y-47371000D01*
X105537000Y-47371000D01*
X105537000Y-49713915D01*
X105759039Y-49835904D01*
X105841819Y-49818367D01*
X106334896Y-49548500D01*
X106677501Y-49122501D01*
X106915423Y-49478576D01*
X107390091Y-49795740D01*
X107950000Y-49907113D01*
X108509908Y-49795740D01*
X108984576Y-49478577D01*
X109220000Y-49126241D01*
X109455423Y-49478576D01*
X109930091Y-49795740D01*
X110490000Y-49907113D01*
X111049908Y-49795740D01*
X111524576Y-49478577D01*
X111760000Y-49126241D01*
X111995423Y-49478576D01*
X112470091Y-49795740D01*
X113030000Y-49907113D01*
X113589908Y-49795740D01*
X114064576Y-49478577D01*
X114300000Y-49126241D01*
X114535423Y-49478576D01*
X114635001Y-49545112D01*
X114635000Y-55152914D01*
X114616683Y-55245000D01*
X114670426Y-55515182D01*
X114689250Y-55609818D01*
X114895903Y-55919097D01*
X114973972Y-55971261D01*
X115494589Y-56491878D01*
X115507913Y-56509900D01*
X115559591Y-56556880D01*
X115608970Y-56606259D01*
X115627604Y-56618710D01*
X122544588Y-62906877D01*
X124170269Y-64532559D01*
X123861073Y-64594062D01*
X123353327Y-64933327D01*
X123014062Y-65441073D01*
X122894928Y-66040000D01*
X122935208Y-66242503D01*
X122593970Y-66583741D01*
X122515904Y-66635903D01*
X122463742Y-66713969D01*
X122463741Y-66713970D01*
X122309250Y-66945182D01*
X122236683Y-67310000D01*
X122255001Y-67402090D01*
X122255000Y-74202914D01*
X122236683Y-74295000D01*
X122290426Y-74565182D01*
X122302333Y-74625044D01*
X122220000Y-74542711D01*
X122220000Y-68037086D01*
X122238317Y-67945000D01*
X122217524Y-67840464D01*
X122165750Y-67580181D01*
X121959097Y-67270903D01*
X121881028Y-67218739D01*
X121779221Y-67116932D01*
X122001740Y-66783909D01*
X122085000Y-66365333D01*
X122085000Y-63682667D01*
X122001740Y-63264091D01*
X121684577Y-62789423D01*
X121209909Y-62472260D01*
X120650000Y-62360887D01*
X120090092Y-62472260D01*
X119615424Y-62789423D01*
X119380001Y-63141759D01*
X119144577Y-62789423D01*
X118669909Y-62472260D01*
X118110000Y-62360887D01*
X117550092Y-62472260D01*
X117075424Y-62789423D01*
X116840001Y-63141759D01*
X116604577Y-62789423D01*
X116129909Y-62472260D01*
X115570000Y-62360887D01*
X115010092Y-62472260D01*
X114535424Y-62789423D01*
X114300001Y-63141759D01*
X114064577Y-62789423D01*
X113589909Y-62472260D01*
X113030000Y-62360887D01*
X112470092Y-62472260D01*
X111995424Y-62789423D01*
X111760001Y-63141759D01*
X111524577Y-62789423D01*
X111049909Y-62472260D01*
X110490000Y-62360887D01*
X109930092Y-62472260D01*
X109455424Y-62789423D01*
X109220001Y-63141759D01*
X108984577Y-62789423D01*
X108509909Y-62472260D01*
X107950000Y-62360887D01*
X107390092Y-62472260D01*
X106915424Y-62789423D01*
X106677501Y-63145500D01*
X106334896Y-62719500D01*
X105841819Y-62449633D01*
X105759039Y-62432096D01*
X105537000Y-62554085D01*
X105537000Y-64897000D01*
X105557000Y-64897000D01*
X105557000Y-65151000D01*
X105537000Y-65151000D01*
X105537000Y-67493915D01*
X105759039Y-67615904D01*
X105841819Y-67598367D01*
X106334896Y-67328500D01*
X106677501Y-66902501D01*
X106915423Y-67258576D01*
X107390091Y-67575740D01*
X107950000Y-67687113D01*
X108509908Y-67575740D01*
X108984576Y-67258577D01*
X109220000Y-66906241D01*
X109455423Y-67258576D01*
X109930091Y-67575740D01*
X110490000Y-67687113D01*
X111049908Y-67575740D01*
X111524576Y-67258577D01*
X111760000Y-66906241D01*
X111995423Y-67258576D01*
X112470091Y-67575740D01*
X113030000Y-67687113D01*
X113589908Y-67575740D01*
X114064576Y-67258577D01*
X114300000Y-66906241D01*
X114535423Y-67258576D01*
X115010091Y-67575740D01*
X115570000Y-67687113D01*
X116129908Y-67575740D01*
X116604576Y-67258577D01*
X116840000Y-66906241D01*
X117075423Y-67258576D01*
X117550091Y-67575740D01*
X118110000Y-67687113D01*
X118669908Y-67575740D01*
X119144576Y-67258577D01*
X119380000Y-66906241D01*
X119615423Y-67258576D01*
X119697342Y-67313313D01*
X119754043Y-67598367D01*
X119769250Y-67674818D01*
X119975903Y-67984097D01*
X120053972Y-68036261D01*
X120350001Y-68332290D01*
X120350000Y-74837914D01*
X120331683Y-74930000D01*
X120350000Y-75022085D01*
X120404250Y-75294818D01*
X120610903Y-75604097D01*
X120688972Y-75656261D01*
X121828741Y-76796031D01*
X121880903Y-76874097D01*
X122190181Y-77080750D01*
X122462914Y-77135000D01*
X122462917Y-77135000D01*
X122554999Y-77153316D01*
X122647081Y-77135000D01*
X154847914Y-77135000D01*
X154940000Y-77153317D01*
X155032086Y-77135000D01*
X155304819Y-77080750D01*
X155614097Y-76874097D01*
X155666261Y-76796028D01*
X159405988Y-73056301D01*
X160795000Y-73056301D01*
X160795000Y-74263699D01*
X161257051Y-75379189D01*
X162110811Y-76232949D01*
X163226301Y-76695000D01*
X164433699Y-76695000D01*
X165549189Y-76232949D01*
X166402949Y-75379189D01*
X166865000Y-74263699D01*
X166865000Y-73056301D01*
X166402949Y-71940811D01*
X165549189Y-71087051D01*
X164433699Y-70625000D01*
X163226301Y-70625000D01*
X162110811Y-71087051D01*
X161257051Y-71940811D01*
X160795000Y-73056301D01*
X159405988Y-73056301D01*
X164217289Y-68245000D01*
X165007914Y-68245000D01*
X165100000Y-68263317D01*
X165192086Y-68245000D01*
X165464819Y-68190750D01*
X165774097Y-67984097D01*
X165826261Y-67906028D01*
X166966031Y-66766259D01*
X167044097Y-66714097D01*
X167159563Y-66541290D01*
X167404577Y-66377577D01*
X167640001Y-66025241D01*
X167875424Y-66377577D01*
X168350092Y-66694740D01*
X168910000Y-66806113D01*
X169469909Y-66694740D01*
X169944577Y-66377577D01*
X170180001Y-66025241D01*
X170415424Y-66377577D01*
X170890092Y-66694740D01*
X171450000Y-66806113D01*
X172009909Y-66694740D01*
X172484577Y-66377577D01*
X172720001Y-66025241D01*
X172955424Y-66377577D01*
X173430092Y-66694740D01*
X173707334Y-66749887D01*
X169621684Y-70114541D01*
X169505903Y-70191903D01*
X169427650Y-70309017D01*
X169338487Y-70418041D01*
X169325072Y-70462537D01*
X169299250Y-70501182D01*
X169271772Y-70639325D01*
X169253445Y-70700111D01*
X169109376Y-70796375D01*
X168781161Y-71287582D01*
X168695000Y-71720744D01*
X168695000Y-73313255D01*
X168781161Y-73746417D01*
X169109375Y-74237625D01*
X169600582Y-74565839D01*
X170180000Y-74681092D01*
X170759417Y-74565839D01*
X171250625Y-74237625D01*
X171450000Y-73939239D01*
X171649375Y-74237625D01*
X172140582Y-74565839D01*
X172344015Y-74606304D01*
X174533741Y-76796031D01*
X174585903Y-76874097D01*
X174895181Y-77080750D01*
X175167914Y-77135000D01*
X175167918Y-77135000D01*
X175259999Y-77153316D01*
X175352080Y-77135000D01*
X190407914Y-77135000D01*
X190500000Y-77153317D01*
X190592086Y-77135000D01*
X190864819Y-77080750D01*
X191174097Y-76874097D01*
X191226261Y-76796028D01*
X193636031Y-74386259D01*
X193714097Y-74334097D01*
X193920750Y-74024819D01*
X193975000Y-73752086D01*
X193975000Y-73752082D01*
X193993316Y-73660001D01*
X193975000Y-73567920D01*
X193975000Y-46941381D01*
X194146673Y-46826673D01*
X194485938Y-46318927D01*
X194605072Y-45720000D01*
X194485938Y-45121073D01*
X194146673Y-44613327D01*
X193638927Y-44274062D01*
X193191182Y-44185000D01*
X192888818Y-44185000D01*
X192441073Y-44274062D01*
X191933327Y-44613327D01*
X191594062Y-45121073D01*
X191474928Y-45720000D01*
X191594062Y-46318927D01*
X191933327Y-46826673D01*
X192105000Y-46941381D01*
X192105001Y-73272709D01*
X190112711Y-75265000D01*
X175647290Y-75265000D01*
X175014561Y-74632271D01*
X175260000Y-74681092D01*
X175839417Y-74565839D01*
X176330625Y-74237625D01*
X176530000Y-73939239D01*
X176729375Y-74237625D01*
X177220582Y-74565839D01*
X177800000Y-74681092D01*
X178379417Y-74565839D01*
X178870625Y-74237625D01*
X179070000Y-73939239D01*
X179269375Y-74237625D01*
X179760582Y-74565839D01*
X180340000Y-74681092D01*
X180919417Y-74565839D01*
X181410625Y-74237625D01*
X181617232Y-73928416D01*
X181919749Y-74306856D01*
X182429048Y-74587562D01*
X182523110Y-74608476D01*
X182753000Y-74487155D01*
X182753000Y-72644000D01*
X182733000Y-72644000D01*
X182733000Y-72390000D01*
X182753000Y-72390000D01*
X182753000Y-72370000D01*
X183007000Y-72370000D01*
X183007000Y-72390000D01*
X183027000Y-72390000D01*
X183027000Y-72644000D01*
X183007000Y-72644000D01*
X183007000Y-74487155D01*
X183236890Y-74608476D01*
X183330952Y-74587562D01*
X183840251Y-74306856D01*
X184142769Y-73928416D01*
X184349375Y-74237625D01*
X184840582Y-74565839D01*
X185420000Y-74681092D01*
X185999417Y-74565839D01*
X186490625Y-74237625D01*
X186502816Y-74219381D01*
X186511843Y-74264765D01*
X186652191Y-74474809D01*
X186862235Y-74615157D01*
X187110000Y-74664440D01*
X188810000Y-74664440D01*
X189057765Y-74615157D01*
X189267809Y-74474809D01*
X189408157Y-74264765D01*
X189457440Y-74017000D01*
X189457440Y-73333881D01*
X189502086Y-73325000D01*
X189774819Y-73270750D01*
X190084097Y-73064097D01*
X190136261Y-72986028D01*
X191096031Y-72026259D01*
X191174097Y-71974097D01*
X191380750Y-71664819D01*
X191435000Y-71392086D01*
X191453317Y-71300000D01*
X191435000Y-71207914D01*
X191435000Y-54702081D01*
X191453316Y-54609999D01*
X191435000Y-54517915D01*
X191435000Y-54517914D01*
X191380750Y-54245181D01*
X191174097Y-53935903D01*
X191096031Y-53883741D01*
X189956261Y-52743972D01*
X189904097Y-52665903D01*
X189594819Y-52459250D01*
X189322086Y-52405000D01*
X189230000Y-52386683D01*
X189137914Y-52405000D01*
X187077290Y-52405000D01*
X186120863Y-51448573D01*
X186130092Y-51454740D01*
X186690000Y-51566113D01*
X187249909Y-51454740D01*
X187724577Y-51137577D01*
X188041740Y-50662909D01*
X188125000Y-50244333D01*
X188125000Y-48561667D01*
X188041740Y-48143091D01*
X187724576Y-47668423D01*
X187625000Y-47601888D01*
X187625000Y-47082081D01*
X187643316Y-46989999D01*
X187625000Y-46897915D01*
X187625000Y-46897914D01*
X187570750Y-46625181D01*
X187364097Y-46315903D01*
X187286031Y-46263741D01*
X186944792Y-45922502D01*
X186985072Y-45720000D01*
X186865938Y-45121073D01*
X186526673Y-44613327D01*
X186018927Y-44274062D01*
X185571182Y-44185000D01*
X185268818Y-44185000D01*
X184821073Y-44274062D01*
X184313327Y-44613327D01*
X183974062Y-45121073D01*
X183854928Y-45720000D01*
X183974062Y-46318927D01*
X184313327Y-46826673D01*
X184821073Y-47165938D01*
X185268818Y-47255000D01*
X185571182Y-47255000D01*
X185622502Y-47244792D01*
X185755000Y-47377290D01*
X185755000Y-47601888D01*
X185655423Y-47668424D01*
X185420000Y-48020759D01*
X185184576Y-47668423D01*
X184709908Y-47351260D01*
X184150000Y-47239887D01*
X183590091Y-47351260D01*
X183115423Y-47668424D01*
X182880000Y-48020759D01*
X182644576Y-47668423D01*
X182169908Y-47351260D01*
X181610000Y-47239887D01*
X181363339Y-47288951D01*
X181497290Y-47155000D01*
X181751333Y-47155000D01*
X182169909Y-47071740D01*
X182644577Y-46754577D01*
X182961740Y-46279909D01*
X183073113Y-45720000D01*
X182961740Y-45160091D01*
X182644577Y-44685423D01*
X182169909Y-44368260D01*
X181751333Y-44285000D01*
X181468667Y-44285000D01*
X181050091Y-44368260D01*
X180575423Y-44685423D01*
X180340000Y-45037758D01*
X180104577Y-44685423D01*
X180015855Y-44626141D01*
X180023317Y-44588629D01*
X179950750Y-44223811D01*
X179796259Y-43992599D01*
X179744097Y-43914533D01*
X179666030Y-43862371D01*
X179022631Y-43218972D01*
X178970467Y-43140903D01*
X178661189Y-42934250D01*
X178388456Y-42880000D01*
X178296370Y-42861683D01*
X178204284Y-42880000D01*
X177012289Y-42880000D01*
X179666031Y-40226259D01*
X179744097Y-40174097D01*
X179950750Y-39864819D01*
X180005000Y-39592086D01*
X180005000Y-39592083D01*
X180019807Y-39517642D01*
X180117765Y-39498157D01*
X180327809Y-39357809D01*
X180340000Y-39339564D01*
X180352191Y-39357809D01*
X180562235Y-39498157D01*
X180810000Y-39547440D01*
X182410000Y-39547440D01*
X182657765Y-39498157D01*
X182867809Y-39357809D01*
X183008157Y-39147765D01*
X183057440Y-38900000D01*
X183057440Y-37369301D01*
X187465000Y-37369301D01*
X187465000Y-38576699D01*
X187927051Y-39692189D01*
X188780811Y-40545949D01*
X189896301Y-41008000D01*
X191103699Y-41008000D01*
X192219189Y-40545949D01*
X193072949Y-39692189D01*
X193535000Y-38576699D01*
X193535000Y-37369301D01*
X193072949Y-36253811D01*
X192219189Y-35400051D01*
X191103699Y-34938000D01*
X189896301Y-34938000D01*
X188780811Y-35400051D01*
X187927051Y-36253811D01*
X187465000Y-37369301D01*
X183057440Y-37369301D01*
X183057440Y-37300000D01*
X183008157Y-37052235D01*
X182867809Y-36842191D01*
X182657765Y-36701843D01*
X182410000Y-36652560D01*
X180810000Y-36652560D01*
X180562235Y-36701843D01*
X180352191Y-36842191D01*
X180340000Y-36860436D01*
X180327809Y-36842191D01*
X180117765Y-36701843D01*
X179870000Y-36652560D01*
X178270000Y-36652560D01*
X178022235Y-36701843D01*
X177812191Y-36842191D01*
X177800000Y-36860436D01*
X177787809Y-36842191D01*
X177577765Y-36701843D01*
X177330000Y-36652560D01*
X175730000Y-36652560D01*
X175482235Y-36701843D01*
X175272191Y-36842191D01*
X175260000Y-36860436D01*
X175247809Y-36842191D01*
X175037765Y-36701843D01*
X174790000Y-36652560D01*
X173190000Y-36652560D01*
X172942235Y-36701843D01*
X172732191Y-36842191D01*
X172720000Y-36860436D01*
X172707809Y-36842191D01*
X172497765Y-36701843D01*
X172250000Y-36652560D01*
X170650000Y-36652560D01*
X170402235Y-36701843D01*
X170192191Y-36842191D01*
X170180000Y-36860436D01*
X170167809Y-36842191D01*
X169957765Y-36701843D01*
X169710000Y-36652560D01*
X168110000Y-36652560D01*
X167862235Y-36701843D01*
X167652191Y-36842191D01*
X167511843Y-37052235D01*
X167489413Y-37165000D01*
X162770533Y-37165000D01*
X162738157Y-37002235D01*
X162597809Y-36792191D01*
X162387765Y-36651843D01*
X162140000Y-36602560D01*
X160440000Y-36602560D01*
X160192235Y-36651843D01*
X159982191Y-36792191D01*
X159841843Y-37002235D01*
X159821261Y-37105708D01*
X159516924Y-36828355D01*
X159106890Y-36658524D01*
X158877000Y-36779845D01*
X158877000Y-37973000D01*
X158897000Y-37973000D01*
X158897000Y-38227000D01*
X158877000Y-38227000D01*
X158877000Y-40513000D01*
X158897000Y-40513000D01*
X158897000Y-40767000D01*
X158877000Y-40767000D01*
X158877000Y-43053000D01*
X158897000Y-43053000D01*
X158897000Y-43307000D01*
X158877000Y-43307000D01*
X158877000Y-44500155D01*
X159106890Y-44621476D01*
X159516924Y-44451645D01*
X159821261Y-44174292D01*
X159841843Y-44277765D01*
X159982191Y-44487809D01*
X160192235Y-44628157D01*
X160440000Y-44677440D01*
X162140000Y-44677440D01*
X162387765Y-44628157D01*
X162597809Y-44487809D01*
X162738157Y-44277765D01*
X162767997Y-44127748D01*
X162832086Y-44115000D01*
X163104819Y-44060750D01*
X163414097Y-43854097D01*
X163466261Y-43776028D01*
X163889290Y-43353000D01*
X164239710Y-43353000D01*
X162807711Y-44785000D01*
X147707290Y-44785000D01*
X146459182Y-43536892D01*
X157308514Y-43536892D01*
X157554817Y-44061358D01*
X157983076Y-44451645D01*
X158393110Y-44621476D01*
X158623000Y-44500155D01*
X158623000Y-43307000D01*
X157429181Y-43307000D01*
X157308514Y-43536892D01*
X146459182Y-43536892D01*
X143919182Y-40996892D01*
X157308514Y-40996892D01*
X157554817Y-41521358D01*
X157981271Y-41910000D01*
X157554817Y-42298642D01*
X157308514Y-42823108D01*
X157429181Y-43053000D01*
X158623000Y-43053000D01*
X158623000Y-40767000D01*
X157429181Y-40767000D01*
X157308514Y-40996892D01*
X143919182Y-40996892D01*
X141379182Y-38456892D01*
X157308514Y-38456892D01*
X157554817Y-38981358D01*
X157981271Y-39370000D01*
X157554817Y-39758642D01*
X157308514Y-40283108D01*
X157429181Y-40513000D01*
X158623000Y-40513000D01*
X158623000Y-38227000D01*
X157429181Y-38227000D01*
X157308514Y-38456892D01*
X141379182Y-38456892D01*
X140934261Y-38011972D01*
X140882097Y-37933903D01*
X140596553Y-37743108D01*
X157308514Y-37743108D01*
X157429181Y-37973000D01*
X158623000Y-37973000D01*
X158623000Y-36779845D01*
X158393110Y-36658524D01*
X157983076Y-36828355D01*
X157554817Y-37218642D01*
X157308514Y-37743108D01*
X140596553Y-37743108D01*
X140572819Y-37727250D01*
X140300086Y-37673000D01*
X140208000Y-37654683D01*
X140115914Y-37673000D01*
X137111381Y-37673000D01*
X136996673Y-37501327D01*
X136488927Y-37162062D01*
X136041182Y-37073000D01*
X135738818Y-37073000D01*
X135291073Y-37162062D01*
X134783327Y-37501327D01*
X134444062Y-38009073D01*
X134324928Y-38608000D01*
X134444062Y-39206927D01*
X134783327Y-39714673D01*
X135291073Y-40053938D01*
X135738818Y-40143000D01*
X136041182Y-40143000D01*
X136488927Y-40053938D01*
X136996673Y-39714673D01*
X137111381Y-39543000D01*
X139820711Y-39543000D01*
X146593740Y-46316030D01*
X146645903Y-46394097D01*
X146723969Y-46446259D01*
X146955181Y-46600750D01*
X147320000Y-46673317D01*
X147412086Y-46655000D01*
X163102914Y-46655000D01*
X163195000Y-46673317D01*
X163287086Y-46655000D01*
X163559819Y-46600750D01*
X163869097Y-46394097D01*
X163921261Y-46316028D01*
X165487290Y-44750000D01*
X167832274Y-44750000D01*
X167558260Y-45160091D01*
X167446887Y-45720000D01*
X167558260Y-46279909D01*
X167875423Y-46754577D01*
X168350091Y-47071740D01*
X168768667Y-47155000D01*
X169051333Y-47155000D01*
X169469909Y-47071740D01*
X169944577Y-46754577D01*
X170180000Y-46402242D01*
X170415423Y-46754577D01*
X170506186Y-46815223D01*
X170496683Y-46863000D01*
X170569250Y-47227818D01*
X170706405Y-47433085D01*
X170725303Y-47461368D01*
X170415423Y-47668424D01*
X170180000Y-48020759D01*
X169944576Y-47668423D01*
X169469908Y-47351260D01*
X168910000Y-47239887D01*
X168350091Y-47351260D01*
X167875423Y-47668424D01*
X167640000Y-48020759D01*
X167404576Y-47668423D01*
X166929908Y-47351260D01*
X166370000Y-47239887D01*
X165810091Y-47351260D01*
X165335423Y-47668424D01*
X165100000Y-48020759D01*
X164864576Y-47668423D01*
X164389908Y-47351260D01*
X163830000Y-47239887D01*
X163270091Y-47351260D01*
X162795423Y-47668424D01*
X162560000Y-48020759D01*
X162324576Y-47668423D01*
X161849908Y-47351260D01*
X161290000Y-47239887D01*
X160730091Y-47351260D01*
X160255423Y-47668424D01*
X160020000Y-48020759D01*
X159784576Y-47668423D01*
X159309908Y-47351260D01*
X158750000Y-47239887D01*
X158190091Y-47351260D01*
X157715423Y-47668424D01*
X157480000Y-48020759D01*
X157244576Y-47668423D01*
X156769908Y-47351260D01*
X156210000Y-47239887D01*
X155650091Y-47351260D01*
X155175423Y-47668424D01*
X154937501Y-48024499D01*
X154594896Y-47598500D01*
X154101819Y-47328633D01*
X154019039Y-47311096D01*
X153797000Y-47433085D01*
X153797000Y-49276000D01*
X153817000Y-49276000D01*
X153817000Y-49530000D01*
X153797000Y-49530000D01*
X153797000Y-49550000D01*
X153543000Y-49550000D01*
X153543000Y-49530000D01*
X153523000Y-49530000D01*
X153523000Y-49276000D01*
X153543000Y-49276000D01*
X153543000Y-47433085D01*
X153320961Y-47311096D01*
X153238181Y-47328633D01*
X152745104Y-47598500D01*
X152402499Y-48024499D01*
X152164576Y-47668423D01*
X151689908Y-47351260D01*
X151130000Y-47239887D01*
X150570091Y-47351260D01*
X150095423Y-47668424D01*
X149778260Y-48143092D01*
X149695000Y-48561668D01*
X149695000Y-50244333D01*
X149778261Y-50662909D01*
X149945109Y-50912614D01*
X145591008Y-46340809D01*
X145526193Y-46243807D01*
X145365482Y-46136423D01*
X145207488Y-46025189D01*
X145194720Y-46022324D01*
X145183837Y-46015052D01*
X144994273Y-45977345D01*
X144805730Y-45935038D01*
X144690794Y-45955000D01*
X142266959Y-45955000D01*
X136937912Y-40981223D01*
X136890193Y-40909807D01*
X136788823Y-40842074D01*
X136775679Y-40829806D01*
X136704196Y-40785528D01*
X136547837Y-40681052D01*
X136529708Y-40677446D01*
X136513997Y-40667714D01*
X136328428Y-40637409D01*
X136245935Y-40621000D01*
X136227951Y-40621000D01*
X136107633Y-40601351D01*
X136024023Y-40621000D01*
X134106431Y-40621000D01*
X133995744Y-40480404D01*
X133984156Y-40459959D01*
X133932786Y-40400434D01*
X133884168Y-40338679D01*
X133866315Y-40323411D01*
X133444994Y-39835206D01*
X133779938Y-39333927D01*
X133899072Y-38735000D01*
X133779938Y-38136073D01*
X133440673Y-37628327D01*
X132932927Y-37289062D01*
X132485182Y-37200000D01*
X132215005Y-37200000D01*
X132102837Y-37125052D01*
X131800935Y-37065000D01*
X131800934Y-37065000D01*
X131699000Y-37044724D01*
X131597066Y-37065000D01*
X127994396Y-37065000D01*
X127812862Y-36883466D01*
X127285439Y-36665000D01*
X126714561Y-36665000D01*
X126187138Y-36883466D01*
X125783466Y-37287138D01*
X125565000Y-37814561D01*
X125565000Y-37929868D01*
X123736480Y-39758389D01*
X123641712Y-39821711D01*
X123486543Y-40053938D01*
X123390854Y-40197146D01*
X123302765Y-40640000D01*
X123325001Y-40751788D01*
X123325000Y-42360201D01*
X121205707Y-44691424D01*
X120650000Y-44580887D01*
X120090092Y-44692260D01*
X119615424Y-45009423D01*
X119380001Y-45361759D01*
X119144577Y-45009423D01*
X118669909Y-44692260D01*
X118110000Y-44580887D01*
X117550092Y-44692260D01*
X117075424Y-45009423D01*
X116840001Y-45361759D01*
X116604577Y-45009423D01*
X116129909Y-44692260D01*
X115570000Y-44580887D01*
X115010092Y-44692260D01*
X114535424Y-45009423D01*
X114300001Y-45361759D01*
X114064577Y-45009423D01*
X113589909Y-44692260D01*
X113030000Y-44580887D01*
X112470092Y-44692260D01*
X111995424Y-45009423D01*
X111760001Y-45361759D01*
X111524577Y-45009423D01*
X111049909Y-44692260D01*
X110490000Y-44580887D01*
X110391886Y-44600403D01*
X112147289Y-42845000D01*
X117568753Y-42845000D01*
X117659375Y-42980625D01*
X118150582Y-43308839D01*
X118583744Y-43395000D01*
X120176256Y-43395000D01*
X120609418Y-43308839D01*
X121100625Y-42980625D01*
X121428839Y-42489418D01*
X121544092Y-41910000D01*
X121428839Y-41330582D01*
X121100625Y-40839375D01*
X121082381Y-40827184D01*
X121127765Y-40818157D01*
X121337809Y-40677809D01*
X121478157Y-40467765D01*
X121527440Y-40220000D01*
X121527440Y-38520000D01*
X121478157Y-38272235D01*
X121337809Y-38062191D01*
X121127765Y-37921843D01*
X120880000Y-37872560D01*
X117880000Y-37872560D01*
X117632235Y-37921843D01*
X117422191Y-38062191D01*
X117281843Y-38272235D01*
X117249467Y-38435000D01*
X110582086Y-38435000D01*
X110490000Y-38416683D01*
X110397914Y-38435000D01*
X110125181Y-38489250D01*
X109815903Y-38695903D01*
X109763739Y-38773972D01*
X106292711Y-42245000D01*
X104232081Y-42245000D01*
X104139999Y-42226684D01*
X104047917Y-42245000D01*
X104047914Y-42245000D01*
X103775181Y-42299250D01*
X103465903Y-42505903D01*
X103413741Y-42583969D01*
X102273972Y-43723739D01*
X102195903Y-43775903D01*
X102005575Y-44060750D01*
X101989250Y-44085182D01*
X101916683Y-44450000D01*
X101935000Y-44542086D01*
X101935000Y-44942888D01*
X101835424Y-45009423D01*
X101518261Y-45484091D01*
X101435001Y-45902667D01*
X101435000Y-48585332D01*
X99187000Y-48585332D01*
X99187000Y-37496301D01*
X101105000Y-37496301D01*
X101105000Y-38703699D01*
X101567051Y-39819189D01*
X102420811Y-40672949D01*
X103536301Y-41135000D01*
X104743699Y-41135000D01*
X105859189Y-40672949D01*
X106712949Y-39819189D01*
X107175000Y-38703699D01*
X107175000Y-37496301D01*
X106712949Y-36380811D01*
X105859189Y-35527051D01*
X104743699Y-35065000D01*
X103536301Y-35065000D01*
X102420811Y-35527051D01*
X101567051Y-36380811D01*
X101105000Y-37496301D01*
X99187000Y-37496301D01*
X99187000Y-33147000D01*
X195453000Y-33147000D01*
X195453000Y-78613000D01*
X195453000Y-78613000D01*
G37*
X195453000Y-78613000D02*
X99187000Y-78613000D01*
X99187000Y-73056301D01*
X101105000Y-73056301D01*
X101105000Y-74263699D01*
X101567051Y-75379189D01*
X102420811Y-76232949D01*
X103536301Y-76695000D01*
X104743699Y-76695000D01*
X105859189Y-76232949D01*
X106712949Y-75379189D01*
X107175000Y-74263699D01*
X107175000Y-73787000D01*
X112815000Y-73787000D01*
X112815000Y-74437000D01*
X112976640Y-74995618D01*
X113339749Y-75449856D01*
X113849048Y-75730562D01*
X113943110Y-75751476D01*
X114173000Y-75630155D01*
X114173000Y-73787000D01*
X112815000Y-73787000D01*
X107175000Y-73787000D01*
X107175000Y-73056301D01*
X107103217Y-72883000D01*
X112815000Y-72883000D01*
X112815000Y-73533000D01*
X114173000Y-73533000D01*
X114173000Y-71689845D01*
X114427000Y-71689845D01*
X114427000Y-73533000D01*
X114447000Y-73533000D01*
X114447000Y-73787000D01*
X114427000Y-73787000D01*
X114427000Y-75630155D01*
X114656890Y-75751476D01*
X114750952Y-75730562D01*
X115260251Y-75449856D01*
X115372327Y-75309652D01*
X115391843Y-75407765D01*
X115532191Y-75617809D01*
X115742235Y-75758157D01*
X115990000Y-75807440D01*
X117690000Y-75807440D01*
X117937765Y-75758157D01*
X118147809Y-75617809D01*
X118288157Y-75407765D01*
X118337440Y-75160000D01*
X118337440Y-72160000D01*
X118288157Y-71912235D01*
X118147809Y-71702191D01*
X118081094Y-71657613D01*
X118141605Y-71585000D01*
X118280880Y-71585000D01*
X118786963Y-71484334D01*
X119360865Y-71100865D01*
X119744334Y-70526963D01*
X119878990Y-69850000D01*
X119744334Y-69173037D01*
X119360865Y-68599135D01*
X118786963Y-68215666D01*
X118280880Y-68115000D01*
X117939120Y-68115000D01*
X117433037Y-68215666D01*
X116859135Y-68599135D01*
X116475666Y-69173037D01*
X116341010Y-69850000D01*
X116397192Y-70132444D01*
X116073063Y-70521399D01*
X116021711Y-70555711D01*
X115929636Y-70693511D01*
X115896508Y-70733265D01*
X115867685Y-70786228D01*
X115770854Y-70931146D01*
X115760505Y-70983172D01*
X115735151Y-71029761D01*
X115716766Y-71203066D01*
X115705000Y-71262218D01*
X115705000Y-71313978D01*
X115687518Y-71478771D01*
X115705000Y-71538001D01*
X115705000Y-71586723D01*
X115532191Y-71702191D01*
X115391843Y-71912235D01*
X115372327Y-72010348D01*
X115260251Y-71870144D01*
X114750952Y-71589438D01*
X114656890Y-71568524D01*
X114427000Y-71689845D01*
X114173000Y-71689845D01*
X113943110Y-71568524D01*
X113849048Y-71589438D01*
X113339749Y-71870144D01*
X112976640Y-72324382D01*
X112815000Y-72883000D01*
X107103217Y-72883000D01*
X106712949Y-71940811D01*
X105859189Y-71087051D01*
X104743699Y-70625000D01*
X103536301Y-70625000D01*
X102420811Y-71087051D01*
X101567051Y-71940811D01*
X101105000Y-73056301D01*
X99187000Y-73056301D01*
X99187000Y-66365332D01*
X101435000Y-66365332D01*
X101518260Y-66783908D01*
X101835423Y-67258576D01*
X102310091Y-67575740D01*
X102870000Y-67687113D01*
X103429908Y-67575740D01*
X103904576Y-67258577D01*
X104142499Y-66902501D01*
X104485104Y-67328500D01*
X104978181Y-67598367D01*
X105060961Y-67615904D01*
X105283000Y-67493915D01*
X105283000Y-65151000D01*
X105263000Y-65151000D01*
X105263000Y-64897000D01*
X105283000Y-64897000D01*
X105283000Y-62554085D01*
X105060961Y-62432096D01*
X104978181Y-62449633D01*
X104485104Y-62719500D01*
X104142499Y-63145499D01*
X103904577Y-62789423D01*
X103429909Y-62472260D01*
X102870000Y-62360887D01*
X102310092Y-62472260D01*
X101835424Y-62789423D01*
X101518261Y-63264091D01*
X101435001Y-63682667D01*
X101435000Y-66365332D01*
X99187000Y-66365332D01*
X99187000Y-48585332D01*
X101435000Y-48585332D01*
X101518260Y-49003908D01*
X101835423Y-49478576D01*
X102310091Y-49795740D01*
X102870000Y-49907113D01*
X103429908Y-49795740D01*
X103904576Y-49478577D01*
X104142499Y-49122501D01*
X104485104Y-49548500D01*
X104978181Y-49818367D01*
X105060961Y-49835904D01*
X105283000Y-49713915D01*
X105283000Y-47371000D01*
X105263000Y-47371000D01*
X105263000Y-47117000D01*
X105283000Y-47117000D01*
X105283000Y-44774085D01*
X105060961Y-44652096D01*
X104978181Y-44669633D01*
X104485104Y-44939500D01*
X104142499Y-45365499D01*
X103904577Y-45009423D01*
X103805000Y-44942888D01*
X103805000Y-44837289D01*
X104527290Y-44115000D01*
X106587914Y-44115000D01*
X106680000Y-44133317D01*
X106772086Y-44115000D01*
X107044819Y-44060750D01*
X107354097Y-43854097D01*
X107406261Y-43776028D01*
X110877289Y-40305000D01*
X117249467Y-40305000D01*
X117281843Y-40467765D01*
X117422191Y-40677809D01*
X117632235Y-40818157D01*
X117677619Y-40827184D01*
X117659375Y-40839375D01*
X117568753Y-40975000D01*
X111852086Y-40975000D01*
X111760000Y-40956683D01*
X111667914Y-40975000D01*
X111395181Y-41029250D01*
X111085903Y-41235903D01*
X111033739Y-41313972D01*
X107721341Y-44626370D01*
X107390092Y-44692260D01*
X106915424Y-45009423D01*
X106677501Y-45365500D01*
X106334896Y-44939500D01*
X105841819Y-44669633D01*
X105759039Y-44652096D01*
X105537000Y-44774085D01*
X105537000Y-47117000D01*
X105557000Y-47117000D01*
X105557000Y-47371000D01*
X105537000Y-47371000D01*
X105537000Y-49713915D01*
X105759039Y-49835904D01*
X105841819Y-49818367D01*
X106334896Y-49548500D01*
X106677501Y-49122501D01*
X106915423Y-49478576D01*
X107390091Y-49795740D01*
X107950000Y-49907113D01*
X108509908Y-49795740D01*
X108984576Y-49478577D01*
X109220000Y-49126241D01*
X109455423Y-49478576D01*
X109930091Y-49795740D01*
X110490000Y-49907113D01*
X111049908Y-49795740D01*
X111524576Y-49478577D01*
X111760000Y-49126241D01*
X111995423Y-49478576D01*
X112470091Y-49795740D01*
X113030000Y-49907113D01*
X113589908Y-49795740D01*
X114064576Y-49478577D01*
X114300000Y-49126241D01*
X114535423Y-49478576D01*
X114635001Y-49545112D01*
X114635000Y-55152914D01*
X114616683Y-55245000D01*
X114670426Y-55515182D01*
X114689250Y-55609818D01*
X114895903Y-55919097D01*
X114973972Y-55971261D01*
X115494589Y-56491878D01*
X115507913Y-56509900D01*
X115559591Y-56556880D01*
X115608970Y-56606259D01*
X115627604Y-56618710D01*
X122544588Y-62906877D01*
X124170269Y-64532559D01*
X123861073Y-64594062D01*
X123353327Y-64933327D01*
X123014062Y-65441073D01*
X122894928Y-66040000D01*
X122935208Y-66242503D01*
X122593970Y-66583741D01*
X122515904Y-66635903D01*
X122463742Y-66713969D01*
X122463741Y-66713970D01*
X122309250Y-66945182D01*
X122236683Y-67310000D01*
X122255001Y-67402090D01*
X122255000Y-74202914D01*
X122236683Y-74295000D01*
X122290426Y-74565182D01*
X122302333Y-74625044D01*
X122220000Y-74542711D01*
X122220000Y-68037086D01*
X122238317Y-67945000D01*
X122217524Y-67840464D01*
X122165750Y-67580181D01*
X121959097Y-67270903D01*
X121881028Y-67218739D01*
X121779221Y-67116932D01*
X122001740Y-66783909D01*
X122085000Y-66365333D01*
X122085000Y-63682667D01*
X122001740Y-63264091D01*
X121684577Y-62789423D01*
X121209909Y-62472260D01*
X120650000Y-62360887D01*
X120090092Y-62472260D01*
X119615424Y-62789423D01*
X119380001Y-63141759D01*
X119144577Y-62789423D01*
X118669909Y-62472260D01*
X118110000Y-62360887D01*
X117550092Y-62472260D01*
X117075424Y-62789423D01*
X116840001Y-63141759D01*
X116604577Y-62789423D01*
X116129909Y-62472260D01*
X115570000Y-62360887D01*
X115010092Y-62472260D01*
X114535424Y-62789423D01*
X114300001Y-63141759D01*
X114064577Y-62789423D01*
X113589909Y-62472260D01*
X113030000Y-62360887D01*
X112470092Y-62472260D01*
X111995424Y-62789423D01*
X111760001Y-63141759D01*
X111524577Y-62789423D01*
X111049909Y-62472260D01*
X110490000Y-62360887D01*
X109930092Y-62472260D01*
X109455424Y-62789423D01*
X109220001Y-63141759D01*
X108984577Y-62789423D01*
X108509909Y-62472260D01*
X107950000Y-62360887D01*
X107390092Y-62472260D01*
X106915424Y-62789423D01*
X106677501Y-63145500D01*
X106334896Y-62719500D01*
X105841819Y-62449633D01*
X105759039Y-62432096D01*
X105537000Y-62554085D01*
X105537000Y-64897000D01*
X105557000Y-64897000D01*
X105557000Y-65151000D01*
X105537000Y-65151000D01*
X105537000Y-67493915D01*
X105759039Y-67615904D01*
X105841819Y-67598367D01*
X106334896Y-67328500D01*
X106677501Y-66902501D01*
X106915423Y-67258576D01*
X107390091Y-67575740D01*
X107950000Y-67687113D01*
X108509908Y-67575740D01*
X108984576Y-67258577D01*
X109220000Y-66906241D01*
X109455423Y-67258576D01*
X109930091Y-67575740D01*
X110490000Y-67687113D01*
X111049908Y-67575740D01*
X111524576Y-67258577D01*
X111760000Y-66906241D01*
X111995423Y-67258576D01*
X112470091Y-67575740D01*
X113030000Y-67687113D01*
X113589908Y-67575740D01*
X114064576Y-67258577D01*
X114300000Y-66906241D01*
X114535423Y-67258576D01*
X115010091Y-67575740D01*
X115570000Y-67687113D01*
X116129908Y-67575740D01*
X116604576Y-67258577D01*
X116840000Y-66906241D01*
X117075423Y-67258576D01*
X117550091Y-67575740D01*
X118110000Y-67687113D01*
X118669908Y-67575740D01*
X119144576Y-67258577D01*
X119380000Y-66906241D01*
X119615423Y-67258576D01*
X119697342Y-67313313D01*
X119754043Y-67598367D01*
X119769250Y-67674818D01*
X119975903Y-67984097D01*
X120053972Y-68036261D01*
X120350001Y-68332290D01*
X120350000Y-74837914D01*
X120331683Y-74930000D01*
X120350000Y-75022085D01*
X120404250Y-75294818D01*
X120610903Y-75604097D01*
X120688972Y-75656261D01*
X121828741Y-76796031D01*
X121880903Y-76874097D01*
X122190181Y-77080750D01*
X122462914Y-77135000D01*
X122462917Y-77135000D01*
X122554999Y-77153316D01*
X122647081Y-77135000D01*
X154847914Y-77135000D01*
X154940000Y-77153317D01*
X155032086Y-77135000D01*
X155304819Y-77080750D01*
X155614097Y-76874097D01*
X155666261Y-76796028D01*
X159405988Y-73056301D01*
X160795000Y-73056301D01*
X160795000Y-74263699D01*
X161257051Y-75379189D01*
X162110811Y-76232949D01*
X163226301Y-76695000D01*
X164433699Y-76695000D01*
X165549189Y-76232949D01*
X166402949Y-75379189D01*
X166865000Y-74263699D01*
X166865000Y-73056301D01*
X166402949Y-71940811D01*
X165549189Y-71087051D01*
X164433699Y-70625000D01*
X163226301Y-70625000D01*
X162110811Y-71087051D01*
X161257051Y-71940811D01*
X160795000Y-73056301D01*
X159405988Y-73056301D01*
X164217289Y-68245000D01*
X165007914Y-68245000D01*
X165100000Y-68263317D01*
X165192086Y-68245000D01*
X165464819Y-68190750D01*
X165774097Y-67984097D01*
X165826261Y-67906028D01*
X166966031Y-66766259D01*
X167044097Y-66714097D01*
X167159563Y-66541290D01*
X167404577Y-66377577D01*
X167640001Y-66025241D01*
X167875424Y-66377577D01*
X168350092Y-66694740D01*
X168910000Y-66806113D01*
X169469909Y-66694740D01*
X169944577Y-66377577D01*
X170180001Y-66025241D01*
X170415424Y-66377577D01*
X170890092Y-66694740D01*
X171450000Y-66806113D01*
X172009909Y-66694740D01*
X172484577Y-66377577D01*
X172720001Y-66025241D01*
X172955424Y-66377577D01*
X173430092Y-66694740D01*
X173707334Y-66749887D01*
X169621684Y-70114541D01*
X169505903Y-70191903D01*
X169427650Y-70309017D01*
X169338487Y-70418041D01*
X169325072Y-70462537D01*
X169299250Y-70501182D01*
X169271772Y-70639325D01*
X169253445Y-70700111D01*
X169109376Y-70796375D01*
X168781161Y-71287582D01*
X168695000Y-71720744D01*
X168695000Y-73313255D01*
X168781161Y-73746417D01*
X169109375Y-74237625D01*
X169600582Y-74565839D01*
X170180000Y-74681092D01*
X170759417Y-74565839D01*
X171250625Y-74237625D01*
X171450000Y-73939239D01*
X171649375Y-74237625D01*
X172140582Y-74565839D01*
X172344015Y-74606304D01*
X174533741Y-76796031D01*
X174585903Y-76874097D01*
X174895181Y-77080750D01*
X175167914Y-77135000D01*
X175167918Y-77135000D01*
X175259999Y-77153316D01*
X175352080Y-77135000D01*
X190407914Y-77135000D01*
X190500000Y-77153317D01*
X190592086Y-77135000D01*
X190864819Y-77080750D01*
X191174097Y-76874097D01*
X191226261Y-76796028D01*
X193636031Y-74386259D01*
X193714097Y-74334097D01*
X193920750Y-74024819D01*
X193975000Y-73752086D01*
X193975000Y-73752082D01*
X193993316Y-73660001D01*
X193975000Y-73567920D01*
X193975000Y-46941381D01*
X194146673Y-46826673D01*
X194485938Y-46318927D01*
X194605072Y-45720000D01*
X194485938Y-45121073D01*
X194146673Y-44613327D01*
X193638927Y-44274062D01*
X193191182Y-44185000D01*
X192888818Y-44185000D01*
X192441073Y-44274062D01*
X191933327Y-44613327D01*
X191594062Y-45121073D01*
X191474928Y-45720000D01*
X191594062Y-46318927D01*
X191933327Y-46826673D01*
X192105000Y-46941381D01*
X192105001Y-73272709D01*
X190112711Y-75265000D01*
X175647290Y-75265000D01*
X175014561Y-74632271D01*
X175260000Y-74681092D01*
X175839417Y-74565839D01*
X176330625Y-74237625D01*
X176530000Y-73939239D01*
X176729375Y-74237625D01*
X177220582Y-74565839D01*
X177800000Y-74681092D01*
X178379417Y-74565839D01*
X178870625Y-74237625D01*
X179070000Y-73939239D01*
X179269375Y-74237625D01*
X179760582Y-74565839D01*
X180340000Y-74681092D01*
X180919417Y-74565839D01*
X181410625Y-74237625D01*
X181617232Y-73928416D01*
X181919749Y-74306856D01*
X182429048Y-74587562D01*
X182523110Y-74608476D01*
X182753000Y-74487155D01*
X182753000Y-72644000D01*
X182733000Y-72644000D01*
X182733000Y-72390000D01*
X182753000Y-72390000D01*
X182753000Y-72370000D01*
X183007000Y-72370000D01*
X183007000Y-72390000D01*
X183027000Y-72390000D01*
X183027000Y-72644000D01*
X183007000Y-72644000D01*
X183007000Y-74487155D01*
X183236890Y-74608476D01*
X183330952Y-74587562D01*
X183840251Y-74306856D01*
X184142769Y-73928416D01*
X184349375Y-74237625D01*
X184840582Y-74565839D01*
X185420000Y-74681092D01*
X185999417Y-74565839D01*
X186490625Y-74237625D01*
X186502816Y-74219381D01*
X186511843Y-74264765D01*
X186652191Y-74474809D01*
X186862235Y-74615157D01*
X187110000Y-74664440D01*
X188810000Y-74664440D01*
X189057765Y-74615157D01*
X189267809Y-74474809D01*
X189408157Y-74264765D01*
X189457440Y-74017000D01*
X189457440Y-73333881D01*
X189502086Y-73325000D01*
X189774819Y-73270750D01*
X190084097Y-73064097D01*
X190136261Y-72986028D01*
X191096031Y-72026259D01*
X191174097Y-71974097D01*
X191380750Y-71664819D01*
X191435000Y-71392086D01*
X191453317Y-71300000D01*
X191435000Y-71207914D01*
X191435000Y-54702081D01*
X191453316Y-54609999D01*
X191435000Y-54517915D01*
X191435000Y-54517914D01*
X191380750Y-54245181D01*
X191174097Y-53935903D01*
X191096031Y-53883741D01*
X189956261Y-52743972D01*
X189904097Y-52665903D01*
X189594819Y-52459250D01*
X189322086Y-52405000D01*
X189230000Y-52386683D01*
X189137914Y-52405000D01*
X187077290Y-52405000D01*
X186120863Y-51448573D01*
X186130092Y-51454740D01*
X186690000Y-51566113D01*
X187249909Y-51454740D01*
X187724577Y-51137577D01*
X188041740Y-50662909D01*
X188125000Y-50244333D01*
X188125000Y-48561667D01*
X188041740Y-48143091D01*
X187724576Y-47668423D01*
X187625000Y-47601888D01*
X187625000Y-47082081D01*
X187643316Y-46989999D01*
X187625000Y-46897915D01*
X187625000Y-46897914D01*
X187570750Y-46625181D01*
X187364097Y-46315903D01*
X187286031Y-46263741D01*
X186944792Y-45922502D01*
X186985072Y-45720000D01*
X186865938Y-45121073D01*
X186526673Y-44613327D01*
X186018927Y-44274062D01*
X185571182Y-44185000D01*
X185268818Y-44185000D01*
X184821073Y-44274062D01*
X184313327Y-44613327D01*
X183974062Y-45121073D01*
X183854928Y-45720000D01*
X183974062Y-46318927D01*
X184313327Y-46826673D01*
X184821073Y-47165938D01*
X185268818Y-47255000D01*
X185571182Y-47255000D01*
X185622502Y-47244792D01*
X185755000Y-47377290D01*
X185755000Y-47601888D01*
X185655423Y-47668424D01*
X185420000Y-48020759D01*
X185184576Y-47668423D01*
X184709908Y-47351260D01*
X184150000Y-47239887D01*
X183590091Y-47351260D01*
X183115423Y-47668424D01*
X182880000Y-48020759D01*
X182644576Y-47668423D01*
X182169908Y-47351260D01*
X181610000Y-47239887D01*
X181363339Y-47288951D01*
X181497290Y-47155000D01*
X181751333Y-47155000D01*
X182169909Y-47071740D01*
X182644577Y-46754577D01*
X182961740Y-46279909D01*
X183073113Y-45720000D01*
X182961740Y-45160091D01*
X182644577Y-44685423D01*
X182169909Y-44368260D01*
X181751333Y-44285000D01*
X181468667Y-44285000D01*
X181050091Y-44368260D01*
X180575423Y-44685423D01*
X180340000Y-45037758D01*
X180104577Y-44685423D01*
X180015855Y-44626141D01*
X180023317Y-44588629D01*
X179950750Y-44223811D01*
X179796259Y-43992599D01*
X179744097Y-43914533D01*
X179666030Y-43862371D01*
X179022631Y-43218972D01*
X178970467Y-43140903D01*
X178661189Y-42934250D01*
X178388456Y-42880000D01*
X178296370Y-42861683D01*
X178204284Y-42880000D01*
X177012289Y-42880000D01*
X179666031Y-40226259D01*
X179744097Y-40174097D01*
X179950750Y-39864819D01*
X180005000Y-39592086D01*
X180005000Y-39592083D01*
X180019807Y-39517642D01*
X180117765Y-39498157D01*
X180327809Y-39357809D01*
X180340000Y-39339564D01*
X180352191Y-39357809D01*
X180562235Y-39498157D01*
X180810000Y-39547440D01*
X182410000Y-39547440D01*
X182657765Y-39498157D01*
X182867809Y-39357809D01*
X183008157Y-39147765D01*
X183057440Y-38900000D01*
X183057440Y-37369301D01*
X187465000Y-37369301D01*
X187465000Y-38576699D01*
X187927051Y-39692189D01*
X188780811Y-40545949D01*
X189896301Y-41008000D01*
X191103699Y-41008000D01*
X192219189Y-40545949D01*
X193072949Y-39692189D01*
X193535000Y-38576699D01*
X193535000Y-37369301D01*
X193072949Y-36253811D01*
X192219189Y-35400051D01*
X191103699Y-34938000D01*
X189896301Y-34938000D01*
X188780811Y-35400051D01*
X187927051Y-36253811D01*
X187465000Y-37369301D01*
X183057440Y-37369301D01*
X183057440Y-37300000D01*
X183008157Y-37052235D01*
X182867809Y-36842191D01*
X182657765Y-36701843D01*
X182410000Y-36652560D01*
X180810000Y-36652560D01*
X180562235Y-36701843D01*
X180352191Y-36842191D01*
X180340000Y-36860436D01*
X180327809Y-36842191D01*
X180117765Y-36701843D01*
X179870000Y-36652560D01*
X178270000Y-36652560D01*
X178022235Y-36701843D01*
X177812191Y-36842191D01*
X177800000Y-36860436D01*
X177787809Y-36842191D01*
X177577765Y-36701843D01*
X177330000Y-36652560D01*
X175730000Y-36652560D01*
X175482235Y-36701843D01*
X175272191Y-36842191D01*
X175260000Y-36860436D01*
X175247809Y-36842191D01*
X175037765Y-36701843D01*
X174790000Y-36652560D01*
X173190000Y-36652560D01*
X172942235Y-36701843D01*
X172732191Y-36842191D01*
X172720000Y-36860436D01*
X172707809Y-36842191D01*
X172497765Y-36701843D01*
X172250000Y-36652560D01*
X170650000Y-36652560D01*
X170402235Y-36701843D01*
X170192191Y-36842191D01*
X170180000Y-36860436D01*
X170167809Y-36842191D01*
X169957765Y-36701843D01*
X169710000Y-36652560D01*
X168110000Y-36652560D01*
X167862235Y-36701843D01*
X167652191Y-36842191D01*
X167511843Y-37052235D01*
X167489413Y-37165000D01*
X162770533Y-37165000D01*
X162738157Y-37002235D01*
X162597809Y-36792191D01*
X162387765Y-36651843D01*
X162140000Y-36602560D01*
X160440000Y-36602560D01*
X160192235Y-36651843D01*
X159982191Y-36792191D01*
X159841843Y-37002235D01*
X159821261Y-37105708D01*
X159516924Y-36828355D01*
X159106890Y-36658524D01*
X158877000Y-36779845D01*
X158877000Y-37973000D01*
X158897000Y-37973000D01*
X158897000Y-38227000D01*
X158877000Y-38227000D01*
X158877000Y-40513000D01*
X158897000Y-40513000D01*
X158897000Y-40767000D01*
X158877000Y-40767000D01*
X158877000Y-43053000D01*
X158897000Y-43053000D01*
X158897000Y-43307000D01*
X158877000Y-43307000D01*
X158877000Y-44500155D01*
X159106890Y-44621476D01*
X159516924Y-44451645D01*
X159821261Y-44174292D01*
X159841843Y-44277765D01*
X159982191Y-44487809D01*
X160192235Y-44628157D01*
X160440000Y-44677440D01*
X162140000Y-44677440D01*
X162387765Y-44628157D01*
X162597809Y-44487809D01*
X162738157Y-44277765D01*
X162767997Y-44127748D01*
X162832086Y-44115000D01*
X163104819Y-44060750D01*
X163414097Y-43854097D01*
X163466261Y-43776028D01*
X163889290Y-43353000D01*
X164239710Y-43353000D01*
X162807711Y-44785000D01*
X147707290Y-44785000D01*
X146459182Y-43536892D01*
X157308514Y-43536892D01*
X157554817Y-44061358D01*
X157983076Y-44451645D01*
X158393110Y-44621476D01*
X158623000Y-44500155D01*
X158623000Y-43307000D01*
X157429181Y-43307000D01*
X157308514Y-43536892D01*
X146459182Y-43536892D01*
X143919182Y-40996892D01*
X157308514Y-40996892D01*
X157554817Y-41521358D01*
X157981271Y-41910000D01*
X157554817Y-42298642D01*
X157308514Y-42823108D01*
X157429181Y-43053000D01*
X158623000Y-43053000D01*
X158623000Y-40767000D01*
X157429181Y-40767000D01*
X157308514Y-40996892D01*
X143919182Y-40996892D01*
X141379182Y-38456892D01*
X157308514Y-38456892D01*
X157554817Y-38981358D01*
X157981271Y-39370000D01*
X157554817Y-39758642D01*
X157308514Y-40283108D01*
X157429181Y-40513000D01*
X158623000Y-40513000D01*
X158623000Y-38227000D01*
X157429181Y-38227000D01*
X157308514Y-38456892D01*
X141379182Y-38456892D01*
X140934261Y-38011972D01*
X140882097Y-37933903D01*
X140596553Y-37743108D01*
X157308514Y-37743108D01*
X157429181Y-37973000D01*
X158623000Y-37973000D01*
X158623000Y-36779845D01*
X158393110Y-36658524D01*
X157983076Y-36828355D01*
X157554817Y-37218642D01*
X157308514Y-37743108D01*
X140596553Y-37743108D01*
X140572819Y-37727250D01*
X140300086Y-37673000D01*
X140208000Y-37654683D01*
X140115914Y-37673000D01*
X137111381Y-37673000D01*
X136996673Y-37501327D01*
X136488927Y-37162062D01*
X136041182Y-37073000D01*
X135738818Y-37073000D01*
X135291073Y-37162062D01*
X134783327Y-37501327D01*
X134444062Y-38009073D01*
X134324928Y-38608000D01*
X134444062Y-39206927D01*
X134783327Y-39714673D01*
X135291073Y-40053938D01*
X135738818Y-40143000D01*
X136041182Y-40143000D01*
X136488927Y-40053938D01*
X136996673Y-39714673D01*
X137111381Y-39543000D01*
X139820711Y-39543000D01*
X146593740Y-46316030D01*
X146645903Y-46394097D01*
X146723969Y-46446259D01*
X146955181Y-46600750D01*
X147320000Y-46673317D01*
X147412086Y-46655000D01*
X163102914Y-46655000D01*
X163195000Y-46673317D01*
X163287086Y-46655000D01*
X163559819Y-46600750D01*
X163869097Y-46394097D01*
X163921261Y-46316028D01*
X165487290Y-44750000D01*
X167832274Y-44750000D01*
X167558260Y-45160091D01*
X167446887Y-45720000D01*
X167558260Y-46279909D01*
X167875423Y-46754577D01*
X168350091Y-47071740D01*
X168768667Y-47155000D01*
X169051333Y-47155000D01*
X169469909Y-47071740D01*
X169944577Y-46754577D01*
X170180000Y-46402242D01*
X170415423Y-46754577D01*
X170506186Y-46815223D01*
X170496683Y-46863000D01*
X170569250Y-47227818D01*
X170706405Y-47433085D01*
X170725303Y-47461368D01*
X170415423Y-47668424D01*
X170180000Y-48020759D01*
X169944576Y-47668423D01*
X169469908Y-47351260D01*
X168910000Y-47239887D01*
X168350091Y-47351260D01*
X167875423Y-47668424D01*
X167640000Y-48020759D01*
X167404576Y-47668423D01*
X166929908Y-47351260D01*
X166370000Y-47239887D01*
X165810091Y-47351260D01*
X165335423Y-47668424D01*
X165100000Y-48020759D01*
X164864576Y-47668423D01*
X164389908Y-47351260D01*
X163830000Y-47239887D01*
X163270091Y-47351260D01*
X162795423Y-47668424D01*
X162560000Y-48020759D01*
X162324576Y-47668423D01*
X161849908Y-47351260D01*
X161290000Y-47239887D01*
X160730091Y-47351260D01*
X160255423Y-47668424D01*
X160020000Y-48020759D01*
X159784576Y-47668423D01*
X159309908Y-47351260D01*
X158750000Y-47239887D01*
X158190091Y-47351260D01*
X157715423Y-47668424D01*
X157480000Y-48020759D01*
X157244576Y-47668423D01*
X156769908Y-47351260D01*
X156210000Y-47239887D01*
X155650091Y-47351260D01*
X155175423Y-47668424D01*
X154937501Y-48024499D01*
X154594896Y-47598500D01*
X154101819Y-47328633D01*
X154019039Y-47311096D01*
X153797000Y-47433085D01*
X153797000Y-49276000D01*
X153817000Y-49276000D01*
X153817000Y-49530000D01*
X153797000Y-49530000D01*
X153797000Y-49550000D01*
X153543000Y-49550000D01*
X153543000Y-49530000D01*
X153523000Y-49530000D01*
X153523000Y-49276000D01*
X153543000Y-49276000D01*
X153543000Y-47433085D01*
X153320961Y-47311096D01*
X153238181Y-47328633D01*
X152745104Y-47598500D01*
X152402499Y-48024499D01*
X152164576Y-47668423D01*
X151689908Y-47351260D01*
X151130000Y-47239887D01*
X150570091Y-47351260D01*
X150095423Y-47668424D01*
X149778260Y-48143092D01*
X149695000Y-48561668D01*
X149695000Y-50244333D01*
X149778261Y-50662909D01*
X149945109Y-50912614D01*
X145591008Y-46340809D01*
X145526193Y-46243807D01*
X145365482Y-46136423D01*
X145207488Y-46025189D01*
X145194720Y-46022324D01*
X145183837Y-46015052D01*
X144994273Y-45977345D01*
X144805730Y-45935038D01*
X144690794Y-45955000D01*
X142266959Y-45955000D01*
X136937912Y-40981223D01*
X136890193Y-40909807D01*
X136788823Y-40842074D01*
X136775679Y-40829806D01*
X136704196Y-40785528D01*
X136547837Y-40681052D01*
X136529708Y-40677446D01*
X136513997Y-40667714D01*
X136328428Y-40637409D01*
X136245935Y-40621000D01*
X136227951Y-40621000D01*
X136107633Y-40601351D01*
X136024023Y-40621000D01*
X134106431Y-40621000D01*
X133995744Y-40480404D01*
X133984156Y-40459959D01*
X133932786Y-40400434D01*
X133884168Y-40338679D01*
X133866315Y-40323411D01*
X133444994Y-39835206D01*
X133779938Y-39333927D01*
X133899072Y-38735000D01*
X133779938Y-38136073D01*
X133440673Y-37628327D01*
X132932927Y-37289062D01*
X132485182Y-37200000D01*
X132215005Y-37200000D01*
X132102837Y-37125052D01*
X131800935Y-37065000D01*
X131800934Y-37065000D01*
X131699000Y-37044724D01*
X131597066Y-37065000D01*
X127994396Y-37065000D01*
X127812862Y-36883466D01*
X127285439Y-36665000D01*
X126714561Y-36665000D01*
X126187138Y-36883466D01*
X125783466Y-37287138D01*
X125565000Y-37814561D01*
X125565000Y-37929868D01*
X123736480Y-39758389D01*
X123641712Y-39821711D01*
X123486543Y-40053938D01*
X123390854Y-40197146D01*
X123302765Y-40640000D01*
X123325001Y-40751788D01*
X123325000Y-42360201D01*
X121205707Y-44691424D01*
X120650000Y-44580887D01*
X120090092Y-44692260D01*
X119615424Y-45009423D01*
X119380001Y-45361759D01*
X119144577Y-45009423D01*
X118669909Y-44692260D01*
X118110000Y-44580887D01*
X117550092Y-44692260D01*
X117075424Y-45009423D01*
X116840001Y-45361759D01*
X116604577Y-45009423D01*
X116129909Y-44692260D01*
X115570000Y-44580887D01*
X115010092Y-44692260D01*
X114535424Y-45009423D01*
X114300001Y-45361759D01*
X114064577Y-45009423D01*
X113589909Y-44692260D01*
X113030000Y-44580887D01*
X112470092Y-44692260D01*
X111995424Y-45009423D01*
X111760001Y-45361759D01*
X111524577Y-45009423D01*
X111049909Y-44692260D01*
X110490000Y-44580887D01*
X110391886Y-44600403D01*
X112147289Y-42845000D01*
X117568753Y-42845000D01*
X117659375Y-42980625D01*
X118150582Y-43308839D01*
X118583744Y-43395000D01*
X120176256Y-43395000D01*
X120609418Y-43308839D01*
X121100625Y-42980625D01*
X121428839Y-42489418D01*
X121544092Y-41910000D01*
X121428839Y-41330582D01*
X121100625Y-40839375D01*
X121082381Y-40827184D01*
X121127765Y-40818157D01*
X121337809Y-40677809D01*
X121478157Y-40467765D01*
X121527440Y-40220000D01*
X121527440Y-38520000D01*
X121478157Y-38272235D01*
X121337809Y-38062191D01*
X121127765Y-37921843D01*
X120880000Y-37872560D01*
X117880000Y-37872560D01*
X117632235Y-37921843D01*
X117422191Y-38062191D01*
X117281843Y-38272235D01*
X117249467Y-38435000D01*
X110582086Y-38435000D01*
X110490000Y-38416683D01*
X110397914Y-38435000D01*
X110125181Y-38489250D01*
X109815903Y-38695903D01*
X109763739Y-38773972D01*
X106292711Y-42245000D01*
X104232081Y-42245000D01*
X104139999Y-42226684D01*
X104047917Y-42245000D01*
X104047914Y-42245000D01*
X103775181Y-42299250D01*
X103465903Y-42505903D01*
X103413741Y-42583969D01*
X102273972Y-43723739D01*
X102195903Y-43775903D01*
X102005575Y-44060750D01*
X101989250Y-44085182D01*
X101916683Y-44450000D01*
X101935000Y-44542086D01*
X101935000Y-44942888D01*
X101835424Y-45009423D01*
X101518261Y-45484091D01*
X101435001Y-45902667D01*
X101435000Y-48585332D01*
X99187000Y-48585332D01*
X99187000Y-37496301D01*
X101105000Y-37496301D01*
X101105000Y-38703699D01*
X101567051Y-39819189D01*
X102420811Y-40672949D01*
X103536301Y-41135000D01*
X104743699Y-41135000D01*
X105859189Y-40672949D01*
X106712949Y-39819189D01*
X107175000Y-38703699D01*
X107175000Y-37496301D01*
X106712949Y-36380811D01*
X105859189Y-35527051D01*
X104743699Y-35065000D01*
X103536301Y-35065000D01*
X102420811Y-35527051D01*
X101567051Y-36380811D01*
X101105000Y-37496301D01*
X99187000Y-37496301D01*
X99187000Y-33147000D01*
X195453000Y-33147000D01*
X195453000Y-78613000D01*
G36*
X147655000Y-58327914D02*
X147636683Y-58420000D01*
X147699675Y-58736683D01*
X147709250Y-58784818D01*
X147915903Y-59094097D01*
X147993972Y-59146261D01*
X150403740Y-61556030D01*
X150455903Y-61634097D01*
X150765181Y-61840750D01*
X151037914Y-61895000D01*
X151037918Y-61895000D01*
X151129999Y-61913316D01*
X151222080Y-61895000D01*
X172332711Y-61895000D01*
X173055001Y-62617291D01*
X173055001Y-62841888D01*
X172955423Y-62908424D01*
X172720000Y-63260759D01*
X172484576Y-62908423D01*
X172009908Y-62591260D01*
X171450000Y-62479887D01*
X170890091Y-62591260D01*
X170415423Y-62908424D01*
X170180000Y-63260759D01*
X169944576Y-62908423D01*
X169469908Y-62591260D01*
X168910000Y-62479887D01*
X168350091Y-62591260D01*
X167875423Y-62908424D01*
X167640000Y-63260759D01*
X167404576Y-62908423D01*
X166929908Y-62591260D01*
X166370000Y-62479887D01*
X165810091Y-62591260D01*
X165335423Y-62908424D01*
X165100000Y-63260759D01*
X164864576Y-62908423D01*
X164389908Y-62591260D01*
X163830000Y-62479887D01*
X163270091Y-62591260D01*
X162795423Y-62908424D01*
X162560000Y-63260759D01*
X162324576Y-62908423D01*
X161849908Y-62591260D01*
X161290000Y-62479887D01*
X160730091Y-62591260D01*
X160255423Y-62908424D01*
X160017501Y-63264499D01*
X159674896Y-62838500D01*
X159181819Y-62568633D01*
X159099039Y-62551096D01*
X158877000Y-62673085D01*
X158877000Y-64516000D01*
X158897000Y-64516000D01*
X158897000Y-64770000D01*
X158877000Y-64770000D01*
X158877000Y-64790000D01*
X158623000Y-64790000D01*
X158623000Y-64770000D01*
X158603000Y-64770000D01*
X158603000Y-64516000D01*
X158623000Y-64516000D01*
X158623000Y-62673085D01*
X158400961Y-62551096D01*
X158318181Y-62568633D01*
X157825104Y-62838500D01*
X157482499Y-63264499D01*
X157244576Y-62908423D01*
X156769908Y-62591260D01*
X156210000Y-62479887D01*
X155650091Y-62591260D01*
X155175423Y-62908424D01*
X154940000Y-63260759D01*
X154704576Y-62908423D01*
X154229908Y-62591260D01*
X153670000Y-62479887D01*
X153110091Y-62591260D01*
X152635423Y-62908424D01*
X152554785Y-63029107D01*
X152528157Y-62895235D01*
X152387809Y-62685191D01*
X152177765Y-62544843D01*
X151930000Y-62495560D01*
X150330000Y-62495560D01*
X150082235Y-62544843D01*
X149872191Y-62685191D01*
X149731843Y-62895235D01*
X149682560Y-63143000D01*
X149682560Y-66143000D01*
X149731843Y-66390765D01*
X149872191Y-66600809D01*
X150082235Y-66741157D01*
X150330000Y-66790440D01*
X151930000Y-66790440D01*
X152177765Y-66741157D01*
X152387809Y-66600809D01*
X152528157Y-66390765D01*
X152554786Y-66256893D01*
X152635424Y-66377577D01*
X153110092Y-66694740D01*
X153670000Y-66806113D01*
X154229909Y-66694740D01*
X154704577Y-66377577D01*
X154940001Y-66025241D01*
X155175424Y-66377577D01*
X155262122Y-66435506D01*
X154849327Y-66711327D01*
X154510062Y-67219073D01*
X154390928Y-67818000D01*
X154431208Y-68020502D01*
X153536711Y-68915000D01*
X149449136Y-68915000D01*
X149781938Y-68416927D01*
X149901072Y-67818000D01*
X149781938Y-67219073D01*
X149442673Y-66711327D01*
X149271476Y-66596937D01*
X149216750Y-66321811D01*
X149062259Y-66090599D01*
X149010097Y-66012533D01*
X148932031Y-65960371D01*
X147145631Y-64173972D01*
X147093467Y-64095903D01*
X146784189Y-63889250D01*
X146511456Y-63835000D01*
X146419370Y-63816683D01*
X146327284Y-63835000D01*
X145657440Y-63835000D01*
X145657440Y-63817500D01*
X145608157Y-63569735D01*
X145467809Y-63359691D01*
X145257765Y-63219343D01*
X145010000Y-63170060D01*
X142010000Y-63170060D01*
X141762235Y-63219343D01*
X141552191Y-63359691D01*
X141411843Y-63569735D01*
X141362560Y-63817500D01*
X141362560Y-63826119D01*
X141317914Y-63835000D01*
X141193514Y-63859745D01*
X141265072Y-63500000D01*
X141145938Y-62901073D01*
X140806673Y-62393327D01*
X140298927Y-62054062D01*
X139851182Y-61965000D01*
X139548818Y-61965000D01*
X139497498Y-61975208D01*
X139294804Y-61772514D01*
X139700000Y-61853113D01*
X140259909Y-61741740D01*
X140734577Y-61424577D01*
X140970001Y-61072241D01*
X141205424Y-61424577D01*
X141680092Y-61741740D01*
X142240000Y-61853113D01*
X142799909Y-61741740D01*
X143274577Y-61424577D01*
X143512499Y-61068501D01*
X143855104Y-61494500D01*
X144348181Y-61764367D01*
X144430961Y-61781904D01*
X144653000Y-61659915D01*
X144653000Y-59817000D01*
X144907000Y-59817000D01*
X144907000Y-61659915D01*
X145129039Y-61781904D01*
X145211819Y-61764367D01*
X145704896Y-61494500D01*
X146057166Y-61056483D01*
X146215000Y-60517000D01*
X146215000Y-59817000D01*
X144907000Y-59817000D01*
X144653000Y-59817000D01*
X144633000Y-59817000D01*
X144633000Y-59563000D01*
X144653000Y-59563000D01*
X144653000Y-57720085D01*
X144907000Y-57720085D01*
X144907000Y-59563000D01*
X146215000Y-59563000D01*
X146215000Y-58863000D01*
X146057166Y-58323517D01*
X145704896Y-57885500D01*
X145211819Y-57615633D01*
X145129039Y-57598096D01*
X144907000Y-57720085D01*
X144653000Y-57720085D01*
X144430961Y-57598096D01*
X144348181Y-57615633D01*
X143855104Y-57885500D01*
X143512499Y-58311499D01*
X143363613Y-58088676D01*
X144637290Y-56815000D01*
X147655001Y-56815000D01*
X147655000Y-58327914D01*
X147655000Y-58327914D01*
G37*
X147655000Y-58327914D02*
X147636683Y-58420000D01*
X147699675Y-58736683D01*
X147709250Y-58784818D01*
X147915903Y-59094097D01*
X147993972Y-59146261D01*
X150403740Y-61556030D01*
X150455903Y-61634097D01*
X150765181Y-61840750D01*
X151037914Y-61895000D01*
X151037918Y-61895000D01*
X151129999Y-61913316D01*
X151222080Y-61895000D01*
X172332711Y-61895000D01*
X173055001Y-62617291D01*
X173055001Y-62841888D01*
X172955423Y-62908424D01*
X172720000Y-63260759D01*
X172484576Y-62908423D01*
X172009908Y-62591260D01*
X171450000Y-62479887D01*
X170890091Y-62591260D01*
X170415423Y-62908424D01*
X170180000Y-63260759D01*
X169944576Y-62908423D01*
X169469908Y-62591260D01*
X168910000Y-62479887D01*
X168350091Y-62591260D01*
X167875423Y-62908424D01*
X167640000Y-63260759D01*
X167404576Y-62908423D01*
X166929908Y-62591260D01*
X166370000Y-62479887D01*
X165810091Y-62591260D01*
X165335423Y-62908424D01*
X165100000Y-63260759D01*
X164864576Y-62908423D01*
X164389908Y-62591260D01*
X163830000Y-62479887D01*
X163270091Y-62591260D01*
X162795423Y-62908424D01*
X162560000Y-63260759D01*
X162324576Y-62908423D01*
X161849908Y-62591260D01*
X161290000Y-62479887D01*
X160730091Y-62591260D01*
X160255423Y-62908424D01*
X160017501Y-63264499D01*
X159674896Y-62838500D01*
X159181819Y-62568633D01*
X159099039Y-62551096D01*
X158877000Y-62673085D01*
X158877000Y-64516000D01*
X158897000Y-64516000D01*
X158897000Y-64770000D01*
X158877000Y-64770000D01*
X158877000Y-64790000D01*
X158623000Y-64790000D01*
X158623000Y-64770000D01*
X158603000Y-64770000D01*
X158603000Y-64516000D01*
X158623000Y-64516000D01*
X158623000Y-62673085D01*
X158400961Y-62551096D01*
X158318181Y-62568633D01*
X157825104Y-62838500D01*
X157482499Y-63264499D01*
X157244576Y-62908423D01*
X156769908Y-62591260D01*
X156210000Y-62479887D01*
X155650091Y-62591260D01*
X155175423Y-62908424D01*
X154940000Y-63260759D01*
X154704576Y-62908423D01*
X154229908Y-62591260D01*
X153670000Y-62479887D01*
X153110091Y-62591260D01*
X152635423Y-62908424D01*
X152554785Y-63029107D01*
X152528157Y-62895235D01*
X152387809Y-62685191D01*
X152177765Y-62544843D01*
X151930000Y-62495560D01*
X150330000Y-62495560D01*
X150082235Y-62544843D01*
X149872191Y-62685191D01*
X149731843Y-62895235D01*
X149682560Y-63143000D01*
X149682560Y-66143000D01*
X149731843Y-66390765D01*
X149872191Y-66600809D01*
X150082235Y-66741157D01*
X150330000Y-66790440D01*
X151930000Y-66790440D01*
X152177765Y-66741157D01*
X152387809Y-66600809D01*
X152528157Y-66390765D01*
X152554786Y-66256893D01*
X152635424Y-66377577D01*
X153110092Y-66694740D01*
X153670000Y-66806113D01*
X154229909Y-66694740D01*
X154704577Y-66377577D01*
X154940001Y-66025241D01*
X155175424Y-66377577D01*
X155262122Y-66435506D01*
X154849327Y-66711327D01*
X154510062Y-67219073D01*
X154390928Y-67818000D01*
X154431208Y-68020502D01*
X153536711Y-68915000D01*
X149449136Y-68915000D01*
X149781938Y-68416927D01*
X149901072Y-67818000D01*
X149781938Y-67219073D01*
X149442673Y-66711327D01*
X149271476Y-66596937D01*
X149216750Y-66321811D01*
X149062259Y-66090599D01*
X149010097Y-66012533D01*
X148932031Y-65960371D01*
X147145631Y-64173972D01*
X147093467Y-64095903D01*
X146784189Y-63889250D01*
X146511456Y-63835000D01*
X146419370Y-63816683D01*
X146327284Y-63835000D01*
X145657440Y-63835000D01*
X145657440Y-63817500D01*
X145608157Y-63569735D01*
X145467809Y-63359691D01*
X145257765Y-63219343D01*
X145010000Y-63170060D01*
X142010000Y-63170060D01*
X141762235Y-63219343D01*
X141552191Y-63359691D01*
X141411843Y-63569735D01*
X141362560Y-63817500D01*
X141362560Y-63826119D01*
X141317914Y-63835000D01*
X141193514Y-63859745D01*
X141265072Y-63500000D01*
X141145938Y-62901073D01*
X140806673Y-62393327D01*
X140298927Y-62054062D01*
X139851182Y-61965000D01*
X139548818Y-61965000D01*
X139497498Y-61975208D01*
X139294804Y-61772514D01*
X139700000Y-61853113D01*
X140259909Y-61741740D01*
X140734577Y-61424577D01*
X140970001Y-61072241D01*
X141205424Y-61424577D01*
X141680092Y-61741740D01*
X142240000Y-61853113D01*
X142799909Y-61741740D01*
X143274577Y-61424577D01*
X143512499Y-61068501D01*
X143855104Y-61494500D01*
X144348181Y-61764367D01*
X144430961Y-61781904D01*
X144653000Y-61659915D01*
X144653000Y-59817000D01*
X144907000Y-59817000D01*
X144907000Y-61659915D01*
X145129039Y-61781904D01*
X145211819Y-61764367D01*
X145704896Y-61494500D01*
X146057166Y-61056483D01*
X146215000Y-60517000D01*
X146215000Y-59817000D01*
X144907000Y-59817000D01*
X144653000Y-59817000D01*
X144633000Y-59817000D01*
X144633000Y-59563000D01*
X144653000Y-59563000D01*
X144653000Y-57720085D01*
X144907000Y-57720085D01*
X144907000Y-59563000D01*
X146215000Y-59563000D01*
X146215000Y-58863000D01*
X146057166Y-58323517D01*
X145704896Y-57885500D01*
X145211819Y-57615633D01*
X145129039Y-57598096D01*
X144907000Y-57720085D01*
X144653000Y-57720085D01*
X144430961Y-57598096D01*
X144348181Y-57615633D01*
X143855104Y-57885500D01*
X143512499Y-58311499D01*
X143363613Y-58088676D01*
X144637290Y-56815000D01*
X147655001Y-56815000D01*
X147655000Y-58327914D01*
G04 #@! TD*
M02*
