; Drill file
; Format: 2.4 (00.0000)
M48
INCH
T01C0.0315
T02C0.0394
T03C0.0433
T04C0.1181
%
G05
G90
T01
X001470Y-012570
X002470Y-012570
X003470Y-012570
X004470Y-012570
X005470Y-012570
X006470Y-012570
X007470Y-012570
X008470Y-012570
X009970Y-013670
X012320Y-012270
X013020Y-013720
X015320Y-012270
X016020Y-013720
X015970Y-010470
X014970Y-010470
X013970Y-010470
X012970Y-010470
X011970Y-010470
X009970Y-010670
X009970Y-007970
X011970Y-007470
X012970Y-007470
X013970Y-007470
X014970Y-007470
X015970Y-007470
X016970Y-007470
X017970Y-007470
X020470Y-006370
X021470Y-006370
X022470Y-006370
X023470Y-006370
X024470Y-006370
X025470Y-006370
X026470Y-006370
X027470Y-006370
X028470Y-006370
X029470Y-006370
X030470Y-006370
X031470Y-006370
X032470Y-006370
X033470Y-006370
X034470Y-006370
X033970Y-004970
X032470Y-004970
X031470Y-004970
X030470Y-004970
X029470Y-004970
X028470Y-004970
X027470Y-004970
X027470Y-001970
X028470Y-001970
X029470Y-001970
X030470Y-001970
X031470Y-001970
X032470Y-001970
X036970Y-004970
X034470Y-012370
X033470Y-012370
X032470Y-012370
X031470Y-012370
X030470Y-012370
X029470Y-012370
X028470Y-012370
X027470Y-012370
X026470Y-012370
X025470Y-012370
X024470Y-012370
X023470Y-012370
X022470Y-012370
X021470Y-012370
X020470Y-012370
X019370Y-013670
X022370Y-013670
X017970Y-010470
X016970Y-010470
X014470Y-005220
X013070Y-005220
X010970Y-003940
X009970Y-004970
X008470Y-005570
X007470Y-005570
X006470Y-005570
X005470Y-005570
X004470Y-005570
X003470Y-005570
X002470Y-005570
X001470Y-005570
X010970Y-001970
X013070Y-002220
X014470Y-002220
T02
X005970Y-016420
X006970Y-016420
X007970Y-003470
X007970Y-002470
X022270Y-002520
X023270Y-002520
X023270Y-003920
X022270Y-003920
X022270Y-001120
X023270Y-001120
X027970Y-015520
X028970Y-015520
X029970Y-015520
X030970Y-015520
X031970Y-015520
X032970Y-015520
X033970Y-015520
X034970Y-015520
T03
X006970Y-014970
X010970Y-014970
X017470Y-014470
X017470Y-013470
X017470Y-012470
T04
X001970Y-015970
X001970Y-001970
X025470Y-015970
X035970Y-001970
M30
