%FSLAX34Y34*%
%MOMM*%
%LNCOPPER_BOTTOM*%
G71*
G01*
%ADD10C, 0.300*%
%ADD11R, 1.600X3.000*%
%ADD12C, 1.600*%
%ADD13C, 1.600*%
%ADD14R, 3.000X1.905*%
%ADD15C, 1.905*%
%ADD16C, 2.200*%
%ADD17C, 1.900*%
%ADD18C, 1.800*%
%ADD19C, 1.800*%
%ADD20R, 1.700X3.000*%
%ADD21C, 1.700*%
%ADD22C, 4.000*%
%ADD23C, 0.600*%
%ADD24C, 0.250*%
%ADD25C, 0.800*%
%ADD26C, 1.000*%
%ADD27C, 0.254*%
%LPD*%
G54D10*
X735795Y-193860D02*
X727462Y-218860D01*
X719129Y-193860D01*
G54D10*
X697700Y-218860D02*
X711986Y-218860D01*
G54D10*
X704843Y-218860D02*
X704843Y-193860D01*
X707224Y-197431D01*
X709605Y-199812D01*
X711986Y-201002D01*
G54D10*
X688176Y-217669D02*
X686986Y-216479D01*
X685795Y-217669D01*
X686986Y-218860D01*
X688176Y-217669D01*
G54D10*
X686986Y-216479D02*
X686986Y-218860D01*
G54D10*
X677462Y-193860D02*
X661986Y-193860D01*
X670319Y-203383D01*
X666748Y-203383D01*
X664367Y-204574D01*
X663176Y-205764D01*
X661986Y-208145D01*
X661986Y-214098D01*
X663176Y-216479D01*
X664367Y-217669D01*
X666748Y-218860D01*
X673890Y-218860D01*
X676271Y-217669D01*
X677462Y-216479D01*
G54D10*
X850676Y-236740D02*
X849486Y-235550D01*
X847105Y-234360D01*
X841152Y-234360D01*
X838771Y-235550D01*
X837581Y-236740D01*
X836390Y-239121D01*
X836390Y-241502D01*
X837581Y-245074D01*
X851867Y-259360D01*
X836390Y-259360D01*
G54D10*
X823295Y-235550D02*
X820914Y-234360D01*
X818533Y-234360D01*
X816152Y-235550D01*
X814962Y-236740D01*
X813771Y-239121D01*
X812581Y-243883D01*
X812581Y-249836D01*
X813771Y-254598D01*
X814962Y-256979D01*
X816152Y-258169D01*
X818533Y-259360D01*
X820914Y-259360D01*
X823295Y-258169D01*
X824486Y-256979D01*
X825676Y-254598D01*
X826867Y-249836D01*
X826867Y-243883D01*
X825676Y-239121D01*
X824486Y-236740D01*
X823295Y-235550D01*
G54D10*
X788771Y-259360D02*
X803057Y-259360D01*
G54D10*
X795914Y-259360D02*
X795914Y-234360D01*
X798295Y-237931D01*
X800676Y-240312D01*
X803057Y-241502D01*
G54D10*
X774486Y-245074D02*
X776867Y-246264D01*
X778057Y-247455D01*
X779248Y-249836D01*
X779248Y-254598D01*
X778057Y-256979D01*
X776867Y-258169D01*
X774486Y-259360D01*
X769724Y-259360D01*
X767343Y-258169D01*
X766152Y-256979D01*
X764962Y-254598D01*
X764962Y-249836D01*
X766152Y-247455D01*
X767343Y-246264D01*
X769724Y-245074D01*
X774486Y-245074D01*
X776867Y-243883D01*
X778057Y-242693D01*
X779248Y-240312D01*
X779248Y-239121D01*
X778057Y-236740D01*
X776867Y-235550D01*
X774486Y-234360D01*
X769724Y-234360D01*
X767343Y-235550D01*
X766152Y-236740D01*
X764962Y-239121D01*
X764962Y-240312D01*
X766152Y-242693D01*
X767343Y-243883D01*
X769724Y-245074D01*
G54D10*
X735200Y-259360D02*
X735200Y-234360D01*
G54D10*
X735200Y-243883D02*
X732819Y-242693D01*
X728057Y-242693D01*
X725676Y-243883D01*
X724486Y-245074D01*
X723295Y-247455D01*
X723295Y-254598D01*
X724486Y-256979D01*
X725676Y-258169D01*
X728057Y-259360D01*
X732819Y-259360D01*
X735200Y-258169D01*
G54D10*
X714962Y-242693D02*
X709010Y-259360D01*
X703057Y-242693D01*
G54D10*
X709010Y-259360D02*
X711390Y-265312D01*
X712581Y-266502D01*
X714962Y-267693D01*
G54D10*
X668533Y-259360D02*
X674486Y-259360D01*
X674486Y-234360D01*
X668533Y-234360D01*
X664962Y-235550D01*
X662581Y-237931D01*
X661390Y-240312D01*
X660200Y-245074D01*
X660200Y-248645D01*
X661390Y-253407D01*
X662581Y-255788D01*
X664962Y-258169D01*
X668533Y-259360D01*
G54D10*
X638771Y-245074D02*
X641152Y-246264D01*
X637581Y-247455D01*
X636390Y-248645D01*
X635200Y-251026D01*
X635200Y-254598D01*
X636390Y-256979D01*
X637581Y-258169D01*
X639962Y-259360D01*
X649486Y-259360D01*
X649486Y-234360D01*
X641152Y-234360D01*
X638771Y-235550D01*
X637581Y-236740D01*
X636390Y-239121D01*
X636390Y-241502D01*
X637581Y-243883D01*
X638771Y-245074D01*
G54D10*
X641152Y-246264D02*
X649486Y-246264D01*
G54D10*
X626867Y-234360D02*
X611390Y-234360D01*
X619724Y-243883D01*
X616152Y-243883D01*
X613771Y-245074D01*
X612581Y-246264D01*
X611390Y-248645D01*
X611390Y-254598D01*
X612581Y-256979D01*
X613771Y-258169D01*
X616152Y-259360D01*
X623295Y-259360D01*
X625676Y-258169D01*
X626867Y-256979D01*
G54D10*
X593533Y-234360D02*
X593533Y-252217D01*
X594724Y-255788D01*
X597105Y-258169D01*
X600676Y-259360D01*
X603057Y-259360D01*
G54D10*
X581629Y-259360D02*
X581629Y-234360D01*
G54D10*
X581629Y-246264D02*
X567343Y-246264D01*
G54D10*
X567343Y-259360D02*
X567343Y-234360D01*
G54D10*
X547105Y-246264D02*
X555438Y-246264D01*
G54D10*
X555438Y-259360D02*
X555438Y-234360D01*
X543533Y-234360D01*
X519900Y-314160D02*
G54D11*
D03*
G54D12*
X850100Y-168760D02*
X850100Y-154760D01*
G54D12*
X545300Y-321160D02*
X545300Y-307160D01*
G54D12*
X824700Y-168760D02*
X824700Y-154760D01*
G54D12*
X570700Y-321160D02*
X570700Y-307160D01*
G54D12*
X799300Y-168760D02*
X799300Y-154760D01*
G54D12*
X596100Y-321160D02*
X596100Y-307160D01*
G54D12*
X773900Y-168760D02*
X773900Y-154760D01*
G54D12*
X621500Y-321160D02*
X621500Y-307160D01*
G54D12*
X748500Y-168760D02*
X748500Y-154760D01*
G54D12*
X646900Y-321160D02*
X646900Y-307160D01*
G54D12*
X723100Y-168760D02*
X723100Y-154760D01*
G54D12*
X672300Y-321160D02*
X672300Y-307160D01*
G54D12*
X697700Y-168760D02*
X697700Y-154760D01*
G54D12*
X697700Y-321160D02*
X697700Y-307160D01*
G54D12*
X672300Y-168760D02*
X672300Y-154760D01*
G54D12*
X723100Y-321160D02*
X723100Y-307160D01*
G54D12*
X646900Y-168760D02*
X646900Y-154760D01*
G54D12*
X748500Y-321160D02*
X748500Y-307160D01*
G54D12*
X621500Y-168760D02*
X621500Y-154760D01*
G54D12*
X773900Y-321160D02*
X773900Y-307160D01*
G54D12*
X596100Y-168760D02*
X596100Y-154760D01*
G54D12*
X799300Y-321160D02*
X799300Y-307160D01*
G54D12*
X570700Y-168760D02*
X570700Y-154760D01*
G54D12*
X824700Y-321160D02*
X824700Y-307160D01*
G54D12*
X545300Y-168760D02*
X545300Y-154760D01*
G54D12*
X850100Y-321160D02*
X850100Y-307160D01*
G54D12*
X519900Y-168760D02*
X519900Y-154760D01*
G54D12*
X875500Y-321160D02*
X875500Y-307160D01*
G54D12*
X875500Y-168760D02*
X875500Y-154760D01*
X278600Y-100000D02*
G54D13*
D03*
X278600Y-50000D02*
G54D13*
D03*
G36*
X715100Y-42000D02*
X731100Y-42000D01*
X731100Y-58000D01*
X715100Y-58000D01*
X715100Y-42000D01*
G37*
G54D12*
X723100Y-126200D02*
X723100Y-126200D01*
X443700Y-316700D02*
G54D14*
D03*
G54D15*
X438225Y-342100D02*
X449175Y-342100D01*
G54D15*
X438225Y-367500D02*
X449175Y-367500D01*
X304000Y-265900D02*
G54D11*
D03*
G54D12*
X456400Y-196700D02*
X456400Y-182700D01*
G54D12*
X329400Y-272900D02*
X329400Y-258900D01*
G54D12*
X431000Y-196700D02*
X431000Y-182700D01*
G54D12*
X354800Y-272900D02*
X354800Y-258900D01*
G54D12*
X405600Y-196700D02*
X405600Y-182700D01*
G54D12*
X380200Y-272900D02*
X380200Y-258900D01*
G54D12*
X380200Y-196700D02*
X380200Y-182700D01*
G54D12*
X405600Y-272900D02*
X405600Y-258900D01*
G54D12*
X354800Y-196700D02*
X354800Y-182700D01*
G54D12*
X431000Y-272900D02*
X431000Y-258900D01*
G54D12*
X329400Y-196700D02*
X329400Y-182700D01*
G54D12*
X456400Y-272900D02*
X456400Y-258900D01*
G54D12*
X304000Y-196700D02*
X304000Y-182700D01*
G36*
X689700Y-42000D02*
X705700Y-42000D01*
X705700Y-58000D01*
X689700Y-58000D01*
X689700Y-42000D01*
G37*
G54D12*
X697700Y-126200D02*
X697700Y-126200D01*
G54D12*
X748500Y-126200D02*
X748500Y-126200D01*
G36*
X740500Y-42000D02*
X756500Y-42000D01*
X756500Y-58000D01*
X740500Y-58000D01*
X740500Y-42000D01*
G37*
G36*
X267600Y-369200D02*
X289600Y-369200D01*
X289600Y-391200D01*
X267600Y-391200D01*
X267600Y-369200D01*
G37*
G54D16*
X177000Y-380200D02*
X177000Y-380200D01*
G36*
X791300Y-42000D02*
X807300Y-42000D01*
X807300Y-58000D01*
X791300Y-58000D01*
X791300Y-42000D01*
G37*
G54D12*
X799300Y-126200D02*
X799300Y-126200D01*
G54D17*
X202400Y-88100D02*
X202400Y-88100D01*
G36*
X192900Y-53200D02*
X211900Y-53200D01*
X211900Y-72200D01*
X192900Y-72200D01*
X192900Y-53200D01*
G37*
G54D18*
X406870Y-348450D02*
X406870Y-348450D01*
G54D18*
X330670Y-348450D02*
X330670Y-348450D01*
G54D18*
X568160Y-347180D02*
X568160Y-347180D01*
G54D18*
X491960Y-347180D02*
X491960Y-347180D01*
G54D18*
X331940Y-56350D02*
X331940Y-56350D01*
G54D18*
X331940Y-132550D02*
X331940Y-132550D01*
G54D18*
X367500Y-56350D02*
X367500Y-56350D01*
X367500Y-132550D02*
G54D19*
D03*
G54D18*
X253200Y-270980D02*
X253200Y-270980D01*
G54D18*
X253200Y-347180D02*
X253200Y-347180D01*
G54D18*
X862800Y-126200D02*
X862800Y-126200D01*
G54D18*
X939000Y-126200D02*
X939000Y-126200D01*
G36*
X816700Y-42000D02*
X832700Y-42000D01*
X832700Y-58000D01*
X816700Y-58000D01*
X816700Y-42000D01*
G37*
G54D12*
X824700Y-126200D02*
X824700Y-126200D01*
G54D12*
X773900Y-126200D02*
X773900Y-126200D01*
G36*
X765900Y-42000D02*
X781900Y-42000D01*
X781900Y-58000D01*
X765900Y-58000D01*
X765900Y-42000D01*
G37*
X888200Y-394170D02*
G54D20*
D03*
G54D21*
X862800Y-400670D02*
X862800Y-387670D01*
G54D21*
X837400Y-400670D02*
X837400Y-387670D01*
G54D21*
X812000Y-400670D02*
X812000Y-387670D01*
G54D21*
X786600Y-400670D02*
X786600Y-387670D01*
G54D21*
X761200Y-400670D02*
X761200Y-387670D01*
G54D21*
X735800Y-400670D02*
X735800Y-387670D01*
G54D21*
X710400Y-400670D02*
X710400Y-387670D01*
G54D12*
X215100Y-331240D02*
X215100Y-307240D01*
G54D12*
X215100Y-153440D02*
X215100Y-129440D01*
G54D12*
X189700Y-331240D02*
X189700Y-307240D01*
G54D12*
X189700Y-153440D02*
X189700Y-129440D01*
G54D12*
X164300Y-331240D02*
X164300Y-307240D01*
G54D12*
X164300Y-153440D02*
X164300Y-129440D01*
G54D12*
X138900Y-331240D02*
X138900Y-307240D01*
G54D12*
X138900Y-153440D02*
X138900Y-129440D01*
G54D12*
X113500Y-331240D02*
X113500Y-307240D01*
G54D12*
X113500Y-153440D02*
X113500Y-129440D01*
G54D12*
X88100Y-331240D02*
X88100Y-307240D01*
G54D12*
X88100Y-153440D02*
X88100Y-129440D01*
G54D12*
X62700Y-331240D02*
X62700Y-307240D01*
G54D12*
X62700Y-153440D02*
X62700Y-129440D01*
G54D12*
X37300Y-331240D02*
X37300Y-307240D01*
G54D12*
X37300Y-153440D02*
X37300Y-129440D01*
G54D18*
X312890Y-311620D02*
X312890Y-311620D01*
G54D18*
X389090Y-311620D02*
X389090Y-311620D01*
G54D18*
X253200Y-126200D02*
X253200Y-126200D01*
G54D18*
X253200Y-202400D02*
X253200Y-202400D01*
G36*
X167500Y-407530D02*
X186500Y-407530D01*
X186500Y-426530D01*
X167500Y-426530D01*
X167500Y-407530D01*
G37*
G54D17*
X151600Y-417030D02*
X151600Y-417030D01*
G36*
X581520Y-90030D02*
X600520Y-90030D01*
X600520Y-109030D01*
X581520Y-109030D01*
X581520Y-90030D01*
G37*
G54D17*
X565620Y-99530D02*
X565620Y-99530D01*
G54D17*
X565620Y-63970D02*
X565620Y-63970D01*
G36*
X581520Y-54470D02*
X600520Y-54470D01*
X600520Y-73470D01*
X581520Y-73470D01*
X581520Y-54470D01*
G37*
G54D17*
X565620Y-28410D02*
X565620Y-28410D01*
G36*
X581520Y-18910D02*
X600520Y-18910D01*
X600520Y-37910D01*
X581520Y-37910D01*
X581520Y-18910D01*
G37*
X913600Y-50000D02*
G54D22*
D03*
X646900Y-405600D02*
G54D22*
D03*
X50000Y-50000D02*
G54D22*
D03*
X50000Y-405600D02*
G54D22*
D03*
G54D23*
X850100Y-164300D02*
X850100Y-177000D01*
X875500Y-202400D01*
X900900Y-202400D01*
X913600Y-215100D01*
X913600Y-382000D01*
X902700Y-392900D01*
X888200Y-392900D01*
G54D23*
X824700Y-126200D02*
X799300Y-151600D01*
X799300Y-163030D01*
G54D24*
X735800Y-328130D02*
X735800Y-293840D01*
X730720Y-288760D01*
X710400Y-288760D01*
X710400Y-339560D01*
X685000Y-339560D01*
X685000Y-301460D01*
X677380Y-293840D01*
X494840Y-293840D01*
X466900Y-265900D01*
X456400Y-265900D01*
G54D23*
X773900Y-126200D02*
X773900Y-163030D01*
G54D23*
X621500Y-316700D02*
X621500Y-323700D01*
X539600Y-405600D01*
X265900Y-405600D01*
X253200Y-392900D01*
X253200Y-371310D01*
X272250Y-352260D01*
X272250Y-328130D01*
X202400Y-258280D01*
X164300Y-220180D01*
X164300Y-141440D01*
G54D23*
X723100Y-126200D02*
X739610Y-142710D01*
X748500Y-151600D01*
X748500Y-161760D01*
G54D23*
X646900Y-316700D02*
X646900Y-323700D01*
X552300Y-418300D01*
X246850Y-418300D01*
X240500Y-411950D01*
X240500Y-359880D01*
X253200Y-347180D01*
G54D23*
X672300Y-316700D02*
X672300Y-329400D01*
X659600Y-342100D01*
X646900Y-342100D01*
X558000Y-431000D01*
X234150Y-431000D01*
X221450Y-418300D01*
X221450Y-348450D01*
X215100Y-342100D01*
X215100Y-337700D01*
X215100Y-316700D01*
X215100Y-325700D01*
G54D23*
X748500Y-315430D02*
X748500Y-291300D01*
X735800Y-278600D01*
X519900Y-278600D01*
X494500Y-253200D01*
X481800Y-240500D01*
X481800Y-227800D01*
X481800Y-177000D01*
X481800Y-113500D01*
X468300Y-100000D01*
X278600Y-100000D01*
X253200Y-125400D01*
X253200Y-126200D01*
G54D23*
X431000Y-265900D02*
X431000Y-247900D01*
X438400Y-240500D01*
X481800Y-240500D01*
G54D23*
X215100Y-129900D02*
X215100Y-138900D01*
G54D25*
X253200Y-202400D02*
X215100Y-164300D01*
X215100Y-141440D01*
X215100Y-129440D01*
X240120Y-104420D01*
X240120Y-88480D01*
X270600Y-58000D01*
X278600Y-50000D01*
X325590Y-50000D01*
X331940Y-56350D01*
X331940Y-70320D01*
X339940Y-79590D01*
X344640Y-85560D01*
X479260Y-85560D01*
X494500Y-100800D01*
X494500Y-177000D01*
X507200Y-189700D01*
X583400Y-189700D01*
X596100Y-177000D01*
X596100Y-161760D01*
G54D23*
X443700Y-342100D02*
X413220Y-342100D01*
X406870Y-348450D01*
X375120Y-380200D01*
X314160Y-380200D01*
X290030Y-356070D01*
X290030Y-323050D01*
X273520Y-306540D01*
X273520Y-222720D01*
X253200Y-202400D01*
G54D23*
X862800Y-394170D02*
X862800Y-386550D01*
X878040Y-367500D01*
X895820Y-367500D01*
X899630Y-363690D01*
X899630Y-293840D01*
X883120Y-277330D01*
X812000Y-277330D01*
X799300Y-290030D01*
X799300Y-315430D01*
G54D23*
X824700Y-316700D02*
X824700Y-329400D01*
X812000Y-342100D01*
X753580Y-342100D01*
X710400Y-377660D01*
X710400Y-392900D01*
G54D23*
X850100Y-316700D02*
X850100Y-342100D01*
X837400Y-354800D01*
X786600Y-354800D01*
X761200Y-380200D01*
X761200Y-392900D01*
G54D23*
X875500Y-316700D02*
X875500Y-342100D01*
X850100Y-367500D01*
X799300Y-367500D01*
X786600Y-380200D01*
X786600Y-392900D01*
G54D23*
X862800Y-126200D02*
X875500Y-138900D01*
X875500Y-164300D01*
G54D23*
X278600Y-380200D02*
X295600Y-380200D01*
X308300Y-392900D01*
X397300Y-392900D01*
X422700Y-367500D01*
X443700Y-367500D01*
X547840Y-367500D01*
X568160Y-347180D01*
G54D23*
X799300Y-126200D02*
X799300Y-114886D01*
X791564Y-107150D01*
X748500Y-107150D01*
X748500Y-126200D01*
G54D23*
X697700Y-126200D02*
X697700Y-114886D01*
X697700Y-107150D01*
X748500Y-107150D01*
G54D23*
X697700Y-107150D02*
X659600Y-107150D01*
X640550Y-126200D01*
X532600Y-126200D01*
X519900Y-113500D01*
X519900Y-75400D01*
X500850Y-56350D01*
X367500Y-56350D01*
G54D23*
X253200Y-270980D02*
X189700Y-207480D01*
X189700Y-141440D01*
G54D23*
X202400Y-88100D02*
X126200Y-88100D01*
X88100Y-126200D01*
X88100Y-138900D01*
G54D23*
X202400Y-62700D02*
X113500Y-62700D01*
X75400Y-100800D01*
X50000Y-100800D01*
X37300Y-113500D01*
X37300Y-138900D01*
G54D24*
X405600Y-265900D02*
X405600Y-269900D01*
G54D23*
X354800Y-269900D02*
X354800Y-265900D01*
X354800Y-247900D01*
X362200Y-240500D01*
X398200Y-240500D01*
X405600Y-247900D01*
X405600Y-265900D01*
G54D23*
X939000Y-126200D02*
X939000Y-405600D01*
X913600Y-431000D01*
X761200Y-431000D01*
X735800Y-405600D01*
X735800Y-392900D01*
G54D23*
X367500Y-132550D02*
X358500Y-123550D01*
X358500Y-122280D01*
X349720Y-113500D01*
X304000Y-113500D01*
X304000Y-136360D01*
X284950Y-155410D01*
X284950Y-291300D01*
X290030Y-296380D01*
X297650Y-296380D01*
X312890Y-311620D01*
X312890Y-324348D01*
X310350Y-326888D01*
X310350Y-358610D01*
X319240Y-367500D01*
X350990Y-367500D01*
X387820Y-330670D01*
X401790Y-330670D01*
X415760Y-316700D01*
X443700Y-316700D01*
X466560Y-316700D01*
X472794Y-316700D01*
X491960Y-335866D01*
X491960Y-347180D01*
G54D23*
X304000Y-189700D02*
X304000Y-160490D01*
X331940Y-132550D01*
G54D26*
X177000Y-380200D02*
X177000Y-417030D01*
G54D23*
X591020Y-99530D02*
X637270Y-99530D01*
X643620Y-93180D01*
X770120Y-93180D01*
X799300Y-64000D01*
X799300Y-50000D01*
X824700Y-50000D01*
G54D23*
X773900Y-50000D02*
X748500Y-50000D01*
X748500Y-64000D01*
X737100Y-75400D01*
X678650Y-75400D01*
X664680Y-63970D01*
X591020Y-63970D01*
G54D23*
X723100Y-50000D02*
X697700Y-50000D01*
X697700Y-36000D01*
X690110Y-28410D01*
X591020Y-28410D01*
G54D23*
X304000Y-265900D02*
X304000Y-272900D01*
X330670Y-299570D01*
X330670Y-348450D01*
G54D23*
X329400Y-272900D02*
X329400Y-265900D01*
X329400Y-269900D01*
G54D23*
X329400Y-265900D02*
X329400Y-274790D01*
X366230Y-311620D01*
X389090Y-311620D01*
X389090Y-295790D01*
X380200Y-286900D01*
X380200Y-265900D01*
G36*
X963130Y-455130D02*
X470Y-455130D01*
X470Y-400359D01*
X23650Y-400359D01*
X23650Y-410841D01*
X27662Y-420526D01*
X35074Y-427938D01*
X44759Y-431950D01*
X55241Y-431950D01*
X64926Y-427938D01*
X72109Y-420756D01*
X136194Y-420756D01*
X138793Y-426368D01*
X143341Y-430558D01*
X147874Y-432436D01*
X150330Y-431236D01*
X150330Y-418300D01*
X137388Y-418300D01*
X136194Y-420756D01*
X72109Y-420756D01*
X72338Y-420526D01*
X75330Y-413304D01*
X136194Y-413304D01*
X137388Y-415760D01*
X150330Y-415760D01*
X150330Y-402824D01*
X152870Y-402824D01*
X152870Y-415760D01*
X153070Y-415760D01*
X153070Y-418300D01*
X152870Y-418300D01*
X152870Y-431236D01*
X155326Y-432436D01*
X159859Y-430558D01*
X161528Y-429021D01*
X162922Y-431108D01*
X165022Y-432512D01*
X167500Y-433004D01*
X186500Y-433004D01*
X188978Y-432512D01*
X191078Y-431108D01*
X192482Y-429008D01*
X192974Y-426530D01*
X192974Y-407530D01*
X192482Y-405052D01*
X191078Y-402952D01*
X188978Y-401548D01*
X188350Y-401424D01*
X188350Y-393483D01*
X189509Y-392709D01*
X193343Y-386970D01*
X194690Y-380200D01*
X193343Y-373430D01*
X189509Y-367691D01*
X183770Y-363857D01*
X178709Y-362850D01*
X175291Y-362850D01*
X170230Y-363857D01*
X164491Y-367691D01*
X160657Y-373430D01*
X159310Y-380200D01*
X160657Y-386970D01*
X164491Y-392709D01*
X165650Y-393483D01*
X165650Y-401424D01*
X165022Y-401548D01*
X162922Y-402952D01*
X161528Y-405039D01*
X159859Y-403502D01*
X155326Y-401624D01*
X152870Y-402824D01*
X150330Y-402824D01*
X147874Y-401624D01*
X143341Y-403502D01*
X138793Y-407692D01*
X136194Y-413304D01*
X75330Y-413304D01*
X76350Y-410841D01*
X76350Y-400359D01*
X72338Y-390674D01*
X64926Y-383262D01*
X55241Y-379250D01*
X44759Y-379250D01*
X35074Y-383262D01*
X27662Y-390674D01*
X23650Y-400359D01*
X470Y-400359D01*
X470Y-332653D01*
X22950Y-332653D01*
X23783Y-336839D01*
X26954Y-341586D01*
X31701Y-344757D01*
X37300Y-345871D01*
X42899Y-344757D01*
X47646Y-341586D01*
X50025Y-338025D01*
X53451Y-342285D01*
X58382Y-344984D01*
X59210Y-345159D01*
X61430Y-343939D01*
X61430Y-320510D01*
X61230Y-320510D01*
X61230Y-317970D01*
X61430Y-317970D01*
X61430Y-294541D01*
X59210Y-293321D01*
X58382Y-293496D01*
X53451Y-296195D01*
X50025Y-300455D01*
X47646Y-296894D01*
X42899Y-293723D01*
X37300Y-292609D01*
X31701Y-293723D01*
X26954Y-296894D01*
X23783Y-301641D01*
X22950Y-305827D01*
X22950Y-332653D01*
X470Y-332653D01*
X470Y-154853D01*
X22950Y-154853D01*
X23783Y-159039D01*
X26954Y-163786D01*
X31701Y-166957D01*
X37300Y-168071D01*
X42899Y-166957D01*
X47646Y-163786D01*
X50025Y-160225D01*
X53451Y-164485D01*
X58382Y-167184D01*
X59210Y-167359D01*
X61430Y-166139D01*
X61430Y-142710D01*
X61230Y-142710D01*
X61230Y-140170D01*
X61430Y-140170D01*
X61430Y-116741D01*
X59210Y-115521D01*
X58382Y-115696D01*
X53451Y-118395D01*
X50025Y-122655D01*
X47646Y-119094D01*
X46650Y-118429D01*
X46650Y-117373D01*
X53873Y-110150D01*
X74479Y-110150D01*
X75400Y-110333D01*
X76321Y-110150D01*
X79048Y-109608D01*
X82141Y-107541D01*
X82663Y-106760D01*
X117373Y-72050D01*
X186426Y-72050D01*
X186426Y-72200D01*
X186918Y-74678D01*
X188322Y-76778D01*
X190106Y-77970D01*
X189585Y-78750D01*
X127121Y-78750D01*
X126200Y-78567D01*
X125279Y-78750D01*
X122552Y-79292D01*
X119459Y-81359D01*
X118937Y-82140D01*
X85814Y-115264D01*
X82501Y-115923D01*
X77754Y-119094D01*
X75375Y-122655D01*
X71949Y-118395D01*
X67018Y-115696D01*
X66190Y-115521D01*
X63970Y-116741D01*
X63970Y-140170D01*
X64170Y-140170D01*
X64170Y-142710D01*
X63970Y-142710D01*
X63970Y-166139D01*
X66190Y-167359D01*
X67018Y-167184D01*
X71949Y-164485D01*
X75375Y-160225D01*
X77754Y-163786D01*
X82501Y-166957D01*
X88100Y-168071D01*
X93699Y-166957D01*
X98446Y-163786D01*
X100800Y-160262D01*
X103154Y-163786D01*
X107901Y-166957D01*
X113500Y-168071D01*
X119099Y-166957D01*
X123846Y-163786D01*
X126200Y-160262D01*
X128554Y-163786D01*
X133301Y-166957D01*
X138900Y-168071D01*
X144499Y-166957D01*
X149246Y-163786D01*
X151600Y-160262D01*
X153954Y-163786D01*
X154950Y-164451D01*
X154950Y-219259D01*
X154767Y-220180D01*
X154950Y-221101D01*
X155492Y-223828D01*
X157559Y-226921D01*
X158340Y-227443D01*
X195137Y-264240D01*
X262900Y-332003D01*
X262900Y-335200D01*
X259189Y-332721D01*
X254712Y-331830D01*
X251688Y-331830D01*
X247211Y-332721D01*
X242133Y-336113D01*
X238741Y-341191D01*
X237549Y-347180D01*
X237952Y-349205D01*
X234540Y-352617D01*
X233759Y-353139D01*
X233238Y-353920D01*
X231692Y-356232D01*
X230967Y-359880D01*
X231150Y-360801D01*
X231150Y-411029D01*
X230967Y-411950D01*
X231504Y-414652D01*
X231623Y-415250D01*
X230800Y-414427D01*
X230800Y-349371D01*
X230983Y-348450D01*
X230494Y-345992D01*
X230258Y-344802D01*
X228191Y-341709D01*
X227410Y-341187D01*
X226392Y-340169D01*
X228617Y-336839D01*
X229450Y-332653D01*
X229450Y-305827D01*
X228617Y-301641D01*
X225446Y-296894D01*
X220699Y-293723D01*
X215100Y-292609D01*
X209501Y-293723D01*
X204754Y-296894D01*
X202400Y-300418D01*
X200046Y-296894D01*
X195299Y-293723D01*
X189700Y-292609D01*
X184101Y-293723D01*
X179354Y-296894D01*
X177000Y-300418D01*
X174646Y-296894D01*
X169899Y-293723D01*
X164300Y-292609D01*
X158701Y-293723D01*
X153954Y-296894D01*
X151600Y-300418D01*
X149246Y-296894D01*
X144499Y-293723D01*
X138900Y-292609D01*
X133301Y-293723D01*
X128554Y-296894D01*
X126200Y-300418D01*
X123846Y-296894D01*
X119099Y-293723D01*
X113500Y-292609D01*
X107901Y-293723D01*
X103154Y-296894D01*
X100800Y-300418D01*
X98446Y-296894D01*
X93699Y-293723D01*
X88100Y-292609D01*
X82501Y-293723D01*
X77754Y-296894D01*
X75375Y-300455D01*
X71949Y-296195D01*
X67018Y-293496D01*
X66190Y-293321D01*
X63970Y-294541D01*
X63970Y-317970D01*
X64170Y-317970D01*
X64170Y-320510D01*
X63970Y-320510D01*
X63970Y-343939D01*
X66190Y-345159D01*
X67018Y-344984D01*
X71949Y-342285D01*
X75375Y-338025D01*
X77754Y-341586D01*
X82501Y-344757D01*
X88100Y-345871D01*
X93699Y-344757D01*
X98446Y-341586D01*
X100800Y-338062D01*
X103154Y-341586D01*
X107901Y-344757D01*
X113500Y-345871D01*
X119099Y-344757D01*
X123846Y-341586D01*
X126200Y-338062D01*
X128554Y-341586D01*
X133301Y-344757D01*
X138900Y-345871D01*
X144499Y-344757D01*
X149246Y-341586D01*
X151600Y-338062D01*
X153954Y-341586D01*
X158701Y-344757D01*
X164300Y-345871D01*
X169899Y-344757D01*
X174646Y-341586D01*
X177000Y-338062D01*
X179354Y-341586D01*
X184101Y-344757D01*
X189700Y-345871D01*
X195299Y-344757D01*
X200046Y-341586D01*
X202400Y-338062D01*
X204754Y-341586D01*
X205573Y-342133D01*
X206104Y-344802D01*
X206292Y-345748D01*
X208359Y-348841D01*
X209140Y-349363D01*
X212100Y-352323D01*
X212100Y-417379D01*
X211917Y-418300D01*
X212100Y-419221D01*
X212642Y-421948D01*
X214709Y-425041D01*
X215490Y-425563D01*
X226887Y-436960D01*
X227409Y-437741D01*
X230502Y-439808D01*
X233229Y-440350D01*
X234150Y-440533D01*
X235071Y-440350D01*
X557079Y-440350D01*
X558000Y-440533D01*
X558921Y-440350D01*
X561648Y-439808D01*
X564741Y-437741D01*
X565263Y-436960D01*
X601864Y-400359D01*
X620550Y-400359D01*
X620550Y-410841D01*
X624562Y-420526D01*
X631974Y-427938D01*
X641659Y-431950D01*
X652141Y-431950D01*
X661826Y-427938D01*
X669238Y-420526D01*
X673250Y-410841D01*
X673250Y-400359D01*
X669238Y-390674D01*
X661826Y-383262D01*
X652141Y-379250D01*
X641659Y-379250D01*
X631974Y-383262D01*
X624562Y-390674D01*
X620550Y-400359D01*
X601864Y-400359D01*
X650773Y-351450D01*
X658679Y-351450D01*
X659600Y-351633D01*
X660521Y-351450D01*
X663248Y-350908D01*
X666341Y-348841D01*
X666863Y-348060D01*
X678260Y-336663D01*
X679041Y-336141D01*
X681108Y-333048D01*
X681226Y-332455D01*
X682646Y-331506D01*
X685000Y-327982D01*
X687354Y-331506D01*
X692101Y-334677D01*
X697700Y-335791D01*
X703299Y-334677D01*
X708046Y-331506D01*
X710400Y-327982D01*
X712754Y-331506D01*
X717501Y-334677D01*
X723100Y-335791D01*
X728699Y-334677D01*
X733446Y-331506D01*
X735800Y-327982D01*
X738154Y-331506D01*
X742901Y-334677D01*
X746779Y-335449D01*
X746572Y-335759D01*
X704817Y-370145D01*
X703659Y-370919D01*
X702876Y-372090D01*
X701985Y-373180D01*
X701851Y-373625D01*
X701592Y-374012D01*
X701318Y-375393D01*
X701134Y-376001D01*
X699694Y-376964D01*
X696412Y-381876D01*
X695550Y-386207D01*
X695550Y-402133D01*
X696412Y-406464D01*
X699694Y-411376D01*
X704606Y-414658D01*
X710400Y-415811D01*
X716194Y-414658D01*
X721106Y-411376D01*
X723100Y-408392D01*
X725094Y-411376D01*
X730006Y-414658D01*
X732040Y-415063D01*
X753937Y-436960D01*
X754459Y-437741D01*
X757552Y-439808D01*
X760279Y-440350D01*
X761200Y-440533D01*
X762121Y-440350D01*
X912679Y-440350D01*
X913600Y-440533D01*
X914521Y-440350D01*
X917248Y-439808D01*
X920341Y-437741D01*
X920863Y-436960D01*
X944960Y-412863D01*
X945741Y-412341D01*
X947808Y-409248D01*
X948350Y-406521D01*
X948533Y-405600D01*
X948350Y-404679D01*
X948350Y-138414D01*
X950067Y-137267D01*
X953459Y-132189D01*
X954651Y-126200D01*
X953459Y-120211D01*
X950067Y-115133D01*
X944989Y-111741D01*
X940512Y-110850D01*
X937488Y-110850D01*
X933011Y-111741D01*
X927933Y-115133D01*
X924540Y-120211D01*
X923349Y-126200D01*
X924540Y-132189D01*
X927933Y-137267D01*
X929650Y-138414D01*
X929650Y-401727D01*
X909727Y-421650D01*
X765073Y-421650D01*
X758746Y-415323D01*
X761200Y-415811D01*
X766994Y-414658D01*
X771906Y-411376D01*
X773900Y-408392D01*
X775894Y-411376D01*
X780806Y-414658D01*
X786600Y-415811D01*
X792394Y-414658D01*
X797306Y-411376D01*
X799300Y-408392D01*
X801294Y-411376D01*
X806206Y-414658D01*
X812000Y-415811D01*
X817794Y-414658D01*
X822706Y-411376D01*
X824772Y-408284D01*
X827798Y-412069D01*
X832890Y-414876D01*
X833831Y-415085D01*
X836130Y-413872D01*
X836130Y-395440D01*
X835930Y-395440D01*
X835930Y-392900D01*
X836130Y-392900D01*
X836130Y-392700D01*
X838670Y-392700D01*
X838670Y-392900D01*
X838870Y-392900D01*
X838870Y-395440D01*
X838670Y-395440D01*
X838670Y-413872D01*
X840969Y-415085D01*
X841910Y-414876D01*
X847002Y-412069D01*
X850028Y-408284D01*
X852094Y-411376D01*
X857006Y-414658D01*
X862800Y-415811D01*
X868594Y-414658D01*
X873506Y-411376D01*
X873628Y-411194D01*
X873718Y-411648D01*
X875122Y-413748D01*
X877222Y-415152D01*
X879700Y-415644D01*
X896700Y-415644D01*
X899178Y-415152D01*
X901278Y-413748D01*
X902682Y-411648D01*
X903174Y-409170D01*
X903174Y-402339D01*
X903621Y-402250D01*
X906348Y-401708D01*
X909441Y-399641D01*
X909963Y-398860D01*
X919560Y-389263D01*
X920341Y-388741D01*
X922408Y-385648D01*
X922950Y-382921D01*
X923133Y-382000D01*
X922950Y-381079D01*
X922950Y-216021D01*
X923133Y-215100D01*
X922950Y-214179D01*
X922408Y-211452D01*
X920341Y-208359D01*
X919560Y-207837D01*
X908163Y-196440D01*
X907641Y-195659D01*
X904548Y-193592D01*
X901821Y-193050D01*
X900900Y-192867D01*
X899979Y-193050D01*
X879373Y-193050D01*
X865981Y-179658D01*
X869901Y-182277D01*
X875500Y-183391D01*
X881099Y-182277D01*
X885846Y-179106D01*
X889017Y-174359D01*
X889850Y-170173D01*
X889850Y-153347D01*
X889017Y-149161D01*
X885846Y-144414D01*
X884850Y-143749D01*
X884850Y-139821D01*
X885033Y-138900D01*
X884850Y-137979D01*
X884308Y-135252D01*
X882241Y-132159D01*
X881460Y-131637D01*
X878048Y-128225D01*
X878451Y-126200D01*
X877259Y-120211D01*
X873867Y-115133D01*
X868789Y-111741D01*
X864312Y-110850D01*
X861288Y-110850D01*
X856811Y-111741D01*
X851733Y-115133D01*
X848341Y-120211D01*
X847149Y-126200D01*
X848341Y-132189D01*
X851733Y-137267D01*
X856811Y-140659D01*
X861288Y-141550D01*
X864312Y-141550D01*
X864825Y-141448D01*
X866150Y-142773D01*
X866150Y-143749D01*
X865154Y-144414D01*
X862800Y-147938D01*
X860446Y-144414D01*
X855699Y-141243D01*
X850100Y-140129D01*
X844501Y-141243D01*
X839754Y-144414D01*
X837400Y-147938D01*
X835046Y-144414D01*
X830299Y-141243D01*
X826465Y-140480D01*
X830299Y-139717D01*
X835046Y-136546D01*
X838218Y-131799D01*
X839331Y-126200D01*
X838218Y-120601D01*
X835046Y-115854D01*
X830299Y-112683D01*
X826113Y-111850D01*
X823287Y-111850D01*
X819101Y-112683D01*
X814354Y-115854D01*
X812000Y-119378D01*
X809646Y-115854D01*
X808758Y-115261D01*
X808833Y-114886D01*
X808108Y-111238D01*
X806563Y-108926D01*
X806041Y-108145D01*
X805260Y-107624D01*
X798826Y-101190D01*
X798305Y-100409D01*
X795212Y-98342D01*
X792485Y-97800D01*
X791564Y-97617D01*
X790643Y-97800D01*
X778723Y-97800D01*
X805260Y-71263D01*
X806041Y-70741D01*
X808108Y-67648D01*
X808650Y-64921D01*
X808798Y-64176D01*
X809778Y-63982D01*
X811878Y-62578D01*
X812000Y-62396D01*
X812122Y-62578D01*
X814222Y-63982D01*
X816700Y-64474D01*
X832700Y-64474D01*
X835178Y-63982D01*
X837278Y-62578D01*
X838682Y-60478D01*
X839174Y-58000D01*
X839174Y-44759D01*
X887250Y-44759D01*
X887250Y-55241D01*
X891262Y-64926D01*
X898674Y-72338D01*
X908359Y-76350D01*
X918841Y-76350D01*
X928526Y-72338D01*
X935938Y-64926D01*
X939950Y-55241D01*
X939950Y-44759D01*
X935938Y-35074D01*
X928526Y-27662D01*
X918841Y-23650D01*
X908359Y-23650D01*
X898674Y-27662D01*
X891262Y-35074D01*
X887250Y-44759D01*
X839174Y-44759D01*
X839174Y-42000D01*
X838682Y-39522D01*
X837278Y-37422D01*
X835178Y-36018D01*
X832700Y-35526D01*
X816700Y-35526D01*
X814222Y-36018D01*
X812122Y-37422D01*
X812000Y-37604D01*
X811878Y-37422D01*
X809778Y-36018D01*
X807300Y-35526D01*
X791300Y-35526D01*
X788822Y-36018D01*
X786722Y-37422D01*
X786600Y-37604D01*
X786478Y-37422D01*
X784378Y-36018D01*
X781900Y-35526D01*
X765900Y-35526D01*
X763422Y-36018D01*
X761322Y-37422D01*
X761200Y-37604D01*
X761078Y-37422D01*
X758978Y-36018D01*
X756500Y-35526D01*
X740500Y-35526D01*
X738022Y-36018D01*
X735922Y-37422D01*
X735800Y-37604D01*
X735678Y-37422D01*
X733578Y-36018D01*
X731100Y-35526D01*
X715100Y-35526D01*
X712622Y-36018D01*
X710522Y-37422D01*
X710400Y-37604D01*
X710278Y-37422D01*
X708178Y-36018D01*
X707198Y-35824D01*
X706508Y-32352D01*
X704963Y-30040D01*
X704441Y-29259D01*
X703660Y-28737D01*
X697373Y-22450D01*
X696851Y-21669D01*
X693758Y-19602D01*
X691031Y-19060D01*
X690110Y-18877D01*
X689189Y-19060D01*
X606994Y-19060D01*
X606994Y-18910D01*
X606502Y-16432D01*
X605098Y-14332D01*
X602998Y-12928D01*
X600520Y-12436D01*
X581520Y-12436D01*
X579042Y-12928D01*
X576942Y-14332D01*
X575548Y-16419D01*
X573879Y-14882D01*
X569346Y-13004D01*
X566890Y-14204D01*
X566890Y-27140D01*
X567090Y-27140D01*
X567090Y-29680D01*
X566890Y-29680D01*
X566890Y-42616D01*
X569346Y-43816D01*
X573879Y-41938D01*
X575548Y-40401D01*
X576942Y-42488D01*
X579042Y-43892D01*
X581520Y-44384D01*
X600520Y-44384D01*
X602998Y-43892D01*
X605098Y-42488D01*
X606502Y-40388D01*
X606994Y-37910D01*
X606994Y-37760D01*
X684896Y-37760D01*
X683718Y-39522D01*
X683226Y-42000D01*
X683226Y-58000D01*
X683718Y-60478D01*
X685122Y-62578D01*
X687222Y-63982D01*
X689700Y-64474D01*
X705700Y-64474D01*
X708178Y-63982D01*
X710278Y-62578D01*
X710400Y-62396D01*
X710522Y-62578D01*
X712622Y-63982D01*
X715100Y-64474D01*
X731100Y-64474D01*
X733578Y-63982D01*
X735678Y-62578D01*
X735800Y-62396D01*
X735922Y-62578D01*
X736388Y-62889D01*
X733227Y-66050D01*
X681988Y-66050D01*
X671680Y-57616D01*
X671421Y-57229D01*
X670251Y-56447D01*
X669888Y-56150D01*
X669487Y-55937D01*
X668328Y-55162D01*
X667857Y-55069D01*
X667434Y-54843D01*
X666047Y-54709D01*
X665601Y-54620D01*
X665132Y-54620D01*
X663731Y-54484D01*
X663286Y-54620D01*
X606994Y-54620D01*
X606994Y-54470D01*
X606502Y-51992D01*
X605098Y-49892D01*
X602998Y-48488D01*
X600520Y-47996D01*
X581520Y-47996D01*
X579042Y-48488D01*
X576942Y-49892D01*
X575548Y-51979D01*
X573879Y-50442D01*
X569346Y-48564D01*
X566890Y-49764D01*
X566890Y-62700D01*
X567090Y-62700D01*
X567090Y-65240D01*
X566890Y-65240D01*
X566890Y-78176D01*
X569346Y-79376D01*
X573879Y-77498D01*
X575548Y-75961D01*
X576942Y-78048D01*
X579042Y-79452D01*
X581520Y-79944D01*
X600520Y-79944D01*
X602998Y-79452D01*
X605098Y-78048D01*
X606502Y-75948D01*
X606994Y-73470D01*
X606994Y-73320D01*
X661342Y-73320D01*
X671650Y-81754D01*
X671909Y-82141D01*
X673079Y-82923D01*
X673442Y-83220D01*
X673843Y-83433D01*
X674437Y-83830D01*
X644541Y-83830D01*
X643620Y-83647D01*
X642699Y-83830D01*
X639972Y-84372D01*
X636879Y-86439D01*
X636357Y-87220D01*
X633397Y-90180D01*
X606994Y-90180D01*
X606994Y-90030D01*
X606502Y-87552D01*
X605098Y-85452D01*
X602998Y-84048D01*
X600520Y-83556D01*
X581520Y-83556D01*
X579042Y-84048D01*
X576942Y-85452D01*
X575548Y-87539D01*
X573879Y-86002D01*
X569346Y-84124D01*
X566890Y-85324D01*
X566890Y-98260D01*
X567090Y-98260D01*
X567090Y-100800D01*
X566890Y-100800D01*
X566890Y-113736D01*
X569346Y-114936D01*
X573879Y-113058D01*
X575548Y-111521D01*
X576942Y-113608D01*
X579042Y-115012D01*
X581520Y-115504D01*
X600520Y-115504D01*
X602998Y-115012D01*
X605098Y-113608D01*
X606502Y-111508D01*
X606994Y-109030D01*
X606994Y-108880D01*
X636349Y-108880D01*
X637270Y-109063D01*
X638191Y-108880D01*
X640918Y-108338D01*
X644011Y-106271D01*
X644533Y-105490D01*
X647493Y-102530D01*
X650997Y-102530D01*
X636677Y-116850D01*
X536473Y-116850D01*
X529250Y-109627D01*
X529250Y-103256D01*
X550214Y-103256D01*
X552813Y-108868D01*
X557361Y-113058D01*
X561894Y-114936D01*
X564350Y-113736D01*
X564350Y-100800D01*
X551408Y-100800D01*
X550214Y-103256D01*
X529250Y-103256D01*
X529250Y-95804D01*
X550214Y-95804D01*
X551408Y-98260D01*
X564350Y-98260D01*
X564350Y-85324D01*
X561894Y-84124D01*
X557361Y-86002D01*
X552813Y-90192D01*
X550214Y-95804D01*
X529250Y-95804D01*
X529250Y-76321D01*
X529433Y-75400D01*
X528708Y-71752D01*
X527163Y-69440D01*
X526641Y-68659D01*
X525860Y-68137D01*
X525419Y-67696D01*
X550214Y-67696D01*
X552813Y-73308D01*
X557361Y-77498D01*
X561894Y-79376D01*
X564350Y-78176D01*
X564350Y-65240D01*
X551408Y-65240D01*
X550214Y-67696D01*
X525419Y-67696D01*
X517967Y-60244D01*
X550214Y-60244D01*
X551408Y-62700D01*
X564350Y-62700D01*
X564350Y-49764D01*
X561894Y-48564D01*
X557361Y-50442D01*
X552813Y-54632D01*
X550214Y-60244D01*
X517967Y-60244D01*
X508113Y-50390D01*
X507591Y-49609D01*
X504498Y-47543D01*
X501771Y-47000D01*
X500850Y-46817D01*
X499929Y-47000D01*
X379714Y-47000D01*
X378567Y-45283D01*
X373489Y-41891D01*
X369012Y-41000D01*
X365988Y-41000D01*
X361511Y-41891D01*
X356433Y-45283D01*
X353041Y-50361D01*
X351849Y-56350D01*
X353041Y-62339D01*
X356433Y-67417D01*
X361511Y-70809D01*
X365988Y-71700D01*
X369012Y-71700D01*
X373489Y-70809D01*
X378567Y-67417D01*
X379714Y-65700D01*
X496977Y-65700D01*
X510550Y-79273D01*
X510550Y-112579D01*
X510367Y-113500D01*
X510772Y-115539D01*
X511092Y-117148D01*
X513159Y-120241D01*
X513940Y-120763D01*
X525337Y-132160D01*
X525859Y-132941D01*
X528952Y-135008D01*
X531679Y-135550D01*
X532600Y-135733D01*
X533521Y-135550D01*
X639629Y-135550D01*
X640550Y-135733D01*
X641471Y-135550D01*
X644198Y-135008D01*
X647291Y-132941D01*
X647813Y-132160D01*
X663473Y-116500D01*
X686923Y-116500D01*
X684183Y-120601D01*
X683069Y-126200D01*
X684183Y-131799D01*
X687354Y-136546D01*
X692101Y-139717D01*
X695935Y-140480D01*
X692101Y-141243D01*
X687354Y-144414D01*
X685000Y-147938D01*
X682646Y-144414D01*
X677899Y-141243D01*
X672300Y-140129D01*
X666701Y-141243D01*
X661954Y-144414D01*
X659600Y-147938D01*
X657246Y-144414D01*
X652499Y-141243D01*
X646900Y-140129D01*
X641301Y-141243D01*
X636554Y-144414D01*
X634200Y-147938D01*
X631846Y-144414D01*
X627099Y-141243D01*
X621500Y-140129D01*
X615901Y-141243D01*
X611154Y-144414D01*
X608800Y-147938D01*
X606446Y-144414D01*
X601699Y-141243D01*
X596100Y-140129D01*
X590501Y-141243D01*
X585754Y-144414D01*
X583400Y-147938D01*
X581046Y-144414D01*
X576299Y-141243D01*
X570700Y-140129D01*
X565101Y-141243D01*
X560354Y-144414D01*
X557975Y-147975D01*
X554549Y-143715D01*
X549618Y-141016D01*
X548790Y-140841D01*
X546570Y-142061D01*
X546570Y-160490D01*
X546770Y-160490D01*
X546770Y-163030D01*
X546570Y-163030D01*
X546570Y-163230D01*
X544030Y-163230D01*
X544030Y-163030D01*
X543830Y-163030D01*
X543830Y-160490D01*
X544030Y-160490D01*
X544030Y-142061D01*
X541810Y-140841D01*
X540982Y-141016D01*
X536051Y-143715D01*
X532625Y-147975D01*
X530246Y-144414D01*
X525499Y-141243D01*
X519900Y-140129D01*
X514301Y-141243D01*
X509554Y-144414D01*
X506383Y-149161D01*
X505550Y-153347D01*
X505550Y-170173D01*
X506354Y-174217D01*
X504850Y-172713D01*
X504850Y-101819D01*
X505053Y-100800D01*
X504850Y-99781D01*
X504249Y-96762D01*
X501962Y-93338D01*
X501098Y-92761D01*
X487299Y-78962D01*
X486722Y-78098D01*
X483298Y-75810D01*
X480279Y-75210D01*
X479260Y-75007D01*
X478241Y-75210D01*
X349664Y-75210D01*
X348557Y-73804D01*
X348442Y-73600D01*
X347928Y-73004D01*
X347442Y-72387D01*
X347263Y-72234D01*
X343050Y-67352D01*
X346399Y-62339D01*
X347591Y-56350D01*
X346399Y-50361D01*
X343007Y-45283D01*
X337929Y-41891D01*
X333452Y-41000D01*
X330750Y-41000D01*
X329628Y-40251D01*
X326609Y-39650D01*
X325590Y-39447D01*
X324571Y-39650D01*
X288544Y-39650D01*
X286729Y-37835D01*
X281454Y-35650D01*
X275746Y-35650D01*
X270471Y-37835D01*
X266435Y-41871D01*
X264250Y-47146D01*
X264250Y-49713D01*
X264002Y-49961D01*
X233522Y-80441D01*
X232658Y-81018D01*
X232081Y-81882D01*
X230370Y-84442D01*
X229567Y-88480D01*
X229770Y-89499D01*
X229770Y-100133D01*
X215092Y-114810D01*
X209501Y-115923D01*
X204754Y-119094D01*
X202400Y-122618D01*
X200046Y-119094D01*
X195299Y-115923D01*
X189700Y-114809D01*
X184101Y-115923D01*
X179354Y-119094D01*
X177000Y-122618D01*
X174646Y-119094D01*
X169899Y-115923D01*
X164300Y-114809D01*
X158701Y-115923D01*
X153954Y-119094D01*
X151600Y-122618D01*
X149246Y-119094D01*
X144499Y-115923D01*
X138900Y-114809D01*
X133301Y-115923D01*
X128554Y-119094D01*
X126200Y-122618D01*
X123846Y-119094D01*
X119099Y-115923D01*
X113500Y-114809D01*
X112519Y-115004D01*
X130073Y-97450D01*
X189585Y-97450D01*
X190973Y-99527D01*
X196216Y-103030D01*
X200839Y-103950D01*
X203961Y-103950D01*
X208584Y-103030D01*
X213827Y-99527D01*
X217330Y-94284D01*
X218560Y-88100D01*
X217330Y-81916D01*
X214694Y-77970D01*
X216478Y-76778D01*
X217882Y-74678D01*
X218374Y-72200D01*
X218374Y-53200D01*
X217882Y-50722D01*
X216478Y-48622D01*
X214378Y-47218D01*
X211900Y-46726D01*
X192900Y-46726D01*
X190422Y-47218D01*
X188322Y-48622D01*
X186918Y-50722D01*
X186426Y-53200D01*
X186426Y-53350D01*
X114421Y-53350D01*
X113500Y-53167D01*
X112579Y-53350D01*
X109852Y-53892D01*
X106759Y-55959D01*
X106237Y-56740D01*
X71527Y-91450D01*
X50921Y-91450D01*
X50000Y-91267D01*
X49079Y-91450D01*
X46352Y-91992D01*
X43259Y-94059D01*
X42737Y-94840D01*
X31340Y-106237D01*
X30559Y-106759D01*
X28656Y-109608D01*
X28492Y-109852D01*
X27767Y-113500D01*
X27950Y-114421D01*
X27950Y-118429D01*
X26954Y-119094D01*
X23783Y-123841D01*
X22950Y-128027D01*
X22950Y-154853D01*
X470Y-154853D01*
X470Y-44759D01*
X23650Y-44759D01*
X23650Y-55241D01*
X27662Y-64926D01*
X35074Y-72338D01*
X44759Y-76350D01*
X55241Y-76350D01*
X64926Y-72338D01*
X72338Y-64926D01*
X76350Y-55241D01*
X76350Y-44759D01*
X72338Y-35074D01*
X69400Y-32136D01*
X550214Y-32136D01*
X552813Y-37748D01*
X557361Y-41938D01*
X561894Y-43816D01*
X564350Y-42616D01*
X564350Y-29680D01*
X551408Y-29680D01*
X550214Y-32136D01*
X69400Y-32136D01*
X64926Y-27662D01*
X57738Y-24684D01*
X550214Y-24684D01*
X551408Y-27140D01*
X564350Y-27140D01*
X564350Y-14204D01*
X561894Y-13004D01*
X557361Y-14882D01*
X552813Y-19072D01*
X550214Y-24684D01*
X57738Y-24684D01*
X55241Y-23650D01*
X44759Y-23650D01*
X35074Y-27662D01*
X27662Y-35074D01*
X23650Y-44759D01*
X470Y-44759D01*
X470Y-470D01*
X963130Y-470D01*
X963130Y-455130D01*
G37*
G54D27*
X963130Y-470D02*
X963130Y-455130D01*
X470Y-455130D01*
X470Y-400359D01*
X23650Y-400359D01*
X23650Y-410841D01*
X27662Y-420526D01*
X35074Y-427938D01*
X44759Y-431950D01*
X55241Y-431950D01*
X64926Y-427938D01*
X72109Y-420756D01*
X136194Y-420756D01*
X138793Y-426368D01*
X143341Y-430558D01*
X147874Y-432436D01*
X150330Y-431236D01*
X150330Y-418300D01*
X137388Y-418300D01*
X136194Y-420756D01*
X72109Y-420756D01*
X72338Y-420526D01*
X75330Y-413304D01*
X136194Y-413304D01*
X137388Y-415760D01*
X150330Y-415760D01*
X150330Y-402824D01*
X152870Y-402824D01*
X152870Y-415760D01*
X153070Y-415760D01*
X153070Y-418300D01*
X152870Y-418300D01*
X152870Y-431236D01*
X155326Y-432436D01*
X159859Y-430558D01*
X161528Y-429021D01*
X162922Y-431108D01*
X165022Y-432512D01*
X167500Y-433004D01*
X186500Y-433004D01*
X188978Y-432512D01*
X191078Y-431108D01*
X192482Y-429008D01*
X192974Y-426530D01*
X192974Y-407530D01*
X192482Y-405052D01*
X191078Y-402952D01*
X188978Y-401548D01*
X188350Y-401424D01*
X188350Y-393483D01*
X189509Y-392709D01*
X193343Y-386970D01*
X194690Y-380200D01*
X193343Y-373430D01*
X189509Y-367691D01*
X183770Y-363857D01*
X178709Y-362850D01*
X175291Y-362850D01*
X170230Y-363857D01*
X164491Y-367691D01*
X160657Y-373430D01*
X159310Y-380200D01*
X160657Y-386970D01*
X164491Y-392709D01*
X165650Y-393483D01*
X165650Y-401424D01*
X165022Y-401548D01*
X162922Y-402952D01*
X161528Y-405039D01*
X159859Y-403502D01*
X155326Y-401624D01*
X152870Y-402824D01*
X150330Y-402824D01*
X147874Y-401624D01*
X143341Y-403502D01*
X138793Y-407692D01*
X136194Y-413304D01*
X75330Y-413304D01*
X76350Y-410841D01*
X76350Y-400359D01*
X72338Y-390674D01*
X64926Y-383262D01*
X55241Y-379250D01*
X44759Y-379250D01*
X35074Y-383262D01*
X27662Y-390674D01*
X23650Y-400359D01*
X470Y-400359D01*
X470Y-332653D01*
X22950Y-332653D01*
X23783Y-336839D01*
X26954Y-341586D01*
X31701Y-344757D01*
X37300Y-345871D01*
X42899Y-344757D01*
X47646Y-341586D01*
X50025Y-338025D01*
X53451Y-342285D01*
X58382Y-344984D01*
X59210Y-345159D01*
X61430Y-343939D01*
X61430Y-320510D01*
X61230Y-320510D01*
X61230Y-317970D01*
X61430Y-317970D01*
X61430Y-294541D01*
X59210Y-293321D01*
X58382Y-293496D01*
X53451Y-296195D01*
X50025Y-300455D01*
X47646Y-296894D01*
X42899Y-293723D01*
X37300Y-292609D01*
X31701Y-293723D01*
X26954Y-296894D01*
X23783Y-301641D01*
X22950Y-305827D01*
X22950Y-332653D01*
X470Y-332653D01*
X470Y-154853D01*
X22950Y-154853D01*
X23783Y-159039D01*
X26954Y-163786D01*
X31701Y-166957D01*
X37300Y-168071D01*
X42899Y-166957D01*
X47646Y-163786D01*
X50025Y-160225D01*
X53451Y-164485D01*
X58382Y-167184D01*
X59210Y-167359D01*
X61430Y-166139D01*
X61430Y-142710D01*
X61230Y-142710D01*
X61230Y-140170D01*
X61430Y-140170D01*
X61430Y-116741D01*
X59210Y-115521D01*
X58382Y-115696D01*
X53451Y-118395D01*
X50025Y-122655D01*
X47646Y-119094D01*
X46650Y-118429D01*
X46650Y-117373D01*
X53873Y-110150D01*
X74479Y-110150D01*
X75400Y-110333D01*
X76321Y-110150D01*
X79048Y-109608D01*
X82141Y-107541D01*
X82663Y-106760D01*
X117373Y-72050D01*
X186426Y-72050D01*
X186426Y-72200D01*
X186918Y-74678D01*
X188322Y-76778D01*
X190106Y-77970D01*
X189585Y-78750D01*
X127121Y-78750D01*
X126200Y-78567D01*
X125279Y-78750D01*
X122552Y-79292D01*
X119459Y-81359D01*
X118937Y-82140D01*
X85814Y-115264D01*
X82501Y-115923D01*
X77754Y-119094D01*
X75375Y-122655D01*
X71949Y-118395D01*
X67018Y-115696D01*
X66190Y-115521D01*
X63970Y-116741D01*
X63970Y-140170D01*
X64170Y-140170D01*
X64170Y-142710D01*
X63970Y-142710D01*
X63970Y-166139D01*
X66190Y-167359D01*
X67018Y-167184D01*
X71949Y-164485D01*
X75375Y-160225D01*
X77754Y-163786D01*
X82501Y-166957D01*
X88100Y-168071D01*
X93699Y-166957D01*
X98446Y-163786D01*
X100800Y-160262D01*
X103154Y-163786D01*
X107901Y-166957D01*
X113500Y-168071D01*
X119099Y-166957D01*
X123846Y-163786D01*
X126200Y-160262D01*
X128554Y-163786D01*
X133301Y-166957D01*
X138900Y-168071D01*
X144499Y-166957D01*
X149246Y-163786D01*
X151600Y-160262D01*
X153954Y-163786D01*
X154950Y-164451D01*
X154950Y-219259D01*
X154767Y-220180D01*
X154950Y-221101D01*
X155492Y-223828D01*
X157559Y-226921D01*
X158340Y-227443D01*
X195137Y-264240D01*
X262900Y-332003D01*
X262900Y-335200D01*
X259189Y-332721D01*
X254712Y-331830D01*
X251688Y-331830D01*
X247211Y-332721D01*
X242133Y-336113D01*
X238741Y-341191D01*
X237549Y-347180D01*
X237952Y-349205D01*
X234540Y-352617D01*
X233759Y-353139D01*
X233238Y-353920D01*
X233237Y-353920D01*
X231692Y-356232D01*
X230967Y-359880D01*
X231150Y-360801D01*
X231150Y-411029D01*
X230967Y-411950D01*
X231504Y-414652D01*
X231623Y-415250D01*
X230800Y-414427D01*
X230800Y-349371D01*
X230983Y-348450D01*
X230494Y-345992D01*
X230258Y-344802D01*
X228191Y-341709D01*
X227410Y-341187D01*
X226392Y-340169D01*
X228617Y-336839D01*
X229450Y-332653D01*
X229450Y-305827D01*
X228617Y-301641D01*
X225446Y-296894D01*
X220699Y-293723D01*
X215100Y-292609D01*
X209501Y-293723D01*
X204754Y-296894D01*
X202400Y-300418D01*
X200046Y-296894D01*
X195299Y-293723D01*
X189700Y-292609D01*
X184101Y-293723D01*
X179354Y-296894D01*
X177000Y-300418D01*
X174646Y-296894D01*
X169899Y-293723D01*
X164300Y-292609D01*
X158701Y-293723D01*
X153954Y-296894D01*
X151600Y-300418D01*
X149246Y-296894D01*
X144499Y-293723D01*
X138900Y-292609D01*
X133301Y-293723D01*
X128554Y-296894D01*
X126200Y-300418D01*
X123846Y-296894D01*
X119099Y-293723D01*
X113500Y-292609D01*
X107901Y-293723D01*
X103154Y-296894D01*
X100800Y-300418D01*
X98446Y-296894D01*
X93699Y-293723D01*
X88100Y-292609D01*
X82501Y-293723D01*
X77754Y-296894D01*
X75375Y-300455D01*
X71949Y-296195D01*
X67018Y-293496D01*
X66190Y-293321D01*
X63970Y-294541D01*
X63970Y-317970D01*
X64170Y-317970D01*
X64170Y-320510D01*
X63970Y-320510D01*
X63970Y-343939D01*
X66190Y-345159D01*
X67018Y-344984D01*
X71949Y-342285D01*
X75375Y-338025D01*
X77754Y-341586D01*
X82501Y-344757D01*
X88100Y-345871D01*
X93699Y-344757D01*
X98446Y-341586D01*
X100800Y-338062D01*
X103154Y-341586D01*
X107901Y-344757D01*
X113500Y-345871D01*
X119099Y-344757D01*
X123846Y-341586D01*
X126200Y-338062D01*
X128554Y-341586D01*
X133301Y-344757D01*
X138900Y-345871D01*
X144499Y-344757D01*
X149246Y-341586D01*
X151600Y-338062D01*
X153954Y-341586D01*
X158701Y-344757D01*
X164300Y-345871D01*
X169899Y-344757D01*
X174646Y-341586D01*
X177000Y-338062D01*
X179354Y-341586D01*
X184101Y-344757D01*
X189700Y-345871D01*
X195299Y-344757D01*
X200046Y-341586D01*
X202400Y-338062D01*
X204754Y-341586D01*
X205573Y-342133D01*
X206104Y-344802D01*
X206292Y-345748D01*
X208359Y-348841D01*
X209140Y-349363D01*
X212100Y-352323D01*
X212100Y-417379D01*
X211917Y-418300D01*
X212100Y-419221D01*
X212642Y-421948D01*
X214709Y-425041D01*
X215490Y-425563D01*
X226887Y-436960D01*
X227409Y-437741D01*
X230502Y-439808D01*
X233229Y-440350D01*
X233229Y-440350D01*
X234150Y-440533D01*
X235071Y-440350D01*
X557079Y-440350D01*
X558000Y-440533D01*
X558921Y-440350D01*
X561648Y-439808D01*
X564741Y-437741D01*
X565263Y-436960D01*
X601864Y-400359D01*
X620550Y-400359D01*
X620550Y-410841D01*
X624562Y-420526D01*
X631974Y-427938D01*
X641659Y-431950D01*
X652141Y-431950D01*
X661826Y-427938D01*
X669238Y-420526D01*
X673250Y-410841D01*
X673250Y-400359D01*
X669238Y-390674D01*
X661826Y-383262D01*
X652141Y-379250D01*
X641659Y-379250D01*
X631974Y-383262D01*
X624562Y-390674D01*
X620550Y-400359D01*
X601864Y-400359D01*
X650773Y-351450D01*
X658679Y-351450D01*
X659600Y-351633D01*
X660521Y-351450D01*
X663248Y-350908D01*
X666341Y-348841D01*
X666863Y-348060D01*
X678260Y-336663D01*
X679041Y-336141D01*
X681108Y-333048D01*
X681226Y-332455D01*
X682646Y-331506D01*
X685000Y-327982D01*
X687354Y-331506D01*
X692101Y-334677D01*
X697700Y-335791D01*
X703299Y-334677D01*
X708046Y-331506D01*
X710400Y-327982D01*
X712754Y-331506D01*
X717501Y-334677D01*
X723100Y-335791D01*
X728699Y-334677D01*
X733446Y-331506D01*
X735800Y-327982D01*
X738154Y-331506D01*
X742901Y-334677D01*
X746779Y-335449D01*
X746572Y-335759D01*
X704817Y-370145D01*
X703659Y-370919D01*
X702876Y-372090D01*
X701985Y-373180D01*
X701851Y-373625D01*
X701592Y-374012D01*
X701318Y-375393D01*
X701134Y-376001D01*
X699694Y-376964D01*
X696412Y-381876D01*
X695550Y-386207D01*
X695550Y-402133D01*
X696412Y-406464D01*
X699694Y-411376D01*
X704606Y-414658D01*
X710400Y-415811D01*
X716194Y-414658D01*
X721106Y-411376D01*
X723100Y-408392D01*
X725094Y-411376D01*
X730006Y-414658D01*
X732040Y-415063D01*
X753937Y-436960D01*
X754459Y-437741D01*
X757552Y-439808D01*
X760279Y-440350D01*
X760279Y-440350D01*
X761200Y-440533D01*
X762121Y-440350D01*
X912679Y-440350D01*
X913600Y-440533D01*
X914521Y-440350D01*
X917248Y-439808D01*
X920341Y-437741D01*
X920863Y-436960D01*
X944960Y-412863D01*
X945741Y-412341D01*
X947808Y-409248D01*
X948350Y-406521D01*
X948350Y-406521D01*
X948533Y-405600D01*
X948350Y-404679D01*
X948350Y-138414D01*
X950067Y-137267D01*
X953459Y-132189D01*
X954651Y-126200D01*
X953459Y-120211D01*
X950067Y-115133D01*
X944989Y-111741D01*
X940512Y-110850D01*
X937488Y-110850D01*
X933011Y-111741D01*
X927933Y-115133D01*
X924540Y-120211D01*
X923349Y-126200D01*
X924540Y-132189D01*
X927933Y-137267D01*
X929650Y-138414D01*
X929650Y-401727D01*
X909727Y-421650D01*
X765073Y-421650D01*
X758746Y-415323D01*
X761200Y-415811D01*
X766994Y-414658D01*
X771906Y-411376D01*
X773900Y-408392D01*
X775894Y-411376D01*
X780806Y-414658D01*
X786600Y-415811D01*
X792394Y-414658D01*
X797306Y-411376D01*
X799300Y-408392D01*
X801294Y-411376D01*
X806206Y-414658D01*
X812000Y-415811D01*
X817794Y-414658D01*
X822706Y-411376D01*
X824772Y-408284D01*
X827798Y-412069D01*
X832890Y-414876D01*
X833831Y-415085D01*
X836130Y-413872D01*
X836130Y-395440D01*
X835930Y-395440D01*
X835930Y-392900D01*
X836130Y-392900D01*
X836130Y-392700D01*
X838670Y-392700D01*
X838670Y-392900D01*
X838870Y-392900D01*
X838870Y-395440D01*
X838670Y-395440D01*
X838670Y-413872D01*
X840969Y-415085D01*
X841910Y-414876D01*
X847002Y-412069D01*
X850028Y-408284D01*
X852094Y-411376D01*
X857006Y-414658D01*
X862800Y-415811D01*
X868594Y-414658D01*
X873506Y-411376D01*
X873628Y-411194D01*
X873718Y-411648D01*
X875122Y-413748D01*
X877222Y-415152D01*
X879700Y-415644D01*
X896700Y-415644D01*
X899178Y-415152D01*
X901278Y-413748D01*
X902682Y-411648D01*
X903174Y-409170D01*
X903174Y-402339D01*
X903621Y-402250D01*
X906348Y-401708D01*
X909441Y-399641D01*
X909963Y-398860D01*
X919560Y-389263D01*
X920341Y-388741D01*
X922408Y-385648D01*
X922950Y-382921D01*
X923133Y-382000D01*
X922950Y-381079D01*
X922950Y-216021D01*
X923133Y-215100D01*
X922950Y-214179D01*
X922950Y-214179D01*
X922408Y-211452D01*
X920341Y-208359D01*
X919560Y-207837D01*
X908163Y-196440D01*
X907641Y-195659D01*
X904548Y-193592D01*
X901821Y-193050D01*
X900900Y-192867D01*
X899979Y-193050D01*
X879373Y-193050D01*
X865981Y-179658D01*
X869901Y-182277D01*
X875500Y-183391D01*
X881099Y-182277D01*
X885846Y-179106D01*
X889017Y-174359D01*
X889850Y-170173D01*
X889850Y-153347D01*
X889017Y-149161D01*
X885846Y-144414D01*
X884850Y-143749D01*
X884850Y-139821D01*
X885033Y-138900D01*
X884850Y-137979D01*
X884850Y-137979D01*
X884308Y-135252D01*
X882241Y-132159D01*
X881460Y-131637D01*
X878048Y-128225D01*
X878451Y-126200D01*
X877259Y-120211D01*
X873867Y-115133D01*
X868789Y-111741D01*
X864312Y-110850D01*
X861288Y-110850D01*
X856811Y-111741D01*
X851733Y-115133D01*
X848341Y-120211D01*
X847149Y-126200D01*
X848341Y-132189D01*
X851733Y-137267D01*
X856811Y-140659D01*
X861288Y-141550D01*
X864312Y-141550D01*
X864825Y-141448D01*
X866150Y-142773D01*
X866150Y-143749D01*
X865154Y-144414D01*
X862800Y-147938D01*
X860446Y-144414D01*
X855699Y-141243D01*
X850100Y-140129D01*
X844501Y-141243D01*
X839754Y-144414D01*
X837400Y-147938D01*
X835046Y-144414D01*
X830299Y-141243D01*
X826465Y-140480D01*
X830299Y-139717D01*
X835046Y-136546D01*
X838218Y-131799D01*
X839331Y-126200D01*
X838218Y-120601D01*
X835046Y-115854D01*
X830299Y-112683D01*
X826113Y-111850D01*
X823287Y-111850D01*
X819101Y-112683D01*
X814354Y-115854D01*
X812000Y-119378D01*
X809646Y-115854D01*
X808758Y-115261D01*
X808833Y-114886D01*
X808108Y-111238D01*
X806563Y-108926D01*
X806041Y-108145D01*
X805260Y-107624D01*
X798826Y-101190D01*
X798305Y-100409D01*
X795212Y-98342D01*
X792485Y-97800D01*
X791564Y-97617D01*
X790643Y-97800D01*
X778723Y-97800D01*
X805260Y-71263D01*
X806041Y-70741D01*
X808108Y-67648D01*
X808650Y-64921D01*
X808650Y-64921D01*
X808798Y-64176D01*
X809778Y-63982D01*
X811878Y-62578D01*
X812000Y-62396D01*
X812122Y-62578D01*
X814222Y-63982D01*
X816700Y-64474D01*
X832700Y-64474D01*
X835178Y-63982D01*
X837278Y-62578D01*
X838682Y-60478D01*
X839174Y-58000D01*
X839174Y-44759D01*
X887250Y-44759D01*
X887250Y-55241D01*
X891262Y-64926D01*
X898674Y-72338D01*
X908359Y-76350D01*
X918841Y-76350D01*
X928526Y-72338D01*
X935938Y-64926D01*
X939950Y-55241D01*
X939950Y-44759D01*
X935938Y-35074D01*
X928526Y-27662D01*
X918841Y-23650D01*
X908359Y-23650D01*
X898674Y-27662D01*
X891262Y-35074D01*
X887250Y-44759D01*
X839174Y-44759D01*
X839174Y-42000D01*
X838682Y-39522D01*
X837278Y-37422D01*
X835178Y-36018D01*
X832700Y-35526D01*
X816700Y-35526D01*
X814222Y-36018D01*
X812122Y-37422D01*
X812000Y-37604D01*
X811878Y-37422D01*
X809778Y-36018D01*
X807300Y-35526D01*
X791300Y-35526D01*
X788822Y-36018D01*
X786722Y-37422D01*
X786600Y-37604D01*
X786478Y-37422D01*
X784378Y-36018D01*
X781900Y-35526D01*
X765900Y-35526D01*
X763422Y-36018D01*
X761322Y-37422D01*
X761200Y-37604D01*
X761078Y-37422D01*
X758978Y-36018D01*
X756500Y-35526D01*
X740500Y-35526D01*
X738022Y-36018D01*
X735922Y-37422D01*
X735800Y-37604D01*
X735678Y-37422D01*
X733578Y-36018D01*
X731100Y-35526D01*
X715100Y-35526D01*
X712622Y-36018D01*
X710522Y-37422D01*
X710400Y-37604D01*
X710278Y-37422D01*
X708178Y-36018D01*
X707198Y-35824D01*
X706508Y-32352D01*
X704963Y-30040D01*
X704441Y-29259D01*
X703660Y-28737D01*
X697373Y-22450D01*
X696851Y-21669D01*
X693758Y-19602D01*
X691031Y-19060D01*
X690110Y-18877D01*
X689189Y-19060D01*
X606994Y-19060D01*
X606994Y-18910D01*
X606502Y-16432D01*
X605098Y-14332D01*
X602998Y-12928D01*
X600520Y-12436D01*
X581520Y-12436D01*
X579042Y-12928D01*
X576942Y-14332D01*
X575548Y-16419D01*
X573879Y-14882D01*
X569346Y-13004D01*
X566890Y-14204D01*
X566890Y-27140D01*
X567090Y-27140D01*
X567090Y-29680D01*
X566890Y-29680D01*
X566890Y-42616D01*
X569346Y-43816D01*
X573879Y-41938D01*
X575548Y-40401D01*
X576942Y-42488D01*
X579042Y-43892D01*
X581520Y-44384D01*
X600520Y-44384D01*
X602998Y-43892D01*
X605098Y-42488D01*
X606502Y-40388D01*
X606994Y-37910D01*
X606994Y-37760D01*
X684896Y-37760D01*
X683718Y-39522D01*
X683226Y-42000D01*
X683226Y-58000D01*
X683718Y-60478D01*
X685122Y-62578D01*
X687222Y-63982D01*
X689700Y-64474D01*
X705700Y-64474D01*
X708178Y-63982D01*
X710278Y-62578D01*
X710400Y-62396D01*
X710522Y-62578D01*
X712622Y-63982D01*
X715100Y-64474D01*
X731100Y-64474D01*
X733578Y-63982D01*
X735678Y-62578D01*
X735800Y-62396D01*
X735922Y-62578D01*
X736388Y-62889D01*
X733227Y-66050D01*
X681988Y-66050D01*
X671680Y-57616D01*
X671421Y-57229D01*
X670251Y-56447D01*
X669888Y-56150D01*
X669487Y-55937D01*
X668328Y-55162D01*
X667857Y-55069D01*
X667434Y-54843D01*
X666047Y-54709D01*
X665601Y-54620D01*
X665132Y-54620D01*
X663731Y-54484D01*
X663286Y-54620D01*
X606994Y-54620D01*
X606994Y-54470D01*
X606502Y-51992D01*
X605098Y-49892D01*
X602998Y-48488D01*
X600520Y-47996D01*
X581520Y-47996D01*
X579042Y-48488D01*
X576942Y-49892D01*
X575548Y-51979D01*
X573879Y-50442D01*
X569346Y-48564D01*
X566890Y-49764D01*
X566890Y-62700D01*
X567090Y-62700D01*
X567090Y-65240D01*
X566890Y-65240D01*
X566890Y-78176D01*
X569346Y-79376D01*
X573879Y-77498D01*
X575548Y-75961D01*
X576942Y-78048D01*
X579042Y-79452D01*
X581520Y-79944D01*
X600520Y-79944D01*
X602998Y-79452D01*
X605098Y-78048D01*
X606502Y-75948D01*
X606994Y-73470D01*
X606994Y-73320D01*
X661342Y-73320D01*
X671650Y-81754D01*
X671909Y-82141D01*
X673079Y-82923D01*
X673442Y-83220D01*
X673843Y-83433D01*
X674437Y-83830D01*
X644541Y-83830D01*
X643620Y-83647D01*
X642699Y-83830D01*
X639972Y-84372D01*
X636879Y-86439D01*
X636357Y-87220D01*
X633397Y-90180D01*
X606994Y-90180D01*
X606994Y-90030D01*
X606502Y-87552D01*
X605098Y-85452D01*
X602998Y-84048D01*
X600520Y-83556D01*
X581520Y-83556D01*
X579042Y-84048D01*
X576942Y-85452D01*
X575548Y-87539D01*
X573879Y-86002D01*
X569346Y-84124D01*
X566890Y-85324D01*
X566890Y-98260D01*
X567090Y-98260D01*
X567090Y-100800D01*
X566890Y-100800D01*
X566890Y-113736D01*
X569346Y-114936D01*
X573879Y-113058D01*
X575548Y-111521D01*
X576942Y-113608D01*
X579042Y-115012D01*
X581520Y-115504D01*
X600520Y-115504D01*
X602998Y-115012D01*
X605098Y-113608D01*
X606502Y-111508D01*
X606994Y-109030D01*
X606994Y-108880D01*
X636349Y-108880D01*
X637270Y-109063D01*
X638191Y-108880D01*
X640918Y-108338D01*
X644011Y-106271D01*
X644533Y-105490D01*
X647493Y-102530D01*
X650997Y-102530D01*
X636677Y-116850D01*
X536473Y-116850D01*
X529250Y-109627D01*
X529250Y-103256D01*
X550214Y-103256D01*
X552813Y-108868D01*
X557361Y-113058D01*
X561894Y-114936D01*
X564350Y-113736D01*
X564350Y-100800D01*
X551408Y-100800D01*
X550214Y-103256D01*
X529250Y-103256D01*
X529250Y-95804D01*
X550214Y-95804D01*
X551408Y-98260D01*
X564350Y-98260D01*
X564350Y-85324D01*
X561894Y-84124D01*
X557361Y-86002D01*
X552813Y-90192D01*
X550214Y-95804D01*
X529250Y-95804D01*
X529250Y-76321D01*
X529433Y-75400D01*
X528708Y-71752D01*
X527163Y-69440D01*
X526641Y-68659D01*
X525860Y-68137D01*
X525419Y-67696D01*
X550214Y-67696D01*
X552813Y-73308D01*
X557361Y-77498D01*
X561894Y-79376D01*
X564350Y-78176D01*
X564350Y-65240D01*
X551408Y-65240D01*
X550214Y-67696D01*
X525419Y-67696D01*
X517967Y-60244D01*
X550214Y-60244D01*
X551408Y-62700D01*
X564350Y-62700D01*
X564350Y-49764D01*
X561894Y-48564D01*
X557361Y-50442D01*
X552813Y-54632D01*
X550214Y-60244D01*
X517967Y-60244D01*
X508113Y-50390D01*
X507591Y-49609D01*
X504498Y-47543D01*
X501771Y-47000D01*
X500850Y-46817D01*
X499929Y-47000D01*
X379714Y-47000D01*
X378567Y-45283D01*
X373489Y-41891D01*
X369012Y-41000D01*
X365988Y-41000D01*
X361511Y-41891D01*
X356433Y-45283D01*
X353041Y-50361D01*
X351849Y-56350D01*
X353041Y-62339D01*
X356433Y-67417D01*
X361511Y-70809D01*
X365988Y-71700D01*
X369012Y-71700D01*
X373489Y-70809D01*
X378567Y-67417D01*
X379714Y-65700D01*
X496977Y-65700D01*
X510550Y-79273D01*
X510550Y-112579D01*
X510367Y-113500D01*
X510772Y-115539D01*
X511092Y-117148D01*
X513159Y-120241D01*
X513940Y-120763D01*
X525337Y-132160D01*
X525859Y-132941D01*
X528952Y-135008D01*
X531679Y-135550D01*
X531679Y-135550D01*
X532600Y-135733D01*
X533521Y-135550D01*
X639629Y-135550D01*
X640550Y-135733D01*
X641471Y-135550D01*
X644198Y-135008D01*
X647291Y-132941D01*
X647813Y-132160D01*
X663473Y-116500D01*
X686923Y-116500D01*
X684183Y-120601D01*
X683069Y-126200D01*
X684183Y-131799D01*
X687354Y-136546D01*
X692101Y-139717D01*
X695935Y-140480D01*
X692101Y-141243D01*
X687354Y-144414D01*
X685000Y-147938D01*
X682646Y-144414D01*
X677899Y-141243D01*
X672300Y-140129D01*
X666701Y-141243D01*
X661954Y-144414D01*
X659600Y-147938D01*
X657246Y-144414D01*
X652499Y-141243D01*
X646900Y-140129D01*
X641301Y-141243D01*
X636554Y-144414D01*
X634200Y-147938D01*
X631846Y-144414D01*
X627099Y-141243D01*
X621500Y-140129D01*
X615901Y-141243D01*
X611154Y-144414D01*
X608800Y-147938D01*
X606446Y-144414D01*
X601699Y-141243D01*
X596100Y-140129D01*
X590501Y-141243D01*
X585754Y-144414D01*
X583400Y-147938D01*
X581046Y-144414D01*
X576299Y-141243D01*
X570700Y-140129D01*
X565101Y-141243D01*
X560354Y-144414D01*
X557975Y-147975D01*
X554549Y-143715D01*
X549618Y-141016D01*
X548790Y-140841D01*
X546570Y-142061D01*
X546570Y-160490D01*
X546770Y-160490D01*
X546770Y-163030D01*
X546570Y-163030D01*
X546570Y-163230D01*
X544030Y-163230D01*
X544030Y-163030D01*
X543830Y-163030D01*
X543830Y-160490D01*
X544030Y-160490D01*
X544030Y-142061D01*
X541810Y-140841D01*
X540982Y-141016D01*
X536051Y-143715D01*
X532625Y-147975D01*
X530246Y-144414D01*
X525499Y-141243D01*
X519900Y-140129D01*
X514301Y-141243D01*
X509554Y-144414D01*
X506383Y-149161D01*
X505550Y-153347D01*
X505550Y-170173D01*
X506354Y-174217D01*
X504850Y-172713D01*
X504850Y-101819D01*
X505053Y-100800D01*
X504850Y-99781D01*
X504850Y-99781D01*
X504249Y-96762D01*
X501962Y-93338D01*
X501098Y-92761D01*
X487299Y-78962D01*
X486722Y-78098D01*
X483298Y-75810D01*
X480279Y-75210D01*
X480279Y-75210D01*
X479260Y-75007D01*
X478241Y-75210D01*
X349664Y-75210D01*
X348557Y-73804D01*
X348442Y-73600D01*
X347928Y-73004D01*
X347442Y-72387D01*
X347263Y-72234D01*
X343050Y-67352D01*
X346399Y-62339D01*
X347591Y-56350D01*
X346399Y-50361D01*
X343007Y-45283D01*
X337929Y-41891D01*
X333452Y-41000D01*
X330750Y-41000D01*
X329628Y-40251D01*
X326609Y-39650D01*
X326609Y-39650D01*
X325590Y-39447D01*
X324571Y-39650D01*
X288544Y-39650D01*
X286729Y-37835D01*
X281454Y-35650D01*
X275746Y-35650D01*
X270471Y-37835D01*
X266435Y-41871D01*
X264250Y-47146D01*
X264250Y-49713D01*
X264002Y-49961D01*
X264002Y-49961D01*
X233522Y-80441D01*
X232658Y-81018D01*
X232081Y-81882D01*
X230370Y-84442D01*
X229567Y-88480D01*
X229770Y-89499D01*
X229770Y-100133D01*
X215092Y-114810D01*
X209501Y-115923D01*
X204754Y-119094D01*
X202400Y-122618D01*
X200046Y-119094D01*
X195299Y-115923D01*
X189700Y-114809D01*
X184101Y-115923D01*
X179354Y-119094D01*
X177000Y-122618D01*
X174646Y-119094D01*
X169899Y-115923D01*
X164300Y-114809D01*
X158701Y-115923D01*
X153954Y-119094D01*
X151600Y-122618D01*
X149246Y-119094D01*
X144499Y-115923D01*
X138900Y-114809D01*
X133301Y-115923D01*
X128554Y-119094D01*
X126200Y-122618D01*
X123846Y-119094D01*
X119099Y-115923D01*
X113500Y-114809D01*
X112519Y-115004D01*
X130073Y-97450D01*
X189585Y-97450D01*
X190973Y-99527D01*
X196216Y-103030D01*
X200839Y-103950D01*
X203961Y-103950D01*
X208584Y-103030D01*
X213827Y-99527D01*
X217330Y-94284D01*
X218560Y-88100D01*
X217330Y-81916D01*
X214694Y-77970D01*
X216478Y-76778D01*
X217882Y-74678D01*
X218374Y-72200D01*
X218374Y-53200D01*
X217882Y-50722D01*
X216478Y-48622D01*
X214378Y-47218D01*
X211900Y-46726D01*
X192900Y-46726D01*
X190422Y-47218D01*
X188322Y-48622D01*
X186918Y-50722D01*
X186426Y-53200D01*
X186426Y-53350D01*
X114421Y-53350D01*
X113500Y-53167D01*
X112579Y-53350D01*
X109852Y-53892D01*
X106759Y-55959D01*
X106237Y-56740D01*
X71527Y-91450D01*
X50921Y-91450D01*
X50000Y-91267D01*
X49079Y-91450D01*
X49079Y-91450D01*
X46352Y-91992D01*
X43259Y-94059D01*
X42737Y-94840D01*
X31340Y-106237D01*
X30559Y-106759D01*
X28656Y-109608D01*
X28492Y-109852D01*
X27767Y-113500D01*
X27950Y-114421D01*
X27950Y-118429D01*
X26954Y-119094D01*
X23783Y-123841D01*
X22950Y-128027D01*
X22950Y-154853D01*
X470Y-154853D01*
X470Y-44759D01*
X23650Y-44759D01*
X23650Y-55241D01*
X27662Y-64926D01*
X35074Y-72338D01*
X44759Y-76350D01*
X55241Y-76350D01*
X64926Y-72338D01*
X72338Y-64926D01*
X76350Y-55241D01*
X76350Y-44759D01*
X72338Y-35074D01*
X69400Y-32136D01*
X550214Y-32136D01*
X552813Y-37748D01*
X557361Y-41938D01*
X561894Y-43816D01*
X564350Y-42616D01*
X564350Y-29680D01*
X551408Y-29680D01*
X550214Y-32136D01*
X69400Y-32136D01*
X64926Y-27662D01*
X57738Y-24684D01*
X550214Y-24684D01*
X551408Y-27140D01*
X564350Y-27140D01*
X564350Y-14204D01*
X561894Y-13004D01*
X557361Y-14882D01*
X552813Y-19072D01*
X550214Y-24684D01*
X57738Y-24684D01*
X55241Y-23650D01*
X44759Y-23650D01*
X35074Y-27662D01*
X27662Y-35074D01*
X23650Y-44759D01*
X470Y-44759D01*
X470Y-470D01*
X963130Y-470D01*
G36*
X488540Y-260463D02*
X512638Y-284560D01*
X513159Y-285341D01*
X516252Y-287408D01*
X518979Y-287950D01*
X519900Y-288133D01*
X520821Y-287950D01*
X731927Y-287950D01*
X739150Y-295173D01*
X739150Y-296149D01*
X738154Y-296814D01*
X735800Y-300338D01*
X733446Y-296814D01*
X728699Y-293643D01*
X723100Y-292529D01*
X717501Y-293643D01*
X712754Y-296814D01*
X710400Y-300338D01*
X708046Y-296814D01*
X703299Y-293643D01*
X697700Y-292529D01*
X692101Y-293643D01*
X687354Y-296814D01*
X685000Y-300338D01*
X682646Y-296814D01*
X677899Y-293643D01*
X672300Y-292529D01*
X666701Y-293643D01*
X661954Y-296814D01*
X659600Y-300338D01*
X657246Y-296814D01*
X652499Y-293643D01*
X646900Y-292529D01*
X641301Y-293643D01*
X636554Y-296814D01*
X634200Y-300338D01*
X631846Y-296814D01*
X627099Y-293643D01*
X621500Y-292529D01*
X615901Y-293643D01*
X611154Y-296814D01*
X608775Y-300375D01*
X605349Y-296115D01*
X600418Y-293416D01*
X599590Y-293241D01*
X597370Y-294461D01*
X597370Y-312890D01*
X597570Y-312890D01*
X597570Y-315430D01*
X597370Y-315430D01*
X597370Y-333859D01*
X597853Y-334124D01*
X583566Y-348411D01*
X583811Y-347180D01*
X582619Y-341191D01*
X579227Y-336113D01*
X576688Y-334417D01*
X581046Y-331506D01*
X583425Y-327945D01*
X586851Y-332205D01*
X591782Y-334904D01*
X592610Y-335079D01*
X594830Y-333859D01*
X594830Y-315430D01*
X594630Y-315430D01*
X594630Y-312890D01*
X594830Y-312890D01*
X594830Y-294461D01*
X592610Y-293241D01*
X591782Y-293416D01*
X586851Y-296115D01*
X583425Y-300375D01*
X581046Y-296814D01*
X576299Y-293643D01*
X570700Y-292529D01*
X565101Y-293643D01*
X560354Y-296814D01*
X558000Y-300338D01*
X555646Y-296814D01*
X550899Y-293643D01*
X545300Y-292529D01*
X539701Y-293643D01*
X534954Y-296814D01*
X534148Y-298021D01*
X533882Y-296682D01*
X532478Y-294582D01*
X530378Y-293178D01*
X527900Y-292686D01*
X511900Y-292686D01*
X509422Y-293178D01*
X507322Y-294582D01*
X505918Y-296682D01*
X505426Y-299160D01*
X505426Y-329160D01*
X505918Y-331638D01*
X507322Y-333738D01*
X509422Y-335142D01*
X511900Y-335634D01*
X527900Y-335634D01*
X530378Y-335142D01*
X532478Y-333738D01*
X533882Y-331638D01*
X534148Y-330299D01*
X534954Y-331506D01*
X539701Y-334677D01*
X545300Y-335791D01*
X550899Y-334677D01*
X555646Y-331506D01*
X558000Y-327982D01*
X560354Y-331506D01*
X562172Y-332720D01*
X557093Y-336113D01*
X553700Y-341191D01*
X552509Y-347180D01*
X552912Y-349205D01*
X543967Y-358150D01*
X503091Y-358150D01*
X506419Y-353169D01*
X507611Y-347180D01*
X506419Y-341191D01*
X503027Y-336113D01*
X501315Y-334969D01*
X500768Y-332218D01*
X499222Y-329906D01*
X498701Y-329125D01*
X497920Y-328604D01*
X480056Y-310740D01*
X479535Y-309959D01*
X476442Y-307892D01*
X473715Y-307350D01*
X472794Y-307167D01*
X471873Y-307350D01*
X465174Y-307350D01*
X465174Y-307175D01*
X464682Y-304697D01*
X463278Y-302597D01*
X461178Y-301193D01*
X458700Y-300701D01*
X428700Y-300701D01*
X426222Y-301193D01*
X424122Y-302597D01*
X422718Y-304697D01*
X422226Y-307175D01*
X422226Y-307350D01*
X416681Y-307350D01*
X415760Y-307167D01*
X414839Y-307350D01*
X412112Y-307892D01*
X409019Y-309959D01*
X408498Y-310740D01*
X404026Y-315211D01*
X404741Y-311620D01*
X403549Y-305631D01*
X400157Y-300553D01*
X398440Y-299406D01*
X398440Y-296711D01*
X398623Y-295790D01*
X397898Y-292142D01*
X396352Y-289830D01*
X395831Y-289049D01*
X395050Y-288527D01*
X390080Y-283557D01*
X390546Y-283246D01*
X392900Y-279722D01*
X395254Y-283246D01*
X400001Y-286417D01*
X405600Y-287531D01*
X411199Y-286417D01*
X415946Y-283246D01*
X418300Y-279722D01*
X420654Y-283246D01*
X425401Y-286417D01*
X431000Y-287531D01*
X436599Y-286417D01*
X441346Y-283246D01*
X443725Y-279685D01*
X447151Y-283945D01*
X452082Y-286644D01*
X452910Y-286819D01*
X455130Y-285599D01*
X455130Y-267170D01*
X457670Y-267170D01*
X457670Y-285599D01*
X459890Y-286819D01*
X460718Y-286644D01*
X465649Y-283945D01*
X469172Y-279565D01*
X470750Y-274170D01*
X470750Y-267170D01*
X457670Y-267170D01*
X455130Y-267170D01*
X454930Y-267170D01*
X454930Y-264630D01*
X455130Y-264630D01*
X455130Y-264430D01*
X457670Y-264430D01*
X457670Y-264630D01*
X470750Y-264630D01*
X470750Y-257630D01*
X469172Y-252235D01*
X467253Y-249850D01*
X477927Y-249850D01*
X488540Y-260463D01*
G37*
G54D27*
X488540Y-260463D02*
X477927Y-249850D01*
X467253Y-249850D01*
X469172Y-252235D01*
X470750Y-257630D01*
X470750Y-264630D01*
X457670Y-264630D01*
X457670Y-264430D01*
X455130Y-264430D01*
X455130Y-264630D01*
X454930Y-264630D01*
X454930Y-267170D01*
X455130Y-267170D01*
X457670Y-267170D01*
X470750Y-267170D01*
X470750Y-274170D01*
X469172Y-279565D01*
X465649Y-283945D01*
X460718Y-286644D01*
X459890Y-286819D01*
X457670Y-285599D01*
X457670Y-267170D01*
X455130Y-267170D01*
X455130Y-285599D01*
X452910Y-286819D01*
X452082Y-286644D01*
X447151Y-283945D01*
X443725Y-279685D01*
X441346Y-283246D01*
X436599Y-286417D01*
X431000Y-287531D01*
X425401Y-286417D01*
X420654Y-283246D01*
X418300Y-279722D01*
X415946Y-283246D01*
X411199Y-286417D01*
X405600Y-287531D01*
X400001Y-286417D01*
X395254Y-283246D01*
X392900Y-279722D01*
X390546Y-283246D01*
X390080Y-283557D01*
X395050Y-288527D01*
X395831Y-289049D01*
X396352Y-289830D01*
X397898Y-292142D01*
X398623Y-295790D01*
X398440Y-296711D01*
X398440Y-299406D01*
X400157Y-300553D01*
X403549Y-305631D01*
X404741Y-311620D01*
X404026Y-315211D01*
X408498Y-310740D01*
X409019Y-309959D01*
X412112Y-307892D01*
X414839Y-307350D01*
X414839Y-307350D01*
X415760Y-307167D01*
X416681Y-307350D01*
X422226Y-307350D01*
X422226Y-307175D01*
X422718Y-304697D01*
X424122Y-302597D01*
X426222Y-301193D01*
X428700Y-300701D01*
X458700Y-300701D01*
X461178Y-301193D01*
X463278Y-302597D01*
X464682Y-304697D01*
X465174Y-307175D01*
X465174Y-307350D01*
X471873Y-307350D01*
X472794Y-307167D01*
X473715Y-307350D01*
X476442Y-307892D01*
X479535Y-309959D01*
X480056Y-310740D01*
X497920Y-328604D01*
X498701Y-329125D01*
X499222Y-329906D01*
X500768Y-332218D01*
X501315Y-334969D01*
X503027Y-336113D01*
X506419Y-341191D01*
X507611Y-347180D01*
X506419Y-353169D01*
X503091Y-358150D01*
X543967Y-358150D01*
X552912Y-349205D01*
X552509Y-347180D01*
X553700Y-341191D01*
X557093Y-336113D01*
X562171Y-332721D01*
X562172Y-332720D01*
X560354Y-331506D01*
X558000Y-327982D01*
X555646Y-331506D01*
X550899Y-334677D01*
X545300Y-335791D01*
X539701Y-334677D01*
X534954Y-331506D01*
X534148Y-330299D01*
X533882Y-331638D01*
X532478Y-333738D01*
X530378Y-335142D01*
X527900Y-335634D01*
X511900Y-335634D01*
X509422Y-335142D01*
X507322Y-333738D01*
X505918Y-331638D01*
X505426Y-329160D01*
X505426Y-299160D01*
X505918Y-296682D01*
X507322Y-294582D01*
X509422Y-293178D01*
X511900Y-292686D01*
X527900Y-292686D01*
X530378Y-293178D01*
X532478Y-294582D01*
X533882Y-296682D01*
X534148Y-298021D01*
X534954Y-296814D01*
X539701Y-293643D01*
X545300Y-292529D01*
X550899Y-293643D01*
X555646Y-296814D01*
X558000Y-300338D01*
X560354Y-296814D01*
X565101Y-293643D01*
X570700Y-292529D01*
X576299Y-293643D01*
X581046Y-296814D01*
X583425Y-300375D01*
X586851Y-296115D01*
X591782Y-293416D01*
X592610Y-293241D01*
X594830Y-294461D01*
X594830Y-312890D01*
X594630Y-312890D01*
X594630Y-315430D01*
X594830Y-315430D01*
X594830Y-333859D01*
X592610Y-335079D01*
X591782Y-334904D01*
X586851Y-332205D01*
X583425Y-327945D01*
X581046Y-331506D01*
X576688Y-334417D01*
X579227Y-336113D01*
X582619Y-341191D01*
X583811Y-347180D01*
X583566Y-348411D01*
X597853Y-334124D01*
X597370Y-333859D01*
X597370Y-315430D01*
X597570Y-315430D01*
X597570Y-312890D01*
X597370Y-312890D01*
X597370Y-294461D01*
X599590Y-293241D01*
X600418Y-293416D01*
X605349Y-296115D01*
X608775Y-300375D01*
X611154Y-296814D01*
X615901Y-293643D01*
X621500Y-292529D01*
X627099Y-293643D01*
X631846Y-296814D01*
X634200Y-300338D01*
X636554Y-296814D01*
X641301Y-293643D01*
X646900Y-292529D01*
X652499Y-293643D01*
X657246Y-296814D01*
X659600Y-300338D01*
X661954Y-296814D01*
X666701Y-293643D01*
X672300Y-292529D01*
X677899Y-293643D01*
X682646Y-296814D01*
X685000Y-300338D01*
X687354Y-296814D01*
X692101Y-293643D01*
X697700Y-292529D01*
X703299Y-293643D01*
X708046Y-296814D01*
X710400Y-300338D01*
X712754Y-296814D01*
X717501Y-293643D01*
X723100Y-292529D01*
X728699Y-293643D01*
X733446Y-296814D01*
X735800Y-300338D01*
X738154Y-296814D01*
X739150Y-296149D01*
X739150Y-295173D01*
X731927Y-287950D01*
X520821Y-287950D01*
X519900Y-288133D01*
X518979Y-287950D01*
X518979Y-287950D01*
X516252Y-287408D01*
X513159Y-285341D01*
X512638Y-284560D01*
X488540Y-260463D01*
X488540Y-260463D01*
M02*
