M48
;DRILL file {KiCad (5.0.0)} date 10/16/18 18:35:57
;FORMAT={-:-/ absolute / inch / decimal}
FMAT,2
INCH,TZ
T1C0.0315
T2C0.0394
T3C0.0433
T4C0.1102
%
G90
G05
M72
T1
X7.05Y-1.5
X7.05Y-1.8
X5.35Y-1.52
X5.35Y-1.82
X5.84Y-2.67
X6.14Y-2.67
X5.21Y-1.525
X5.21Y-1.825
X6.85Y-1.5
X6.85Y-1.8
X4.9Y-1.8
X4.9Y-2.1
X7.3Y-1.8
X7.6Y-1.8
X4.05Y-1.86
X4.05Y-2.56
X4.15Y-1.86
X4.15Y-2.56
X4.25Y-1.86
X4.25Y-2.56
X4.35Y-1.86
X4.35Y-2.56
X4.45Y-1.86
X4.45Y-2.56
X4.55Y-1.86
X4.55Y-2.56
X4.65Y-1.86
X4.65Y-2.56
X4.75Y-1.86
X4.75Y-2.56
X5.1Y-2.05
X5.1Y-2.35
X5.2Y-2.05
X5.2Y-2.35
X5.3Y-2.05
X5.3Y-2.35
X5.4Y-2.05
X5.4Y-2.35
X5.5Y-2.05
X5.5Y-2.35
X5.6Y-2.05
X5.6Y-2.35
X5.7Y-2.05
X5.7Y-2.35
X6.75Y-1.5
X6.75Y-1.8
X7.15Y-1.5
X7.15Y-1.8
X5.95Y-1.945
X5.95Y-2.545
X6.05Y-1.945
X6.05Y-2.545
X6.15Y-1.945
X6.15Y-2.545
X6.25Y-1.945
X6.25Y-2.545
X6.35Y-1.945
X6.35Y-2.545
X6.45Y-1.945
X6.45Y-2.545
X6.55Y-1.945
X6.55Y-2.545
X6.65Y-1.945
X6.65Y-2.545
X6.75Y-1.945
X6.75Y-2.545
X6.85Y-1.945
X6.85Y-2.545
X6.95Y-1.945
X6.95Y-2.545
X7.05Y-1.945
X7.05Y-2.545
X7.15Y-1.945
X7.15Y-2.545
X7.25Y-1.945
X7.25Y-2.545
X7.35Y-1.945
X7.35Y-2.545
X6.65Y-1.5
X6.65Y-1.8
X4.9Y-2.3
X4.9Y-2.6
X5.Y-1.5
X5.Y-1.6969
X5.2Y-2.5
X5.5Y-2.5
X5.215Y-2.66
X5.515Y-2.66
X6.95Y-1.5
X6.95Y-1.8
T2
X4.7Y-1.55
X4.7Y-1.65
X6.25Y-1.6
X6.35Y-1.6
X4.5Y-2.9
X4.6Y-2.9
X6.7Y-2.855
X6.8Y-2.855
X6.9Y-2.855
X7.Y-2.855
X7.1Y-2.855
X7.2Y-2.855
X7.3Y-2.855
X7.4Y-2.855
X6.25Y-1.7
X6.35Y-1.7
X6.25Y-1.5
X6.35Y-1.5
T3
X4.65Y-2.75
X5.05Y-2.75
X5.65Y-2.55
X5.65Y-2.65
X5.65Y-2.75
T4
X7.5Y-1.495
X6.45Y-2.9
X4.1Y-1.5
X4.1Y-2.9
T0
M30
